<svg id="svg" version="1.1" xmlns="http://www.w3.org/2000/svg" style="display: block;" viewBox="0 0 504 504"><path d="M0 0 C166.32 0 332.64 0 504 0 C504 166.32 504 332.64 504 504 C337.68 504 171.36 504 0 504 C0 337.68 0 171.36 0 0 Z " transform="translate(0,0)" style="fill: #941100;"/><path d="M0 0 C0.80131348 -0.00547852 1.60262695 -0.01095703 2.42822266 -0.01660156 C12.80856652 0.11044211 20.4826262 3.12585639 28.15625 10.1796875 C32.44196266 14.68648851 35.62230408 19.60278691 38.75 24.9375 C46.85529779 38.71616894 58.89308271 48.65893561 74.125 54.3125 C77.48673212 55.13338808 80.83332955 55.84588287 84.2421875 56.44140625 C87.61418404 57.46031577 89.01855883 58.50723949 91.125 61.3125 C92.81792521 68.29581649 90.45083601 76.14327949 87.125 82.3125 C85.546875 84.19140625 85.546875 84.19140625 83.125 85.3125 C75.14497869 85.35173314 68.82696063 82.31858272 61.6875 79 C46.45465925 72.05926689 35.41771587 67.03854745 18.3125 70.3125 C4.118639 72.95946327 -7.97580459 71.85044836 -20.875 65.3125 C-22.63103424 74.09267122 -22.60969257 80.62511421 -17.875 88.3125 C-14.35872921 92.34978076 -10.51390934 96.01633066 -6.625 99.6875 C2.94023172 108.77644203 11.34828868 118.1014231 17.4375 129.9375 C17.77015869 130.57357178 18.10281738 131.20964355 18.44555664 131.86499023 C26.08800743 146.77639571 28.24108877 166.16115824 23.2890625 182.359375 C16.09157405 200.61877523 5.78002253 215.51223507 -12.5 224.1875 C-20.34455668 227.44948112 -27.32305703 229.78760794 -35.875 229.3125 C-37.66876365 238.96121256 -37.94247544 248.26007347 -33.875 257.3125 C-33.23691406 258.7665625 -33.23691406 258.7665625 -32.5859375 260.25 C-25.54414568 275.31265629 -14.14599209 284.24173425 1.17578125 290.33984375 C8.18251774 292.65067472 14.21872765 293.63362612 21.5625 293.5625 C22.35720703 293.57023437 23.15191406 293.57796875 23.97070312 293.5859375 C36.22641515 293.5460491 48.11127841 289.91292868 57.125 281.3125 C59.08859112 278.77577949 60.65418301 276.15885838 62.125 273.3125 C62.558125 272.508125 62.99125 271.70375 63.4375 270.875 C65.14028438 264.52825822 64.70015734 258.95456049 61.4453125 253.21875 C57.31207726 247.25123877 51.99263959 243.31865768 45.84765625 239.57421875 C45.27917969 239.15785156 44.71070313 238.74148438 44.125 238.3125 C44.125 237.6525 44.125 236.9925 44.125 236.3125 C50.53749972 233.34375013 57.84440966 233.14987053 64.65625 235 C66.93106227 235.96118828 69.0016029 237.05259155 71.125 238.3125 C71.87394531 238.73660156 72.62289062 239.16070312 73.39453125 239.59765625 C84.44113734 246.3535874 90.81290359 256.0286451 94.7578125 268.27734375 C97.10698327 281.29774768 94.11451317 293.04099595 87.3671875 304.2265625 C76.13598914 319.40512765 57.88861895 326.80904731 40.125 331.3125 C39.00609375 331.6115625 37.8871875 331.910625 36.734375 332.21875 C26.57828023 334.47565995 16.42235536 334.63181622 6.0625 334.6875 C5.3465567 334.69535522 4.6306134 334.70321045 3.89297485 334.71130371 C-28.06912586 334.98373005 -61.21717281 323.83753644 -85.875 303.3125 C-87.30972656 302.12333984 -87.30972656 302.12333984 -88.7734375 300.91015625 C-104.01417486 287.69455797 -114.73944284 269.1657481 -116.2890625 248.80859375 C-117.10063682 231.08646068 -111.52904158 215.55661822 -104.03564453 199.76660156 C-102.30673383 196.110941 -100.62252784 192.43525503 -98.94213867 188.75708008 C-98.09234592 186.89761699 -97.2374114 185.04049107 -96.3762207 183.1862793 C-86.35835444 161.39391706 -84.89137501 141.53682228 -93.00634766 118.78271484 C-94.50725789 114.51452774 -95.83387196 110.1916157 -97.1875 105.875 C-97.44160645 105.08770508 -97.69571289 104.30041016 -97.95751953 103.48925781 C-103.60628933 85.90933387 -101.56176879 68.77840122 -93.6875 52.1875 C-81.65585541 29.43535157 -65.22086195 13.00256862 -40.4375 5.125 C-27.26511322 1.63088186 -13.61206589 0.06656267 0 0 Z " transform="translate(261.875,78.6875)" style="fill: #FEFDFD;"/><path d="M0 0 C166.32 0 332.64 0 504 0 C504 166.32 504 332.64 504 504 C337.68 504 171.36 504 0 504 C0 337.68 0 171.36 0 0 Z M2 2 C2 167 2 332 2 502 C167 502 332 502 502 502 C502 337 502 172 502 2 C337 2 172 2 2 2 Z " transform="translate(0,0)" style="fill: #000000;"/><path d="M0 0 C3.0603333 1.7655769 5.50587755 3.50587755 8 6 C8.4375 8.3125 8.4375 8.3125 8 11 C5.43879574 14.04575642 3.79480342 15.73506553 0 17 C-5.00401435 17.37066773 -7.98301324 17.09881835 -12 14 C-14.18038095 10.72942857 -14.63246755 9.79480531 -14 6 C-9.80380114 1.00992568 -6.51322209 -0.63855119 0 0 Z " transform="translate(271,99)" style="fill: #981B0B;"/></svg>