<?xml version="1.0" encoding="UTF-8" standalone="no"?>
<svg
   id="svg"
   version="1.1"
   style="display: block;"
   viewBox="0 0 504 506"
   sodipodi:docname="documenti-fotocamera.svg"
   inkscape:version="1.2.2 (b0a8486, 2022-12-01)"
   xmlns:inkscape="http://www.inkscape.org/namespaces/inkscape"
   xmlns:sodipodi="http://sodipodi.sourceforge.net/DTD/sodipodi-0.dtd"
   xmlns="http://www.w3.org/2000/svg"
   xmlns:svg="http://www.w3.org/2000/svg">
  <defs
     id="defs279" />
  <sodipodi:namedview
     id="namedview277"
     pagecolor="#ffffff"
     bordercolor="#000000"
     borderopacity="0.25"
     inkscape:showpageshadow="2"
     inkscape:pageopacity="0.0"
     inkscape:pagecheckerboard="0"
     inkscape:deskcolor="#d1d1d1"
     showgrid="false"
     inkscape:zoom="0.46640316"
     inkscape:cx="45.025424"
     inkscape:cy="253"
     inkscape:window-width="1427"
     inkscape:window-height="456"
     inkscape:window-x="0"
     inkscape:window-y="25"
     inkscape:window-maximized="0"
     inkscape:current-layer="svg" />
  <path
     d="M0 0 C36.23386484 35.22766594 58.3451372 86.49394797 59.48046875 136.96875 C59.6742105 155.77553889 58.54643184 173.88120245 54.27734375 192.23828125 C50.56226257 188.71976522 47.59549643 185.03324859 44.71484375 180.80078125 C31.36994889 161.78486867 14.73001137 144.09437028 -4.08398438 130.43261719 C-5.72585887 129.23594704 -7.34182413 128.00969418 -8.95703125 126.77734375 C-55.32098489 91.94257822 -110.33619958 82.21423127 -166.72265625 77.23828125 C-163.74334875 70.93288619 -158.49173189 66.23746748 -153.72265625 61.23828125 C-153.12582031 60.60744629 -152.52898437 59.97661133 -151.9140625 59.32666016 C-142.2650489 49.18366119 -132.14213758 40.33458975 -120.72265625 32.23828125 C-120.09004883 31.78759277 -119.45744141 31.3369043 -118.80566406 30.87255859 C-90.74022828 11.06730762 -59.3059393 -1.07760145 -25.72265625 -7.76171875 C-25.00948242 -7.90512695 -24.29630859 -8.04853516 -23.56152344 -8.19628906 C-11.87063323 -10.48351127 -8.57231822 -8.09344638 0 0 Z "
     transform="translate(398.72265625,107.76171875)"
     style="fill: #909090;"
     id="path264" />
  <path
     d="M0 0 C32.23361294 2.61776008 66.35387367 22.82925722 91 43 C92.00804687 43.804375 93.01609375 44.60875 94.0546875 45.4375 C108.65703856 57.27198034 121.96510969 70.78035979 133 86 C133.44311523 86.60360352 133.88623047 87.20720703 134.34277344 87.82910156 C137.28795524 91.84640521 140.15618518 95.91042069 143 100 C143.58394531 100.79535156 144.16789063 101.59070313 144.76953125 102.41015625 C146.97625412 105.56522284 148.04212538 107.38845572 147.7734375 111.2890625 C145.23361828 123.47506381 138.77802327 135.05845931 133 146 C132.68836914 146.5966748 132.37673828 147.19334961 132.05566406 147.80810547 C125.09189182 161.01716551 116.16988624 172.93318905 106 183.84765625 C104.15918281 185.82869194 102.42275357 187.86437254 100.6875 189.9375 C80.28827111 213.17771739 51.98547992 229.39510382 23.4375 240.4375 C22.80682617 240.68483887 22.17615234 240.93217773 21.52636719 241.18701172 C16.99133268 242.87052612 12.77993192 243.54049273 8 244 C8.26627197 243.38817871 8.53254395 242.77635742 8.80688477 242.14599609 C33.81126379 184.34590152 39.58103491 127.12721378 24 66 C23.81244141 65.23204102 23.62488281 64.46408203 23.43164062 63.67285156 C20.30547389 50.97055339 15.03266208 39.06467008 9.9609375 27.046875 C7.47870567 21.16482405 5.06715915 15.26144386 2.75 9.3125 C2.4627002 8.58297119 2.17540039 7.85344238 1.87939453 7.10180664 C0 2.24839242 0 2.24839242 0 0 Z "
     transform="translate(300,206)"
     style="fill: #909090;"
     id="path266" />
  <path
     d="M0 0 C3.65023048 3.55175304 6.99522272 7.26876924 10.25 11.1875 C21.19940881 24.22901152 32.49924903 36.5421644 46 47 C46.53689453 47.41862305 47.07378906 47.83724609 47.62695312 48.26855469 C92.83211509 83.27530755 143.14723969 94.63306304 198.73681641 100.75085449 C202.49154823 101.16419903 206.24572304 101.58254682 210 102 C208.70962832 105.73573311 207.26806556 108.10840663 204.47265625 110.890625 C203.76850586 111.59566162 203.06435547 112.30069824 202.33886719 113.02709961 C201.58766602 113.76065674 200.83646484 114.49421387 200.0625 115.25 C199.29196289 116.00998291 198.52142578 116.76996582 197.72753906 117.55297852 C192.06901223 123.08064155 186.28157582 128.18660315 180 133 C179.04609375 133.77085937 178.0921875 134.54171875 177.109375 135.3359375 C143.92604539 161.76587591 102.38859624 179.28252724 60.046875 183.3828125 C52.32484203 182.41260836 46.32425476 172.38185983 41.625 166.5 C17.41326573 135.29328731 -0.17173065 97.8617524 -3 58 C-3.06558105 57.08734375 -3.13116211 56.1746875 -3.19873047 55.234375 C-4.40952176 36.93023044 -4.97010193 17.82526008 0 0 Z "
     transform="translate(51,216)"
     style="fill: #909090;"
     id="path268" />
  <path
     d="M0 0 C0.99 0.495 0.99 0.495 2 1 C2.74609375 3.35400391 2.74609375 3.35400391 3.4375 6.4765625 C3.69184814 7.61512695 3.94619629 8.75369141 4.20825195 9.92675781 C4.46952881 11.14717773 4.73080566 12.36759766 5 13.625 C5.40255005 15.47883301 5.40255005 15.47883301 5.81323242 17.37011719 C7.6298761 25.89070789 9.21422308 34.31563428 10 43 C10.10957031 44.21042969 10.21914063 45.42085938 10.33203125 46.66796875 C13.79878083 91.27347997 4.92392579 137.77027027 -17 177 C-17.59748047 178.15048828 -17.59748047 178.15048828 -18.20703125 179.32421875 C-21.11194026 182.03926442 -24.57260633 182.25288543 -28.375 182.75 C-29.7194519 182.92994507 -29.7194519 182.92994507 -31.09106445 183.11352539 C-62.79023976 186.76363912 -94.70798545 184.05712661 -125 174 C-125.72364746 173.76023437 -126.44729492 173.52046875 -127.19287109 173.2734375 C-137.58195301 169.75646394 -147.33691909 165.1667902 -157 160 C-157.60585937 159.67773438 -158.21171875 159.35546875 -158.8359375 159.0234375 C-170.26317222 152.88566514 -181.32044645 145.67369633 -191 137 C-191 136.34 -191 135.68 -191 135 C-190.32348389 134.86537354 -189.64696777 134.73074707 -188.94995117 134.59204102 C-161.6896046 129.07678319 -136.68957753 120.86965616 -112 108 C-111.28537598 107.6302002 -110.57075195 107.26040039 -109.83447266 106.87939453 C-80.89402576 91.70953634 -53.94596648 67.79967403 -34 42 C-33.15718873 40.92374339 -32.31338932 39.84826006 -31.46875 38.7734375 C-30.10128432 37.0331622 -28.73435694 35.29250457 -27.37060547 33.54931641 C-21.6799307 26.28567369 -15.83737475 19.14581649 -10 12 C-9.07021873 10.85945143 -8.1405257 9.71883093 -7.2109375 8.578125 C-1.14524648 1.14524648 -1.14524648 1.14524648 0 0 Z "
     transform="translate(312,274)"
     style="fill: #909090;"
     id="path270" />
  <path
     d="M0 0 C0.92039062 0.18804199 1.84078125 0.37608398 2.7890625 0.56982422 C28.44704054 5.94517062 52.56679754 16.05683772 74.5 30.375 C75.46317139 31.00051758 75.46317139 31.00051758 76.44580078 31.63867188 C80.87701861 34.63105582 80.87701861 34.63105582 82 38 C81.00709961 38.20979492 81.00709961 38.20979492 79.99414062 38.42382812 C57.10399336 43.32323336 35.07552317 49.6943477 14 60 C13.29858887 60.34111816 12.59717773 60.68223633 11.87451172 61.03369141 C-8.36947341 71.00474809 -26.91010728 84.10443819 -43.34765625 99.53515625 C-45.45711064 101.49548868 -47.58945942 103.36054683 -49.8125 105.1875 C-53.63645085 108.43511376 -56.76767834 112.17610248 -60 116 C-60.91796607 117.05712401 -61.83734634 118.11302092 -62.7578125 119.16796875 C-69.02332069 126.37157349 -74.97530802 133.73982223 -80.73925781 141.34814453 C-82.94225928 144.23457132 -85.19017999 147.08552879 -87.4375 149.9375 C-88.1186084 150.80193726 -88.1186084 150.80193726 -88.81347656 151.68383789 C-89.73788597 152.85698856 -90.66236562 154.03008389 -91.58691406 155.203125 C-93.03851649 157.04897744 -94.48474166 158.89893317 -95.9296875 160.75 C-100.50374584 166.60427245 -105.08708171 172.42317383 -110 178 C-123.95223867 164.04776133 -122.92956857 124.00874371 -123.05859375 105.25 C-122.97675686 77.67096905 -117.87057606 50.92606261 -108.97900391 24.87304688 C-108.35675943 23.04696881 -107.75037811 21.21534886 -107.16552734 19.37695312 C-103.37934794 7.59350825 -103.37934794 7.59350825 -98.4453125 4.2890625 C-95.68375519 3.33506997 -93.0557389 2.72869784 -90.16552734 2.31982422 C-87.6182608 1.94362138 -85.10702198 1.44570459 -82.58203125 0.94140625 C-77.06898417 -0.13724345 -71.55145371 -1.1390851 -66 -2 C-65.31776367 -2.10747559 -64.63552734 -2.21495117 -63.93261719 -2.32568359 C-43.3888933 -5.08299786 -20.22252912 -4.31146211 0 0 Z "
     transform="translate(292,51)"
     style="fill: #909090;"
     id="path272" />
  <path
     d="M0 0 C-1.3950754 4.72775553 -2.80728056 9.44236279 -4.359375 14.12109375 C-17.12781206 52.87449374 -21.5639251 94.67147417 -14 135 C-13.75056641 136.38469482 -13.75056641 136.38469482 -13.49609375 137.79736328 C-7.76835939 168.89153601 4.70985114 197.78140772 18.69848633 225.98266602 C19.35046997 227.30802368 19.35046997 227.30802368 20.015625 228.66015625 C20.40008789 229.42980713 20.78455078 230.19945801 21.18066406 230.99243164 C22 233 22 233 22 236 C-33.24240256 224.11239439 -81.57715601 192.62578882 -115 147 C-115.65484375 146.17628906 -116.3096875 145.35257813 -116.984375 144.50390625 C-117.54640625 143.76011719 -118.1084375 143.01632813 -118.6875 142.25 C-119.40486328 141.32960937 -119.40486328 141.32960937 -120.13671875 140.390625 C-122.6713807 133.37156113 -119.03137726 125.48386491 -116.4375 118.9375 C-115.90286133 117.56549438 -115.90286133 117.56549438 -115.35742188 116.16577148 C-112.0536245 107.84603745 -108.25488634 99.87049173 -104 92 C-103.68063477 91.4013916 -103.36126953 90.8027832 -103.03222656 90.18603516 C-86.59642457 59.57539683 -39.45316812 0 0 0 Z "
     transform="translate(176,63)"
     style="fill: #909090;"
     id="path274" />
</svg>
