<?xml version="1.0" encoding="UTF-8" standalone="no"?>
<svg
   id="svg"
   version="1.1"
   style="display: block;"
   viewBox="0 0 504 506"
   sodipodi:docname="documenti-link.svg"
   inkscape:version="1.2.2 (b0a8486, 2022-12-01)"
   xmlns:inkscape="http://www.inkscape.org/namespaces/inkscape"
   xmlns:sodipodi="http://sodipodi.sourceforge.net/DTD/sodipodi-0.dtd"
   xmlns="http://www.w3.org/2000/svg"
   xmlns:svg="http://www.w3.org/2000/svg">
  <defs
     id="defs143" />
  <sodipodi:namedview
     id="namedview141"
     pagecolor="#ffffff"
     bordercolor="#000000"
     borderopacity="0.25"
     inkscape:showpageshadow="2"
     inkscape:pageopacity="0.0"
     inkscape:pagecheckerboard="0"
     inkscape:deskcolor="#d1d1d1"
     showgrid="false"
     inkscape:zoom="0.46640316"
     inkscape:cx="45.025424"
     inkscape:cy="253"
     inkscape:window-width="1427"
     inkscape:window-height="456"
     inkscape:window-x="0"
     inkscape:window-y="25"
     inkscape:window-maximized="0"
     inkscape:current-layer="svg" />
  <path
     d="M0 0 C1.72791527 -0.00021904 1.72791527 -0.00021904 3.49073792 -0.0004425 C7.28363961 0.00025201 11.07649169 0.00802283 14.86938477 0.01586914 C17.50496901 0.01773496 20.14055359 0.01915809 22.77613831 0.02015686 C28.99495753 0.02325792 35.21375906 0.03145472 41.43257052 0.04150635 C48.51602971 0.05270563 55.59948977 0.05818753 62.68295562 0.06320179 C77.24641116 0.07363841 91.80984757 0.09196859 106.37329102 0.11352539 C106.37329102 14.63352539 106.37329102 29.15352539 106.37329102 44.11352539 C100.03883789 44.16250977 93.70438477 44.21149414 87.17797852 44.26196289 C83.14020312 44.29739135 79.10244769 44.33337537 75.06469727 44.37133789 C68.67035946 44.4314046 62.27604925 44.48952893 55.8815918 44.53540039 C50.72028186 44.57255528 45.55912789 44.61899275 40.39795303 44.6715889 C38.4390451 44.68997376 36.48010395 44.70513888 34.52114487 44.71686935 C11.94678807 44.8567554 -7.46948242 46.78539665 -24.81420898 62.80102539 C-35.98865836 74.56241554 -40.27477879 89.22835246 -40.09960938 105.13720703 C-39.58384507 118.97897924 -33.92942729 133.54354352 -23.62670898 143.11352539 C-8.54806711 155.65489579 6.64239653 159.18219441 25.77026367 159.31884766 C26.64954529 159.32874725 27.5288269 159.33864685 28.43475342 159.34884644 C31.30226066 159.38009501 34.1697844 159.40507175 37.03735352 159.42993164 C39.04088743 159.45053294 41.0444173 159.47153017 43.04794312 159.49290466 C48.29210112 159.54779769 53.53629619 159.59734991 58.78051758 159.64575195 C65.08831284 159.70509692 71.39604114 159.77114254 77.70378113 159.83605194 C87.26024314 159.93364843 96.81675036 160.02278652 106.37329102 160.11352539 C106.37329102 173.97352539 106.37329102 187.83352539 106.37329102 202.11352539 C91.264348 202.181524 76.15547507 202.23666993 61.04641724 202.26896191 C54.02934245 202.28436124 47.01237023 202.30531615 39.99536133 202.33984375 C33.2131657 202.37319973 26.43107627 202.39042017 19.64880371 202.39815712 C17.07188245 202.40366507 14.49496645 202.41441991 11.91809082 202.43071556 C-16.86599474 202.6053653 -42.37951902 198.7633175 -63.87670898 177.85961914 C-64.78420898 176.9534082 -65.69170898 176.04719727 -66.62670898 175.11352539 C-67.74045898 174.01717773 -67.74045898 174.01717773 -68.87670898 172.89868164 C-88.97627517 151.81769132 -92.22664203 122.90288842 -91.67700195 95.12231445 C-90.95330564 66.21661884 -82.4302411 42.00052838 -61.44702148 21.56274414 C-44.1455076 6.53774524 -22.64911617 -0.07552244 0 0 Z "
     transform="translate(117.626708984375,151.886474609375)"
     style="fill: #909090;"
     id="path134" />
  <path
     d="M0 0 C15.10894302 -0.06799861 30.21781595 -0.12314453 45.32687378 -0.15543652 C52.34394857 -0.17083585 59.36092079 -0.19179075 66.37792969 -0.22631836 C73.16012532 -0.25967434 79.94221474 -0.27689478 86.7244873 -0.28463173 C89.30140857 -0.29013968 91.87832457 -0.30089452 94.4552002 -0.31719017 C118.48150997 -0.46297173 141.01129117 1.28104168 161 16 C162.36898437 17.00160156 162.36898437 17.00160156 163.765625 18.0234375 C182.07048022 32.1866914 194.03891714 53.08497759 197.28540039 76.01586914 C198.1309315 83.48679355 198.18612682 90.94851922 198.18530273 98.45678711 C198.18747887 100.66605213 198.20566866 102.87480782 198.22460938 105.08398438 C198.33180274 131.57959691 192.05263678 155.97385799 173.46630859 175.52294922 C154.7721401 194.35407133 131.5299815 202.15255728 105.44335938 202.34057617 C100.57653918 202.35125984 95.7104562 202.32401682 90.84375 202.29296875 C88.2434514 202.28736278 85.6431496 202.28309742 83.04284668 202.28010559 C76.9411212 202.26989246 70.83958612 202.24634408 64.73793173 202.21605712 C57.7800382 202.18228493 50.82213592 202.16597034 43.86418056 202.15097082 C29.57601774 202.11978604 15.2880487 202.06486705 1 202 C1 188.14 1 174.28 1 160 C7.25066406 159.95101562 13.50132812 159.90203125 19.94140625 159.8515625 C23.9290515 159.8161283 27.91667674 159.78014105 31.90429688 159.7421875 C38.21733556 159.68215284 44.53034661 159.62403665 50.84350586 159.578125 C55.93998244 159.54093241 61.03630221 159.49448611 66.13264275 159.44193649 C68.06560419 159.42357122 69.998599 159.40839932 71.93161201 159.39665604 C94.34162253 159.25578949 113.82438754 157.86413978 131.21484375 141.9765625 C141.37830486 131.48147214 146.84500499 117.0631635 147.375 102.5625 C146.8230072 86.73870635 141.08275009 72.37036471 130 61 C115.27858568 48.26978002 99.49069257 44.92961493 80.60302734 44.79467773 C79.72374573 44.78477814 78.84446411 44.77487854 77.9385376 44.76467896 C75.07103035 44.73343038 72.20350662 44.70845365 69.3359375 44.68359375 C67.33240359 44.66299246 65.32887371 44.64199522 63.3253479 44.62062073 C58.0811899 44.5657277 52.83699483 44.51617548 47.59277344 44.46777344 C41.28497818 44.40842847 34.97724987 44.34238285 28.66950989 44.27747345 C19.11304788 44.17987696 9.55654066 44.09073887 0 44 C0 29.48 0 14.96 0 0 Z "
     transform="translate(281,152)"
     style="fill: #909090;"
     id="path136" />
  <path
     d="M0 0 C63.03 0 126.06 0 191 0 C191 15.84 191 31.68 191 48 C166.24434673 48.02254455 141.48870173 48.04097773 116.73304081 48.05181217 C105.23942257 48.05697575 93.74581114 48.06401963 82.25219727 48.07543945 C72.23824813 48.08538439 62.22430392 48.09185297 52.21034998 48.09408849 C46.90454557 48.09539593 41.59875529 48.09848381 36.2929554 48.10573006 C31.30509229 48.11248728 26.31724919 48.11461757 21.32938194 48.11310768 C19.49309811 48.11338414 17.65681365 48.11539102 15.82053375 48.11920547 C13.32479384 48.12413808 10.82913076 48.1229999 8.33338928 48.12025452 C7.59702195 48.12316736 6.86065461 48.1260802 6.10197312 48.12908131 C1.11412121 48.11412121 1.11412121 48.11412121 0 47 C0 31.49 0 15.98 0 0 Z "
     transform="translate(157,230)"
     style="fill: #909090;"
     id="path138" />
</svg>
