<?xml version="1.0" encoding="UTF-8" standalone="no"?>
<svg
   id="svg"
   version="1.1"
   style="display: block;"
   viewBox="0 0 504 506"
   sodipodi:docname="documenti-galleria.svg"
   inkscape:version="1.2.2 (b0a8486, 2022-12-01)"
   xmlns:inkscape="http://www.inkscape.org/namespaces/inkscape"
   xmlns:sodipodi="http://sodipodi.sourceforge.net/DTD/sodipodi-0.dtd"
   xmlns="http://www.w3.org/2000/svg"
   xmlns:svg="http://www.w3.org/2000/svg">
  <defs
     id="defs411" />
  <sodipodi:namedview
     id="namedview409"
     pagecolor="#ffffff"
     bordercolor="#000000"
     borderopacity="0.25"
     inkscape:showpageshadow="2"
     inkscape:pageopacity="0.0"
     inkscape:pagecheckerboard="0"
     inkscape:deskcolor="#d1d1d1"
     showgrid="false"
     inkscape:zoom="0.46640316"
     inkscape:cx="45.025424"
     inkscape:cy="253"
     inkscape:window-width="1427"
     inkscape:window-height="456"
     inkscape:window-x="0"
     inkscape:window-y="25"
     inkscape:window-maximized="0"
     inkscape:current-layer="svg" />
  <path
     d="M0 0 C1.61201392 -0.00302334 3.22402641 -0.00691374 4.83603638 -0.01159257 C9.2505751 -0.02185779 13.66503246 -0.0196945 18.0795778 -0.01541197 C22.84657372 -0.01294206 27.61355018 -0.02196223 32.38053894 -0.02944946 C41.71394905 -0.04219129 51.04733037 -0.04399078 60.38074771 -0.0416492 C67.96862986 -0.03986523 75.55650328 -0.04161737 83.14438438 -0.04587364 C84.22486654 -0.04646883 85.30534871 -0.04706402 86.41857275 -0.04767724 C88.61367717 -0.04888901 90.80878159 -0.05010315 93.00388601 -0.05131962 C113.58461212 -0.06219326 134.16532185 -0.06003355 154.74604889 -0.05393478 C173.56468238 -0.0487663 192.3832641 -0.06001954 211.20188735 -0.07903299 C230.53448727 -0.09841568 249.8670627 -0.1066666 269.1996724 -0.10290974 C280.04956814 -0.10099829 290.89941982 -0.10347983 301.74930763 -0.11762428 C310.98642095 -0.12954455 320.22346309 -0.13093572 329.46057741 -0.11883412 C334.17091765 -0.11294988 338.88112774 -0.11183343 343.59145927 -0.12383652 C347.908848 -0.13471018 352.22599812 -0.13157436 356.54337575 -0.11757483 C358.09983742 -0.11493198 359.65631788 -0.11728143 361.21276108 -0.1253107 C375.11752543 -0.19202597 388.28853969 1.12074799 398.96708679 10.92475891 C407.8907739 20.6961963 409.4566511 31.81832577 409.42201233 44.6003418 C409.42654344 45.83123765 409.43107455 47.06213351 409.43574297 48.33032924 C409.44618287 51.73050217 409.44771803 55.1304629 409.44535422 58.53063667 C409.44494487 62.2042776 409.45599651 65.87788738 409.46546936 69.55151367 C409.48205529 76.74307725 409.48757783 83.93460803 409.48869412 91.12618914 C409.48964582 96.97495736 409.4937622 102.82371481 409.50009537 108.67247963 C409.51770189 125.27129987 409.52693526 141.8700943 409.52543442 158.46892395 C409.52535451 159.36305798 409.52527459 160.25719202 409.52519226 161.17842102 C409.5251105 162.07365263 409.52502874 162.96888425 409.5249445 163.89124409 C409.52413196 178.39288318 409.54326306 192.89441832 409.57146899 207.39602735 C409.60023223 222.30234436 409.61400737 237.20861074 409.61228144 252.1149562 C409.61161869 260.47720183 409.61706059 268.8393385 409.63863754 277.20155907 C409.65689475 284.32260806 409.66115963 291.44349871 409.6476187 298.56456103 C409.64111158 302.19359052 409.64088928 305.82231665 409.6583252 309.45131683 C409.67708372 313.39639398 409.66444236 317.34103378 409.64906311 321.28613281 C409.65935024 322.4178753 409.66963736 323.54961779 409.68023622 324.71565551 C409.58729795 335.55727353 407.34107953 345.94002111 400.13896179 354.32710266 C391.219495 363.01831538 380.64471473 366.37911844 368.34342766 366.39212418 C367.67994564 366.39417681 367.01646362 366.39622944 366.33287609 366.39834428 C364.1118776 366.40399417 361.89094152 366.40255952 359.66993713 366.40113831 C358.06051345 366.4037231 356.45109041 366.40673658 354.84166825 366.41014171 C350.42037312 366.41820159 345.99909424 366.42000072 341.57779264 366.42073917 C336.80870345 366.42259149 332.03962266 366.43013974 327.27053833 366.43687439 C316.84273567 366.45045112 306.41493686 366.45648142 295.98712683 366.46088505 C289.47455737 366.46364862 282.96198939 366.46788619 276.44942093 366.47238922 C258.41406027 366.48458109 240.3787008 366.49488053 222.34333611 366.49826431 C221.18922958 366.49848388 220.03512305 366.49870344 218.84604359 366.49892966 C217.11076777 366.49925708 217.11076777 366.49925708 215.34043586 366.49959111 C212.99625961 366.50003458 210.65208336 366.50048114 208.3079071 366.50093079 C207.14511746 366.50115222 205.98232782 366.50137365 204.78430213 366.50160179 C185.94608113 366.50554918 167.10789882 366.52300178 148.26969276 366.54629031 C128.92363103 366.57001339 109.5775887 366.5824666 90.23151219 366.58363223 C79.37150726 366.58454846 68.51155276 366.59028765 57.65156174 366.60845184 C48.40340122 366.62386574 39.1553067 366.62896567 29.90713577 366.62071374 C25.19073711 366.6168118 20.47447131 366.61771456 15.75808907 366.63177109 C11.43503509 366.64453724 7.11221345 366.64328874 2.78915967 366.63118038 C1.23058716 366.62922807 -0.32800196 366.63228011 -1.88655116 366.64102474 C-15.97514432 366.71502691 -28.270485 365.47833594 -38.81416321 355.37397766 C-49.15888578 344.21833404 -50.15950866 331.54385393 -50.09938049 316.8129425 C-50.10250047 315.61875891 -50.10562046 314.42457531 -50.10883498 313.19420433 C-50.11538229 309.91517278 -50.11309352 306.63629204 -50.10686255 303.35726452 C-50.10230692 299.80710276 -50.10933713 296.25696021 -50.11482239 292.70680237 C-50.12368505 285.76610651 -50.12180837 278.82545408 -50.11599711 271.88475657 C-50.11146827 266.24059603 -50.11087298 260.5964476 -50.11304474 254.95228577 C-50.1133512 254.14697084 -50.11365767 253.34165591 -50.11397342 252.5119375 C-50.11461292 250.87562068 -50.11526134 249.23930386 -50.11591861 247.60298705 C-50.12161274 232.28285026 -50.11507842 216.96273745 -50.10431787 201.64260459 C-50.0953832 188.5159409 -50.0969355 175.38931259 -50.1061554 162.26264954 C-50.11687425 146.99487285 -50.1210635 131.72711716 -50.11493087 116.45933723 C-50.11429381 114.82926051 -50.11366507 113.19918379 -50.11304474 111.56910706 C-50.11273619 110.76721526 -50.11242764 109.96532346 -50.11210974 109.1391319 C-50.11038764 103.50604392 -50.11328741 97.87296933 -50.11800385 92.23988342 C-50.12363065 85.36889718 -50.12205854 78.49795659 -50.11144236 71.62697554 C-50.10620977 68.12571928 -50.1040874 64.62453897 -50.11074066 61.12328339 C-50.11622926 57.31826398 -50.10932163 53.51345634 -50.09938049 49.70845032 C-50.10384194 48.61543295 -50.10830338 47.52241558 -50.11290002 46.39627647 C-50.0459691 33.13143245 -48.4644374 21.00676296 -39.15791321 10.94819641 C-27.92166739 0.49341882 -14.559254 -0.03873312 0 0 Z M-17.84541321 36.26069641 C-19.06804635 38.70596269 -18.9751601 40.28456487 -18.9824276 43.01906967 C-18.98750214 44.02953629 -18.99257668 45.04000291 -18.997805 46.08108974 C-18.99830276 47.19954634 -18.99880051 48.31800294 -18.99931335 49.47035217 C-19.00369561 50.65205781 -19.00807786 51.83376345 -19.01259291 53.05127835 C-19.02367451 56.34164431 -19.03021061 59.63196262 -19.03477407 62.92234039 C-19.04072399 66.46711187 -19.05233534 70.01186575 -19.06306458 73.55662537 C-19.08760244 82.12244232 -19.10221768 90.68826511 -19.11512464 99.2541064 C-19.11883554 101.67268561 -19.12280885 104.09126424 -19.12687731 106.50984287 C-19.15211257 121.52255622 -19.17416999 136.53527045 -19.18660545 151.54800034 C-19.18953525 155.02645114 -19.1924969 158.50490192 -19.19551086 161.98335266 C-19.19625691 162.84792608 -19.19700297 163.7124995 -19.19777162 164.60327211 C-19.21042806 178.61211645 -19.24365415 192.62083395 -19.2853127 206.62961897 C-19.32771382 221.00572988 -19.35129837 235.38177583 -19.35652602 249.75794911 C-19.3599422 257.8322623 -19.37172155 265.90637726 -19.40462875 273.98062897 C-19.43260547 280.85646609 -19.44363916 287.73206437 -19.43243329 294.607954 C-19.42724043 298.11666378 -19.43017299 301.62487323 -19.45489883 305.13351059 C-19.47746278 308.93713037 -19.46935274 312.73948139 -19.45341492 316.54310608 C-19.467297 317.6526398 -19.48117909 318.76217351 -19.49548185 319.90532947 C-19.4602756 326.38929299 -19.4602756 326.38929299 -16.4324131 331.93054581 C-9.25107866 338.39888422 2.92213145 336.40289531 12.02639771 336.38768005 C13.53259079 336.38883352 15.0387836 336.39042257 16.54497582 336.3924073 C20.66691766 336.39656959 24.78883625 336.39452395 28.91077816 336.39142108 C33.36279717 336.38915454 37.81481223 336.39265285 42.26683044 336.395401 C50.98193597 336.39984435 59.69703289 336.39888857 68.41213875 336.39598836 C75.49660297 336.39372856 82.58106478 336.39342431 89.66552925 336.39451218 C90.67442947 336.39466541 91.68332968 336.39481864 92.72280263 336.39497652 C94.77247651 336.39529625 96.82215039 336.39562046 98.87182427 336.39594911 C118.08571113 336.39879974 137.29959322 336.39552349 156.5134793 336.39014874 C172.99223953 336.38568176 189.47099271 336.38645657 205.94975281 336.3910675 C225.09407179 336.39642179 244.2383866 336.39852437 263.38270622 336.39545524 C265.42508034 336.3951367 267.46745445 336.39482233 269.50982857 336.39451218 C270.5146668 336.3943579 271.51950504 336.39420363 272.55479292 336.39404467 C279.62848355 336.39318204 286.70217152 336.39463697 293.77586174 336.39699173 C302.39963307 336.39979943 311.0233953 336.39903099 319.64716559 336.39371099 C324.0453258 336.39108699 328.44347085 336.39004684 332.84163094 336.39336014 C336.87141 336.39634995 340.90115991 336.39468569 344.93093634 336.38938259 C346.3850749 336.38826983 347.83921595 336.38882412 349.29335289 336.39125837 C362.62130232 337.04270143 362.62130232 337.04270143 375.15458679 333.63569641 C380.13611628 327.72013015 379.43904601 320.08740592 379.40855408 312.76020813 C379.41167406 311.60760435 379.41479404 310.45500057 379.41800857 309.26746941 C379.4245902 306.08150298 379.42224222 302.89568981 379.41603613 299.70972729 C379.41150286 296.26863999 379.41849974 292.82757309 379.42399597 289.38648987 C379.43288227 282.65065719 379.43097136 275.91486912 379.42517069 269.17903471 C379.42065121 263.70395257 379.42004254 258.22888291 379.42221832 252.75379944 C379.42267802 251.58427587 379.42267802 251.58427587 379.42314701 250.39112556 C379.42378647 248.80714241 379.42443489 247.22315927 379.42509219 245.63917613 C379.43079325 230.79133672 379.42424111 215.94352203 379.41349146 201.09568667 C379.40455615 188.35966192 379.40610825 175.62367363 379.41532898 162.88764954 C379.42603557 148.09239921 379.43024395 133.29717054 379.42410445 118.50191689 C379.42346736 116.92380905 379.42283862 115.34570122 379.42221832 113.76759338 C379.42190977 112.99116419 379.42160122 112.21473499 379.42128332 111.41477764 C379.41955755 105.9472132 379.42246895 100.47966252 379.42717743 95.01210022 C379.43279057 88.34762683 379.43126069 81.68320055 379.42061594 75.01873255 C379.41536507 71.61939305 379.41329251 68.22013205 379.41991425 64.82079315 C379.42537125 61.13417846 379.41853333 57.44778524 379.40855408 53.76118469 C379.41301552 52.689102 379.41747696 51.61701931 379.4220736 50.51244926 C379.39333041 42.67116466 379.39333041 42.67116466 377.15458679 35.26069641 C372.85629664 31.78174337 369.94342999 30.76018948 364.45160675 30.75453854 C363.79983414 30.74842518 363.14806153 30.74231182 362.47653824 30.7360132 C360.29508014 30.72042703 358.11473606 30.7332724 355.93327332 30.74603271 C354.352566 30.74070692 352.77186376 30.73364104 351.19117117 30.72498566 C346.84939945 30.70633583 342.50796827 30.71267129 338.16618228 30.72313869 C333.48307228 30.73012402 328.80003272 30.71413789 324.11694336 30.70114136 C314.94352488 30.67948539 305.77023037 30.67963227 296.59679472 30.6877669 C289.14226624 30.69406326 281.68777395 30.69293322 274.23324585 30.68649483 C273.17282777 30.68559317 272.11240969 30.68469152 271.01985773 30.68376254 C268.86573032 30.68191137 266.71160291 30.68004881 264.55747551 30.67817498 C244.35176284 30.66159113 224.14611998 30.6703209 203.94041151 30.68716056 C185.4472863 30.70185999 166.95432353 30.6872267 148.46121925 30.6583904 C129.47903427 30.62901152 110.4969243 30.61801959 91.51471758 30.6275726 C89.36845431 30.62859517 87.22219103 30.62958977 85.07592773 30.63055611 C83.49186768 30.63127069 83.49186768 30.63127069 81.87580642 30.63199971 C74.42904675 30.63416573 66.98235796 30.62434985 59.53561401 30.60978508 C50.46216615 30.59228647 41.38892547 30.59234363 32.31548584 30.61513674 C27.68481457 30.62630109 23.05450866 30.62939192 18.42385292 30.61083603 C14.18606661 30.59407271 9.94896548 30.60032545 5.7112239 30.62505282 C4.17698935 30.6299502 2.64269998 30.62638211 1.10851115 30.61356538 C-9.59143877 30.26072756 -9.59143877 30.26072756 -17.84541321 36.26069641 Z "
     transform="translate(72.84541320800781,69.73930358886719)"
     style="fill: #909090;"
     id="path402" />
  <path
     d="M0 0 C0.9644252 0.83711517 1.9288504 1.67423035 2.92250061 2.53671265 C5.68661799 4.90647045 8.48981985 7.21506774 11.3344574 9.48745728 C22.37114363 18.30685046 33.0784204 27.41705678 43.5608511 36.88300514 C48.34802022 41.19357228 53.132706 45.460306 58.2167244 49.42081451 C77.231724 64.28287563 84.88326087 76.36857305 99 98 C99 133.64 99 169.28 99 206 C-11.22 206 -121.44 206 -235 206 C-235 160 -235 160 -228.02734375 148.5703125 C-225.01892588 145.87723963 -222.14971077 143.51253069 -218.9375 141.125 C-217.39644093 139.82479757 -215.86575631 138.51219911 -214.34570312 137.1875 C-211.56050371 134.77771973 -208.73469375 132.46326415 -205.82397461 130.20751953 C-202.39694041 127.46524852 -199.62373841 124.4265559 -196.79710388 121.07980347 C-193.60850601 117.38961228 -190.11920601 113.99707507 -186.66015625 110.5625 C-185.89319931 109.79695801 -185.12624237 109.03141602 -184.33604431 108.24267578 C-181.91389119 105.82606803 -179.48826388 103.41298274 -177.0625 101 C-175.40797107 99.35049314 -173.75367198 97.70075571 -172.09960938 96.05078125 C-168.06905798 92.03118629 -164.03565728 88.01446831 -160 84 C-155.50280591 87.76913675 -151.19875857 91.65139139 -147.05859375 95.80859375 C-146.5278273 96.33840347 -145.99706085 96.8682132 -145.45021057 97.41407776 C-144.3390332 98.52458068 -143.22909322 99.63632306 -142.12036133 100.74926758 C-140.44137714 102.43361049 -138.75711583 104.11254278 -137.07226562 105.79101562 C-131.8362454 111.02412969 -126.6943648 116.26610978 -122 122 C-117.2010911 117.99533859 -112.6687223 113.81348505 -108.2578125 109.38720703 C-107.62429871 108.75544556 -106.99078491 108.12368408 -106.33807373 107.47277832 C-104.26454334 105.40361451 -102.19465196 103.33085511 -100.125 101.2578125 C-98.67218361 99.80567072 -97.21921888 98.35367733 -95.76611328 96.90182495 C-92.72851538 93.86569706 -89.6927223 90.82777911 -86.65820312 87.78857422 C-82.78498029 83.90965965 -78.90729172 80.03524548 -75.02822876 76.16217232 C-72.02884335 73.16641568 -69.0318626 70.16826247 -66.0355835 67.16939926 C-64.60749529 65.74064793 -63.17867483 64.31262809 -61.74908447 62.88537979 C-52.43553697 53.62339244 -52.43553697 53.62339244 -43.64596558 43.87057495 C-40.00795854 39.73612346 -36.03275557 35.91226953 -32.12890625 32.03125 C-31.206577 31.11033569 -30.28424774 30.18942139 -29.33396912 29.24060059 C-26.90811523 26.81852446 -24.47927148 24.39946921 -22.04974365 21.9810791 C-19.56060884 19.50226163 -17.07438105 17.02053203 -14.58789062 14.5390625 C-9.72806542 9.68989076 -4.86506822 4.84391137 0 0 Z "
     transform="translate(321,168)"
     style="fill: #909090;"
     id="path404" />
  <path
     d="M0 0 C0.65484375 0.39703125 1.3096875 0.7940625 1.984375 1.203125 C11.04767615 7.31558391 16.75331876 16.70967133 20 27 C20.19078125 27.58910156 20.3815625 28.17820313 20.578125 28.78515625 C22.98810494 41.43755091 20.96391325 54.07713651 14.0625 64.9375 C11.64894305 68.29470328 9.08155215 71.22660307 6 74 C5.071875 74.845625 4.14375 75.69125 3.1875 76.5625 C-5.29590706 83.41365659 -16.58876744 86.68502941 -27.4375 86.28515625 C-40.37348118 84.84563395 -52.49145489 79.95642061 -60.84375 69.74609375 C-69.71924382 57.73032987 -72.23398338 45.68675588 -71 31 C-69.4107588 22.93573609 -65.90535554 16.50902947 -61 10 C-60.13375 8.700625 -60.13375 8.700625 -59.25 7.375 C-43.86959171 -8.85987542 -18.9252309 -11.60959543 0 0 Z "
     transform="translate(156,138)"
     style="fill: #909090;"
     id="path406" />
</svg>
