<?xml version="1.0" encoding="UTF-8" standalone="no"?>
<svg
   id="svg"
   version="1.1"
   viewBox="0 0 504 504"
   style="display: block;"
   sodipodi:docname="documenti-file-pdf.svg"
   inkscape:version="1.2.2 (b0a8486, 2022-12-01)"
   xmlns:inkscape="http://www.inkscape.org/namespaces/inkscape"
   xmlns:sodipodi="http://sodipodi.sourceforge.net/DTD/sodipodi-0.dtd"
   xmlns="http://www.w3.org/2000/svg"
   xmlns:svg="http://www.w3.org/2000/svg">
  <defs
     id="defs1789" />
  <sodipodi:namedview
     id="namedview1787"
     pagecolor="#ffffff"
     bordercolor="#000000"
     borderopacity="0.25"
     inkscape:showpageshadow="2"
     inkscape:pageopacity="0.0"
     inkscape:pagecheckerboard="0"
     inkscape:deskcolor="#d1d1d1"
     showgrid="false"
     inkscape:zoom="1.7400794"
     inkscape:cx="183.32497"
     inkscape:cy="252"
     inkscape:window-width="1427"
     inkscape:window-height="1027"
     inkscape:window-x="0"
     inkscape:window-y="25"
     inkscape:window-maximized="0"
     inkscape:current-layer="svg" />
  <path
     d="M0 0 C79.37279647 0 79.37279647 0 97.25 16.625 C110.76285108 30.81561163 114.39469337 52.39624565 114.02929688 71.43383789 C113.24584414 89.60118997 106.28344018 106.40549027 93 119 C83.72526648 126.81270656 72.60161901 132.13646921 60.39550781 132.11352539 C59.73090923 132.11364593 59.06631065 132.11376646 58.38157272 132.11389065 C56.2387223 132.11314662 54.09595978 132.10554169 51.953125 132.09765625 C50.64005371 132.09664917 49.32698242 132.09564209 47.97412109 132.09460449 C43.06607185 132.08936992 38.15803506 132.07540867 33.25 132.0625 C22.2775 132.041875 11.305 132.02125 0 132 C0 88.44 0 44.88 0 0 Z "
     transform="translate(200,186)"
     style="fill: #909090;"
     id="path1776" />
  <path
     d="M0 0 C81.64604723 0 81.64604723 0 94.4375 11.6875 C103.48782837 21.4920224 104.61223799 33.37363567 104.13183594 46.08056641 C103.39887681 56.75190843 97.20788958 66.99178285 89.37524414 74.05273438 C77.92806091 83.43733027 66.88732771 82.73659304 52.75 82.375 C45.9025 82.25125 39.055 82.1275 32 82 C32 98.5 32 115 32 132 C21.44 132 10.88 132 0 132 C0 88.44 0 44.88 0 0 Z "
     transform="translate(70,186)"
     style="fill: #909090;"
     id="path1778" />
  <path
     d="M0 0 C30.69 0 61.38 0 93 0 C93 10.56 93 21.12 93 32 C73.2 32 53.4 32 33 32 C33 38.6 33 45.2 33 52 C50.16 52 67.32 52 85 52 C85 59.92 85 67.84 85 76 C67.84 76 50.68 76 33 76 C33 94.48 33 112.96 33 132 C22.44 132 11.88 132 1 132 C-0.08197698 105.34247277 -0.12093019 78.72782883 -0.06866455 52.05163574 C-0.05641955 45.12096467 -0.05200747 38.1902843 -0.04621124 31.25960541 C-0.03665564 20.8397183 -0.01744077 10.41989026 0 0 Z "
     transform="translate(341,186)"
     style="fill: #909090;"
     id="path1780" />
  <path
     d="M0 0 C10.83759196 0.17789742 19.94421777 2.28279786 27.83642578 10.1171875 C36.79742735 21.0177998 36.57061477 36.90428298 35.64111328 50.3125 C34.46614124 59.29569532 30.67990498 66.03684481 23.75830078 71.91015625 C15.62362345 77.5583229 6.83078807 77.41620145 -2.71826172 77.35546875 C-3.64622559 77.35236694 -4.57418945 77.34926514 -5.53027344 77.34606934 C-7.80650982 77.33801316 -10.08268199 77.32673374 -12.35888672 77.3125 C-12.38201099 67.42060624 -12.39980224 57.52871886 -12.41069889 47.63680363 C-12.41592753 43.0440736 -12.42302484 38.451362 -12.43432617 33.85864258 C-12.44515572 29.43016312 -12.45116369 25.00170144 -12.45376396 20.57320976 C-12.45561809 18.87984372 -12.45923847 17.18647871 -12.46461678 15.49312019 C-12.47182812 13.12958768 -12.47287762 10.76612955 -12.47241211 8.40258789 C-12.47600739 7.69552704 -12.47960266 6.98846619 -12.48330688 6.25997925 C-12.46541825 -2.07946675 -6.93214814 0 0 0 Z "
     transform="translate(244.35888671875,212.6875)"
     style="fill:#ffffff;fill-opacity:1"
     id="path1782" />
  <path
     d="M0 0 C5.6615625 -0.12375 5.6615625 -0.12375 11.4375 -0.25 C12.60853271 -0.28641602 13.77956543 -0.32283203 14.98608398 -0.36035156 C21.77421203 -0.43158181 27.17921283 0.33845919 33 4 C35.4375 6.5 35.4375 6.5 37 9 C37.4125 9.61875 37.825 10.2375 38.25 10.875 C39.38804243 14.09945356 39.35130249 16.60407592 39 20 C35.8062715 26.03259828 31.52259698 29.93185949 25 32 C19.6865586 33.14267557 14.52777355 33.11497666 9.125 33.0625 C6.11375 33.041875 3.1025 33.02125 0 33 C0 22.11 0 11.22 0 0 Z "
     transform="translate(102,211)"
     style="fill:#ffffff;fill-opacity:1"
     id="path1784" />
</svg>
