<?xml version="1.0" encoding="UTF-8" standalone="no"?>
<svg
   id="svg"
   version="1.1"
   viewBox="0 0 504 504"
   style="display: block;"
   sodipodi:docname="bot-nav-bar-moduli-inactive.svg"
   inkscape:version="1.2.2 (b0a8486, 2022-12-01)"
   xmlns:inkscape="http://www.inkscape.org/namespaces/inkscape"
   xmlns:sodipodi="http://sodipodi.sourceforge.net/DTD/sodipodi-0.dtd"
   xmlns="http://www.w3.org/2000/svg"
   xmlns:svg="http://www.w3.org/2000/svg">
  <defs
     id="defs467" />
  <sodipodi:namedview
     id="namedview465"
     pagecolor="#ffffff"
     bordercolor="#000000"
     borderopacity="0.25"
     inkscape:showpageshadow="2"
     inkscape:pageopacity="0.0"
     inkscape:pagecheckerboard="0"
     inkscape:deskcolor="#d1d1d1"
     showgrid="false"
     inkscape:zoom="1.7400794"
     inkscape:cx="195.96807"
     inkscape:cy="252"
     inkscape:window-width="1427"
     inkscape:window-height="1027"
     inkscape:window-x="0"
     inkscape:window-y="25"
     inkscape:window-maximized="0"
     inkscape:current-layer="svg" />
  <path
     d="M0 0 C26.73 0 53.46 0 81 0 C81 27.06 81 54.12 81 82 C67.820625 82.020625 54.64125 82.04125 41.0625 82.0625 C36.8950415 82.071604 32.72758301 82.08070801 28.43383789 82.09008789 C23.36022949 82.09460449 23.36022949 82.09460449 20.98802185 82.09544373 C19.32472975 82.09698327 17.66143878 82.10050841 15.99815369 82.10557556 C13.48450774 82.11285309 10.97093023 82.11390742 8.45727539 82.11352539 C7.33846906 82.11892255 7.33846906 82.11892255 6.19706059 82.12442875 C1.11402634 82.11402634 1.11402634 82.11402634 0 81 C-0.095044 78.47455024 -0.1255585 75.97666582 -0.11352539 73.45092773 C-0.11364593 72.64792016 -0.11376646 71.84491259 -0.11389065 71.01757145 C-0.11314149 68.40621782 -0.10551312 65.79493469 -0.09765625 63.18359375 C-0.09618684 61.57621291 -0.09516612 59.9688316 -0.09460449 58.3614502 C-0.08935148 52.38679286 -0.07539041 46.41214574 -0.0625 40.4375 C-0.041875 27.093125 -0.02125 13.74875 0 0 Z "
     transform="translate(211,100)"
     style="fill: #909090;"
     id="path446" />
  <path
     d="M0 0 C26.73 0 53.46 0 81 0 C81 27.06 81 54.12 81 82 C67.820625 82.020625 54.64125 82.04125 41.0625 82.0625 C36.8950415 82.071604 32.72758301 82.08070801 28.43383789 82.09008789 C23.36022949 82.09460449 23.36022949 82.09460449 20.98802185 82.09544373 C19.32472975 82.09698327 17.66143878 82.10050841 15.99815369 82.10557556 C13.48450774 82.11285309 10.97093023 82.11390742 8.45727539 82.11352539 C7.33846906 82.11892255 7.33846906 82.11892255 6.19706059 82.12442875 C1.11402634 82.11402634 1.11402634 82.11402634 0 81 C-0.095044 78.47455024 -0.1255585 75.97666582 -0.11352539 73.45092773 C-0.11364593 72.64792016 -0.11376646 71.84491259 -0.11389065 71.01757145 C-0.11314149 68.40621782 -0.10551312 65.79493469 -0.09765625 63.18359375 C-0.09618684 61.57621291 -0.09516612 59.9688316 -0.09460449 58.3614502 C-0.08935148 52.38679286 -0.07539041 46.41214574 -0.0625 40.4375 C-0.041875 27.093125 -0.02125 13.74875 0 0 Z "
     transform="translate(89,100)"
     style="fill: #909090;"
     id="path448" />
  <path
     d="M0 0 C26.4 0 52.8 0 80 0 C80 27.06 80 54.12 80 82 C53.6 82 27.2 82 0 82 C0 54.94 0 27.88 0 0 Z "
     transform="translate(334,100)"
     style="fill: #909090;"
     id="path450" />
  <path
     d="M0 0 C26.73 0 53.46 0 81 0 C81 26.4 81 52.8 81 80 C67.820625 80.020625 54.64125 80.04125 41.0625 80.0625 C36.8950415 80.071604 32.72758301 80.08070801 28.43383789 80.09008789 C23.36022949 80.09460449 23.36022949 80.09460449 20.98802185 80.09544373 C19.32472975 80.09698327 17.66143878 80.10050841 15.99815369 80.10557556 C13.48450774 80.11285309 10.97093023 80.11390742 8.45727539 80.11352539 C7.33846906 80.11892255 7.33846906 80.11892255 6.19706059 80.12442875 C1.11402634 80.11402634 1.11402634 80.11402634 0 79 C-0.09500705 76.53551872 -0.12556678 74.0992917 -0.11352539 71.63452148 C-0.11364593 70.85133828 -0.11376646 70.06815508 -0.11389065 69.26123905 C-0.11314152 66.71449552 -0.10551331 64.16782427 -0.09765625 61.62109375 C-0.09618683 60.05342647 -0.09516612 58.48575869 -0.09460449 56.91809082 C-0.08935161 51.09121975 -0.07539052 45.26435918 -0.0625 39.4375 C-0.041875 26.423125 -0.02125 13.40875 0 0 Z "
     transform="translate(211,322)"
     style="fill: #909090;"
     id="path452" />
  <path
     d="M0 0 C26.73 0 53.46 0 81 0 C81 26.4 81 52.8 81 80 C67.820625 80.020625 54.64125 80.04125 41.0625 80.0625 C36.8950415 80.071604 32.72758301 80.08070801 28.43383789 80.09008789 C23.36022949 80.09460449 23.36022949 80.09460449 20.98802185 80.09544373 C19.32472975 80.09698327 17.66143878 80.10050841 15.99815369 80.10557556 C13.48450774 80.11285309 10.97093023 80.11390742 8.45727539 80.11352539 C7.33846906 80.11892255 7.33846906 80.11892255 6.19706059 80.12442875 C1.11402634 80.11402634 1.11402634 80.11402634 0 79 C-0.09500705 76.53551872 -0.12556678 74.0992917 -0.11352539 71.63452148 C-0.11364593 70.85133828 -0.11376646 70.06815508 -0.11389065 69.26123905 C-0.11314152 66.71449552 -0.10551331 64.16782427 -0.09765625 61.62109375 C-0.09618683 60.05342647 -0.09516612 58.48575869 -0.09460449 56.91809082 C-0.08935161 51.09121975 -0.07539052 45.26435918 -0.0625 39.4375 C-0.041875 26.423125 -0.02125 13.40875 0 0 Z "
     transform="translate(89,322)"
     style="fill: #909090;"
     id="path454" />
  <path
     d="M0 0 C26.73 0 53.46 0 81 0 C81 26.4 81 52.8 81 80 C67.820625 80.020625 54.64125 80.04125 41.0625 80.0625 C36.8950415 80.071604 32.72758301 80.08070801 28.43383789 80.09008789 C23.36022949 80.09460449 23.36022949 80.09460449 20.98802185 80.09544373 C19.32472975 80.09698327 17.66143878 80.10050841 15.99815369 80.10557556 C13.48450774 80.11285309 10.97093023 80.11390742 8.45727539 80.11352539 C7.33846906 80.11892255 7.33846906 80.11892255 6.19706059 80.12442875 C1.11402634 80.11402634 1.11402634 80.11402634 0 79 C-0.09500705 76.53551872 -0.12556678 74.0992917 -0.11352539 71.63452148 C-0.11364593 70.85133828 -0.11376646 70.06815508 -0.11389065 69.26123905 C-0.11314152 66.71449552 -0.10551331 64.16782427 -0.09765625 61.62109375 C-0.09618683 60.05342647 -0.09516612 58.48575869 -0.09460449 56.91809082 C-0.08935161 51.09121975 -0.07539052 45.26435918 -0.0625 39.4375 C-0.041875 26.423125 -0.02125 13.40875 0 0 Z "
     transform="translate(211,212)"
     style="fill: #909090;"
     id="path456" />
  <path
     d="M0 0 C26.73 0 53.46 0 81 0 C81 26.4 81 52.8 81 80 C67.820625 80.020625 54.64125 80.04125 41.0625 80.0625 C36.8950415 80.071604 32.72758301 80.08070801 28.43383789 80.09008789 C23.36022949 80.09460449 23.36022949 80.09460449 20.98802185 80.09544373 C19.32472975 80.09698327 17.66143878 80.10050841 15.99815369 80.10557556 C13.48450774 80.11285309 10.97093023 80.11390742 8.45727539 80.11352539 C7.33846906 80.11892255 7.33846906 80.11892255 6.19706059 80.12442875 C1.11402634 80.11402634 1.11402634 80.11402634 0 79 C-0.09500705 76.53551872 -0.12556678 74.0992917 -0.11352539 71.63452148 C-0.11364593 70.85133828 -0.11376646 70.06815508 -0.11389065 69.26123905 C-0.11314152 66.71449552 -0.10551331 64.16782427 -0.09765625 61.62109375 C-0.09618683 60.05342647 -0.09516612 58.48575869 -0.09460449 56.91809082 C-0.08935161 51.09121975 -0.07539052 45.26435918 -0.0625 39.4375 C-0.041875 26.423125 -0.02125 13.40875 0 0 Z "
     transform="translate(89,212)"
     style="fill: #909090;"
     id="path458" />
  <path
     d="M0 0 C26.4 0 52.8 0 80 0 C80 26.4 80 52.8 80 80 C53.6 80 27.2 80 0 80 C0 53.6 0 27.2 0 0 Z "
     transform="translate(334,322)"
     style="fill: #909090;"
     id="path460" />
  <path
     d="M0 0 C26.4 0 52.8 0 80 0 C80 26.4 80 52.8 80 80 C53.6 80 27.2 80 0 80 C0 53.6 0 27.2 0 0 Z "
     transform="translate(334,212)"
     style="fill: #909090;"
     id="path462" />
</svg>
