<?xml version="1.0" encoding="UTF-8" standalone="no"?>
<svg
   id="svg"
   version="1.1"
   viewBox="0 0 504 504"
   style="display: block;"
   sodipodi:docname="bot-nav-bar-moduli-active.svg"
   inkscape:version="1.2.2 (b0a8486, 2022-12-01)"
   xmlns:inkscape="http://www.inkscape.org/namespaces/inkscape"
   xmlns:sodipodi="http://sodipodi.sourceforge.net/DTD/sodipodi-0.dtd"
   xmlns="http://www.w3.org/2000/svg"
   xmlns:svg="http://www.w3.org/2000/svg">
  <defs
     id="defs155" />
  <sodipodi:namedview
     id="namedview153"
     pagecolor="#ffffff"
     bordercolor="#000000"
     borderopacity="0.25"
     inkscape:showpageshadow="2"
     inkscape:pageopacity="0.0"
     inkscape:pagecheckerboard="0"
     inkscape:deskcolor="#d1d1d1"
     showgrid="false"
     inkscape:zoom="1.7400794"
     inkscape:cx="258.03421"
     inkscape:cy="212.92132"
     inkscape:window-width="1427"
     inkscape:window-height="1027"
     inkscape:window-x="0"
     inkscape:window-y="25"
     inkscape:window-maximized="0"
     inkscape:current-layer="svg" />
  <path
     d="M0 0 C27.06 0 54.12 0 82 0 C82 27.06 82 54.12 82 82 C54.94 82 27.88 82 0 82 C0 54.94 0 27.88 0 0 Z "
     transform="translate(210,100)"
     style="fill: #931000;"
     id="path134" />
  <path
     d="M0 0 C27.06 0 54.12 0 82 0 C82 27.06 82 54.12 82 82 C54.94 82 27.88 82 0 82 C0 54.94 0 27.88 0 0 Z "
     transform="translate(88,100)"
     style="fill: #931000;"
     id="path136" />
  <path
     d="M0 0 C26.73 0 53.46 0 81 0 C81 27.06 81 54.12 81 82 C54.6 82 28.2 82 1 82 C-0.52508381 78.94983238 -0.1297413 75.7744659 -0.11352539 72.42919922 C-0.11364593 71.6359833 -0.11376646 70.84276737 -0.11389065 70.0255146 C-0.11314286 67.45187728 -0.10552068 64.87831191 -0.09765625 62.3046875 C-0.09618642 60.71818069 -0.09516596 59.1316734 -0.09460449 57.54516602 C-0.0893564 51.65510329 -0.07539526 45.76505094 -0.0625 39.875 C-0.041875 26.71625 -0.02125 13.5575 0 0 Z "
     transform="translate(333,100)"
     style="fill: #931000;"
     id="path138" />
  <path
     d="M0 0 C27.06 0 54.12 0 82 0 C82 26.4 82 52.8 82 80 C54.94 80 27.88 80 0 80 C0 53.6 0 27.2 0 0 Z "
     transform="translate(210,322)"
     style="fill: #931000;"
     id="path140" />
  <path
     d="M0 0 C27.06 0 54.12 0 82 0 C82 26.4 82 52.8 82 80 C54.94 80 27.88 80 0 80 C0 53.6 0 27.2 0 0 Z "
     transform="translate(88,322)"
     style="fill: #931000;"
     id="path142" />
  <path
     d="M0 0 C27.06 0 54.12 0 82 0 C82 26.4 82 52.8 82 80 C54.94 80 27.88 80 0 80 C0 53.6 0 27.2 0 0 Z "
     transform="translate(210,212)"
     style="fill: #931000;"
     id="path144" />
  <path
     d="M0 0 C27.06 0 54.12 0 82 0 C82 26.4 82 52.8 82 80 C54.94 80 27.88 80 0 80 C0 53.6 0 27.2 0 0 Z "
     transform="translate(88,212)"
     style="fill: #931000;"
     id="path146" />
  <path
     d="M0 0 C26.73 0 53.46 0 81 0 C81 26.4 81 52.8 81 80 C54.6 80 28.2 80 1 80 C-0.50252261 76.99495478 -0.1299093 73.90739902 -0.11352539 70.61279297 C-0.11370619 69.45270564 -0.11370619 69.45270564 -0.11389065 68.26918221 C-0.11314293 65.76015494 -0.10552107 63.25120151 -0.09765625 60.7421875 C-0.0961864 59.19539424 -0.09516595 57.64860049 -0.09460449 56.10180664 C-0.08935665 50.35953019 -0.0753955 44.61726437 -0.0625 38.875 C-0.041875 26.04625 -0.02125 13.2175 0 0 Z "
     transform="translate(333,322)"
     style="fill: #931000;"
     id="path148" />
  <path
     d="M0 0 C26.73 0 53.46 0 81 0 C81 26.4 81 52.8 81 80 C54.6 80 28.2 80 1 80 C-0.50252261 76.99495478 -0.1299093 73.90739902 -0.11352539 70.61279297 C-0.11370619 69.45270564 -0.11370619 69.45270564 -0.11389065 68.26918221 C-0.11314293 65.76015494 -0.10552107 63.25120151 -0.09765625 60.7421875 C-0.0961864 59.19539424 -0.09516595 57.64860049 -0.09460449 56.10180664 C-0.08935665 50.35953019 -0.0753955 44.61726437 -0.0625 38.875 C-0.041875 26.04625 -0.02125 13.2175 0 0 Z "
     transform="translate(333,212)"
     style="fill: #931000;"
     id="path150" />
</svg>
