<?xml version="1.0" encoding="UTF-8" standalone="no"?>
<svg
   id="svg"
   version="1.1"
   style="display: block;"
   viewBox="0 0 504 506"
   sodipodi:docname="buoni-pasto.svg"
   inkscape:version="1.2.2 (b0a8486, 2022-12-01)"
   xmlns:inkscape="http://www.inkscape.org/namespaces/inkscape"
   xmlns:sodipodi="http://sodipodi.sourceforge.net/DTD/sodipodi-0.dtd"
   xmlns="http://www.w3.org/2000/svg"
   xmlns:svg="http://www.w3.org/2000/svg">
  <defs
     id="defs9097" />
  <sodipodi:namedview
     id="namedview9095"
     pagecolor="#ffffff"
     bordercolor="#000000"
     borderopacity="0.25"
     inkscape:showpageshadow="2"
     inkscape:pageopacity="0.0"
     inkscape:pagecheckerboard="0"
     inkscape:deskcolor="#d1d1d1"
     showgrid="false"
     inkscape:zoom="0.46640316"
     inkscape:cx="45.025424"
     inkscape:cy="253"
     inkscape:window-width="1427"
     inkscape:window-height="456"
     inkscape:window-x="0"
     inkscape:window-y="25"
     inkscape:window-maximized="0"
     inkscape:current-layer="svg" />
  <path
     d="M0 0 C133.65 0 267.3 0 405 0 C405.99 3.96 406.98 7.92 408 12 C412.28780353 21.29024099 417.44876581 26.35613686 426.91015625 30.25390625 C429.25050195 31.08943154 431.53346081 31.68173688 434 32 C434 34.97 434 37.94 434 41 C433.34773438 40.95359375 432.69546875 40.9071875 432.0234375 40.859375 C427.6386444 40.6782921 424.66210307 40.6934708 420.625 42.5625 C416.2553673 46.62001608 414.26847178 49.91934374 413.5 55.875 C413.83753426 61.8575038 416.2784449 67.03250846 420.1875 71.5 C424.57478227 73.83988388 429.08992342 74 434 74 C434 78.62 434 83.24 434 88 C432.80375 88.2475 431.6075 88.495 430.375 88.75 C425.32335501 90.06859516 421.63139932 91.68849226 418.51953125 96.09765625 C415.00362606 102.31204329 413.85659439 107.92782455 415 115 C416.94232066 121.07491782 420.54118265 125.76850493 425.9375 129.25 C428.59196155 130.28632446 428.59196155 130.28632446 434 131 C434 135.95 434 140.9 434 146 C432.80375 146.2475 431.6075 146.495 430.375 146.75 C425.32335501 148.06859516 421.63139932 149.68849226 418.51953125 154.09765625 C415.00289416 160.31333694 413.77143518 165.93071719 415 173 C417.02338399 179.51566771 419.91577985 183.74195921 425.83984375 187.16015625 C428.56386933 188.30385942 428.56386933 188.30385942 434 189 C434 193.62 434 198.24 434 203 C432.47375 203.0825 430.9475 203.165 429.375 203.25 C424.56745288 203.75927406 421.63400626 204.62556562 418 208 C414.69963282 212.55863217 413.28024702 217.13362137 413.54296875 222.7578125 C414.53162382 227.60813736 417.26719337 231.36055579 420.8125 234.71484375 C423.62343695 236.36626921 425.51495575 236.30303729 428.75 236.1875 C429.73484375 236.16042969 430.7196875 236.13335937 431.734375 236.10546875 C432.48203125 236.07066406 433.2296875 236.03585937 434 236 C434 239.3 434 242.6 434 246 C432.535625 246.20625 431.07125 246.4125 429.5625 246.625 C421.74202638 248.22891609 416.17809645 251.86578935 411.625 258.4375 C407.60975836 265.08878671 405.98542695 270.11658444 405 278 C271.02 278 137.04 278 -1 278 C-2.485 271.07 -2.485 271.07 -4 264 C-5.9914023 260.71187062 -7.40377629 258.62565935 -10 256 C-10.59941406 255.36320313 -11.19882812 254.72640625 -11.81640625 254.0703125 C-16.67034738 249.34384862 -21.42469389 247.41476873 -28 246 C-28 243.03 -28 240.06 -28 237 C-26.63875 237.0825 -25.2775 237.165 -23.875 237.25 C-19.14075922 237.23511245 -16.58747304 236.24580894 -13 233 C-8.99702904 227.66270539 -9.23655191 221.39066098 -10 215 C-11.29055247 210.90960488 -13.53844666 208.4091041 -16.75 205.5625 C-20.8888925 203.57264784 -23.45760196 203.68673117 -28 204 C-28 199.38 -28 194.76 -28 190 C-25.9271875 189.4121875 -25.9271875 189.4121875 -23.8125 188.8125 C-18.30151282 186.96108515 -15.37319051 184.31537962 -12.39453125 179.29296875 C-9.68284892 172.88975249 -9.95018351 165.12427906 -11.65625 158.421875 C-13.77559464 153.63507934 -17.23706445 150.19320945 -22 148 C-23.98 147.67 -25.96 147.34 -28 147 C-28 142.05 -28 137.1 -28 132 C-26.453125 131.62875 -24.90625 131.2575 -23.3125 130.875 C-18.01288241 129.28586432 -15.9655374 127.63365218 -13 123 C-9.73490208 116.36559892 -9.76558722 107.47057603 -11.72265625 100.3828125 C-13.65031344 96.24654404 -16.02523094 93.34872717 -20 91 C-22.66181878 90.13751123 -25.24855502 89.55961593 -28 89 C-28 84.38 -28 79.76 -28 75 C-26.63875 74.9175 -25.2775 74.835 -23.875 74.75 C-19.3162048 74.22674206 -16.51007627 73.09221005 -13 70 C-9.00008417 64.66677889 -9.22947547 58.38679218 -10 52 C-11.23443776 48.21704557 -13.19424901 45.71366516 -16.1875 43.0625 C-20.24424408 41.52995224 -23.67678751 41.80642332 -28 42 C-28 38.7 -28 35.4 -28 32 C-26.68 31.79375 -25.36 31.5875 -24 31.375 C-17.12787527 29.82148986 -12.36916237 25.87911069 -7.8125 20.625 C-3.81746839 14.47398427 -3.81746839 14.47398427 0 0 Z "
     transform="translate(50,114)"
     style="fill: #B31700;"
     id="path9070" />
  <path
     d="M0 0 C1.65199437 1.4304154 3.29861895 2.86707877 4.9375 4.3125 C5.56785156 4.81136719 6.19820312 5.31023437 6.84765625 5.82421875 C27.13283148 21.95070202 41.66491525 51.33941999 44.7265625 76.91113281 C47.7691284 111.54849186 39.31983292 143.50618838 16.9375 170.3125 C16.34324219 171.05886719 15.74898437 171.80523437 15.13671875 172.57421875 C10.422404 178.3011548 4.80053758 182.80498364 -1.0625 187.3125 C-2.23425781 188.22515625 -2.23425781 188.22515625 -3.4296875 189.15625 C-28.86309092 207.99580809 -60.71249424 214.33779235 -91.6875 210.1875 C-121.13015892 205.76773859 -148.93053025 189.16812257 -166.92602539 165.41943359 C-186.53405143 138.49871815 -194.33081286 106.47273936 -189.43359375 73.57470703 C-185.62246032 50.34183704 -174.91662837 29.58375716 -159.0625 12.3125 C-158.34449219 11.51199219 -157.62648437 10.71148437 -156.88671875 9.88671875 C-146.26343843 -1.37675925 -133.20665042 -9.5981743 -119.0625 -15.6875 C-118.39524902 -15.97496094 -117.72799805 -16.26242188 -117.04052734 -16.55859375 C-79.0577248 -32.42818345 -32.05532434 -25.94954828 0 0 Z "
     transform="translate(325.0625,159.6875)"
     style="fill: #DADCA6;"
     id="path9072" />
  <path
     d="M0 0 C108.9 0 217.8 0 330 0 C330.99 3.96 331.98 7.92 333 12 C337.28780353 21.29024099 342.44876581 26.35613686 351.91015625 30.25390625 C354.25050195 31.08943154 356.53346081 31.68173688 359 32 C359 34.97 359 37.94 359 41 C358.34773438 40.95359375 357.69546875 40.9071875 357.0234375 40.859375 C352.6386444 40.6782921 349.66210307 40.6934708 345.625 42.5625 C341.2553673 46.62001608 339.26847178 49.91934374 338.5 55.875 C338.83753426 61.8575038 341.2784449 67.03250846 345.1875 71.5 C349.57478227 73.83988388 354.08992342 74 359 74 C359 78.62 359 83.24 359 88 C357.80375 88.2475 356.6075 88.495 355.375 88.75 C350.32335501 90.06859516 346.63139932 91.68849226 343.51953125 96.09765625 C340.00362606 102.31204329 338.85659439 107.92782455 340 115 C341.94232066 121.07491782 345.54118265 125.76850493 350.9375 129.25 C353.59196155 130.28632446 353.59196155 130.28632446 359 131 C359 135.95 359 140.9 359 146 C357.80375 146.2475 356.6075 146.495 355.375 146.75 C350.32335501 148.06859516 346.63139932 149.68849226 343.51953125 154.09765625 C340.00289416 160.31333694 338.77143518 165.93071719 340 173 C342.02338399 179.51566771 344.91577985 183.74195921 350.83984375 187.16015625 C353.56386933 188.30385942 353.56386933 188.30385942 359 189 C359 193.62 359 198.24 359 203 C357.47375 203.0825 355.9475 203.165 354.375 203.25 C349.56745288 203.75927406 346.63400626 204.62556562 343 208 C339.69963282 212.55863217 338.28024702 217.13362137 338.54296875 222.7578125 C339.53162382 227.60813736 342.26719337 231.36055579 345.8125 234.71484375 C348.62343695 236.36626921 350.51495575 236.30303729 353.75 236.1875 C354.73484375 236.16042969 355.7196875 236.13335937 356.734375 236.10546875 C357.48203125 236.07066406 358.2296875 236.03585937 359 236 C359 239.3 359 242.6 359 246 C357.535625 246.20625 356.07125 246.4125 354.5625 246.625 C346.74202638 248.22891609 341.17809645 251.86578935 336.625 258.4375 C333.57087655 263.49668511 331.09266002 268.28635262 330.42578125 274.21484375 C330.21501953 276.08849609 330.21501953 276.08849609 330 278 C269.92801268 282.35004046 269.92801268 282.35004046 257.71875 272.9375 C252.44975398 268.37014144 248.41697232 262.79179547 244.77709961 256.875 C239.52261979 248.37427816 231.69773508 241.6298718 224.58398438 234.7109375 C219.90310507 230.09743749 215.75784664 225.3964479 212 220 C212.61746094 219.37996094 213.23492187 218.75992188 213.87109375 218.12109375 C228.52159028 202.80162477 237.47895671 183.60596114 242 163 C242.22558594 162.02675781 242.45117188 161.05351562 242.68359375 160.05078125 C248.34610394 130.80098724 241.83513818 100.05139205 226 75 C222.89133545 70.48777401 219.48636345 66.22572275 216 62 C215.36058472 61.21375244 215.36058472 61.21375244 214.70825195 60.41162109 C197.2788484 39.13860826 168.11369528 25.61955608 141.13525391 22.2109375 C110.74483139 19.20872791 79.55585326 26.8358457 55.55078125 46.01953125 C53.12454395 47.90330202 50.66448715 49.47812175 48 51 C47.59910156 50.56880859 47.19820312 50.13761719 46.78515625 49.69335938 C38.51158016 40.81005262 30.16132445 32.03292981 21.49414062 23.53125 C17.68270269 19.7714791 14.10481795 15.88639053 10.60913086 11.83178711 C8.53024255 9.46524197 6.319929 7.25818735 4.0625 5.0625 C2.69012855 3.72678621 1.32982791 2.37807563 0 1 C0 0.67 0 0.34 0 0 Z "
     transform="translate(125,114)"
     style="fill: #FE2600;"
     id="path9074" />
  <path
     d="M0 0 C1.65199437 1.4304154 3.29861895 2.86707877 4.9375 4.3125 C5.56785156 4.81136719 6.19820312 5.31023437 6.84765625 5.82421875 C27.13283148 21.95070202 41.66491525 51.33941999 44.7265625 76.91113281 C47.76661924 111.51992692 39.33956556 143.54110595 16.9375 170.3125 C16.25042969 171.15167969 15.56335938 171.99085938 14.85546875 172.85546875 C10.39626025 178.15957992 10.39626025 178.15957992 6.9375 179.3125 C0.09532444 172.0684656 -6.5890267 164.80683845 -12.8203125 157.0234375 C-15.30156709 154.02345373 -17.91117605 151.16099592 -20.5625 148.3125 C-24.8427003 143.71267195 -28.85031782 138.95714084 -32.7890625 134.05859375 C-36.05285391 130.11624777 -39.5137981 126.37432614 -42.99609375 122.625 C-47.93720127 117.095443 -47.56128977 112.63087794 -47.6875 105.5 C-47.74550781 104.41912109 -47.80351562 103.33824219 -47.86328125 102.22460938 C-47.98798546 94.41141124 -47.98798546 94.41141124 -45.41308594 91.35400391 C-43.36317456 89.82114822 -41.30451083 88.54406028 -39.0625 87.3125 C-36.11455646 85.49895844 -36.11455646 85.49895844 -34.0625 83.3125 C-30.34848983 64.74244914 -37.525684 39.13829993 -47.0625 23.3125 C-49.98847807 19.19241984 -49.98847807 19.19241984 -54.0625 16.3125 C-56.0425 16.3125 -58.0225 16.3125 -60.0625 16.3125 C-60.7225 43.0425 -61.3825 69.7725 -62.0625 97.3125 C-63.0525 97.3125 -64.0425 97.3125 -65.0625 97.3125 C-66.9375 95.328125 -66.9375 95.328125 -69.0625 92.5625 C-72.95672161 87.61319372 -77.0464311 82.98173097 -81.43164062 78.46191406 C-84.14803027 75.58979525 -85.86109148 73.08835535 -87.0625 69.3125 C-82.33206522 63.53085749 -82.33206522 63.53085749 -79.8828125 61.546875 C-77.26904992 58.33856556 -77.80105263 56.39075308 -78.1875 52.3125 C-78.31416475 50.81383269 -78.44043543 49.31513205 -78.56640625 47.81640625 C-78.68459717 46.54240967 -78.68459717 46.54240967 -78.80517578 45.24267578 C-79.21844687 40.53671793 -79.53029749 35.82396454 -79.85693359 31.11132812 C-80.24574321 25.51076987 -80.65428278 19.91167154 -81.0625 14.3125 C-82.5475 14.8075 -82.5475 14.8075 -84.0625 15.3125 C-84.3925 24.8825 -84.7225 34.4525 -85.0625 44.3125 C-85.7225 44.3125 -86.3825 44.3125 -87.0625 44.3125 C-87.7225 34.4125 -88.3825 24.5125 -89.0625 14.3125 C-90.0525 14.6425 -91.0425 14.9725 -92.0625 15.3125 C-92.3925 24.8825 -92.7225 34.4525 -93.0625 44.3125 C-94.3825 44.3125 -95.7025 44.3125 -97.0625 44.3125 C-97.0625 34.4125 -97.0625 24.5125 -97.0625 14.3125 C-98.0525 14.6425 -99.0425 14.9725 -100.0625 15.3125 C-100.3925 24.8825 -100.7225 34.4525 -101.0625 44.3125 C-102.3825 44.3125 -103.7025 44.3125 -105.0625 44.3125 C-105.0625 34.4125 -105.0625 24.5125 -105.0625 14.3125 C-106.0525 14.3125 -107.0425 14.3125 -108.0625 14.3125 C-108.1126123 15.08440674 -108.16272461 15.85631348 -108.21435547 16.65161133 C-108.44621401 20.14342206 -108.69169096 23.63414478 -108.9375 27.125 C-109.01613281 28.33994141 -109.09476563 29.55488281 -109.17578125 30.80664062 C-109.25957031 31.97001953 -109.34335938 33.13339844 -109.4296875 34.33203125 C-109.50300293 35.40557861 -109.57631836 36.47912598 -109.65185547 37.58520508 C-110.0625 40.3125 -110.0625 40.3125 -112.0625 43.3125 C-112.58457031 42.65765625 -113.10664063 42.0028125 -113.64453125 41.328125 C-117.80630868 36.16781253 -122.04733529 31.16344436 -126.5625 26.3125 C-130.92124048 21.62624607 -135.02959618 16.79015942 -139.046875 11.8046875 C-141.65349903 8.58176864 -144.34793427 5.44469123 -147.0625 2.3125 C-111.79670027 -37.81754797 -38.17313315 -30.90206017 0 0 Z "
     transform="translate(325.0625,159.6875)"
     style="fill: #F3F5B8;"
     id="path9076" />
  <path
     d="M0 0 C135.3 0 270.6 0 410 0 C411.98 7.425 411.98 7.425 414 15 C418.70493367 22.50787287 423.55446339 26.9421333 432 30 C434.31 30.33 436.62 30.66 439 31 C439 36.61 439 42.22 439 48 C437.68 47.34 436.36 46.68 435 46 C429.2369568 45.43389961 429.2369568 45.43389961 424.125 47.75 C420.22135671 51.88326936 419.60435456 55.2102766 419.75 60.75390625 C420.25398502 65.28189669 422.16221886 68.09040905 425.1875 71.375 C429.10999049 73.64132784 431.49997433 73.3629053 436 73 C437.485 72.505 437.485 72.505 439 72 C439 78.93 439 85.86 439 93 C434.05 93.99 434.05 93.99 429 95 C424.67920271 97.574092 422.58873687 100.2337894 421 105 C420.16081774 112.07310758 419.98854402 118.51585603 424.375 124.41015625 C428.81961623 128.75861491 432.85218758 130 439 130 C439 136.6 439 143.2 439 150 C436.6796875 150.61875 436.6796875 150.61875 434.3125 151.25 C428.85285199 152.90794396 425.62977041 154.8082398 422.1875 159.4375 C420.13904424 165.58286728 419.73410022 172.27848907 421.84375 178.48046875 C424.67456297 183.5778448 428.53139377 186.16677405 434 188 C435.65 188.33 437.3 188.66 439 189 C439 195.6 439 202.2 439 209 C436.710625 208.62875 436.710625 208.62875 434.375 208.25 C430.55202801 207.87689524 429.16637317 207.92437583 425.5625 209.5625 C421.45517988 213.46946304 419.85184717 216.8760807 419.625 222.5 C419.79260024 226.64810593 420.54165661 229.55831926 423 233 C426.54639549 235.49859683 428.33808932 236.0448753 432.6875 235.75 C435.97702602 235.06261774 435.97702602 235.06261774 439 234 C439 239.28 439 244.56 439 250 C437.185 250.37125 435.37 250.7425 433.5 251.125 C425.31771453 253.21388935 420.36955422 256.51079975 415.6875 263.5625 C412.24205721 270.00840744 412.24205721 270.00840744 410 282 C274.7 282 139.4 282 0 282 C-0.66 278.37 -1.32 274.74 -2 271 C-3.58060355 267.75560324 -5.0429697 264.96556125 -7 262 C-7.5775 261.0925 -8.155 260.185 -8.75 259.25 C-14.18003666 253.81996334 -19.4332801 252.08095999 -27 251 C-27 245.39 -27 239.78 -27 234 C-25.68 234.66 -24.36 235.32 -23 236 C-18.61960126 236.55750529 -16.75543951 236.57077652 -13.1875 233.875 C-9.83897034 229.47407531 -8.75905918 225.98032517 -9.0625 220.5 C-9.73006625 215.68049734 -11.55344256 213.36249506 -15 210 C-18.8231584 208.0884208 -23.05448165 208.68482722 -27 210 C-27 203.07 -27 196.14 -27 189 C-24.36 188.67 -21.72 188.34 -19 188 C-14.39083538 185.13014279 -12.06523338 182.25086461 -10.47265625 177.16796875 C-8.83820185 169.67109112 -9.99339391 163.55507029 -14 157 C-18.24866157 152.27926492 -20.00612152 152.87423481 -27 152 C-27 145.4 -27 138.8 -27 132 C-25.453125 131.62875 -23.90625 131.2575 -22.3125 130.875 C-17.00284774 129.27534522 -14.93691826 127.68071347 -12 123 C-9.12907056 116.84800834 -9.07595526 110.1759983 -11.125 103.75 C-12.88026809 99.65165311 -15.21982043 97.42502086 -19 95 C-21.64 94.34 -24.28 93.68 -27 93 C-27 86.4 -27 79.8 -27 73 C-24.03 73.33 -21.06 73.66 -18 74 C-13.76636673 72.34336089 -11.83299407 70.12423666 -10 66 C-8.6070768 59.93083463 -8.92859037 55.49684819 -12 50 C-13.98341139 47.676112 -14.79882679 47.0581167 -17.8125 46.1875 C-21.54741438 45.76981515 -21.54741438 45.76981515 -27 48 C-27 42.72 -27 37.44 -27 32 C-25.63875 31.7525 -24.2775 31.505 -22.875 31.25 C-14.92048873 29.43537712 -9.55172693 24.62872854 -5 18 C-2.1422592 12.0090735 -0.94391321 6.60739249 0 0 Z M3 2 C1.35 7.28 -0.3 12.56 -2 18 C-5.96022291 24.51236657 -11.03481539 30.39384386 -18.51171875 32.8125 C-20.65628972 33.29730097 -22.82767256 33.66057384 -25 34 C-25 37.3 -25 40.6 -25 44 C-23.618125 43.938125 -22.23625 43.87625 -20.8125 43.8125 C-16.66189567 43.8385226 -14.20820151 44.15845009 -11 47 C-6.93890544 52.15868768 -6.32208783 56.53070383 -6.54296875 63.05078125 C-7.22361965 67.44301572 -8.89540964 70.8137099 -12 74 C-16.11954599 76.57471624 -20.24528415 76.58046625 -25 77 C-25 81.62 -25 86.24 -25 91 C-23.47375 91.33 -21.9475 91.66 -20.375 92 C-14.54383666 93.72039996 -11.86592714 96.75461306 -9 102 C-6.78427202 108.64718395 -6.66537357 118.25329533 -9.6875 124.6875 C-12.63890862 129.42826436 -15.92010915 131.86148313 -21.3125 133.25 C-22.529375 133.4975 -23.74625 133.745 -25 134 C-25 138.95 -25 143.9 -25 149 C-23.1746875 149.37125 -23.1746875 149.37125 -21.3125 149.75 C-15.92010915 151.13851687 -12.63890862 153.57173564 -9.6875 158.3125 C-6.58475726 165.06254848 -6.89731481 173.46520715 -8.625 180.5703125 C-10.86130146 185.82162754 -14.83878954 188.76059211 -20 191 C-21.65 191.33 -23.3 191.66 -25 192 C-25 196.62 -25 201.24 -25 206 C-23.80375 205.9175 -22.6075 205.835 -21.375 205.75 C-16.844343 205.77401408 -14.44604594 206.94555019 -11 210 C-6.91781795 215.15644048 -6.32164402 219.51760299 -6.54296875 226.05078125 C-7.22361965 230.44301572 -8.89540964 233.8137099 -12 237 C-16.24418885 239.72335451 -20.09381804 239.14429947 -25 239 C-25 241.97 -25 244.94 -25 248 C-23.55625 248.309375 -22.1125 248.61875 -20.625 248.9375 C-12.82300361 251.26480006 -7.89873713 256.8039565 -2.5625 262.6875 C-0.01649595 268.08502858 0.749558 274.16460402 2 280 C135.98 280 269.96 280 408 280 C408.66 276.37 409.32 272.74 410 269 C411.58055392 265.75570512 413.03868981 262.96295791 415 260 C415.598125 259.0925 416.19625 258.185 416.8125 257.25 C422.71707589 251.17672195 428.74794267 249.26073098 437 248 C437 244.7 437 241.4 437 238 C436.27554687 238.05800781 435.55109375 238.11601562 434.8046875 238.17578125 C425.91821236 238.59048342 425.91821236 238.59048342 422.5 235.875 C418.17148191 230.8972042 416.39773824 226.87298799 416.65234375 220.30859375 C417.45947893 214.9488534 419.68675231 211.21944429 423.625 207.5625 C428.17259335 205.45713271 432.00349154 205.27008154 437 205 C437 200.38 437 195.76 437 191 C435.80375 190.7525 434.6075 190.505 433.375 190.25 C428.32335501 188.93140484 424.63139932 187.31150774 421.51953125 182.90234375 C418.00289416 176.68666306 416.77143518 171.06928281 418 164 C420.02338399 157.48433229 422.91577985 153.25804079 428.83984375 149.83984375 C431 149 431 149 437 148 C437 143.05 437 138.1 437 133 C435.783125 132.731875 434.56625 132.46375 433.3125 132.1875 C428.20888115 130.88234174 425.07365297 129.41108676 421.8125 125.125 C418.0783723 118.6868488 417.05960437 113.39447932 418 106 C419.98131978 99.48468331 422.93571801 95.24653643 428.83984375 91.83984375 C431 91 431 91 437 90 C437 85.38 437 80.76 437 76 C435.824375 76.0825 434.64875 76.165 433.4375 76.25 C428.78785669 76.22531163 425.51654968 75.07028703 422 72 C418.40747512 67.20996683 416.57468335 62.20844651 416.65234375 56.1953125 C417.44821966 51.1696691 420.51573849 47.35703909 424.1875 44 C428.42711155 42.49258256 432.54734386 42.76655978 437 43 C437 40.03 437 37.06 437 34 C436.38253906 33.85304688 435.76507813 33.70609375 435.12890625 33.5546875 C425.91906235 31.11555076 418.70404811 27.09703507 413.21484375 19.14453125 C410.11591278 13.67407111 409.02820213 8.16921278 408 2 C274.35 2 140.7 2 3 2 Z "
     transform="translate(47,112)"
     style="fill: #454040;"
     id="path9078" />
  <path
     d="M0 0 C4.76362884 0.45804123 6.66419185 2.42422163 9.68359375 6.01953125 C17.82000574 17.07237143 21.14642211 30.98460724 23.25 44.3125 C23.38148438 45.10785156 23.51296875 45.90320313 23.6484375 46.72265625 C23.95303777 48.92483388 24.12274494 51.09260612 24.25 53.3125 C24.33765625 54.53453125 24.4253125 55.7565625 24.515625 57.015625 C25.03225556 66.95472785 25.03225556 66.95472785 23.15625 70.2109375 C21.10912472 71.92050489 18.84388188 73.0584048 16.40063477 74.10375977 C14.14532454 75.28739989 12.81899329 76.28708648 11.25 78.3125 C10.30444832 82.92529651 10.5518358 87.43870799 10.75 92.125 C10.78224962 93.47983202 10.81151279 94.8347382 10.83789062 96.18969727 C10.92797085 100.23312846 11.08402698 104.2714617 11.25 108.3125 C11.29253906 109.42915039 11.33507812 110.54580078 11.37890625 111.69628906 C11.53318344 115.67639164 11.6992447 119.65570471 11.88378906 123.63452148 C12.21385456 130.8183359 12.42358818 137.99636105 12.5 145.1875 C12.52126953 146.17548584 12.54253906 147.16347168 12.56445312 148.18139648 C12.56896484 149.08833252 12.57347656 149.99526855 12.578125 150.9296875 C12.5874707 151.73003418 12.59681641 152.53038086 12.60644531 153.35498047 C12.48881836 154.00096191 12.37119141 154.64694336 12.25 155.3125 C8.1890575 158.019795 5.01146896 157.7261881 0.25 157.3125 C-5.21341463 155.84908537 -5.21341463 155.84908537 -6.75 154.3125 C-6.8384512 151.76437627 -6.8606261 149.24576033 -6.83764648 146.69775391 C-6.83378402 145.89660975 -6.82992155 145.09546558 -6.82594204 144.27004433 C-6.76030078 133.89491295 -6.55262857 123.52154905 -6.34765625 113.1484375 C-6.30511465 110.94154036 -6.26267197 108.7346413 -6.22032166 106.52774048 C-6.13150294 101.92048884 -6.04142496 97.31326403 -5.95043945 92.70605469 C-5.85861782 88.05211362 -5.76843017 83.39814607 -5.67993164 78.74414062 C-4.84348929 34.75942475 -4.84348929 34.75942475 -4.30602837 16.1851387 C-4.24779083 14.16056021 -4.19354525 12.13586813 -4.13941956 10.11117554 C-4.08478798 8.35772324 -4.08478798 8.35772324 -4.02905273 6.56884766 C-3.99915756 5.56681305 -3.96926239 4.56477844 -3.9384613 3.53237915 C-3.65905719 0.24128778 -3.33159804 0.37859069 0 0 Z "
     transform="translate(267.75,174.6875)"
     style="fill: #FE2903;"
     id="path9080" />
  <path
     d="M0 0 C0.99 0 1.98 0 3 0 C3 9.9 3 19.8 3 30 C4.32 30 5.64 30 7 30 C7 20.43 7 10.86 7 1 C8.32 0.67 9.64 0.34 11 0 C11 9.9 11 19.8 11 30 C12.32 30 13.64 30 15 30 C15 20.43 15 10.86 15 1 C16.32 0.67 17.64 0.34 19 0 C21.76372213 9.47561873 21.16127155 20.21619252 21 30 C21.66 30 22.32 30 23 30 C23 20.43 23 10.86 23 1 C24.32 0.67 25.64 0.34 27 0 C28.12673044 3.79686899 28.41525147 7.65493881 28.75390625 11.58203125 C28.85166603 12.68063728 28.85166603 12.68063728 28.95140076 13.80143738 C29.08823368 15.3486877 29.22345712 16.8960811 29.35717773 18.44360352 C29.56091569 20.79422109 29.77129708 23.14417635 29.98242188 25.49414062 C30.11498483 27.00256894 30.24715878 28.51103149 30.37890625 30.01953125 C30.44139053 30.71456253 30.50387482 31.40959381 30.56825256 32.12568665 C31.60184607 44.26058911 31.60184607 44.26058911 28.8125 47.6875 C27.00300411 49.17530773 25.1709187 50.6362717 23.3125 52.0625 C20.8820084 54.09885783 20.08930974 55.07374193 19 58 C18.79942435 61.17801706 18.79942435 61.17801706 18.98828125 64.73828125 C19.01061829 65.40257141 19.03295532 66.06686157 19.05596924 66.75128174 C19.13175921 68.93882433 19.22232115 71.12550752 19.3125 73.3125 C19.36755971 74.85079094 19.42149918 76.38912235 19.47436523 77.92749023 C19.61179268 81.86648794 19.76033567 85.80496838 19.9128418 89.7434082 C20.54782396 106.18357665 21.11089503 122.62416597 21.23117065 139.07711792 C21.24364926 140.55855321 21.26110627 142.03995554 21.28372192 143.52127075 C21.31332338 145.57298696 21.32346231 147.62387701 21.328125 149.67578125 C21.3374707 150.85052002 21.34681641 152.02525879 21.35644531 153.2355957 C21.23881836 154.14784912 21.12119141 155.06010254 21 156 C17.877998 158.08133467 17.06733011 158.2737822 13.5 158.25 C12.33984375 158.25773437 12.33984375 158.25773437 11.15625 158.265625 C9 158 9 158 6 156 C5.71850228 153.07936477 5.62882744 150.37394783 5.671875 147.453125 C5.67338562 146.58282654 5.67489624 145.71252808 5.67645264 144.81585693 C5.68587118 141.96026957 5.71748203 139.10541041 5.75 136.25 C5.76191491 134.27734869 5.77297788 132.30469205 5.78320312 130.33203125 C5.85718042 119.21488725 6.08745059 108.10958045 6.5 97 C7.03417597 82.47149389 7.03417597 82.47149389 7.375 67.9375 C7.43204102 66.24077148 7.43204102 66.24077148 7.49023438 64.50976562 C7.61631894 58.24831674 7.61631894 58.24831674 4.68359375 52.875 C1.94668135 50.90915739 1.94668135 50.90915739 -1.3125 49.0625 C-3.62652607 47.14703369 -3.97587217 46.15399851 -4.44921875 43.1328125 C-4.56426784 35.32717391 -3.57855904 27.63652375 -2.5078125 19.921875 C-1.88953884 15.14689997 -1.54146402 10.37850664 -1.24609375 5.57421875 C-1 3 -1 3 0 0 Z "
     transform="translate(217,174)"
     style="fill: #C31F05;"
     id="path9082" />
  <path
     d="M0 0 C0.71671875 0.72832031 1.4334375 1.45664062 2.171875 2.20703125 C3.94817663 3.96125178 5.76662995 5.67477044 7.640625 7.32421875 C8.50171875 8.10410156 9.3628125 8.88398438 10.25 9.6875 C11.12140625 10.45449219 11.9928125 11.22148437 12.890625 12.01171875 C15.8824419 16.25012602 15.83022552 19.91902211 16 25 C16.0520459 25.8856665 16.1040918 26.77133301 16.15771484 27.68383789 C16.81826004 39.06452353 17.11902945 50.47694874 17.25 61.875 C17.28202515 63.35456177 17.28202515 63.35456177 17.31469727 64.86401367 C17.31912842 65.77256104 17.32355957 66.6811084 17.328125 67.6171875 C17.3374707 68.41753418 17.34681641 69.21788086 17.35644531 70.04248047 C17.18000488 71.01145264 17.18000488 71.01145264 17 72 C12.9390575 74.707295 9.76146896 74.4136881 5 74 C-0.46341463 72.53658537 -0.46341463 72.53658537 -2 71 C-2.08942143 68.45100649 -2.11239249 65.93171402 -2.08984375 63.3828125 C-2.08605209 62.58561798 -2.08226044 61.78842346 -2.07835388 60.96707153 C-2.01815618 51.59522767 -1.8357777 42.2250307 -1.62768555 32.85546875 C-1.56181818 29.84382546 -1.50251416 26.83209425 -1.44335938 23.8203125 C-1.40143937 21.87759554 -1.35913582 19.93488682 -1.31640625 17.9921875 C-1.29969376 17.10562469 -1.28298126 16.21906189 -1.26576233 15.30563354 C-1.14332299 10.13536118 -0.72856437 5.12106306 0 0 Z "
     transform="translate(263,258)"
     style="fill: #C51E03;"
     id="path9084" />
  <path
     d="M0 0 C0.99 0 1.98 0 3 0 C3 9.9 3 19.8 3 30 C4.32 30 5.64 30 7 30 C7 20.43 7 10.86 7 1 C8.32 0.67 9.64 0.34 11 0 C11 9.9 11 19.8 11 30 C12.32 30 13.64 30 15 30 C15 20.43 15 10.86 15 1 C16.32 0.67 17.64 0.34 19 0 C21.76372213 9.47561873 21.16127155 20.21619252 21 30 C21.66 30 22.32 30 23 30 C23 20.43 23 10.86 23 1 C24.32 0.67 25.64 0.34 27 0 C28.12673044 3.79686899 28.41525147 7.65493881 28.75390625 11.58203125 C28.85166603 12.68063728 28.85166603 12.68063728 28.95140076 13.80143738 C29.08823368 15.3486877 29.22345712 16.8960811 29.35717773 18.44360352 C29.56091569 20.79422109 29.77129708 23.14417635 29.98242188 25.49414062 C30.11498483 27.00256894 30.24715878 28.51103149 30.37890625 30.01953125 C30.44139053 30.71456253 30.50387482 31.40959381 30.56825256 32.12568665 C31.60184607 44.26058911 31.60184607 44.26058911 28.8125 47.6875 C26.22515808 49.81487002 23.63636338 51.93366114 21 54 C20.34 54.66 19.68 55.32 19 56 C15.89171772 52.92079217 12.7891067 49.83593071 9.6875 46.75 C8.36588867 45.44095703 8.36588867 45.44095703 7.01757812 44.10546875 C6.17001953 43.26113281 5.32246094 42.41679687 4.44921875 41.546875 C3.27879028 40.38430176 3.27879028 40.38430176 2.0847168 39.19824219 C-2.97412884 33.86391192 -2.97412884 33.86391192 -3.109375 29.34765625 C-3.00627418 27.91796916 -2.88557048 26.48947428 -2.75 25.0625 C-2.69134766 24.31339355 -2.63269531 23.56428711 -2.57226562 22.79248047 C-2.45130937 21.26329425 -2.32371779 19.7346182 -2.18945312 18.20654297 C-1.9154913 15.01573504 -1.71564943 11.8202057 -1.5 8.625 C-1.27517571 5.45337156 -1.00824851 3.02474552 0 0 Z "
     transform="translate(217,174)"
     style="fill: #FE2803;"
     id="path9086" />
  <path
     d="M0 0 C0 0.33 0 0.66 0 1 C-1.3303125 1.0928125 -1.3303125 1.0928125 -2.6875 1.1875 C-7.75351845 2.4301083 -10.02114823 5.40483414 -12.6875 9.75 C-13.120625 10.4925 -13.55375 11.235 -14 12 C-14.99 12.495 -14.99 12.495 -16 13 C-16.40729228 15.32156597 -16.74438677 17.6568787 -17 20 C-17.33 20 -17.66 20 -18 20 C-18.52771021 14.08964566 -17.91165432 10.65623706 -14.484375 5.765625 C-10.21351464 0.68554899 -6.51597972 -0.52127838 0 0 Z "
     transform="translate(481,154)"
     style="fill: #613E3A;"
     id="path9088" />
  <path
     d="M0 0 C0.66 0.33 1.32 0.66 2 1 C1.57847656 1.54269531 1.15695312 2.08539063 0.72265625 2.64453125 C0.17480469 3.35996094 -0.37304688 4.07539063 -0.9375 4.8125 C-1.48277344 5.52019531 -2.02804687 6.22789062 -2.58984375 6.95703125 C-4.16856248 9.04125052 -4.16856248 9.04125052 -5 12 C-5.99 12.495 -5.99 12.495 -7 13 C-7.46523063 14.89533342 -7.46523063 14.89533342 -7.625 17.0625 C-7.74875 18.361875 -7.8725 19.66125 -8 21 C-8.33 21 -8.66 21 -9 21 C-9.54876756 14.41478924 -8.8708146 9.47850118 -5 4 C-2.25 1.5 -2.25 1.5 0 0 Z "
     transform="translate(472,318)"
     style="fill: #653E39;"
     id="path9090" />
  <path
     d="M0 0 C0.66 0.33 1.32 0.66 2 1 C-1.625 5.875 -1.625 5.875 -5 7 C-3.70700306 4.11562221 -2.34058637 2.12780579 0 0 Z "
     transform="translate(37,344)"
     style="fill: #4D3D3B;"
     id="path9092" />
</svg>
