<?xml version="1.0" encoding="UTF-8" standalone="no"?>
<svg
   id="svg"
   version="1.1"
   style="display: block;"
   viewBox="0 0 504 506"
   sodipodi:docname="carta-di-credito.svg"
   inkscape:version="1.2.2 (b0a8486, 2022-12-01)"
   xmlns:inkscape="http://www.inkscape.org/namespaces/inkscape"
   xmlns:sodipodi="http://sodipodi.sourceforge.net/DTD/sodipodi-0.dtd"
   xmlns="http://www.w3.org/2000/svg"
   xmlns:svg="http://www.w3.org/2000/svg">
  <defs
     id="defs14312" />
  <sodipodi:namedview
     id="namedview14310"
     pagecolor="#ffffff"
     bordercolor="#000000"
     borderopacity="0.25"
     inkscape:showpageshadow="2"
     inkscape:pageopacity="0.0"
     inkscape:pagecheckerboard="0"
     inkscape:deskcolor="#d1d1d1"
     showgrid="false"
     inkscape:zoom="0.46640316"
     inkscape:cx="45.025424"
     inkscape:cy="253"
     inkscape:window-width="1427"
     inkscape:window-height="456"
     inkscape:window-x="0"
     inkscape:window-y="25"
     inkscape:window-maximized="0"
     inkscape:current-layer="svg" />
  <path
     d="M0 0 C8.92195262 7.57381376 11.00760205 16.76148649 12.90112305 27.87841797 C13.06737183 28.82100967 13.23362061 29.76360138 13.40490723 30.73475647 C13.94719739 33.81943911 14.47963146 36.90573001 15.01171875 39.9921875 C15.38804478 42.14699416 15.76490964 44.30170677 16.14228821 46.45632935 C16.92891856 50.95583959 17.71101578 55.45610491 18.48950195 59.95703125 C19.48842172 65.73191487 20.4956511 71.50530889 21.50586224 77.27822685 C22.2827033 81.71981874 23.05672345 86.16189812 23.82972145 90.60416031 C24.20041206 92.73416234 24.57162482 94.86407358 24.9433651 96.99389267 C25.46057579 99.96146023 25.97435664 102.92960016 26.48706055 105.89794922 C26.71843468 107.22109383 26.71843468 107.22109383 26.95448303 108.57096863 C27.16254074 109.78190437 27.16254074 109.78190437 27.37480164 111.01730347 C27.49626903 111.71816008 27.61773642 112.41901669 27.74288464 113.14111137 C28 115 28 115 28 118 C28.61672577 117.98667633 29.23345154 117.97335266 29.86886597 117.95962524 C36.3257752 117.82620913 42.78228885 117.7361109 49.24023438 117.67041016 C51.64566978 117.64035837 54.05099671 117.59950457 56.45605469 117.54736328 C59.92670547 117.47403967 63.39589967 117.44042576 66.8671875 117.4140625 C67.93113739 117.38309479 68.99508728 117.35212708 70.09127808 117.32022095 C78.47103004 117.31649893 84.40378558 119.808678 90.61642456 125.47402954 C95.92887424 131.35909328 97.45089153 137.48309663 97.38768005 145.18417358 C97.39575836 146.37805897 97.39575836 146.37805897 97.40399987 147.59606326 C97.41824385 150.24828404 97.41118461 152.90000321 97.40405273 155.55224609 C97.4097582 157.45983785 97.41672315 159.36742618 97.42485046 161.27500916 C97.44277838 166.44657093 97.44161403 171.61796299 97.43590808 176.78954649 C97.4328154 181.11104763 97.43890964 185.4325162 97.44494683 189.7540127 C97.45898953 199.95159597 97.45743314 210.14909545 97.44604492 220.34667969 C97.43456647 230.85713587 97.44863545 241.3673368 97.4754414 251.87775934 C97.49761417 260.91068102 97.50423213 269.94352268 97.49836498 278.97646964 C97.49499769 284.36743572 97.49739533 289.75823823 97.51461601 295.14918137 C97.53010791 300.22018598 97.52610455 305.29081322 97.50731087 310.36180305 C97.50363108 312.21891903 97.5067156 314.07606311 97.51719666 315.93315315 C97.61916099 335.49924964 97.61916099 335.49924964 91.03515625 343.33984375 C90.38417969 343.86707031 89.73320312 344.39429688 89.0625 344.9375 C88.41410156 345.48277344 87.76570313 346.02804687 87.09765625 346.58984375 C82.98890744 349.35196353 79.40781366 350.24997735 74.48763561 350.25726891 C73.38534435 350.2637178 72.2830531 350.27016669 71.14735907 350.276811 C69.33891775 350.2721652 69.33891775 350.2721652 67.49394226 350.26742554 C65.56652237 350.27422221 65.56652237 350.27422221 63.60016471 350.28115618 C60.03538477 350.29339125 56.47069865 350.29312513 52.9059025 350.29076743 C49.06052429 350.29035939 45.2151762 350.30139719 41.36981201 350.31088257 C33.83661091 350.32749637 26.30344111 350.33299229 18.77022322 350.33410732 C12.64674089 350.33505763 6.52326888 350.33916705 0.39978981 350.34550858 C-16.96147083 350.36312212 -34.32270675 350.37234728 -51.68397639 350.37084763 C-52.61995119 350.37076772 -53.555926 350.3706878 -54.52026367 350.37060547 C-55.92594016 350.37048283 -55.92594016 350.37048283 -57.36001416 350.37035771 C-72.54743829 350.3695448 -87.73476325 350.38868332 -102.9221587 350.4168822 C-118.51653382 350.44560825 -134.11086058 350.45942265 -149.70526284 350.45769465 C-158.46030788 350.45703065 -167.21524895 350.46252747 -175.97027016 350.48405075 C-183.42457267 350.50225889 -190.87872409 350.50661295 -198.3330392 350.4930319 C-202.13559618 350.48650032 -205.93786326 350.48639164 -209.74039268 350.5037384 C-213.86481179 350.52235991 -217.98855926 350.50991969 -222.11299133 350.49447632 C-223.31192672 350.50476344 -224.5108621 350.51505057 -225.74612886 350.52564943 C-234.05054451 350.45684515 -239.32515395 349.17373068 -245.75 343.625 C-250.46970415 338.11867849 -253.13020929 333.90146149 -253.11352539 326.6105957 C-253.11341209 324.95922356 -253.11341209 324.95922356 -253.11329651 323.27449036 C-253.10813522 322.08691635 -253.10297394 320.89934235 -253.09765625 319.67578125 C-253.0962413 318.45924362 -253.09482635 317.24270599 -253.09336853 315.98930359 C-253.08776312 312.0970109 -253.07520967 308.20477536 -253.0625 304.3125 C-253.0574857 301.67643312 -253.05292267 299.04036534 -253.04882812 296.40429688 C-253.03779193 289.93617836 -253.0210485 283.46809326 -253 277 C-254.29886894 277.24623108 -254.29886894 277.24623108 -255.62397766 277.49743652 C-258.0117471 277.95009424 -260.39959301 278.40234877 -262.7875061 278.85424805 C-264.67726141 279.21316433 -266.5667182 279.573701 -268.45492554 279.94067383 C-292.84378708 284.67805781 -292.84378708 284.67805781 -303 278 C-314.12344567 269.86197216 -315.10433427 255.4179224 -317.28393555 242.75366211 C-317.58747057 241.03414689 -317.89187739 239.31478537 -318.19708252 237.5955658 C-319.01796651 232.95676074 -319.82645915 228.31587549 -320.63244605 223.67446208 C-321.48067283 218.80127869 -322.33975912 213.93000932 -323.19746399 209.05848694 C-324.63552457 200.88154918 -326.06603552 192.70332029 -327.49145508 184.52416992 C-329.13634932 175.08589407 -330.79066767 165.64931072 -332.45061082 156.21367067 C-334.2228498 146.1396484 -335.98944315 136.064643 -337.75371575 125.98922276 C-338.26030923 123.09788846 -338.76780853 120.20671428 -339.27545738 117.31556511 C-340.07442182 112.76316414 -340.86948984 108.21009844 -341.66162109 103.65650368 C-341.95182286 101.99147882 -342.24323632 100.32666459 -342.53598976 98.66208649 C-347.43024023 70.81694352 -347.43024023 70.81694352 -342.703125 62.80078125 C-335.06662219 52.15297707 -325.9612603 49.72546286 -313.58837891 47.609375 C-312.33776137 47.38842509 -311.08714384 47.16747519 -309.79862881 46.93982983 C-306.34038275 46.32905442 -302.88036191 45.72892605 -299.41996121 45.13049674 C-295.68343269 44.48230774 -291.94869069 43.82397506 -288.21372986 43.16682434 C-280.90169447 41.88186502 -273.58814346 40.60574603 -266.27404457 39.332591 C-256.88713996 37.69824468 -247.50202295 36.05372383 -238.11694336 34.40893555 C-234.6153491 33.79534976 -231.11374496 33.18182029 -227.61213684 32.5683136 C-226.73717739 32.41500318 -225.86221794 32.26169277 -224.96074456 32.10373658 C-219.57747462 31.16060886 -214.19400663 30.21862044 -208.81039041 29.27747148 C-184.04901723 24.94864974 -159.2957296 20.57612378 -134.54837036 16.16791153 C-129.20091412 15.21548388 -123.85318211 14.26461185 -118.50537109 13.31417847 C-117.2002398 13.08220864 -117.2002398 13.08220864 -115.86874223 12.84555256 C-112.39002921 12.22727213 -108.91131062 11.60902307 -105.43257093 10.99089265 C-96.09505145 9.33165774 -86.75802941 7.66973144 -77.42242432 5.99975586 C-70.20680974 4.70901102 -62.99018968 3.42407971 -55.77222663 2.14653033 C-52.09209786 1.4949415 -48.41253609 0.84050288 -44.7342968 0.17832375 C-40.741874 -0.54038872 -36.74720629 -1.24575652 -32.75219727 -1.94995117 C-31.59751764 -2.16006332 -30.44283802 -2.37017548 -29.25316811 -2.58665466 C-18.9496637 -4.38176407 -9.29053307 -5.63797439 0 0 Z "
     transform="translate(369,82)"
     style="fill: #FEFEFE;"
     id="path14205" />
  <path
     d="M0 0 C8.92195262 7.57381376 11.00760205 16.76148649 12.90112305 27.87841797 C13.06737183 28.82100967 13.23362061 29.76360138 13.40490723 30.73475647 C13.94719739 33.81943911 14.47963146 36.90573001 15.01171875 39.9921875 C15.38804478 42.14699416 15.76490964 44.30170677 16.14228821 46.45632935 C16.92891856 50.95583959 17.71101578 55.45610491 18.48950195 59.95703125 C19.48842172 65.73191487 20.4956511 71.50530889 21.50586224 77.27822685 C22.2827033 81.71981874 23.05672345 86.16189812 23.82972145 90.60416031 C24.20041206 92.73416234 24.57162482 94.86407358 24.9433651 96.99389267 C25.46057579 99.96146023 25.97435664 102.92960016 26.48706055 105.89794922 C26.71843468 107.22109383 26.71843468 107.22109383 26.95448303 108.57096863 C27.16254074 109.78190437 27.16254074 109.78190437 27.37480164 111.01730347 C27.49626903 111.71816008 27.61773642 112.41901669 27.74288464 113.14111137 C28 115 28 115 28 118 C28.61672577 117.98667633 29.23345154 117.97335266 29.86886597 117.95962524 C36.3257752 117.82620913 42.78228885 117.7361109 49.24023438 117.67041016 C51.64566978 117.64035837 54.05099671 117.59950457 56.45605469 117.54736328 C59.92670547 117.47403967 63.39589967 117.44042576 66.8671875 117.4140625 C67.93113739 117.38309479 68.99508728 117.35212708 70.09127808 117.32022095 C78.47103004 117.31649893 84.40378558 119.808678 90.61642456 125.47402954 C95.92887424 131.35909328 97.45089153 137.48309663 97.38768005 145.18417358 C97.39575836 146.37805897 97.39575836 146.37805897 97.40399987 147.59606326 C97.41824385 150.24828404 97.41118461 152.90000321 97.40405273 155.55224609 C97.4097582 157.45983785 97.41672315 159.36742618 97.42485046 161.27500916 C97.44277838 166.44657093 97.44161403 171.61796299 97.43590808 176.78954649 C97.4328154 181.11104763 97.43890964 185.4325162 97.44494683 189.7540127 C97.45898953 199.95159597 97.45743314 210.14909545 97.44604492 220.34667969 C97.43456647 230.85713587 97.44863545 241.3673368 97.4754414 251.87775934 C97.49761417 260.91068102 97.50423213 269.94352268 97.49836498 278.97646964 C97.49499769 284.36743572 97.49739533 289.75823823 97.51461601 295.14918137 C97.53010791 300.22018598 97.52610455 305.29081322 97.50731087 310.36180305 C97.50363108 312.21891903 97.5067156 314.07606311 97.51719666 315.93315315 C97.61916099 335.49924964 97.61916099 335.49924964 91.03515625 343.33984375 C90.38417969 343.86707031 89.73320312 344.39429688 89.0625 344.9375 C88.41410156 345.48277344 87.76570313 346.02804687 87.09765625 346.58984375 C82.98890744 349.35196353 79.40781366 350.24997735 74.48763561 350.25726891 C73.38534435 350.2637178 72.2830531 350.27016669 71.14735907 350.276811 C69.33891775 350.2721652 69.33891775 350.2721652 67.49394226 350.26742554 C65.56652237 350.27422221 65.56652237 350.27422221 63.60016471 350.28115618 C60.03538477 350.29339125 56.47069865 350.29312513 52.9059025 350.29076743 C49.06052429 350.29035939 45.2151762 350.30139719 41.36981201 350.31088257 C33.83661091 350.32749637 26.30344111 350.33299229 18.77022322 350.33410732 C12.64674089 350.33505763 6.52326888 350.33916705 0.39978981 350.34550858 C-16.96147083 350.36312212 -34.32270675 350.37234728 -51.68397639 350.37084763 C-52.61995119 350.37076772 -53.555926 350.3706878 -54.52026367 350.37060547 C-55.92594016 350.37048283 -55.92594016 350.37048283 -57.36001416 350.37035771 C-72.54743829 350.3695448 -87.73476325 350.38868332 -102.9221587 350.4168822 C-118.51653382 350.44560825 -134.11086058 350.45942265 -149.70526284 350.45769465 C-158.46030788 350.45703065 -167.21524895 350.46252747 -175.97027016 350.48405075 C-183.42457267 350.50225889 -190.87872409 350.50661295 -198.3330392 350.4930319 C-202.13559618 350.48650032 -205.93786326 350.48639164 -209.74039268 350.5037384 C-213.86481179 350.52235991 -217.98855926 350.50991969 -222.11299133 350.49447632 C-223.31192672 350.50476344 -224.5108621 350.51505057 -225.74612886 350.52564943 C-234.05054451 350.45684515 -239.32515395 349.17373068 -245.75 343.625 C-250.46970415 338.11867849 -253.13020929 333.90146149 -253.11352539 326.6105957 C-253.11341209 324.95922356 -253.11341209 324.95922356 -253.11329651 323.27449036 C-253.10813522 322.08691635 -253.10297394 320.89934235 -253.09765625 319.67578125 C-253.0962413 318.45924362 -253.09482635 317.24270599 -253.09336853 315.98930359 C-253.08776312 312.0970109 -253.07520967 308.20477536 -253.0625 304.3125 C-253.0574857 301.67643312 -253.05292267 299.04036534 -253.04882812 296.40429688 C-253.03779193 289.93617836 -253.0210485 283.46809326 -253 277 C-254.29886894 277.24623108 -254.29886894 277.24623108 -255.62397766 277.49743652 C-258.0117471 277.95009424 -260.39959301 278.40234877 -262.7875061 278.85424805 C-264.67726141 279.21316433 -266.5667182 279.573701 -268.45492554 279.94067383 C-292.84378708 284.67805781 -292.84378708 284.67805781 -303 278 C-314.12344567 269.86197216 -315.10433427 255.4179224 -317.28393555 242.75366211 C-317.58747057 241.03414689 -317.89187739 239.31478537 -318.19708252 237.5955658 C-319.01796651 232.95676074 -319.82645915 228.31587549 -320.63244605 223.67446208 C-321.48067283 218.80127869 -322.33975912 213.93000932 -323.19746399 209.05848694 C-324.63552457 200.88154918 -326.06603552 192.70332029 -327.49145508 184.52416992 C-329.13634932 175.08589407 -330.79066767 165.64931072 -332.45061082 156.21367067 C-334.2228498 146.1396484 -335.98944315 136.064643 -337.75371575 125.98922276 C-338.26030923 123.09788846 -338.76780853 120.20671428 -339.27545738 117.31556511 C-340.07442182 112.76316414 -340.86948984 108.21009844 -341.66162109 103.65650368 C-341.95182286 101.99147882 -342.24323632 100.32666459 -342.53598976 98.66208649 C-347.43024023 70.81694352 -347.43024023 70.81694352 -342.703125 62.80078125 C-335.06662219 52.15297707 -325.9612603 49.72546286 -313.58837891 47.609375 C-312.33776137 47.38842509 -311.08714384 47.16747519 -309.79862881 46.93982983 C-306.34038275 46.32905442 -302.88036191 45.72892605 -299.41996121 45.13049674 C-295.68343269 44.48230774 -291.94869069 43.82397506 -288.21372986 43.16682434 C-280.90169447 41.88186502 -273.58814346 40.60574603 -266.27404457 39.332591 C-256.88713996 37.69824468 -247.50202295 36.05372383 -238.11694336 34.40893555 C-234.6153491 33.79534976 -231.11374496 33.18182029 -227.61213684 32.5683136 C-226.73717739 32.41500318 -225.86221794 32.26169277 -224.96074456 32.10373658 C-219.57747462 31.16060886 -214.19400663 30.21862044 -208.81039041 29.27747148 C-184.04901723 24.94864974 -159.2957296 20.57612378 -134.54837036 16.16791153 C-129.20091412 15.21548388 -123.85318211 14.26461185 -118.50537109 13.31417847 C-117.2002398 13.08220864 -117.2002398 13.08220864 -115.86874223 12.84555256 C-112.39002921 12.22727213 -108.91131062 11.60902307 -105.43257093 10.99089265 C-96.09505145 9.33165774 -86.75802941 7.66973144 -77.42242432 5.99975586 C-70.20680974 4.70901102 -62.99018968 3.42407971 -55.77222663 2.14653033 C-52.09209786 1.4949415 -48.41253609 0.84050288 -44.7342968 0.17832375 C-40.741874 -0.54038872 -36.74720629 -1.24575652 -32.75219727 -1.94995117 C-31.59751764 -2.16006332 -30.44283802 -2.37017548 -29.25316811 -2.58665466 C-18.9496637 -4.38176407 -9.29053307 -5.63797439 0 0 Z M-246.625 130.0625 C-250.27893116 135.47696163 -251.29534652 140.27594763 -251.26742554 146.75384521 C-251.27195665 147.5276422 -251.27648776 148.30143918 -251.28115618 149.09868455 C-251.29380213 151.68792096 -251.29217969 154.27694708 -251.29052734 156.86621094 C-251.29651254 158.72424591 -251.30331807 160.5822784 -251.31088257 162.44030762 C-251.32855237 167.48592276 -251.33323841 172.53147006 -251.33451414 177.57711315 C-251.33593594 180.73092288 -251.34020614 183.88471537 -251.34550858 187.03852081 C-251.36401333 198.04554845 -251.37217878 209.05252764 -251.37060547 220.05957031 C-251.36940452 230.31208755 -251.39049671 240.56439411 -251.4220928 250.81685805 C-251.44826731 259.62468 -251.45897224 268.43243321 -251.45769465 277.24029374 C-251.45718529 282.4982813 -251.46285411 287.75608171 -251.48405075 293.01403046 C-251.5034524 297.96187887 -251.50354434 302.90936201 -251.48901749 307.85722351 C-251.48693057 309.66919235 -251.49162331 311.48118417 -251.5037384 313.29311371 C-251.77330499 326.2164929 -251.77330499 326.2164929 -247 338 C-246.64194464 338.56451748 -246.28388927 339.12903496 -245.91498375 339.71065903 C-242.83941131 343.93954029 -238.87454675 346.35807214 -234 348 C-229.75952658 348.56393467 -225.56469006 348.54022785 -221.29176331 348.50793457 C-220.02129322 348.51417453 -218.75082312 348.5204145 -217.44185394 348.52684355 C-213.9312696 348.54348632 -210.42112221 348.53531388 -206.91053665 348.52289867 C-203.11834741 348.51382953 -199.32623207 348.52782718 -195.53405762 348.53881836 C-188.11117601 348.55658886 -180.68845635 348.55277003 -173.26556844 348.5411678 C-167.23130701 348.53212727 -161.1970909 348.53091215 -155.16282463 348.53526306 C-154.30336971 348.53587599 -153.44391479 348.53648893 -152.55841578 348.53712043 C-150.81233262 348.53839936 -149.06624948 348.53969621 -147.32016634 348.5410108 C-130.95333249 348.55241247 -114.58658831 348.53930974 -98.21976917 348.51780933 C-84.1841469 348.49994191 -70.14865699 348.50304031 -56.11303711 348.52148438 C-39.80556352 348.54290389 -23.49816852 348.55131051 -7.19068283 348.53903532 C-5.45078561 348.53776116 -3.71088838 348.53650367 -1.97099113 348.53526306 C-0.68697316 348.53433741 -0.68697316 348.53433741 0.62298457 348.53339306 C6.64768213 348.52994316 12.67232975 348.53576079 18.69701958 348.54518127 C26.04254261 348.5564148 33.38789473 348.55333297 40.73339825 348.5320583 C44.47938236 348.5215655 48.22508179 348.5173955 51.97106361 348.53065491 C56.03588209 348.54482495 60.09998548 348.52787448 64.16477966 348.50793457 C65.34319205 348.51685746 66.52160444 348.52578034 67.7357263 348.53497362 C75.6932433 348.45926157 82.09068215 347.22404511 88.33984375 342.0703125 C88.86707031 341.42835938 89.39429688 340.78640625 89.9375 340.125 C90.75541016 339.16980469 90.75541016 339.16980469 91.58984375 338.1953125 C94.86935075 333.0898196 95.29277278 327.96944296 95.26742554 322.04324341 C95.27422221 320.86795729 95.27422221 320.86795729 95.28115618 319.66892803 C95.29378037 317.05282505 95.29218111 314.43693078 95.29052734 311.82080078 C95.29651379 309.94129164 95.3033196 308.06178495 95.31088257 306.18228149 C95.32853689 301.08307554 95.33323768 295.98393672 95.33451414 290.88470316 C95.3359365 287.69756149 95.34020768 284.51043685 95.34550858 281.32329941 C95.36400622 270.20071073 95.37217942 259.07816996 95.37060547 247.95556641 C95.3694038 237.59337825 95.3905119 227.23139829 95.4220928 216.86926281 C95.44825553 207.9671697 95.45897278 199.0651446 95.45769465 190.16301334 C95.45718506 184.8486231 95.46286668 179.53441796 95.48405075 174.22006607 C95.50343327 169.22132054 95.50355742 164.2229367 95.48901749 159.22417831 C95.48692839 157.39243796 95.49163628 155.56067496 95.5037384 153.72897339 C95.51922294 151.22246748 95.5098624 148.71720389 95.49447632 146.21072388 C95.50990701 145.13122394 95.50990701 145.13122394 95.52564943 144.02991593 C95.43678683 137.45004139 93.12532494 132.39526783 88.81640625 127.5390625 C88.07261719 126.90742188 87.32882812 126.27578125 86.5625 125.625 C85.82128906 124.97789062 85.08007812 124.33078125 84.31640625 123.6640625 C80.20841188 120.71295693 76.63297104 119.75065454 71.60813046 119.73714447 C69.99496941 119.72562104 69.99496941 119.72562104 68.34921926 119.7138648 C67.17355683 119.71559777 65.9978944 119.71733073 64.78660583 119.71911621 C63.53306637 119.71317397 62.27952691 119.70723172 60.98800141 119.70110941 C57.51076424 119.68499515 54.0336097 119.68139171 50.55633962 119.67991447 C46.80494757 119.67620876 43.05359817 119.66111159 39.30223083 119.64764404 C31.0995094 119.62049297 22.89680754 119.60842993 14.69404864 119.59962273 C9.56963421 119.59409429 4.4452273 119.58561883 -0.67918205 119.57661438 C-14.8739668 119.55222927 -29.06874552 119.53163177 -43.26355076 119.5248642 C-44.17188067 119.52442506 -45.08021059 119.52398593 -46.01606565 119.52353349 C-46.92654362 119.52309694 -47.83702159 119.52266038 -48.7750898 119.5222106 C-50.61999802 119.52132367 -52.46490624 119.52043055 -54.30981445 119.51953125 C-55.22494857 119.51908839 -56.14008269 119.51864553 -57.08294814 119.51818925 C-71.90235965 119.51029783 -86.72157419 119.47540372 -101.54090966 119.42881221 C-116.76466079 119.38133668 -131.98831321 119.35645824 -147.21213955 119.35412836 C-155.75610928 119.35229735 -164.29982248 119.34085654 -172.84372139 119.30448914 C-180.12119022 119.27362113 -187.39832327 119.2634845 -194.67584515 119.27996534 C-198.38588281 119.28775605 -202.09524501 119.28603198 -205.80519867 119.25785065 C-209.83652191 119.22750968 -213.86633688 119.24417104 -217.89772034 119.26501465 C-219.05776772 119.24890184 -220.2178151 119.23278903 -221.41301543 119.21618795 C-231.20563459 119.33419497 -240.33209954 122.17097003 -246.625 130.0625 Z "
     transform="translate(369,82)"
     style="fill: #434343;"
     id="path14207" />
  <path
     d="M0 0 C2.19187958 9.81440041 4.04784453 19.64035525 5.6875 29.5625 C5.9145231 30.90172501 6.14173605 32.24091784 6.36914062 33.58007812 C6.58119141 34.85431641 6.79324219 36.12855469 7.01171875 37.44140625 C7.20209717 38.58295166 7.39247559 39.72449707 7.58862305 40.90063477 C7.95373397 43.65142596 8.08183272 46.2309489 8 49 C1.56261404 50.14647455 -4.87491594 51.29213837 -11.3125 52.4375 C-12.299086 52.61307434 -13.285672 52.78864868 -14.30215454 52.96954346 C-26.53029996 55.14528614 -38.75990027 57.31250095 -50.9921875 59.46484375 C-52.13981064 59.66687912 -53.28743378 59.86891449 -54.46983337 60.07707214 C-60.06793332 61.06251438 -65.66624228 62.04674213 -71.26489258 63.02905273 C-73.32634303 63.3917166 -75.38778548 63.75442596 -77.44921875 64.1171875 C-78.37044525 64.27835556 -79.29167175 64.43952362 -80.24081421 64.60557556 C-81.11742706 64.76006668 -81.99403992 64.9145578 -82.8972168 65.07373047 C-83.64529099 65.20504364 -84.39336517 65.33635681 -85.16410828 65.47164917 C-86.81257182 65.778772 -88.45777641 66.10811834 -90.08970737 66.4935503 C-97.07888844 68.07358494 -103.77823396 68.28689693 -110.92602539 68.27124023 C-112.18099319 68.27646698 -113.435961 68.28169373 -114.72895813 68.28707886 C-117.43861963 68.29727637 -120.14802834 68.3040321 -122.85768318 68.30496025 C-127.14985756 68.30691659 -131.44187392 68.32505309 -135.73399353 68.34571838 C-146.38989917 68.39468659 -157.04584717 68.42577645 -167.70184326 68.44702148 C-175.9965129 68.46357925 -184.29104504 68.48646993 -192.58562273 68.53004223 C-196.84492458 68.55171242 -201.10396448 68.55988661 -205.36331761 68.55764949 C-208.64339105 68.55971889 -211.92335202 68.58109906 -215.20336914 68.59936523 C-216.37089722 68.59478806 -217.53842529 68.59021088 -218.74133301 68.585495 C-228.39632738 68.67081565 -236.04530342 70.15907328 -243.20703125 76.90625 C-247.83394272 82.30935359 -249.9188279 88.06560636 -251 95 C-258.40110764 96.26590913 -265.80268509 97.52904329 -273.20458984 98.7902832 C-275.7206485 99.21933707 -278.23660041 99.6490174 -280.75244141 100.0793457 C-284.37634599 100.69909214 -288.00063314 101.31655726 -291.625 101.93359375 C-292.74302002 102.12529648 -293.86104004 102.31699921 -295.01293945 102.51451111 C-300.66584235 103.47458235 -306.3033987 104.34525292 -312 105 C-313.14554372 98.8264149 -314.28414925 92.65157909 -315.41796875 86.47583008 C-315.80439655 84.37560145 -316.19240442 82.2756629 -316.58203125 80.17602539 C-317.14219396 77.15586241 -317.69664302 74.13469762 -318.25 71.11328125 C-318.42499023 70.17664139 -318.59998047 69.24000153 -318.78027344 68.27497864 C-318.94043945 67.39444321 -319.10060547 66.51390778 -319.265625 65.60668945 C-319.40774414 64.83613724 -319.54986328 64.06558502 -319.69628906 63.27168274 C-320.0235798 60.82362891 -320.05118677 58.46695402 -320 56 C-309.97252271 53.17486043 -299.79621475 51.5077138 -289.53085327 49.81329346 C-284.26470671 48.94315838 -279.00146283 48.05583653 -273.73828125 47.16796875 C-272.66326859 46.9867749 -271.58825592 46.80558105 -270.48066711 46.61889648 C-260.19929276 44.87851683 -249.94237657 43.0142535 -239.6875 41.125 C-222.6238446 37.98700927 -205.53743103 34.99614244 -188.4375 32.0625 C-164.74187043 27.99646992 -141.06032141 23.85716865 -117.38726807 19.66181946 C-110.00647225 18.3540592 -102.62459645 17.0525269 -95.2421875 15.75390625 C-92.03656028 15.18967242 -88.83094556 14.62536761 -85.62533569 14.06103516 C-83.51276362 13.68923833 -81.40015419 13.3176537 -79.2875061 12.94628906 C-67.15976986 10.81375319 -55.03854535 8.6496927 -42.92578125 6.43359375 C-40.61207088 6.01166206 -38.29835031 5.58978633 -35.98461914 5.16796875 C-31.58798065 4.36621787 -27.19292048 3.55644896 -22.79858398 2.7421875 C-20.8084852 2.37860938 -18.81833496 2.01531282 -16.828125 1.65234375 C-15.93261429 1.48407578 -15.03710358 1.3158078 -14.11445618 1.1424408 C-9.32297951 0.27615536 -4.86929554 -0.17425652 0 0 Z "
     transform="translate(367,132)"
     style="fill: #FDFDFD;"
     id="path14209" />
  <path
     d="M0 0 C7.62653102 4.11181299 12.28298373 10.84895119 15 19 C15.99029653 28.75685599 13.99166096 36.6388443 7.8125 44.3125 C2.08238542 50.23481968 -2.95067618 53.16779482 -11.24389648 53.58837891 C-19.08596507 53.71567144 -24.55035998 52.71924879 -31 48 C-32.9775418 46.7135955 -32.9775418 46.7135955 -35 46 C-36.3921875 46.680625 -36.3921875 46.680625 -37.8125 47.375 C-44.1782919 50.43388701 -52.93599273 50.40677175 -59.5390625 48.12109375 C-65.10415636 44.86583615 -69.50397951 39.99204098 -72.375 34.25 C-74.14841248 25.02825512 -73.30965644 17.27093433 -68.3125 9.3125 C-63.26717449 4.26717449 -57.53405742 0.8860419 -50.3125 0.75 C-45.22902143 0.78715993 -41.63420579 1.9674536 -37 4 C-36.01 4.33 -35.02 4.66 -34 5 C-31.82070765 3.86192802 -31.82070765 3.86192802 -29.625 2.1875 C-20.23144152 -4.60749677 -10.53822241 -4.54352868 0 0 Z "
     transform="translate(420,358)"
     style="fill: #FEC702;"
     id="path14211" />
  <path
     d="M0 0 C2.30044576 0.08945835 4.60336492 0.12032347 6.9055481 0.11784363 C7.60019759 0.11854821 8.29484709 0.11925279 9.01054657 0.11997873 C11.33794787 0.12128699 13.6652814 0.11561407 15.99267578 0.11010742 C17.66174825 0.10986526 19.33082087 0.11014259 20.99989319 0.11090088 C24.59519025 0.11200714 28.19047455 0.11057412 31.78577042 0.10753441 C37.47650051 0.10390093 43.16716415 0.11304342 48.85787964 0.12532043 C50.29923977 0.12835333 50.29923977 0.12835333 51.76971829 0.13144749 C53.73475018 0.1356162 55.69978201 0.13981896 57.66481376 0.14405501 C70.91199825 0.17218492 84.15903884 0.19234503 97.40625 0.17504883 C106.34333764 0.1634756 115.28012685 0.1731277 124.21716106 0.20710641 C128.94377205 0.22423191 133.66984461 0.23059499 138.39645767 0.210989 C142.84712264 0.1926953 147.29686213 0.20247368 151.74744987 0.23324585 C153.37515375 0.23958629 155.00293543 0.23581985 156.63058281 0.22084999 C166.98207065 0.13276016 174.66664214 1.16177241 182.59831429 8.47336102 C187.94560299 14.31958068 189.45075734 20.49944562 189.38768005 28.18417358 C189.39575836 29.37805897 189.39575836 29.37805897 189.40399987 30.59606326 C189.41824385 33.24828404 189.41118461 35.90000321 189.40405273 38.55224609 C189.4097582 40.45983785 189.41672315 42.36742618 189.42485046 44.27500916 C189.44277838 49.44657093 189.44161403 54.61796299 189.43590808 59.78954649 C189.4328154 64.11104763 189.43890964 68.4325162 189.44494683 72.7540127 C189.45898953 82.95159597 189.45743314 93.14909545 189.44604492 103.34667969 C189.43456647 113.85713587 189.44863545 124.3673368 189.4754414 134.87775934 C189.49761417 143.91068102 189.50423213 152.94352268 189.49836498 161.97646964 C189.49499769 167.36743572 189.49739533 172.75823823 189.51461601 178.14918137 C189.53010791 183.22018598 189.52610455 188.29081322 189.50731087 193.36180305 C189.50363108 195.21891903 189.5067156 197.07606311 189.51719666 198.93315315 C189.61916099 218.49924964 189.61916099 218.49924964 183.03515625 226.33984375 C182.38417969 226.86707031 181.73320312 227.39429688 181.0625 227.9375 C180.41410156 228.48277344 179.76570313 229.02804687 179.09765625 229.58984375 C174.98890744 232.35196353 171.40781366 233.24997735 166.48763561 233.25726891 C165.38534435 233.2637178 164.2830531 233.27016669 163.14735907 233.276811 C161.33891775 233.2721652 161.33891775 233.2721652 159.49394226 233.26742554 C157.56652237 233.27422221 157.56652237 233.27422221 155.60016471 233.28115618 C152.03538477 233.29339125 148.47069865 233.29312513 144.9059025 233.29076743 C141.06052429 233.29035939 137.2151762 233.30139719 133.36981201 233.31088257 C125.83661091 233.32749637 118.30344111 233.33299229 110.77022322 233.33410732 C104.64674089 233.33505763 98.52326888 233.33916705 92.39978981 233.34550858 C75.03852917 233.36312212 57.67729325 233.37234728 40.31602361 233.37084763 C39.38004881 233.37076772 38.444074 233.3706878 37.47973633 233.37060547 C36.07405984 233.37048283 36.07405984 233.37048283 34.63998584 233.37035771 C19.45256171 233.3695448 4.26523675 233.38868332 -10.9221587 233.4168822 C-26.51653382 233.44560825 -42.11086058 233.45942265 -57.70526284 233.45769465 C-66.46030788 233.45703065 -75.21524895 233.46252747 -83.97027016 233.48405075 C-91.42457267 233.50225889 -98.87872409 233.50661295 -106.3330392 233.4930319 C-110.13559618 233.48650032 -113.93786326 233.48639164 -117.74039268 233.5037384 C-121.86481179 233.52235991 -125.98855926 233.50991969 -130.11299133 233.49447632 C-131.31192672 233.50476344 -132.5108621 233.51505057 -133.74612886 233.52564943 C-142.05054451 233.45684515 -147.32515395 232.17373068 -153.75 226.625 C-158.46970415 221.11867849 -161.13020929 216.90146149 -161.11352539 209.6105957 C-161.11344986 208.50968094 -161.11337433 207.40876617 -161.11329651 206.27449036 C-161.10813522 205.08691635 -161.10297394 203.89934235 -161.09765625 202.67578125 C-161.0962413 201.45924362 -161.09482635 200.24270599 -161.09336853 198.98930359 C-161.08776312 195.0970109 -161.07520967 191.20477536 -161.0625 187.3125 C-161.0574857 184.67643312 -161.05292267 182.04036534 -161.04882812 179.40429688 C-161.03779193 172.93617836 -161.0210485 166.46809326 -161 160 C-162.65 160 -164.3 160 -166 160 C-166 159.67 -166 159.34 -166 159 C-164.35 159 -162.7 159 -161 159 C-161 148.44 -161 137.88 -161 127 C-161.66 127 -162.32 127 -163 127 C-164.20272819 124.59454362 -164.10071472 123.05003047 -164.0625 120.375 C-164.05347656 119.55773437 -164.04445313 118.74046875 -164.03515625 117.8984375 C-164.02355469 117.27195312 -164.01195312 116.64546875 -164 116 C-163.01 115.505 -163.01 115.505 -162 115 C-161.34444881 112.47266765 -161.34444881 112.47266765 -161 110 C-162.65 110 -164.3 110 -166 110 C-166 109.34 -166 108.68 -166 108 C-163.525 107.505 -163.525 107.505 -161 107 C-161.01110306 105.95731964 -161.02220612 104.91463928 -161.03364563 103.84036255 C-161.13528201 93.98375819 -161.21008992 84.12726103 -161.25906086 74.27025032 C-161.28508442 69.20338111 -161.32034946 64.13693707 -161.37719727 59.0703125 C-161.43177622 54.17491387 -161.46147493 49.27992257 -161.47438622 44.38424301 C-161.48357982 42.52241484 -161.50153248 40.66060738 -161.52865028 38.79895401 C-161.70082251 26.48232521 -161.23657981 17.55807176 -152.5625 8.0625 C-146.5714198 2.53926988 -140.48267528 0.89192108 -132.49034119 0.84851074 C-131.39540848 0.84016708 -130.30047577 0.83182343 -129.17236328 0.82322693 C-127.98102783 0.81904251 -126.78969238 0.81485809 -125.56225586 0.81054688 C-123.62472123 0.79781697 -121.68718659 0.7850868 -119.74965203 0.7723465 C-117.672487 0.75962387 -115.59532224 0.74929173 -113.51814079 0.73963928 C-109.18576653 0.71937175 -104.85345847 0.69172681 -100.52113342 0.66296387 C-90.54450236 0.59784947 -80.56782215 0.54235167 -70.59113312 0.48697662 C-61.44315632 0.43610906 -52.29520361 0.38321183 -43.14728647 0.32245111 C-38.84068442 0.29412588 -34.5340901 0.27052189 -30.22744167 0.25052643 C-28.19431132 0.2403565 -26.16120906 0.22797076 -24.12809753 0.21458435 C-21.64945601 0.19827665 -19.17078809 0.18546436 -16.69210815 0.17677307 C-15.59999527 0.16842941 -14.50788239 0.16008575 -13.38267517 0.15148926 C-12.43419173 0.14633553 -11.48570829 0.14118179 -10.50848293 0.13587189 C-8.04375682 0.09119449 -8.04375682 0.09119449 -5.9135828 -0.57196808 C-3.57890485 -1.09419094 -2.30709454 -0.6026471 0 0 Z M-154.625 13.0625 C-158.27893116 18.47696163 -159.29534652 23.27594763 -159.26742554 29.75384521 C-159.27195665 30.5276422 -159.27648776 31.30143918 -159.28115618 32.09868455 C-159.29380213 34.68792096 -159.29217969 37.27694708 -159.29052734 39.86621094 C-159.29651254 41.72424591 -159.30331807 43.5822784 -159.31088257 45.44030762 C-159.32855237 50.48592276 -159.33323841 55.53147006 -159.33451414 60.57711315 C-159.33593594 63.73092288 -159.34020614 66.88471537 -159.34550858 70.03852081 C-159.36401333 81.04554845 -159.37217878 92.05252764 -159.37060547 103.05957031 C-159.36940452 113.31208755 -159.39049671 123.56439411 -159.4220928 133.81685805 C-159.44826731 142.62468 -159.45897224 151.43243321 -159.45769465 160.24029374 C-159.45718529 165.4982813 -159.46285411 170.75608171 -159.48405075 176.01403046 C-159.5034524 180.96187887 -159.50354434 185.90936201 -159.48901749 190.85722351 C-159.48693057 192.66919235 -159.49162331 194.48118417 -159.5037384 196.29311371 C-159.77330499 209.2164929 -159.77330499 209.2164929 -155 221 C-154.64194464 221.56451748 -154.28388927 222.12903496 -153.91498375 222.71065903 C-150.83941131 226.93954029 -146.87454675 229.35807214 -142 231 C-137.75952658 231.56393467 -133.56469006 231.54022785 -129.29176331 231.50793457 C-128.02129322 231.51417453 -126.75082312 231.5204145 -125.44185394 231.52684355 C-121.9312696 231.54348632 -118.42112221 231.53531388 -114.91053665 231.52289867 C-111.11834741 231.51382953 -107.32623207 231.52782718 -103.53405762 231.53881836 C-96.11117601 231.55658886 -88.68845635 231.55277003 -81.26556844 231.5411678 C-75.23130701 231.53212727 -69.1970909 231.53091215 -63.16282463 231.53526306 C-62.30336971 231.53587599 -61.44391479 231.53648893 -60.55841578 231.53712043 C-58.81233262 231.53839936 -57.06624948 231.53969621 -55.32016634 231.5410108 C-38.95333249 231.55241247 -22.58658831 231.53930974 -6.21976917 231.51780933 C7.8158531 231.49994191 21.85134301 231.50304031 35.88696289 231.52148438 C52.19443648 231.54290389 68.50183148 231.55131051 84.80931717 231.53903532 C86.54921439 231.53776116 88.28911162 231.53650367 90.02900887 231.53526306 C91.31302684 231.53433741 91.31302684 231.53433741 92.62298457 231.53339306 C98.64768213 231.52994316 104.67232975 231.53576079 110.69701958 231.54518127 C118.04254261 231.5564148 125.38789473 231.55333297 132.73339825 231.5320583 C136.47938236 231.5215655 140.22508179 231.5173955 143.97106361 231.53065491 C148.03588209 231.54482495 152.09998548 231.52787448 156.16477966 231.50793457 C157.34319205 231.51685746 158.52160444 231.52578034 159.7357263 231.53497362 C167.6932433 231.45926157 174.09068215 230.22404511 180.33984375 225.0703125 C180.86707031 224.42835938 181.39429688 223.78640625 181.9375 223.125 C182.75541016 222.16980469 182.75541016 222.16980469 183.58984375 221.1953125 C186.86935075 216.0898196 187.29277278 210.96944296 187.26742554 205.04324341 C187.27422221 203.86795729 187.27422221 203.86795729 187.28115618 202.66892803 C187.29378037 200.05282505 187.29218111 197.43693078 187.29052734 194.82080078 C187.29651379 192.94129164 187.3033196 191.06178495 187.31088257 189.18228149 C187.32853689 184.08307554 187.33323768 178.98393672 187.33451414 173.88470316 C187.3359365 170.69756149 187.34020768 167.51043685 187.34550858 164.32329941 C187.36400622 153.20071073 187.37217942 142.07816996 187.37060547 130.95556641 C187.3694038 120.59337825 187.3905119 110.23139829 187.4220928 99.86926281 C187.44825553 90.9671697 187.45897278 82.0651446 187.45769465 73.16301334 C187.45718506 67.8486231 187.46286668 62.53441796 187.48405075 57.22006607 C187.50343327 52.22132054 187.50355742 47.2229367 187.48901749 42.22417831 C187.48692839 40.39243796 187.49163628 38.56067496 187.5037384 36.72897339 C187.51922294 34.22246748 187.5098624 31.71720389 187.49447632 29.21072388 C187.50990701 28.13122394 187.50990701 28.13122394 187.52564943 27.02991593 C187.43678683 20.45004139 185.12532494 15.39526783 180.81640625 10.5390625 C180.07261719 9.90742188 179.32882812 9.27578125 178.5625 8.625 C177.82128906 7.97789062 177.08007812 7.33078125 176.31640625 6.6640625 C172.20841188 3.71295693 168.63297104 2.75065454 163.60813046 2.73714447 C161.99496941 2.72562104 161.99496941 2.72562104 160.34921926 2.7138648 C159.17355683 2.71559777 157.9978944 2.71733073 156.78660583 2.71911621 C155.53306637 2.71317397 154.27952691 2.70723172 152.98800141 2.70110941 C149.51076424 2.68499515 146.0336097 2.68139171 142.55633962 2.67991447 C138.80494757 2.67620876 135.05359817 2.66111159 131.30223083 2.64764404 C123.0995094 2.62049297 114.89680754 2.60842993 106.69404864 2.59962273 C101.56963421 2.59409429 96.4452273 2.58561883 91.32081795 2.57661438 C77.1260332 2.55222927 62.93125448 2.53163177 48.73644924 2.5248642 C47.82811933 2.52442506 46.91978941 2.52398593 45.98393435 2.52353349 C45.07345638 2.52309694 44.16297841 2.52266038 43.2249102 2.5222106 C41.38000198 2.52132367 39.53509376 2.52043055 37.69018555 2.51953125 C36.77505143 2.51908839 35.85991731 2.51864553 34.91705186 2.51818925 C20.09764035 2.51029783 5.27842581 2.47540372 -9.54090966 2.42881221 C-24.76466079 2.38133668 -39.98831321 2.35645824 -55.21213955 2.35412836 C-63.75610928 2.35229735 -72.29982248 2.34085654 -80.84372139 2.30448914 C-88.12119022 2.27362113 -95.39832327 2.2634845 -102.67584515 2.27996534 C-106.38588281 2.28775605 -110.09524501 2.28603198 -113.80519867 2.25785065 C-117.83652191 2.22750968 -121.86633688 2.24417104 -125.89772034 2.26501465 C-127.05776772 2.24890184 -128.2178151 2.23278903 -129.41301543 2.21618795 C-139.20563459 2.33419497 -148.33209954 5.17097003 -154.625 13.0625 Z "
     transform="translate(277,199)"
     style="fill: #606061;"
     id="path14213" />
  <path
     d="M0 0 C5.18182358 4.39328521 8.38353797 9.11640812 9.390625 15.921875 C9.59780889 22.81813867 9.30484656 28.92178576 4.875 34.4375 C-0.02858907 39.58678038 -4.37988379 43.03908338 -11.61328125 43.80859375 C-19.28235776 43.94176464 -25.28000522 43.96317203 -31.125 38.4375 C-36.85159763 32.90393376 -39.16086818 28.09588814 -39.4375 20.0625 C-39.2880068 12.7273668 -37.39821807 6.71071807 -32.125 1.4375 C-21.10395224 -6.43786408 -11.78861477 -5.89430738 0 0 Z "
     transform="translate(386.125,363.5625)"
     style="fill: #E6322B;"
     id="path14215" />
  <path
     d="M0 0 C1.53741096 -0.00856522 1.53741096 -0.00856522 3.10588074 -0.01730347 C4.79921036 -0.01898026 4.79921036 -0.01898026 6.52674866 -0.02069092 C8.30486183 -0.02813828 8.30486183 -0.02813828 10.11889648 -0.03573608 C13.3750798 -0.0478562 16.63122719 -0.05530565 19.887429 -0.05974674 C21.92069893 -0.06267629 23.95396321 -0.06678083 25.9872303 -0.07125092 C32.34587292 -0.08492587 38.70450263 -0.094593 45.06315893 -0.09845281 C52.40912562 -0.1029362 59.75490649 -0.12049694 67.10081667 -0.1494534 C72.77559541 -0.17104805 78.45032179 -0.18115587 84.1251412 -0.18249393 C87.51620819 -0.1835434 90.9071005 -0.18948118 94.29812431 -0.20731354 C98.07890444 -0.22429046 101.85922757 -0.22251422 105.64002991 -0.21600342 C106.76689209 -0.2252182 107.89375427 -0.23443298 109.05476379 -0.243927 C110.5964045 -0.23557327 110.5964045 -0.23557327 112.16918945 -0.22705078 C113.06349639 -0.22851734 113.95780333 -0.2299839 114.87921047 -0.2314949 C117.14808655 0.14044189 117.14808655 0.14044189 118.97098637 1.46809769 C120.14808655 3.14044189 120.14808655 3.14044189 119.96058655 6.26544189 C119.69246155 7.21419189 119.42433655 8.16294189 119.14808655 9.14044189 C116.68180588 10.37358223 115.0551232 10.27170304 112.2961731 10.28088379 C111.27123245 10.28659393 110.24629181 10.29230408 109.19029236 10.29818726 C108.06140594 10.29930511 106.93251953 10.30042297 105.76942444 10.30157471 C103.99131126 10.30902206 103.99131126 10.30902206 102.17727661 10.31661987 C98.9210933 10.32873999 95.66494591 10.33618944 92.4087441 10.34063053 C90.37547416 10.34356008 88.34220989 10.34766462 86.30894279 10.3521347 C79.95030018 10.36580966 73.59167047 10.37547679 67.23301417 10.3793366 C59.88704747 10.38381999 52.5412666 10.40138073 45.19535643 10.43033719 C39.52057768 10.45193184 33.84585131 10.46203965 28.17103189 10.46337771 C24.77996491 10.46442719 21.3890726 10.47036497 17.99804878 10.48819733 C14.21726866 10.50517425 10.43694552 10.50339801 6.65614319 10.49688721 C5.52928101 10.50610199 4.40241882 10.51531677 3.2414093 10.52481079 C2.21364883 10.51924164 1.18588837 10.51367249 0.12698364 10.50793457 C-1.21447676 10.51013441 -1.21447676 10.51013441 -2.58303738 10.51237869 C-4.85191345 10.14044189 -4.85191345 10.14044189 -6.67481327 8.8127861 C-7.85191345 7.14044189 -7.85191345 7.14044189 -7.66441345 4.01544189 C-7.39628845 3.06669189 -7.12816345 2.11794189 -6.85191345 1.14044189 C-4.38563278 -0.09269844 -2.7589501 0.00918075 0 0 Z "
     transform="translate(151.85191345214844,383.85955810546875)"
     style="fill: #424242;"
     id="path14217" />
  <path
     d="M0 0 C1.53741096 -0.00856522 1.53741096 -0.00856522 3.10588074 -0.01730347 C4.79921036 -0.01898026 4.79921036 -0.01898026 6.52674866 -0.02069092 C8.30486183 -0.02813828 8.30486183 -0.02813828 10.11889648 -0.03573608 C13.3750798 -0.0478562 16.63122719 -0.05530565 19.887429 -0.05974674 C21.92069893 -0.06267629 23.95396321 -0.06678083 25.9872303 -0.07125092 C32.34587292 -0.08492587 38.70450263 -0.094593 45.06315893 -0.09845281 C52.40912562 -0.1029362 59.75490649 -0.12049694 67.10081667 -0.1494534 C72.77559541 -0.17104805 78.45032179 -0.18115587 84.1251412 -0.18249393 C87.51620819 -0.1835434 90.9071005 -0.18948118 94.29812431 -0.20731354 C98.07890444 -0.22429046 101.85922757 -0.22251422 105.64002991 -0.21600342 C106.76689209 -0.2252182 107.89375427 -0.23443298 109.05476379 -0.243927 C110.5964045 -0.23557327 110.5964045 -0.23557327 112.16918945 -0.22705078 C113.06349639 -0.22851734 113.95780333 -0.2299839 114.87921047 -0.2314949 C117.14808655 0.14044189 117.14808655 0.14044189 118.97098637 1.46809769 C120.14808655 3.14044189 120.14808655 3.14044189 119.96058655 6.26544189 C119.69246155 7.21419189 119.42433655 8.16294189 119.14808655 9.14044189 C116.68180588 10.37358223 115.0551232 10.27170304 112.2961731 10.28088379 C111.27123245 10.28659393 110.24629181 10.29230408 109.19029236 10.29818726 C108.06140594 10.29930511 106.93251953 10.30042297 105.76942444 10.30157471 C103.99131126 10.30902206 103.99131126 10.30902206 102.17727661 10.31661987 C98.9210933 10.32873999 95.66494591 10.33618944 92.4087441 10.34063053 C90.37547416 10.34356008 88.34220989 10.34766462 86.30894279 10.3521347 C79.95030018 10.36580966 73.59167047 10.37547679 67.23301417 10.3793366 C59.88704747 10.38381999 52.5412666 10.40138073 45.19535643 10.43033719 C39.52057768 10.45193184 33.84585131 10.46203965 28.17103189 10.46337771 C24.77996491 10.46442719 21.3890726 10.47036497 17.99804878 10.48819733 C14.21726866 10.50517425 10.43694552 10.50339801 6.65614319 10.49688721 C5.52928101 10.50610199 4.40241882 10.51531677 3.2414093 10.52481079 C2.21364883 10.51924164 1.18588837 10.51367249 0.12698364 10.50793457 C-1.21447676 10.51013441 -1.21447676 10.51013441 -2.58303738 10.51237869 C-4.85191345 10.14044189 -4.85191345 10.14044189 -6.67481327 8.8127861 C-7.85191345 7.14044189 -7.85191345 7.14044189 -7.66441345 4.01544189 C-7.39628845 3.06669189 -7.12816345 2.11794189 -6.85191345 1.14044189 C-4.38563278 -0.09269844 -2.7589501 0.00918075 0 0 Z "
     transform="translate(151.85191345214844,363.85955810546875)"
     style="fill: #424242;"
     id="path14219" />
  <path
     d="M0 0 C0.95762741 -0.00571014 1.91525482 -0.01142029 2.90190125 -0.01730347 C3.95598175 -0.01842133 5.01006226 -0.01953918 6.09608459 -0.02069092 C7.20346481 -0.02565582 8.31084503 -0.03062073 9.45178223 -0.03573608 C13.1275748 -0.05038257 16.80332424 -0.05716329 20.47914124 -0.06268311 C23.02500409 -0.06843179 25.57086692 -0.07418955 28.11672974 -0.07995605 C32.77568738 -0.08912726 37.43463201 -0.09542519 42.0935964 -0.09845281 C48.95508445 -0.10293604 55.81637354 -0.12049627 62.67780107 -0.1494534 C68.61729815 -0.17365156 74.5567455 -0.18139596 80.49629402 -0.18312836 C83.02534125 -0.18616343 85.55438747 -0.1942205 88.08340263 -0.20731354 C91.61512878 -0.2242948 95.14636588 -0.2225132 98.67811584 -0.21600342 C100.25620026 -0.22982559 100.25620026 -0.22982559 101.86616516 -0.243927 C102.8266124 -0.23835785 103.78705963 -0.2327887 104.77661133 -0.22705078 C105.61192351 -0.22851734 106.4472357 -0.2299839 107.30786037 -0.2314949 C109.97260942 0.23079395 110.88885885 0.95516436 112.45179749 3.14044189 C112.26429749 6.26544189 112.26429749 6.26544189 111.45179749 9.14044189 C109.05863977 10.33702075 107.57576835 10.27136351 104.90359497 10.28088379 C103.46715385 10.28944901 103.46715385 10.28944901 102.00169373 10.29818726 C100.94761322 10.29930511 99.89353271 10.30042297 98.80751038 10.30157471 C97.14644005 10.30902206 97.14644005 10.30902206 95.45181274 10.31661987 C91.77602017 10.33126636 88.10027073 10.33804708 84.42445374 10.34356689 C81.87859088 10.34931557 79.33272805 10.35507334 76.78686523 10.36083984 C72.12790759 10.37001105 67.46896297 10.37630898 62.80999857 10.3793366 C55.94851052 10.38381983 49.08722144 10.40138006 42.2257939 10.43033719 C36.28629682 10.45453534 30.34684947 10.46227974 24.40730095 10.46401215 C21.87825372 10.46704722 19.3492075 10.47510429 16.82019234 10.48819733 C13.28846619 10.50517859 9.75722909 10.50339699 6.22547913 10.49688721 C5.17342285 10.50610199 4.12136658 10.51531677 3.03742981 10.52481079 C2.07698257 10.51924164 1.11653534 10.51367249 0.12698364 10.50793457 C-0.70832854 10.50940113 -1.54364073 10.51086769 -2.4042654 10.51237869 C-5.06901445 10.05008984 -5.98526388 9.32571943 -7.54820251 7.14044189 C-7.36070251 4.01544189 -7.36070251 4.01544189 -6.54820251 1.14044189 C-4.1550448 -0.05613696 -2.67217338 0.00952028 0 0 Z "
     transform="translate(319.54820251464844,259.85955810546875)"
     style="fill: #424242;"
     id="path14221" />
  <path
     d="M0 0 C0.95762741 -0.00571014 1.91525482 -0.01142029 2.90190125 -0.01730347 C3.95598175 -0.01842133 5.01006226 -0.01953918 6.09608459 -0.02069092 C7.20346481 -0.02565582 8.31084503 -0.03062073 9.45178223 -0.03573608 C13.1275748 -0.05038257 16.80332424 -0.05716329 20.47914124 -0.06268311 C23.02500409 -0.06843179 25.57086692 -0.07418955 28.11672974 -0.07995605 C32.77568738 -0.08912726 37.43463201 -0.09542519 42.0935964 -0.09845281 C48.95508445 -0.10293604 55.81637354 -0.12049627 62.67780107 -0.1494534 C68.61729815 -0.17365156 74.5567455 -0.18139596 80.49629402 -0.18312836 C83.02534125 -0.18616343 85.55438747 -0.1942205 88.08340263 -0.20731354 C91.61512878 -0.2242948 95.14636588 -0.2225132 98.67811584 -0.21600342 C100.25620026 -0.22982559 100.25620026 -0.22982559 101.86616516 -0.243927 C102.8266124 -0.23835785 103.78705963 -0.2327887 104.77661133 -0.22705078 C105.61192351 -0.22851734 106.4472357 -0.2299839 107.30786037 -0.2314949 C109.97260942 0.23079395 110.88885885 0.95516436 112.45179749 3.14044189 C112.26429749 6.26544189 112.26429749 6.26544189 111.45179749 9.14044189 C109.05863977 10.33702075 107.57576835 10.27136351 104.90359497 10.28088379 C103.46715385 10.28944901 103.46715385 10.28944901 102.00169373 10.29818726 C100.94761322 10.29930511 99.89353271 10.30042297 98.80751038 10.30157471 C97.14644005 10.30902206 97.14644005 10.30902206 95.45181274 10.31661987 C91.77602017 10.33126636 88.10027073 10.33804708 84.42445374 10.34356689 C81.87859088 10.34931557 79.33272805 10.35507334 76.78686523 10.36083984 C72.12790759 10.37001105 67.46896297 10.37630898 62.80999857 10.3793366 C55.94851052 10.38381983 49.08722144 10.40138006 42.2257939 10.43033719 C36.28629682 10.45453534 30.34684947 10.46227974 24.40730095 10.46401215 C21.87825372 10.46704722 19.3492075 10.47510429 16.82019234 10.48819733 C13.28846619 10.50517859 9.75722909 10.50339699 6.22547913 10.49688721 C5.17342285 10.50610199 4.12136658 10.51531677 3.03742981 10.52481079 C2.07698257 10.51924164 1.11653534 10.51367249 0.12698364 10.50793457 C-0.70832854 10.50940113 -1.54364073 10.51086769 -2.4042654 10.51237869 C-5.06901445 10.05008984 -5.98526388 9.32571943 -7.54820251 7.14044189 C-7.36070251 4.01544189 -7.36070251 4.01544189 -6.54820251 1.14044189 C-4.1550448 -0.05613696 -2.67217338 0.00952028 0 0 Z "
     transform="translate(319.54820251464844,239.85955810546875)"
     style="fill: #424242;"
     id="path14223" />
  <path
     d="M0 0 C2.30044576 0.08945835 4.60336492 0.12032347 6.9055481 0.11784363 C7.60019759 0.11854821 8.29484709 0.11925279 9.01054657 0.11997873 C11.33794787 0.12128699 13.6652814 0.11561407 15.99267578 0.11010742 C17.66174825 0.10986526 19.33082087 0.11014259 20.99989319 0.11090088 C24.59519025 0.11200714 28.19047455 0.11057412 31.78577042 0.10753441 C37.47650051 0.10390093 43.16716415 0.11304342 48.85787964 0.12532043 C50.29923977 0.12835333 50.29923977 0.12835333 51.76971829 0.13144749 C53.73475018 0.1356162 55.69978201 0.13981896 57.66481376 0.14405501 C70.91199825 0.17218492 84.15903884 0.19234503 97.40625 0.17504883 C106.34333764 0.1634756 115.28012685 0.1731277 124.21716106 0.20710641 C128.94377205 0.22423191 133.66984461 0.23059499 138.39645767 0.210989 C142.84712264 0.1926953 147.29686213 0.20247368 151.74744987 0.23324585 C153.37515375 0.23958629 155.00293543 0.23581985 156.63058281 0.22084999 C166.98207065 0.13276016 174.66664214 1.16177241 182.59831429 8.47336102 C187.97149762 14.34789141 189.45212353 20.52544733 189.36076355 28.24473572 C189.36332682 29.0470094 189.3658901 29.84928309 189.36853105 30.67586809 C189.3734505 33.34914296 189.35700669 36.02184601 189.34057617 38.69506836 C189.3397295 40.61725857 189.34020582 42.53944975 189.34190369 44.4616394 C189.3427635 49.66982181 189.32513985 54.87779642 189.30418181 60.08593059 C189.2854128 65.53250112 189.28366439 70.97907655 189.28010559 76.42567444 C189.2707858 86.73507528 189.24617286 97.04438054 189.21605712 107.35373932 C189.18251111 119.09247984 189.16602658 130.83122495 189.15097082 142.57000148 C189.11962329 166.71338728 189.06686401 190.85668828 189 215 C188.01 215.33 187.02 215.66 186 216 C186.00368717 215.00239655 186.00737434 214.00479309 186.01117325 212.97695923 C186.09998935 188.69799814 186.16571152 164.41905813 186.20724869 140.13996887 C186.2278699 128.39875513 186.25598221 116.65764874 186.30175781 104.91650391 C186.34163891 94.68237994 186.36743602 84.44833373 186.37635398 74.21413422 C186.38156653 68.79567337 186.39380901 63.37743494 186.42292023 57.95904541 C186.45010926 52.85699522 186.45843786 47.75525868 186.45243073 42.65314293 C186.45352939 40.78269432 186.46146241 38.91223501 186.4768219 37.04184914 C186.49680464 34.48251409 186.4919094 31.92435403 186.48101807 29.36499023 C186.49266943 28.62955805 186.5043208 27.89412586 186.51632524 27.13640785 C186.44275645 20.7146253 184.26929767 15.58961603 180.03515625 10.7578125 C179.38417969 10.21898437 178.73320312 9.68015625 178.0625 9.125 C177.41410156 8.57070312 176.76570313 8.01640625 176.09765625 7.4453125 C172.02885067 4.64185242 168.44913057 3.7499401 163.54337597 3.75390434 C162.4535681 3.74992225 161.36376023 3.74594015 160.24092788 3.74183738 C159.04929811 3.74766307 157.85766835 3.75348875 156.62992859 3.75949097 C154.72466855 3.75692769 154.72466855 3.75692769 152.78091842 3.75431263 C149.25768161 3.74984079 145.7345664 3.75784052 142.21134508 3.76786876 C138.41112484 3.7765033 134.61091149 3.77358309 130.8106842 3.77206421 C124.22731081 3.77101536 117.64397705 3.77729195 111.06061363 3.78853989 C101.5421735 3.80479194 92.02375253 3.81000259 82.50530002 3.81251587 C67.06236037 3.81689343 51.61944185 3.83020421 36.17651367 3.84912109 C21.17488714 3.8674783 6.17326635 3.88163559 -8.82836914 3.89013672 C-9.75302415 3.89066217 -10.67767916 3.89118761 -11.63035402 3.89172898 C-16.26906291 3.89433905 -20.90777183 3.89686647 -25.54648077 3.89935279 C-64.03100197 3.9200872 -102.51549959 3.95531442 -141 4 C-141 3.34 -141 2.68 -141 2 C-137.96550672 0.98850224 -135.90616679 0.86572402 -132.73085022 0.84851074 C-131.09257515 0.83599525 -131.09257515 0.83599525 -129.42120361 0.82322693 C-128.22267761 0.81904251 -127.02415161 0.81485809 -125.78930664 0.81054688 C-123.85217692 0.79781669 -121.91504721 0.78508625 -119.97791755 0.7723465 C-117.89515075 0.75960004 -115.81238429 0.74927908 -113.72960091 0.73963928 C-109.38898526 0.719415 -105.04843654 0.69176264 -100.70787048 0.66296387 C-91.49277836 0.60287429 -82.27764604 0.55103497 -73.0625 0.5 C-63.11784722 0.44490989 -53.17321475 0.38840285 -43.22862715 0.32245111 C-38.91366339 0.29411593 -34.59870739 0.27051471 -30.28369725 0.25052643 C-28.24563954 0.24035606 -26.20760985 0.22797011 -24.16957092 0.21458435 C-21.68451048 0.19827598 -19.19942371 0.18546398 -16.71432495 0.17677307 C-15.07182014 0.16425758 -15.07182014 0.16425758 -13.39613342 0.15148926 C-11.96951181 0.14375866 -11.96951181 0.14375866 -10.51406956 0.13587189 C-8.04452754 0.09143462 -8.04452754 0.09143462 -5.91274166 -0.57196808 C-3.57858254 -1.09430449 -2.30665047 -0.6025311 0 0 Z "
     transform="translate(277,199)"
     style="fill: #5E5E5F;"
     id="path14225" />
  <path
     d="M0 0 C4.02059946 -0.06914407 8.03967009 -0.12879137 12.06054688 -0.16479492 C13.42617816 -0.17981428 14.79176176 -0.20023608 16.15722656 -0.22631836 C18.12803905 -0.26300137 20.09921408 -0.27818551 22.0703125 -0.29296875 C23.25383301 -0.3086792 24.43735352 -0.32438965 25.65673828 -0.34057617 C30.1570185 0.11786482 33.62363227 1.46999122 36.6796875 4.8671875 C37.27136719 5.86105469 37.27136719 5.86105469 37.875 6.875 C38.28492188 7.53242188 38.69484375 8.18984375 39.1171875 8.8671875 C40 11 40 11 40 16 C26.8 16 13.6 16 0 16 C0 10.72 0 5.44 0 0 Z "
     transform="translate(174,238)"
     style="fill: #0634FF;"
     id="path14227" />
  <path
     d="M0 0 C6.27 0 12.54 0 19 0 C19 4.62 19 9.24 19 14 C12.4 14 5.8 14 -1 14 C-0.67 9.38 -0.34 4.76 0 0 Z "
     transform="translate(195,258)"
     style="fill: #0533FF;"
     id="path14229" />
  <path
     d="M0 0 C6.27 0 12.54 0 19 0 C19 4.62 19 9.24 19 14 C13.06 14 7.12 14 1 14 C0 8 0 8 0 0 Z "
     transform="translate(151,258)"
     style="fill: #0835FF;"
     id="path14231" />
  <path
     d="M0 0 C5.28 0 10.56 0 16 0 C16 5.28 16 10.56 16 16 C10.72 16 5.44 16 0 16 C0 10.72 0 5.44 0 0 Z "
     transform="translate(174,276)"
     style="fill: #0533FF;"
     id="path14233" />
  <path
     d="M0 0 C6.27 0 12.54 0 19 0 C18.01977941 5.88132353 17.13205615 9.42440053 12.4609375 13.265625 C7.4958007 16.48502877 5.83293979 16 -1 16 C-0.67 10.72 -0.34 5.44 0 0 Z "
     transform="translate(195,276)"
     style="fill: #0A36FF;"
     id="path14235" />
  <path
     d="M0 0 C1.5675 0.061875 3.135 0.12375 4.75 0.1875 C4.75 5.4675 4.75 10.7475 4.75 16.1875 C-1.19 16.1875 -7.13 16.1875 -13.25 16.1875 C-13.25 8.07638889 -13.25 8.07638889 -9.25 3.1875 C-6.13632085 0.33553096 -4.1917536 -0.16546396 0 0 Z "
     transform="translate(165.25,237.8125)"
     style="fill: #0835FF;"
     id="path14237" />
  <path
     d="M0 0 C5.94 0 11.88 0 18 0 C18 5.28 18 10.56 18 16 C9.8095983 16 7.72544793 15.59698421 2.1875 10.25 C1 8 1 8 0 0 Z "
     transform="translate(152,276)"
     style="fill: #0936FF;"
     id="path14239" />
  <path
     d="M0 0 C0.721875 0.00257813 1.44375 0.00515625 2.1875 0.0078125 C2.909375 0.00523437 3.63125 0.00265625 4.375 0 C6.1875 0.1328125 6.1875 0.1328125 7.1875 1.1328125 C7.2866657 2.75538794 7.31829777 4.38221081 7.3203125 6.0078125 C7.32224609 7.48507812 7.32224609 7.48507812 7.32421875 8.9921875 C7.32035156 10.02859375 7.31648438 11.065 7.3125 12.1328125 C7.31636719 13.16921875 7.32023437 14.205625 7.32421875 15.2734375 C7.32292969 16.25828125 7.32164062 17.243125 7.3203125 18.2578125 C7.31918457 19.16789062 7.31805664 20.07796875 7.31689453 21.015625 C7.1875 23.1328125 7.1875 23.1328125 6.1875 24.1328125 C3.51691149 24.27396411 0.86317762 24.17528357 -1.8125 24.1328125 C-3.03108107 21.69565035 -2.94175575 20.10007193 -2.9453125 17.37890625 C-2.94660156 16.44240234 -2.94789063 15.50589844 -2.94921875 14.54101562 C-2.94535156 13.56068359 -2.94148438 12.58035156 -2.9375 11.5703125 C-2.94136719 10.58611328 -2.94523437 9.60191406 -2.94921875 8.58789062 C-2.94792969 7.65267578 -2.94664062 6.71746094 -2.9453125 5.75390625 C-2.94418457 4.8920874 -2.94305664 4.03026855 -2.94189453 3.14233398 C-2.77508112 0.55169026 -2.5944162 0.19010808 0 0 Z "
     transform="translate(322.8125,315.8671875)"
     style="fill: #454545;"
     id="path14241" />
  <path
     d="M0 0 C2.05078125 0.03255208 4.1015625 0.06510417 6.15234375 0.09765625 C7.97905572 3.75108019 7.33705097 8.07604784 7.33984375 12.09765625 C7.35208984 13.02578125 7.36433594 13.95390625 7.37695312 14.91015625 C7.37985352 16.24046875 7.37985352 16.24046875 7.3828125 17.59765625 C7.38692139 18.41234375 7.39103027 19.22703125 7.39526367 20.06640625 C7.15234375 22.09765625 7.15234375 22.09765625 5.15234375 24.09765625 C1.58984375 24.28515625 1.58984375 24.28515625 -1.84765625 24.09765625 C-3.50159742 22.44371508 -2.97765308 20.49450212 -2.98046875 18.22265625 C-2.98175781 17.2378125 -2.98304688 16.25296875 -2.984375 15.23828125 C-2.98050781 14.201875 -2.97664062 13.16546875 -2.97265625 12.09765625 C-2.97845703 10.54304688 -2.97845703 10.54304688 -2.984375 8.95703125 C-2.98308594 7.9721875 -2.98179687 6.98734375 -2.98046875 5.97265625 C-2.97934082 5.06257813 -2.97821289 4.1525 -2.97705078 3.21484375 C-2.81326074 0.53486782 -2.69042426 0.14220001 0 0 Z "
     transform="translate(146.84765625,315.90234375)"
     style="fill: #434343;"
     id="path14243" />
  <path
     d="M0 0 C5.28 0 10.56 0 16 0 C16 4.62 16 9.24 16 14 C10.72 14 5.44 14 0 14 C0 9.38 0 4.76 0 0 Z "
     transform="translate(174,258)"
     style="fill: #0533FF;"
     id="path14245" />
  <path
     d="M0 0 C1.22589844 0.01353516 1.22589844 0.01353516 2.4765625 0.02734375 C3.41628906 0.04474609 3.41628906 0.04474609 4.375 0.0625 C4.88244423 1.95635437 5.38064574 3.85268666 5.875 5.75 C6.1534375 6.80574219 6.431875 7.86148437 6.71875 8.94921875 C7.3141715 11.77392672 7.50286492 14.19086708 7.375 17.0625 C2.85770255 18.56826582 -0.013017 19.20155625 -4.625 18.0625 C-5.9232126 12.30168159 -6.88206972 6.97510345 -6.625 1.0625 C-4.21954362 -0.14022819 -2.67503047 -0.03821472 0 0 Z "
     transform="translate(84.625,311.9375)"
     style="fill: #E5E5E5;"
     id="path14247" />
  <path
     d="M0 0 C0 3.63 0 7.26 0 11 C0.66 11 1.32 11 2 11 C2.02686553 12.97909398 2.04633375 14.95828971 2.0625 16.9375 C2.07410156 18.03964844 2.08570313 19.14179688 2.09765625 20.27734375 C2 23 2 23 1 24 C-1.67058851 24.14115161 -4.32432238 24.04247107 -7 24 C-8.25069801 21.49860398 -8.13302467 19.72607309 -8.125 16.9375 C-8.12757813 16.03902344 -8.13015625 15.14054687 -8.1328125 14.21484375 C-8 12 -8 12 -7 11 C-6.79224439 9.33795513 -6.63281745 7.66970509 -6.5 6 C-6.02272727 0 -6.02272727 0 0 0 Z "
     transform="translate(298,316)"
     style="fill: #555555;"
     id="path14249" />
  <path
     d="M0 0 C-0.33 3.96 -0.66 7.92 -1 12 C1.64 12 4.28 12 7 12 C7 15.96 7 19.92 7 24 C0.06640625 24.09765625 0.06640625 24.09765625 -2 24 C-3.65394117 22.34605883 -3.12999683 20.39684587 -3.1328125 18.125 C-3.13410156 17.14015625 -3.13539063 16.1553125 -3.13671875 15.140625 C-3.13285156 14.10421875 -3.12898437 13.0678125 -3.125 12 C-3.13080078 10.44539063 -3.13080078 10.44539063 -3.13671875 8.859375 C-3.13542969 7.87453125 -3.13414062 6.8896875 -3.1328125 5.875 C-3.13168457 4.96492188 -3.13055664 4.05484375 -3.12939453 3.1171875 C-2.95917639 0.3320333 -2.80587908 0 0 0 Z "
     transform="translate(249,316)"
     style="fill: #444444;"
     id="path14251" />
  <path
     d="M0 0 C1.47906892 -0.02689216 2.95827483 -0.04634621 4.4375 -0.0625 C5.26121094 -0.07410156 6.08492188 -0.08570313 6.93359375 -0.09765625 C9 0 9 0 10 1 C10.09879565 2.810285 10.12971514 4.62452727 10.125 6.4375 C10.12757813 7.42621094 10.13015625 8.41492188 10.1328125 9.43359375 C10 12 10 12 9 14 C6.69 14 4.38 14 2 14 C2 15.98 2 17.96 2 20 C4.31 20 6.62 20 9 20 C9.33 21.32 9.66 22.64 10 24 C6.7 24 3.4 24 0 24 C-0.02685938 21.85423363 -0.04633088 19.70837355 -0.0625 17.5625 C-0.07410156 16.36753906 -0.08570313 15.17257812 -0.09765625 13.94140625 C0 11 0 11 1 10 C3.33297433 9.95907063 5.66705225 9.95758277 8 10 C8 8.02 8 6.04 8 4 C5.36 4 2.72 4 0 4 C0 2.68 0 1.36 0 0 Z "
     transform="translate(364,316)"
     style="fill: #454545;"
     id="path14253" />
  <path
     d="M0 0 C1.45792884 -0.05399736 2.91642712 -0.09279177 4.375 -0.125 C5.18710938 -0.14820313 5.99921875 -0.17140625 6.8359375 -0.1953125 C9 0 9 0 11 2 C11.265625 4.3125 11.265625 4.3125 11.25 7 C11.25515625 7.886875 11.2603125 8.77375 11.265625 9.6875 C11 12 11 12 9 14 C5.875 14.125 5.875 14.125 3 14 C3 15.98 3 17.96 3 20 C5.31 20 7.62 20 10 20 C10 21.32 10 22.64 10 24 C7.03 24 4.06 24 1 24 C1 19.38 1 14.76 1 10 C3.64 10 6.28 10 9 10 C9 8.02 9 6.04 9 4 C6.03 4 3.06 4 0 4 C0 2.68 0 1.36 0 0 Z "
     transform="translate(173,316)"
     style="fill: #464646;"
     id="path14255" />
  <path
     d="M0 0 C1.47906892 -0.02689216 2.95827483 -0.04634621 4.4375 -0.0625 C5.26121094 -0.07410156 6.08492187 -0.08570313 6.93359375 -0.09765625 C9 0 9 0 10 1 C10.0991657 2.62257544 10.13079777 4.24939831 10.1328125 5.875 C10.13474609 7.35226562 10.13474609 7.35226562 10.13671875 8.859375 C10.13285156 9.89578125 10.12898437 10.9321875 10.125 12 C10.12886719 13.03640625 10.13273438 14.0728125 10.13671875 15.140625 C10.13542969 16.12546875 10.13414062 17.1103125 10.1328125 18.125 C10.13168457 19.03507812 10.13055664 19.94515625 10.12939453 20.8828125 C10 23 10 23 9 24 C7.48071962 24.07179964 5.95832518 24.08392007 4.4375 24.0625 C3.61121094 24.05347656 2.78492188 24.04445313 1.93359375 24.03515625 C0.97646484 24.01775391 0.97646484 24.01775391 0 24 C0 22.68 0 21.36 0 20 C2.64 20 5.28 20 8 20 C8 18.02 8 16.04 8 14 C6.02 14 4.04 14 2 14 C2 12.68 2 11.36 2 10 C3.98 10 5.96 10 8 10 C8 8.02 8 6.04 8 4 C5.69 4 3.38 4 1 4 C0.67 2.68 0.34 1.36 0 0 Z "
     transform="translate(188,316)"
     style="fill: #474747;"
     id="path14257" />
  <path
     d="M0 0 C6.93359375 -0.09765625 6.93359375 -0.09765625 9 0 C10 1 10 1 10.11352539 3.13305664 C10.10828857 4.04949951 10.10305176 4.96594238 10.09765625 5.91015625 C10.09443359 6.89951172 10.09121094 7.88886719 10.08789062 8.90820312 C10.07951172 9.94912109 10.07113281 10.99003906 10.0625 12.0625 C10.05798828 13.10728516 10.05347656 14.15207031 10.04882812 15.22851562 C10.03699913 17.8190666 10.02051689 20.40950559 10 23 C9.01 23.33 8.02 23.66 7 24 C7.33 19.38 7.66 14.76 8 10 C5.36 10 2.72 10 0 10 C0 6.7 0 3.4 0 0 Z "
     transform="translate(306,316)"
     style="fill: #434343;"
     id="path14259" />
  <path
     d="M0 0 C2.97 0 5.94 0 9 0 C8.67 1.32 8.34 2.64 8 4 C6.02 4 4.04 4 2 4 C2 5.98 2 7.96 2 10 C3.98 10 5.96 10 8 10 C8.02685938 12.14576637 8.04633088 14.29162645 8.0625 16.4375 C8.07410156 17.63246094 8.08570313 18.82742188 8.09765625 20.05859375 C8 23 8 23 7 24 C4.66702567 24.04092937 2.33294775 24.04241723 0 24 C-0.66 22.68 -1.32 21.36 -2 20 C0.86177057 18.56911472 2.93375773 19.40008303 6 20 C6 18.02 6 16.04 6 14 C4.02 14 2.04 14 0 14 C0 9.38 0 4.76 0 0 Z "
     transform="translate(410,316)"
     style="fill: #474747;"
     id="path14261" />
  <path
     d="M0 0 C0 3.96 0 7.92 0 12 C1.32 12 2.64 12 4 12 C4 9.36 4 6.72 4 4 C5.32 4 6.64 4 8 4 C8 10.27 8 16.54 8 23 C6.68 23 5.36 23 4 23 C4 20.69 4 18.38 4 16 C2.02 16 0.04 16 -2 16 C-2.02685095 13.52076199 -2.04676547 11.0418116 -2.0625 8.5625 C-2.07506836 7.50192383 -2.07506836 7.50192383 -2.08789062 6.41992188 C-2.09653588 4.61306441 -2.05220011 2.80612397 -2 1 C-1 0 -1 0 0 0 Z "
     transform="translate(218,316)"
     style="fill: #434343;"
     id="path14263" />
  <path
     d="M0 0 C2.97 0 5.94 0 9 0 C9 7.92 9 15.84 9 24 C6.03 24 3.06 24 0 24 C0 22.68 0 21.36 0 20 C2.31 20 4.62 20 7 20 C7 18.02 7 16.04 7 14 C5.35 14 3.7 14 2 14 C2 12.68 2 11.36 2 10 C3.65 10 5.3 10 7 10 C7 8.02 7 6.04 7 4 C4.69 4 2.38 4 0 4 C0 2.68 0 1.36 0 0 Z "
     transform="translate(379,316)"
     style="fill: #454545;"
     id="path14265" />
  <path
     d="M0 0 C2.31 0 4.62 0 7 0 C7 1.32 7 2.64 7 4 C5.35 4 3.7 4 2 4 C2 5.98 2 7.96 2 10 C2.804375 10.144375 3.60875 10.28875 4.4375 10.4375 C7 11 7 11 8 12 C8.1245486 13.64230364 8.17568524 15.29052276 8.1875 16.9375 C8.20167969 17.83339844 8.21585938 18.72929687 8.23046875 19.65234375 C8 22 8 22 6 24 C2.375 24.125 2.375 24.125 -1 24 C-1.66 22.68 -2.32 21.36 -3 20 C0.06890187 18.46554906 2.70094266 19.45015711 6 20 C6 18.02 6 16.04 6 14 C4.02 14 2.04 14 0 14 C0 9.38 0 4.76 0 0 Z "
     transform="translate(234,316)"
     style="fill: #464646;"
     id="path14267" />
  <path
     d="M0 0 C2.31 0 4.62 0 7 0 C7 6.6 7 13.2 7 20 C7.66 20 8.32 20 9 20 C9 17.69 9 15.38 9 13 C9.66 13.33 10.32 13.66 11 14 C11.02689216 15.47906892 11.04634621 16.95827483 11.0625 18.4375 C11.07410156 19.26121094 11.08570313 20.08492188 11.09765625 20.93359375 C11 23 11 23 10 24 C8.31391034 24.07205511 6.62499341 24.08386068 4.9375 24.0625 C4.01839844 24.05347656 3.09929687 24.04445313 2.15234375 24.03515625 C1.44207031 24.02355469 0.73179687 24.01195312 0 24 C0 22.68 0 21.36 0 20 C1.65 20 3.3 20 5 20 C5 14.72 5 9.44 5 4 C3.35 4 1.7 4 0 4 C0 2.68 0 1.36 0 0 Z "
     transform="translate(335,316)"
     style="fill: #464646;"
     id="path14269" />
  <path
     d="M0 0 C1.65 0 3.3 0 5 0 C5 6.6 5 13.2 5 20 C5.66 20 6.32 20 7 20 C7 17.69 7 15.38 7 13 C7.66 13 8.32 13 9 13 C9 16.63 9 20.26 9 24 C6.03 24 3.06 24 0 24 C0 22.68 0 21.36 0 20 C0.99 20 1.98 20 3 20 C3 14.72 3 9.44 3 4 C1.68 3.67 0.36 3.34 -1 3 C-0.67 2.01 -0.34 1.02 0 0 Z "
     transform="translate(159,316)"
     style="fill: #454545;"
     id="path14271" />
  <path
     d="M0 0 C2.97 0.495 2.97 0.495 6 1 C6 6.28 6 11.56 6 17 C4.02 17 2.04 17 0 17 C0 11.39 0 5.78 0 0 Z "
     transform="translate(322,319)"
     style="fill: #FBFBFB;"
     id="path14273" />
  <path
     d="M0 0 C2.97 0.495 2.97 0.495 6 1 C6 6.28 6 11.56 6 17 C4.02 17 2.04 17 0 17 C0 11.39 0 5.78 0 0 Z "
     transform="translate(146,319)"
     style="fill: #FBFBFB;"
     id="path14275" />
  <path
     d="M0 0 C2.29612756 9.41002278 2.29612756 9.41002278 2 14 C-0.31 14 -2.62 14 -5 14 C-5.66 9.71 -6.32 5.42 -7 1 C-3 0 -3 0 0 0 Z "
     transform="translate(87,314)"
     style="fill: #484848;"
     id="path14277" />
  <path
     d="M0 0 C1.38529821 5.45461169 2.2396943 10.36718401 2 16 C2.99 16 3.98 16 5 16 C4.67 14.02 4.34 12.04 4 10 C4.99 10 5.98 10 7 10 C7.33 12.31 7.66 14.62 8 17 C3.82262526 18.59138085 0.46839215 19.21278058 -4 19 C-4 18.34 -4 17.68 -4 17 C-2.68 17 -1.36 17 0 17 C-0.2165625 16.11248047 -0.2165625 16.11248047 -0.4375 15.20703125 C-1.40822694 11.07470059 -2.27593702 7.2770238 -2 3 C-3.65 3 -5.3 3 -7 3 C-7 2.34 -7 1.68 -7 1 C-4 0 -4 0 0 0 Z "
     transform="translate(101,309)"
     style="fill: #EBEBEB;"
     id="path14279" />
  <path
     d="M0 0 C0.66 0 1.32 0 2 0 C2 3.96 2 7.92 2 12 C3.32 12 4.64 12 6 12 C6 9.03 6 6.06 6 3 C6.66 3 7.32 3 8 3 C9.33257403 16.6332574 9.33257403 16.6332574 8 23 C7.34 23 6.68 23 6 23 C6 20.69 6 18.38 6 16 C4.02 16 2.04 16 0 16 C0 10.72 0 5.44 0 0 Z "
     transform="translate(394,316)"
     style="fill: #464646;"
     id="path14281" />
  <path
     d="M0 0 C3.3 0 6.6 0 10 0 C10.38103757 9.6529517 10.38103757 9.6529517 7 14 C6.43310718 16.34852226 6.43310718 16.34852226 6.3125 18.75 C6.24675781 19.54921875 6.18101562 20.3484375 6.11328125 21.171875 C6.07589844 21.77515625 6.03851563 22.3784375 6 23 C5.34 23 4.68 23 4 23 C3.91846067 21.41753293 3.86056443 19.83383727 3.8125 18.25 C3.76029297 16.92742187 3.76029297 16.92742187 3.70703125 15.578125 C4.05448861 12.52050024 5.06411873 11.33095908 7 9 C7.71433121 6.35065178 7.71433121 6.35065178 8 4 C5.36 4 2.72 4 0 4 C0 2.68 0 1.36 0 0 Z "
     transform="translate(262,316)"
     style="fill: #424242;"
     id="path14283" />
  <path
     d="M0 0 C-1.25875302 3.77625905 -2.30192321 3.90735384 -5.75 5.6875 C-13.93588951 10.428543 -16.49097584 17.1878176 -19 26 C-19.33 26 -19.66 26 -20 26 C-19.79674932 18.0177915 -17.67927322 12.7084738 -12.03125 7.015625 C-4.26188017 0 -4.26188017 0 0 0 Z "
     transform="translate(136,201)"
     style="fill: #6A6A6B;"
     id="path14285" />
  <path
     d="M0 0 C2.97 0 5.94 0 9 0 C8.67 1.32 8.34 2.64 8 4 C6.02 4 4.04 4 2 4 C2.04125 4.94875 2.0825 5.8975 2.125 6.875 C2 10 2 10 0 12 C0 8.04 0 4.08 0 0 Z "
     transform="translate(410,316)"
     style="fill: #535353;"
     id="path14287" />
  <path
     d="M0 0 C1.98 0 3.96 0 6 0 C6 1.98 6 3.96 6 6 C4.02 6 2.04 6 0 6 C0 4.02 0 2.04 0 0 Z "
     transform="translate(292,330)"
     style="fill: #FFFFFF;"
     id="path14289" />
  <path
     d="M0 0 C0.99 0.33 1.98 0.66 3 1 C2.2884375 1.7115625 2.2884375 1.7115625 1.5625 2.4375 C-0.68076096 6.11644797 -0.73739578 9.7621112 -1 14 C-1.66 14 -2.32 14 -3 14 C-3.08153933 12.41753293 -3.13943557 10.83383727 -3.1875 9.25 C-3.22230469 8.36828125 -3.25710938 7.4865625 -3.29296875 6.578125 C-2.94923684 3.55328417 -1.99772541 2.24416398 0 0 Z "
     transform="translate(269,325)"
     style="fill: #4C4C4C;"
     id="path14291" />
  <path
     d="M0 0 C2 1 2 1 3 4 C3.03954234 6.33299825 3.04401732 8.66708189 3 11 C3.99 11 4.98 11 6 11 C6 11.66 6 12.32 6 13 C4.35 12.67 2.7 12.34 1 12 C0.67 8.04 0.34 4.08 0 0 Z "
     transform="translate(79,318)"
     style="fill: #EFEFEF;"
     id="path14293" />
  <path
     d="M0 0 C0.33 1.98 0.66 3.96 1 6 C0.34 6 -0.32 6 -1 6 C-1.33 6.66 -1.66 7.32 -2 8 C-2 6.35 -2 4.7 -2 3 C-3.65 3 -5.3 3 -7 3 C-7 2.34 -7 1.68 -7 1 C-4 0 -4 0 0 0 Z "
     transform="translate(101,309)"
     style="fill: #D3D3D3;"
     id="path14295" />
  <path
     d="M0 0 C2.97 0.495 2.97 0.495 6 1 C6 2.32 6 3.64 6 5 C4.02 5 2.04 5 0 5 C0 3.35 0 1.7 0 0 Z "
     transform="translate(308,319)"
     style="fill: #F3F3F3;"
     id="path14297" />
  <path
     d="M0 0 C0.99 0 1.98 0 3 0 C3 3.3 3 6.6 3 10 C2.01 9.67 1.02 9.34 0 9 C0 6.03 0 3.06 0 0 Z "
     transform="translate(113,315)"
     style="fill: #ECECEC;"
     id="path14299" />
  <path
     d="M0 0 C1.98 0 3.96 0 6 0 C6 1.32 6 2.64 6 4 C4.02 4 2.04 4 0 4 C0 2.68 0 1.36 0 0 Z "
     transform="translate(248,332)"
     style="fill: #FFFFFF;"
     id="path14301" />
  <path
     d="M0 0 C-1 3 -1 3 -2.84765625 4.16796875 C-3.57855469 4.50441406 -4.30945313 4.84085938 -5.0625 5.1875 C-5.79597656 5.53167969 -6.52945313 5.87585938 -7.28515625 6.23046875 C-8.13400391 6.61138672 -8.13400391 6.61138672 -9 7 C-9 6.01 -9 5.02 -9 4 C-2.25 0 -2.25 0 0 0 Z "
     transform="translate(136,201)"
     style="fill: #797979;"
     id="path14303" />
  <path
     d="M0 0 C0.33 0 0.66 0 1 0 C1.042721 1.66611905 1.04063832 3.33382885 1 5 C0.67 5.33 0.34 5.66 0 6 C-1.52519276 5.91062197 -3.04681929 5.75462854 -4.5625 5.5625 C-5.80193359 5.40974609 -5.80193359 5.40974609 -7.06640625 5.25390625 C-7.70449219 5.17011719 -8.34257813 5.08632813 -9 5 C-9 4.67 -9 4.34 -9 4 C-6.69 4 -4.38 4 -2 4 C-1.34 2.68 -0.68 1.36 0 0 Z "
     transform="translate(91,324)"
     style="fill: #D3D3D3;"
     id="path14305" />
  <path
     d="M0 0 C0.66 0 1.32 0 2 0 C2.33 2.97 2.66 5.94 3 9 C2.34 9 1.68 9 1 9 C0.67 6.03 0.34 3.06 0 0 Z "
     transform="translate(100,315)"
     style="fill: #F4F4F4;"
     id="path14307" />
</svg>
