<svg id="svg" version="1.1" xmlns="http://www.w3.org/2000/svg" style="display: block;" viewBox="0 0 504 506"><path d="M0 0 C166.32 0 332.64 0 504 0 C504 166.98 504 333.96 504 506 C337.68 506 171.36 506 0 506 C0 339.02 0 172.04 0 0 Z " transform="translate(0,0)" style="fill: #000000;" opacity="0"/><path d="M0 0 C1.44955977 -0.00378816 2.89911591 -0.00929229 4.34866333 -0.01637268 C8.26597835 -0.03027746 12.18285173 -0.01919404 16.100142 -0.00266147 C20.20794893 0.01123702 24.31573148 0.00472371 28.42355347 0.00120544 C35.31824829 -0.00149229 42.21276858 0.0119433 49.10742188 0.03515625 C57.07143875 0.0617844 65.03516431 0.06350479 72.99921048 0.05176789 C80.6729721 0.04097997 88.34662864 0.04718375 96.02038193 0.06132317 C99.28101977 0.06707206 102.54158045 0.06700899 105.80221939 0.06225777 C109.64205964 0.05747685 113.48158177 0.06763546 117.32136154 0.08921242 C118.72821225 0.09476455 120.13509363 0.09526004 121.54194641 0.09025955 C123.46621389 0.08427887 125.3905122 0.09868357 127.31472778 0.11402893 C128.92795016 0.11767377 128.92795016 0.11767377 130.57376289 0.12139225 C135.24968375 0.70882141 138.53586856 2.43650332 141.85107422 5.75170898 C145.5972356 11.63853401 145.89659368 17.65979783 145.87573242 24.4152832 C145.88339882 25.71186356 145.88339882 25.71186356 145.89122009 27.03463745 C145.90505283 29.8752954 145.90416401 32.71570898 145.90185547 35.55639648 C145.90574601 37.54265431 145.91008142 39.5289113 145.9148407 41.51516724 C145.92228944 45.67265523 145.92202149 49.83005829 145.91674805 53.98754883 C145.91095681 59.2990292 145.92788273 64.61016048 145.95109272 69.92158318 C145.96586907 74.0224102 145.96669642 78.12315391 145.96358299 82.22400284 C145.96409429 84.18149634 145.96929592 86.13899473 145.97939491 88.09646225 C145.99181713 90.84098334 145.98493308 93.58483426 145.97338867 96.3293457 C145.98103241 97.12755737 145.98867615 97.92576904 145.99655151 98.74816895 C145.94142095 104.71786316 145.26924903 111.50233688 141.14915943 116.13384819 C136.74033708 119.87823575 134.16292774 120.62634007 128.49902344 120.61523438 C127.21784637 120.61515884 125.93666931 120.61508331 124.6166687 120.61500549 C123.21303265 120.60989846 121.80939699 120.60468246 120.40576172 120.59936523 C118.97372487 120.59750044 117.54168738 120.59607683 116.10964966 120.59507751 C112.33834068 120.59125717 108.56707014 120.581431 104.79577637 120.57037354 C100.27201634 120.55835176 95.74824347 120.55375487 91.22447205 120.54792023 C84.34997936 120.538219 77.47557103 120.51905909 70.60107422 120.50170898 C70.60107422 134.36170898 70.60107422 148.22170898 70.60107422 162.50170898 C74.310271 162.46094238 78.01946777 162.42017578 81.84106445 162.37817383 C94.1064685 162.24489241 106.37196362 162.12299274 118.63754177 162.00693321 C126.07296631 161.93630056 133.50831392 161.86180103 140.94360352 161.77807617 C147.42706999 161.70507924 153.91056285 161.63946202 160.39419132 161.58256495 C163.82461553 161.55220728 167.25491594 161.51825068 170.68520927 161.47544479 C174.52229586 161.42942111 178.35929234 161.39644138 182.1965332 161.36645508 C183.3236673 161.34991379 184.45080139 161.3333725 185.61209106 161.31632996 C200.95168938 161.23402067 200.95168938 161.23402067 205.22058773 164.8878994 C208.39121102 168.59440598 209.7429115 171.08195916 209.62280273 175.85961914 C209.60270645 176.76040192 209.58261017 177.66118469 209.56190491 178.58926392 C209.53486984 179.56326141 209.50783478 180.53725891 209.47998047 181.54077148 C209.45636948 182.53676361 209.43275848 183.53275574 209.40843201 184.55892944 C209.33169775 187.74833079 209.24771538 190.93749527 209.16357422 194.12670898 C209.11036331 196.28555146 209.05762286 198.44440558 209.00537109 200.60327148 C208.87606945 205.90289805 208.74081232 211.20234789 208.60107422 216.50170898 C209.68606201 216.64036377 210.7710498 216.77901855 211.88891602 216.921875 C223.01558503 218.65984533 232.83119205 225.740685 239.60107422 234.50170898 C247.54982864 247.48467454 249.68485839 261.14695691 246.94873047 276.05639648 C244.8171943 283.10052888 241.23577701 288.82938616 236.60107422 294.50170898 C236.08931641 295.13850586 235.57755859 295.77530273 235.05029297 296.43139648 C227.11112056 305.29647734 215.80574737 309.91299098 204.17138672 310.74780273 C189.61349618 311.2390199 177.24787004 307.3078441 166.35107422 297.47045898 C156.18742986 286.84483079 152.05654654 274.27497587 152.35888672 259.82983398 C153.27249102 247.27514262 158.15478642 236.43249568 167.22607422 227.62670898 C172.95452689 222.79580189 180.89206129 217.50170898 188.60107422 217.50170898 C188.49054413 213.31369679 188.36006852 209.12653095 188.22607422 204.93920898 C188.17966797 203.16707031 188.17966797 203.16707031 188.13232422 201.35913086 C187.86837196 192.74148818 187.86837196 192.74148818 185.60107422 184.50170898 C183.21652787 183.30943581 181.73294931 183.36415147 179.07064819 183.3434906 C178.11709946 183.33370178 177.16355072 183.32391296 176.18110657 183.31382751 C175.13166367 183.30807205 174.08222076 183.30231659 173.00097656 183.29638672 C171.89853104 183.28648712 170.79608551 183.27658752 169.66023254 183.26638794 C166.0025144 183.23470515 162.34478324 183.20998871 158.68701172 183.18530273 C156.15637873 183.16473906 153.62574923 183.14374275 151.09512329 183.12232971 C145.10637204 183.07270409 139.11760306 183.02745452 133.1288029 182.98430735 C126.31144211 182.93494781 119.49412973 182.88002493 112.67681575 182.82462776 C98.65161195 182.71078462 84.6263618 182.60468515 70.60107422 182.50170898 C70.60107422 193.72170898 70.60107422 204.94170898 70.60107422 216.50170898 C74.56107422 217.49170898 74.56107422 217.49170898 78.60107422 218.50170898 C90.5760791 223.35802204 99.33773261 232.89311665 104.60107422 244.50170898 C109.73036218 258.46069979 108.51477645 272.24941085 102.41357422 285.62670898 C96.24426673 297.1781423 86.63311328 304.62919282 74.35107422 308.93920898 C61.07384624 312.59754258 48.25980675 310.9729084 36.03857422 304.93920898 C24.24077124 298.07962925 17.85451751 288.48740949 13.28857422 275.87670898 C10.1885883 260.65859628 12.45829313 247.68681343 20.60107422 234.50170898 C27.26175699 225.78659484 36.06175371 219.63669278 46.60107422 216.50170898 C47.26107422 216.50170898 47.92107422 216.50170898 48.60107422 216.50170898 C48.60107422 205.28170898 48.60107422 194.06170898 48.60107422 182.50170898 C33.90215602 182.587075 19.2033523 182.68062232 4.50458717 182.78923607 C-2.31999841 182.83940061 -9.14457175 182.88584295 -15.96923828 182.92358398 C-22.55043893 182.959989 -29.13151376 183.00668566 -35.71260452 183.05977249 C-38.2284884 183.07836287 -40.74440056 183.09345348 -43.26032639 183.10505295 C-46.77329872 183.12183608 -50.28596629 183.15085168 -53.79882812 183.18286133 C-54.84827103 183.18502151 -55.89771393 183.1871817 -56.97895813 183.18940735 C-58.40928123 183.20615257 -58.40928123 183.20615257 -59.86849976 183.22323608 C-60.69995703 183.22876684 -61.5314143 183.2342976 -62.38806725 183.23999596 C-64.62740712 183.32356847 -64.62740712 183.32356847 -66.39892578 185.50170898 C-66.64394073 187.93347295 -66.77217499 190.26035783 -66.81298828 192.69702148 C-66.83235443 193.40446503 -66.85172058 194.11190857 -66.87167358 194.84078979 C-66.9315023 197.10263983 -66.97786679 199.36454068 -67.02392578 201.62670898 C-67.06210264 203.15928339 -67.1011542 204.69183627 -67.14111328 206.22436523 C-67.23720617 209.98330522 -67.32122427 213.74234566 -67.39892578 217.50170898 C-66.45887695 217.64487549 -65.51882812 217.78804199 -64.55029297 217.93554688 C-55.10424076 219.63258709 -47.25457786 227.30329531 -41.39892578 234.50170898 C-33.79187537 246.83959033 -31.15038193 260.30222295 -33.78564453 274.59985352 C-36.84635032 286.74167336 -44.38687821 296.21153762 -54.39892578 303.50170898 C-67.15616555 310.67196928 -80.88068418 312.90166464 -95.14892578 308.93920898 C-108.10584722 304.39236293 -117.41929351 296.59722832 -123.77392578 284.43920898 C-129.63750042 271.7560421 -130.33646314 258.87681583 -125.66064453 245.50561523 C-120.2187073 232.54942413 -111.87639575 224.28216698 -99.12158203 218.46264648 C-95.66300773 217.0843692 -93.15898011 216.50170898 -89.39892578 216.50170898 C-89.45016602 215.24100586 -89.50140625 213.98030273 -89.55419922 212.68139648 C-89.73967704 207.97808725 -89.89691833 203.27417512 -90.04589844 198.56958008 C-90.11411142 196.53838489 -90.18985263 194.50742735 -90.2734375 192.47680664 C-90.39266154 189.54791733 -90.48425945 186.61922455 -90.57080078 183.68920898 C-90.6133197 182.78992676 -90.65583862 181.89064453 -90.699646 180.96411133 C-90.83718132 175.14210072 -90.1517225 170.16026007 -86.39892578 165.50170898 C-78.21340755 159.78696751 -66.80644072 161.36273791 -57.20458984 161.47998047 C-56.0519162 161.48958801 -54.89924255 161.49919556 -53.7116394 161.50909424 C-49.94587469 161.54176786 -46.18023781 161.5822182 -42.41455078 161.62280273 C-39.78611689 161.64713486 -37.15767842 161.67097682 -34.52923584 161.6943512 C-28.34595955 161.75015723 -22.16275261 161.8115724 -15.97955108 161.87507254 C-8.93228887 161.94716805 -1.88497165 162.01290436 5.16235685 162.078143 C19.64200148 162.21232477 34.12154879 162.35521291 48.60107422 162.50170898 C48.60107422 148.64170898 48.60107422 134.78170898 48.60107422 120.50170898 C44.06228516 120.54811523 39.52349609 120.59452148 34.84716797 120.64233398 C31.9623793 120.66278536 29.07768071 120.68204187 26.19287109 120.69702148 C21.61935741 120.72088283 17.04616572 120.74903338 12.47290039 120.8034668 C8.78351895 120.84710223 5.09448305 120.87088306 1.40486336 120.88121796 C0.00109484 120.88857781 -1.40265592 120.9029499 -2.80627632 120.92462921 C-16.96140065 121.13445602 -16.96140065 121.13445602 -22.39892578 116.50170898 C-26.35350096 110.87305198 -26.97970319 106.71476737 -26.91650391 99.9296875 C-26.92351318 98.99541931 -26.93052246 98.06115112 -26.93774414 97.09857178 C-26.95527697 94.02561273 -26.94371693 90.95358284 -26.93017578 87.88061523 C-26.93287227 85.73501917 -26.936756 83.58942429 -26.94177246 81.4438324 C-26.94766134 76.9525079 -26.93912485 72.4615022 -26.92041016 67.97021484 C-26.89763506 62.2258058 -26.91073886 56.48214495 -26.93470001 50.7377634 C-26.94918608 46.30838939 -26.94453883 41.87919138 -26.93418884 37.44981194 C-26.93152862 35.33240609 -26.93476642 33.21498404 -26.94410706 31.09759712 C-26.95431721 28.13234551 -26.93870818 25.16828815 -26.91650391 22.203125 C-26.92460083 21.33586288 -26.93269775 20.46860077 -26.94104004 19.57505798 C-26.86195657 13.84637847 -26.02597075 9.08816293 -22.39892578 4.50170898 C-16.22019598 -0.98511331 -7.74841098 -0.05784842 0 0 Z " transform="translate(191.39892578125,97.498291015625)" style="fill: #909090;"/><path d="M0 0 C1.13547272 -0.0071553 2.27094543 -0.01431061 3.44082642 -0.02168274 C7.19330091 -0.0385887 10.94458409 -0.01915538 14.69702148 0.00219727 C17.30346272 0.00136881 19.9099039 -0.00108968 22.51634216 -0.00511169 C27.97799398 -0.00962912 33.43930292 0.00621645 38.90087891 0.03417969 C45.2125566 0.06624654 51.52361653 0.06620882 57.83533818 0.04896492 C63.91214948 0.03309542 69.98869825 0.03993243 76.06550407 0.05690193 C78.64953034 0.06209149 81.23357439 0.06159262 83.81759834 0.05535698 C87.42566576 0.04991835 91.03267777 0.07023809 94.640625 0.09765625 C96.24832512 0.08786743 96.24832512 0.08786743 97.88850403 0.07788086 C105.07984845 0.170995 105.07984845 0.170995 108.37321472 2.41334534 C112.60086508 9.19568235 112.05131445 17.61763757 112.02124023 25.34985352 C112.02315369 26.44777222 112.02506714 27.54569092 112.02703857 28.67687988 C112.02839287 30.98633047 112.0247495 33.29578887 112.01635742 35.60522461 C112.00564743 39.12053689 112.01627877 42.63533819 112.02905273 46.15063477 C112.02773101 48.40454213 112.02516834 50.65844918 112.02124023 52.91235352 C112.0252887 53.9532312 112.02933716 54.99410889 112.0335083 56.06652832 C111.93810208 71.06877575 111.93810208 71.06877575 107.8649292 75.85084534 C103.21927168 78.51074713 98.97700207 78.18132546 93.71069336 78.1328125 C92.03915443 78.14091698 92.03915443 78.14091698 90.33384705 78.14918518 C86.6512494 78.16168976 82.96943087 78.1451689 79.28686523 78.12719727 C76.72766072 78.12735221 74.16845596 78.12884047 71.60925293 78.13160706 C66.24597919 78.13299184 60.88298015 78.1208538 55.51977539 78.09765625 C49.32521219 78.07104774 43.13102359 78.06930015 36.93642282 78.08104461 C30.9696563 78.09183584 25.00300378 78.08552334 19.03623962 78.07148933 C16.5004872 78.06697108 13.96472377 78.06664128 11.42897034 78.07055473 C7.88592905 78.07346303 4.34350095 78.05697708 0.80053711 78.03515625 C-0.24896622 78.0396579 -1.29846954 78.04415955 -2.379776 78.04879761 C-11.35216006 77.95692286 -11.35216006 77.95692286 -15.24438477 74.63110352 C-16.64713664 71.82559977 -16.40278209 69.47126829 -16.43725586 66.33300781 C-16.44543335 65.687258 -16.45361084 65.04150818 -16.46203613 64.37619019 C-16.48687902 62.23591031 -16.50340357 60.09569672 -16.51782227 57.95532227 C-16.52314594 57.22421549 -16.52846962 56.49310871 -16.53395462 55.73984718 C-16.56068207 51.86970696 -16.58005775 47.99959895 -16.59448242 44.12939453 C-16.61112522 40.134311 -16.65589956 36.14005324 -16.70685387 32.14528179 C-16.74053091 29.07144742 -16.75206023 25.99780891 -16.7577095 22.92380714 C-16.76442138 21.45139063 -16.77964214 19.97898699 -16.80360031 18.50675011 C-16.83526756 16.44294598 -16.83528838 14.38136668 -16.82788086 12.31738281 C-16.83596771 11.14427048 -16.84405457 9.97115814 -16.85238647 8.76249695 C-16.24438477 5.63110352 -16.24438477 5.63110352 -14.41069031 2.75265503 C-9.70425358 -0.40084605 -5.54968422 -0.06065571 0 0 Z " transform="translate(204.244384765625,118.368896484375)" style="fill: #FFFFFF;"/><path d="M0 0 C6.62335257 4.75619794 10.05731144 11.30499489 11.37890625 19.2890625 C11.75601953 26.17442106 9.53273079 32.47970575 5.52734375 38.046875 C0.26318524 43.87105037 -6.65339463 47.07023893 -14.5 47.5 C-22.14006594 47.05534008 -28.15622727 44.3452619 -33.4375 38.8125 C-37.82829976 33.41048575 -39.64001135 28.35989407 -40.375 21.5 C-39.46005471 12.96051065 -36.51962709 6.71760947 -30 1 C-20.18504185 -5.33577522 -10.23771066 -5.62823571 0 0 Z " transform="translate(406,339)" style="fill: #FFFFFF;"/><path d="M0 0 C6.61294618 4.42423656 10.72770366 9.61924672 12.5625 17.37890625 C13.65097521 24.62406934 12.55624124 31.0880741 8.51953125 37.265625 C3.80793576 43.08773385 -1.68373218 46.44762883 -9 48 C-16.52791444 48.64895814 -22.89324084 47.01944578 -29.05078125 42.4921875 C-35.0489856 36.96921562 -38.14676902 30.65849627 -38.5 22.5 C-38.14676902 14.34150373 -35.0489856 8.03078438 -29.05078125 2.5078125 C-20.0929858 -4.07829997 -9.93903743 -4.89146345 0 0 Z " transform="translate(264,338)" style="fill: #FFFFFF;"/><path d="M0 0 C2.875 2.4375 2.875 2.4375 5 5 C5.721875 5.804375 6.44375 6.60875 7.1875 7.4375 C11.46713524 13.48801879 11.66386743 19.80980502 11 27 C9.58097827 33.13183112 6.94021612 37.98749815 1.66015625 41.6015625 C-5.62508897 46.11606101 -11.62898346 48.29171813 -20.2734375 46.5390625 C-27.95007198 44.3120525 -32.92838094 40.35519563 -36.9375 33.4375 C-40.06373014 26.53071248 -40.29713538 19.45618756 -38.18359375 12.1953125 C-34.82420261 4.4932938 -29.16074811 -0.32110164 -21.4375 -3.4375 C-13.19515295 -4.7862477 -7.40116132 -3.93705991 0 0 Z " transform="translate(125,339)" style="fill: #FFFFFF;"/></svg>