<?xml version="1.0" encoding="UTF-8" standalone="no"?>
<svg
   id="svg"
   version="1.1"
   style="display: block;"
   viewBox="0 0 504 506"
   sodipodi:docname="contante.svg"
   inkscape:version="1.2.2 (b0a8486, 2022-12-01)"
   xmlns:inkscape="http://www.inkscape.org/namespaces/inkscape"
   xmlns:sodipodi="http://sodipodi.sourceforge.net/DTD/sodipodi-0.dtd"
   xmlns="http://www.w3.org/2000/svg"
   xmlns:svg="http://www.w3.org/2000/svg">
  <defs
     id="defs9669" />
  <sodipodi:namedview
     id="namedview9667"
     pagecolor="#ffffff"
     bordercolor="#000000"
     borderopacity="0.25"
     inkscape:showpageshadow="2"
     inkscape:pageopacity="0.0"
     inkscape:pagecheckerboard="0"
     inkscape:deskcolor="#d1d1d1"
     showgrid="false"
     inkscape:zoom="0.46640316"
     inkscape:cx="45.025424"
     inkscape:cy="253"
     inkscape:window-width="1427"
     inkscape:window-height="456"
     inkscape:window-x="0"
     inkscape:window-y="25"
     inkscape:window-maximized="0"
     inkscape:current-layer="svg" />
  <path
     d="M0 0 C0.83926025 -0.00067474 1.67852051 -0.00134949 2.54321289 -0.00204468 C37.17710948 0.04199262 80.18866947 4.22094922 106.75390625 29.0390625 C114.09787446 36.69410118 116.34462374 43.99298775 116.25163269 54.47865295 C116.25781906 55.80479186 116.25781906 55.80479186 116.26413041 57.15772146 C116.27402928 60.09628514 116.26248285 63.03434963 116.25073242 65.97290039 C116.2531224 68.08930118 116.25672464 70.2057009 116.26144409 72.32209778 C116.26972374 78.05340347 116.25812771 83.78449738 116.24070525 89.51577687 C116.23046657 93.09841902 116.22408076 96.6810476 116.2189579 100.26370049 C116.20042891 112.76744226 116.16417833 125.27100719 116.11352539 137.7746582 C116.06686753 149.42355699 116.06161645 161.07199255 116.07499617 172.72096258 C116.08446915 182.73152912 116.06332614 192.74173596 116.01875192 202.75220674 C115.99276271 208.72730832 115.97950157 214.70178322 115.99773216 220.67692757 C116.01394613 226.29418644 115.99210391 231.91002849 115.94114304 237.52706718 C115.92894714 239.58613991 115.93032466 241.64534534 115.94639397 243.70439148 C116.06982779 261.20542721 116.06982779 261.20542721 111.01460266 266.36912537 C108.90860462 267.96153927 108.90860462 267.96153927 106.875 269.25 C105.77757962 270.14133324 104.68356972 271.03688942 103.59375 271.9375 C63.77713332 300.54361296 8.8109309 304.32651548 -38.43701172 296.71655273 C-39.32404785 296.56259033 -40.21108398 296.40862793 -41.125 296.25 C-41.08835991 297.15296562 -41.08835991 297.15296562 -41.05097961 298.07417297 C-40.8061176 304.38473051 -40.64112535 310.69392458 -40.52075195 317.00805664 C-40.46569885 319.35854968 -40.39082699 321.70867055 -40.29516602 324.05786133 C-39.43646884 345.69978544 -39.43646884 345.69978544 -44.72917175 351.66566467 C-47.03686247 353.7909745 -49.49971148 355.53989685 -52.125 357.25 C-52.82923096 357.79922119 -53.53346191 358.34844238 -54.2590332 358.91430664 C-55.99799347 360.26174053 -57.76431451 361.45360098 -59.625 362.625 C-60.56593506 363.23903687 -60.56593506 363.23903687 -61.52587891 363.86547852 C-66.18921199 366.84011798 -70.98444108 369.21170059 -76.1484375 371.21484375 C-78.47429659 372.14173164 -78.47429659 372.14173164 -79.125 375.25 C-79.79660156 375.33636719 -80.46820313 375.42273438 -81.16015625 375.51171875 C-86.64638152 376.28332979 -92.03874804 377.20248357 -97.44140625 378.42578125 C-98.87504517 378.75026245 -98.87504517 378.75026245 -100.33764648 379.08129883 C-102.20532208 379.51013305 -104.07096487 379.94797852 -105.93383789 380.3972168 C-121.82849645 384.04662253 -138.00436185 384.63217953 -154.25 384.5625 C-155.13964447 384.56067719 -156.02928894 384.55885437 -156.94589233 384.55697632 C-177.16310283 384.48756042 -196.40673337 382.74219238 -215.9453125 377.3359375 C-219.66101825 376.3188461 -223.30124861 375.70641595 -227.125 375.25 C-227.125 374.59 -227.125 373.93 -227.125 373.25 C-228.28 372.940625 -229.435 372.63125 -230.625 372.3125 C-242.12731937 368.46022242 -253.2284995 361.40888879 -262.125 353.25 C-262.6945705 352.86381909 -263.26414101 352.47763819 -263.85097122 352.07975483 C-267.30619325 349.38644725 -268.91862221 347.29902947 -269.77594757 342.94119835 C-270.02432409 338.64640473 -270.04921453 334.39979968 -269.99902344 330.1003418 C-270.00523966 328.45051737 -270.01446356 326.80070195 -270.02645874 325.15090942 C-270.0497829 320.68136483 -270.0292581 316.21300826 -269.9994154 311.74354148 C-269.97419035 307.05703427 -269.98482412 302.37058928 -269.99029541 297.68403625 C-269.99387828 289.81137923 -269.96935672 281.9391904 -269.92773438 274.06665039 C-269.88000798 264.98186699 -269.87468713 255.89782505 -269.8926847 246.81295079 C-269.90919852 238.05685726 -269.89728136 229.30102748 -269.87195587 220.54496193 C-269.86158833 216.82706821 -269.86073478 213.10935529 -269.86760712 209.3914547 C-269.87429688 205.00561191 -269.85586759 200.62054957 -269.81859207 196.2348671 C-269.80884071 194.63137119 -269.80741676 193.0277981 -269.81523514 191.42429161 C-269.85971168 180.87463406 -268.80264529 172.85182477 -261.87109375 164.55078125 C-233.11539975 139.78487898 -191.64059919 135.02285239 -155.0625 135.0625 C-153.90837112 135.06191086 -153.90837112 135.06191086 -152.73092651 135.06130981 C-126.31546653 135.07745723 -126.31546653 135.07745723 -114.125 138.25 C-114.15529297 137.28030273 -114.18558594 136.31060547 -114.21679688 135.31152344 C-115.13441072 105.28789088 -115.24401554 75.28590656 -115.125 45.25 C-114.465 45.25 -113.805 45.25 -113.125 45.25 C-113.0425 44.21875 -112.96 43.1875 -112.875 42.125 C-111.40136124 34.51119976 -105.95688106 29.07513332 -100.125 24.25 C-71.03839547 4.78575646 -34.22093018 0.02480874 0 0 Z "
     transform="translate(329.125,60.75)"
     style="fill: #92928F;"
     id="path9452" />
  <path
     d="M0 0 C0.33 0 0.66 0 1 0 C1.01417969 0.61746094 1.02835938 1.23492187 1.04296875 1.87109375 C1.5407998 10.71095857 4.42049187 16.79315676 10.75 23 C18.38938223 29.40680963 28.05197104 34.34293409 37.46484375 37.57421875 C38.63144531 38.04472656 39.79804688 38.51523438 41 39 C41.33 39.99 41.66 40.98 42 42 C26.85391267 38.76238428 13.44578864 30.23306315 3 19 C2.67 18.34 2.34 17.68 2 17 C1.82641742 23.1379565 1.69967811 29.27447216 1.61547852 35.41430664 C1.58036614 37.50082294 1.53266311 39.58716811 1.47192383 41.6730957 C1.3865965 44.67962914 1.34722015 47.68387922 1.31640625 50.69140625 C1.28027725 51.61772354 1.24414825 52.54404083 1.20692444 53.49842834 C1.20386705 58.58938256 1.73099362 61.31590955 5.37597656 65.00756836 C6.5594593 66.03402454 7.76595262 67.0349245 9 68 C9.88042969 68.721875 10.76085937 69.44375 11.66796875 70.1875 C20.2536073 76.36383533 29.09561558 82.17330602 39 86 C38.67 86.66 38.34 87.32 38 88 C23.28886365 83.51682062 11.74578374 74.74578374 1 64 C1 75.22 1 86.44 1 98 C5.29 98.66 9.58 99.32 14 100 C16.77129983 100.73658232 19.52712343 101.53827842 22.25 102.4375 C22.91966797 102.65559326 23.58933594 102.87368652 24.27929688 103.09838867 C26.18935812 103.72267176 28.0948365 104.36092617 30 105 C30.99515625 105.32742187 31.9903125 105.65484375 33.015625 105.9921875 C35.01359944 106.65189604 37.00748902 107.32396949 39 108 C37.375 109.1328125 37.375 109.1328125 35 110 C32.25 109.2421875 32.25 109.2421875 29 107.875 C20.70292688 104.59907116 12.17230395 103.03050465 3.41992188 101.45556641 C1.82755232 101.15579224 0.23973382 100.83054117 -1.34179688 100.47802734 C-14.51532704 97.56640833 -28.07417659 97.79451497 -41.5 97.8125 C-42.75390533 97.81340637 -42.75390533 97.81340637 -44.03314209 97.81433105 C-77.62883619 97.88010902 -120.00994807 100.56245117 -146 125 C-150.57589733 129.72314155 -153.28444848 133.69873765 -153.3125 140.375 C-153.15271048 147.89509407 -150.12677202 152.64015393 -145 158 C-142.80185876 159.65267656 -140.70161561 161.12964918 -138.375 162.5625 C-137.7567334 162.94889648 -137.1384668 163.33529297 -136.50146484 163.73339844 C-95.29548802 189.02057596 -34.52828939 189.5182453 11.3203125 178.94067383 C16.51896287 177.68945498 21.60893933 176.23648799 26.68896484 174.56616211 C29.20167762 173.9505926 31.42272586 173.90227669 34 174 C33.67 174.66 33.34 175.32 33 176 C32.91050583 177.45037107 32.8824156 178.90478629 32.88647461 180.35791016 C32.88655014 181.25869293 32.88662567 182.15947571 32.88670349 183.08755493 C32.89186478 184.06155243 32.89702606 185.03554993 32.90234375 186.0390625 C32.9037587 187.03505463 32.90517365 188.03104675 32.90663147 189.05722046 C32.91224064 192.24651053 32.9247947 195.43573106 32.9375 198.625 C32.94251382 200.78385315 32.94707693 202.94270741 32.95117188 205.1015625 C32.96221305 210.4010655 32.97896012 215.70052778 33 221 C33.66 221.33 34.32 221.66 35 222 C34.67 222.33 34.34 222.66 34 223 C33.87736612 224.56448383 33.82220478 226.13432772 33.79467773 227.70336914 C33.77473251 228.70433121 33.75478729 229.70529327 33.73423767 230.73658752 C33.71752518 231.8251152 33.70081268 232.91364288 33.68359375 234.03515625 C33.6524221 235.6977372 33.6524221 235.6977372 33.62062073 237.39390564 C33.55500377 240.95003808 33.49618404 244.50624703 33.4375 248.0625 C33.39432632 250.46680493 33.35071242 252.87110199 33.30664062 255.27539062 C33.19931008 261.18351185 33.09756669 267.09170991 33 273 C33.99 273.33 34.98 273.66 36 274 C35.01 274.33 34.02 274.66 33 275 C33.33 292.16 33.66 309.32 34 327 C38.455 325.02 38.455 325.02 43 323 C43.66 323.33 44.32 323.66 45 324 C45 324.66 45 325.32 45 326 C44.21753906 326.32613281 43.43507813 326.65226562 42.62890625 326.98828125 C41.61699219 327.42527344 40.60507812 327.86226563 39.5625 328.3125 C38.04849609 328.95638672 38.04849609 328.95638672 36.50390625 329.61328125 C33.68979416 330.80278223 33.68979416 330.80278223 33 334 C32.32839844 334.08636719 31.65679687 334.17273438 30.96484375 334.26171875 C25.47861848 335.03332979 20.08625196 335.95248357 14.68359375 337.17578125 C13.24995483 337.50026245 13.24995483 337.50026245 11.78735352 337.83129883 C9.91967792 338.26013305 8.05403513 338.69797852 6.19116211 339.1472168 C-9.70349645 342.79662253 -25.87936185 343.38217953 -42.125 343.3125 C-43.01464447 343.31067719 -43.90428894 343.30885437 -44.82089233 343.30697632 C-65.03810283 343.23756042 -84.28173337 341.49219238 -103.8203125 336.0859375 C-107.53601825 335.0688461 -111.17624861 334.45641595 -115 334 C-115 333.34 -115 332.68 -115 332 C-116.155 331.690625 -117.31 331.38125 -118.5 331.0625 C-130.00231937 327.21022242 -141.1034995 320.15888879 -150 312 C-150.5695705 311.61381909 -151.13914101 311.22763819 -151.72597122 310.82975483 C-155.18119325 308.13644725 -156.79362221 306.04902947 -157.65094757 301.69119835 C-157.89932409 297.39640473 -157.92421453 293.14979968 -157.87402344 288.8503418 C-157.88023966 287.20051737 -157.88946356 285.55070195 -157.90145874 283.90090942 C-157.9247829 279.43136483 -157.9042581 274.96300826 -157.8744154 270.49354148 C-157.84919035 265.80703427 -157.85982412 261.12058928 -157.86529541 256.43403625 C-157.86887828 248.56137923 -157.84435672 240.6891904 -157.80273438 232.81665039 C-157.75500798 223.73186699 -157.74968713 214.64782505 -157.7676847 205.56295079 C-157.78419852 196.80685726 -157.77228136 188.05102748 -157.74695587 179.29496193 C-157.73658833 175.57706821 -157.73573478 171.85935529 -157.74260712 168.1414547 C-157.74929688 163.75561191 -157.73086759 159.37054957 -157.69359207 154.9848671 C-157.68384071 153.38137119 -157.68241676 151.7777981 -157.69023514 150.17429161 C-157.73471168 139.62463406 -156.67764529 131.60182477 -149.74609375 123.30078125 C-120.99039975 98.53487898 -79.51559919 93.77285239 -42.9375 93.8125 C-41.78337112 93.81191086 -41.78337112 93.81191086 -40.60592651 93.81130981 C-14.19046653 93.82745723 -14.19046653 93.82745723 -2 97 C-2.03029297 96.03030273 -2.06058594 95.06060547 -2.09179688 94.06152344 C-3.00941072 64.03789088 -3.11901554 34.03590656 -3 4 C-2.34 4 -1.68 4 -1 4 C-0.67 2.68 -0.34 1.36 0 0 Z "
     transform="translate(217,102)"
     style="fill: #92928E;"
     id="path9454" />
  <path
     d="M0 0 C0.83926025 -0.00067474 1.67852051 -0.00134949 2.54321289 -0.00204468 C37.17710948 0.04199262 80.18866947 4.22094922 106.75390625 29.0390625 C114.09787446 36.69410118 116.34462374 43.99298775 116.25163269 54.47865295 C116.25575694 55.36274556 116.25988119 56.24683817 116.26413041 57.15772146 C116.27402928 60.09628514 116.26248285 63.03434963 116.25073242 65.97290039 C116.2531224 68.08930118 116.25672464 70.2057009 116.26144409 72.32209778 C116.26972374 78.05340347 116.25812771 83.78449738 116.24070525 89.51577687 C116.23046657 93.09841902 116.22408076 96.6810476 116.2189579 100.26370049 C116.20042891 112.76744226 116.16417833 125.27100719 116.11352539 137.7746582 C116.06686753 149.42355699 116.06161645 161.07199255 116.07499617 172.72096258 C116.08446915 182.73152912 116.06332614 192.74173596 116.01875192 202.75220674 C115.99276271 208.72730832 115.97950157 214.70178322 115.99773216 220.67692757 C116.01394613 226.29418644 115.99210391 231.91002849 115.94114304 237.52706718 C115.92894714 239.58613991 115.93032466 241.64534534 115.94639397 243.70439148 C116.06982451 261.20496209 116.06982451 261.20496209 111.03657532 266.35813904 C108.9429369 267.94437313 108.9429369 267.94437313 106.875 269.25 C105.65931034 270.19836666 104.44752373 271.15179009 103.2421875 272.11328125 C102.0837283 272.93761914 100.91971526 273.75421361 99.75 274.5625 C99.16863281 274.97822266 98.58726562 275.39394531 97.98828125 275.82226562 C94.43391777 278.32304261 90.87219562 280.50050279 86.875 282.25 C85.53237935 281.95630173 84.19803717 281.6221042 82.875 281.25 C80.895 281.91 78.915 282.57 76.875 283.25 C76.875 266.75 76.875 250.25 76.875 233.25 C77.535 232.92 78.195 232.59 78.875 232.25 C78.215 231.92 77.555 231.59 76.875 231.25 C76.875 196.91666667 76.875 162.58333333 76.875 128.25 C77.535 128.25 78.195 128.25 78.875 128.25 C78.875 127.59 78.875 126.93 78.875 126.25 C78.215 126.25 77.555 126.25 76.875 126.25 C76.875 112.06 76.875 97.87 76.875 83.25 C75.225 83.25 73.575 83.25 71.875 83.25 C71.875 82.59 71.875 81.93 71.875 81.25 C71.28187012 81.42128418 70.68874023 81.59256836 70.07763672 81.76904297 C53.4313776 86.54030478 38.24496551 89.68789829 20.875 89.25 C20.875 89.91 20.875 90.57 20.875 91.25 C8.335 91.25 -4.205 91.25 -17.125 91.25 C-17.125 90.59 -17.125 89.93 -17.125 89.25 C-18.24390625 89.31960937 -19.3628125 89.38921875 -20.515625 89.4609375 C-41.08508732 90.31326329 -62.39450453 85.8279039 -81.125 77.25 C-81.76179688 76.95899414 -82.39859375 76.66798828 -83.0546875 76.36816406 C-93.74878326 71.37512034 -105.75658838 64.6597952 -110.55859375 53.26953125 C-111.40611488 50.24768005 -111.75850784 47.26047141 -111.94921875 44.1328125 C-112.0186961 42.16082932 -112.0186961 42.16082932 -113.125 40.25 C-107.00483468 26.00305778 -92.3804753 18.72235085 -78.875 13.0625 C-53.66983295 3.27611798 -26.87531164 0.01948348 0 0 Z "
     transform="translate(329.125,60.75)"
     style="fill: #E9E702;"
     id="path9456" />
  <path
     d="M0 0 C0.81138428 -0.00099701 1.62276855 -0.00199402 2.45874023 -0.00302124 C16.87181114 -0.0010172 30.9059855 0.5323454 45.0625 3.5 C46.69300293 3.83547852 46.69300293 3.83547852 48.35644531 4.17773438 C55.90719922 5.76712845 63.23282703 7.56770422 70.5 10.1875 C71.55703125 10.55488281 72.6140625 10.92226562 73.703125 11.30078125 C87.15864677 16.19514758 102.34699772 22.81502223 109.67578125 35.9296875 C111.76204841 41.64467526 111.76149549 47.31708076 109.30859375 52.8984375 C96.99921303 72.17819044 69.61063087 79.50672024 48.5 84.1875 C47.7575 84.36925781 47.015 84.55101562 46.25 84.73828125 C2.33298856 94.72635156 -56.8127845 91.32274268 -95.5625 67.625 C-102.85734676 62.71795593 -109.60521983 57.87184051 -112.5 49.1875 C-113.23423707 42.69474648 -113.09306946 37.46362858 -109.1640625 32.0859375 C-95.26705861 16.23160912 -75.42648963 9.66243171 -55.5 5.1875 C-54.39527344 4.91035156 -53.29054687 4.63320312 -52.15234375 4.34765625 C-34.99755628 0.23786807 -17.54448296 0.00572047 0 0 Z "
     transform="translate(175.5,198.8125)"
     style="fill: #E9E702;"
     id="path9458" />
  <path
     d="M0 0 C0 0.66 0 1.32 0 2 C1.65 2 3.3 2 5 2 C5 16.19 5 30.38 5 45 C5.66 45 6.32 45 7 45 C7 45.66 7 46.32 7 47 C6.34 47 5.68 47 5 47 C5 63.83 5 80.66 5 98 C5.66 98.33 6.32 98.66 7 99 C6.67 99.33 6.34 99.66 6 100 C5.87736612 101.56448383 5.82220478 103.13432772 5.79467773 104.70336914 C5.77473251 105.70433121 5.75478729 106.70529327 5.73423767 107.73658752 C5.71752518 108.8251152 5.70081268 109.91364288 5.68359375 111.03515625 C5.6524221 112.6977372 5.6524221 112.6977372 5.62062073 114.39390564 C5.55500377 117.95003808 5.49618404 121.50624703 5.4375 125.0625 C5.39432632 127.46680493 5.35071242 129.87110199 5.30664062 132.27539062 C5.19931008 138.18351185 5.09756669 144.09170991 5 150 C5.99 150.33 6.98 150.66 8 151 C7.01 151.33 6.02 151.66 5 152 C5 168.5 5 185 5 202 C6.98 201.01 8.96 200.02 11 199 C11.99 199.33 12.98 199.66 14 200 C11.33085441 204.00371839 8.0451378 204.81643516 3.6875 206.375 C2.84662842 206.67881592 2.00575684 206.98263184 1.1394043 207.2956543 C-13.50849641 212.42505381 -28.5554372 215.60772285 -44 217 C-45.14726562 217.11085938 -46.29453125 217.22171875 -47.4765625 217.3359375 C-59.29649929 218.30564407 -71.15004033 218.09569479 -83 218 C-79.46512404 215.64341603 -77.56765697 215.62422357 -73.36328125 215.3671875 C-72.19321533 215.29097168 -71.02314941 215.21475586 -69.81762695 215.13623047 C-67.58758911 215.00692139 -67.58758911 215.00692139 -65.3125 214.875 C-58.2278125 214.441875 -58.2278125 214.441875 -51 214 C-51 197.5 -51 181 -51 164 C-63.21 164 -75.42 164 -88 164 C-88 163.67 -88 163.34 -88 163 C-75.79 163 -63.58 163 -51 163 C-51 146.17 -51 129.34 -51 112 C-53.97 111.67 -56.94 111.34 -60 111 C-60 110.67 -60 110.34 -60 110 C-57.03 110 -54.06 110 -51 110 C-51 93.17 -51 76.34 -51 59 C-53.64 59 -56.28 59 -59 59 C-59 58.67 -59 58.34 -59 58 C-56.36 58 -53.72 58 -51 58 C-51 42.49 -51 26.98 -51 11 C-53.64 11 -56.28 11 -59 11 C-59 10.67 -59 10.34 -59 10 C-56.36 10 -53.72 10 -51 10 C-51 9.34 -51 8.68 -51 8 C-50.41210693 7.95512451 -49.82421387 7.91024902 -49.21850586 7.86401367 C-34.12762032 6.68234804 -19.74110004 4.85532501 -5.171875 0.55078125 C-3 0 -3 0 0 0 Z "
     transform="translate(401,142)"
     style="fill: #919190;"
     id="path9460" />
  <path
     d="M0 0 C0.83926025 -0.00067474 1.67852051 -0.00134949 2.54321289 -0.00204468 C37.17710948 0.04199262 80.18866947 4.22094922 106.75390625 29.0390625 C114.09787446 36.69410118 116.34462374 43.99298775 116.25163269 54.47865295 C116.25575694 55.36274556 116.25988119 56.24683817 116.26413041 57.15772146 C116.27402928 60.09628514 116.26248285 63.03434963 116.25073242 65.97290039 C116.2531224 68.08930118 116.25672464 70.2057009 116.26144409 72.32209778 C116.26972374 78.05340347 116.25812771 83.78449738 116.24070525 89.51577687 C116.23046657 93.09841902 116.22408076 96.6810476 116.2189579 100.26370049 C116.20042891 112.76744226 116.16417833 125.27100719 116.11352539 137.7746582 C116.06686753 149.42355699 116.06161645 161.07199255 116.07499617 172.72096258 C116.08446915 182.73152912 116.06332614 192.74173596 116.01875192 202.75220674 C115.99276271 208.72730832 115.97950157 214.70178322 115.99773216 220.67692757 C116.01394613 226.29418644 115.99210391 231.91002849 115.94114304 237.52706718 C115.92894714 239.58613991 115.93032466 241.64534534 115.94639397 243.70439148 C116.06982451 261.20496209 116.06982451 261.20496209 111.03657532 266.35813904 C108.9429369 267.94437313 108.9429369 267.94437313 106.875 269.25 C105.65931034 270.19836666 104.44752373 271.15179009 103.2421875 272.11328125 C102.0837283 272.93761914 100.91971526 273.75421361 99.75 274.5625 C99.16863281 274.97822266 98.58726562 275.39394531 97.98828125 275.82226562 C94.43391777 278.32304261 90.87219562 280.50050279 86.875 282.25 C85.53237935 281.95630173 84.19803717 281.6221042 82.875 281.25 C80.895 281.91 78.915 282.57 76.875 283.25 C76.875 266.75 76.875 250.25 76.875 233.25 C77.535 232.92 78.195 232.59 78.875 232.25 C78.215 231.92 77.555 231.59 76.875 231.25 C76.875 196.91666667 76.875 162.58333333 76.875 128.25 C77.535 128.25 78.195 128.25 78.875 128.25 C78.875 127.59 78.875 126.93 78.875 126.25 C78.215 126.25 77.555 126.25 76.875 126.25 C76.875 112.06 76.875 97.87 76.875 83.25 C75.225 83.25 73.575 83.25 71.875 83.25 C71.875 82.26 71.875 81.27 71.875 80.25 C72.83019531 79.88648438 73.78539062 79.52296875 74.76953125 79.1484375 C95.56892924 71.17090783 95.56892924 71.17090783 110.5 55.25 C112.69178521 49.91806098 112.98206303 45.19906707 110.9453125 39.7734375 C103.02844893 24.64239055 85.0203753 18.0302212 69.625 13.0625 C63.2113933 11.08054891 56.74926487 9.4133344 50.1875 8 C49.48915039 7.84893799 48.79080078 7.69787598 48.07128906 7.54223633 C45.67888623 7.05956334 43.28364145 6.64429175 40.875 6.25 C39.78840088 6.07122314 38.70180176 5.89244629 37.58227539 5.70825195 C26.35652763 4.07949194 15.21736205 3.91090987 3.88647461 3.93432617 C0.70977135 3.9374779 -2.46598966 3.9139667 -5.64257812 3.88867188 C-38.12333382 3.78868021 -76.33441875 9.06806213 -102.32421875 30.45703125 C-106.3142025 34.42970488 -108.65643932 39.25752974 -111.125 44.25 C-112.2421875 42.484375 -112.2421875 42.484375 -113.125 40.25 C-109.46372279 29.21982309 -97.75109511 22.13544039 -88.00146484 17.16845703 C-60.76278213 3.83617439 -29.99086224 0.02174212 0 0 Z "
     transform="translate(329.125,60.75)"
     style="fill: #95948C;"
     id="path9462" />
  <path
     d="M0 0 C-0.33 0.66 -0.66 1.32 -1 2 C-1.08949417 3.45037107 -1.1175844 4.90478629 -1.11352539 6.35791016 C-1.11344986 7.25869293 -1.11337433 8.15947571 -1.11329651 9.08755493 C-1.10813522 10.06155243 -1.10297394 11.03554993 -1.09765625 12.0390625 C-1.0962413 13.03505463 -1.09482635 14.03104675 -1.09336853 15.05722046 C-1.08775936 18.24651053 -1.0752053 21.43573106 -1.0625 24.625 C-1.05748618 26.78385315 -1.05292307 28.94270741 -1.04882812 31.1015625 C-1.03778695 36.4010655 -1.02103988 41.70052778 -1 47 C-0.01 47.495 -0.01 47.495 1 48 C0.67 48.33 0.34 48.66 0 49 C-0.12263388 50.56448383 -0.17779522 52.13432772 -0.20532227 53.70336914 C-0.22526749 54.70433121 -0.24521271 55.70529327 -0.26576233 56.73658752 C-0.29083107 58.36937904 -0.29083107 58.36937904 -0.31640625 60.03515625 C-0.33718735 61.14354355 -0.35796844 62.25193085 -0.37937927 63.39390564 C-0.44499623 66.95003808 -0.50381596 70.50624703 -0.5625 74.0625 C-0.60567368 76.46680493 -0.64928758 78.87110199 -0.69335938 81.27539062 C-0.80068992 87.18351185 -0.90243331 93.09170991 -1 99 C-0.01 99.33 0.98 99.66 2 100 C1.01 100.33 0.02 100.66 -1 101 C-0.67 118.16 -0.34 135.32 0 153 C4.455 151.02 4.455 151.02 9 149 C9.66 149.33 10.32 149.66 11 150 C11 150.66 11 151.32 11 152 C10.21753906 152.32613281 9.43507813 152.65226563 8.62890625 152.98828125 C7.61699219 153.42527344 6.60507812 153.86226562 5.5625 154.3125 C4.04849609 154.95638672 4.04849609 154.95638672 2.50390625 155.61328125 C-0.31020584 156.80278223 -0.31020584 156.80278223 -1 160 C-1.67160156 160.08636719 -2.34320313 160.17273438 -3.03515625 160.26171875 C-11.69386245 161.47952388 -20.16707547 163.28426871 -28.68774414 165.23510742 C-34.46181315 166.53527137 -40.10452141 167.46018766 -46 168 C-47.00951397 164.9714581 -47.121045 162.95994658 -47.11352539 159.79418945 C-47.11344986 158.73331619 -47.11337433 157.67244293 -47.11329651 156.579422 C-47.10813522 155.43559555 -47.10297394 154.2917691 -47.09765625 153.11328125 C-47.0962413 151.94113571 -47.09482635 150.76899017 -47.09336853 149.56132507 C-47.08776388 145.81169093 -47.07521056 142.06211615 -47.0625 138.3125 C-47.0574856 135.77278732 -47.05292259 133.2330737 -47.04882812 130.69335938 C-47.03779294 124.46221927 -47.02105025 118.23111388 -47 112 C-44.525 111.505 -44.525 111.505 -42 111 C-43.65 110.67 -45.3 110.34 -47 110 C-47 93.5 -47 77 -47 60 C-45.02 59.505 -45.02 59.505 -43 59 C-44.32 58.67 -45.64 58.34 -47 58 C-47 42.82 -47 27.64 -47 12 C-45.68 12 -44.36 12 -43 12 C-43 11.34 -43 10.68 -43 10 C-44.98 10 -46.96 10 -49 10 C-49 9.67 -49 9.34 -49 9 C-48.38898438 8.98582031 -47.77796875 8.97164063 -47.1484375 8.95703125 C-39.86012378 8.57721772 -32.97926405 7.24830221 -25.875 5.625 C-24.9576709 5.41593018 -24.0403418 5.20686035 -23.09521484 4.99145508 C-17.7444418 3.73636503 -12.51339864 2.28651289 -7.29345703 0.56396484 C-4.78777667 -0.05218607 -2.57057937 -0.09709942 0 0 Z "
     transform="translate(251,276)"
     style="fill: #919190;"
     id="path9464" />
  <path
     d="M0 0 C1.02127991 -0.00570007 2.04255981 -0.01140015 3.0947876 -0.01727295 C5.24954208 -0.02666695 7.40431056 -0.03323447 9.55908203 -0.03710938 C12.77794138 -0.04672509 15.99613611 -0.07776578 19.21484375 -0.109375 C52.17410257 -0.2783441 95.31389278 4.87107833 120.078125 29.203125 C124.1869635 34.27971389 127.1341529 39.30408508 126.58203125 45.98828125 C124.25301758 56.22510879 115.81084854 63.38685575 107.265625 68.828125 C103.07163869 70.63729557 100.84809237 69.85701638 96.662323 68.31063843 C95.81968903 67.94950958 94.97705505 67.58838074 94.10888672 67.21630859 C92.65511124 66.59742264 92.65511124 66.59742264 91.17196655 65.96603394 C90.12779572 65.51575836 89.08362488 65.06548279 88.0078125 64.6015625 C86.9119986 64.13348175 85.81618469 63.665401 84.68716431 63.18313599 C81.72300362 61.91591287 78.76069168 60.64448494 75.79916382 59.37112427 C72.69768865 58.03882968 69.59384074 56.71208598 66.49023438 55.38476562 C60.41125602 52.78395621 54.33478625 50.1773463 48.25915527 47.56872559 C43.35235456 45.46226028 38.4440184 43.3593829 33.5355835 41.25672913 C30.24154695 39.84541348 26.94818077 38.43257857 23.65625 37.01635742 C15.07003754 33.32533237 6.4675433 29.67417714 -2.14296722 26.04017258 C-5.90083806 24.45331119 -9.65721207 22.86290871 -13.41360092 21.27254295 C-16.53240703 19.95256691 -19.65229184 18.63526493 -22.7746582 17.32373047 C-26.26637773 15.85587385 -29.75458505 14.37995034 -33.2421875 12.90234375 C-34.30700348 12.45722946 -35.37181946 12.01211517 -36.46890259 11.55351257 C-37.43838837 11.14099747 -38.40787415 10.72848236 -39.40673828 10.3034668 C-40.2582547 9.94455856 -41.10977112 9.58565033 -41.98709106 9.21586609 C-43.921875 8.203125 -43.921875 8.203125 -44.921875 6.203125 C-41.13208301 5.38171678 -37.33975003 4.57266699 -33.546875 3.765625 C-32.48597656 3.53552734 -31.42507813 3.30542969 -30.33203125 3.06835938 C-29.28144531 2.84599609 -28.23085938 2.62363281 -27.1484375 2.39453125 C-26.19533691 2.19029541 -25.24223633 1.98605957 -24.26025391 1.77563477 C-16.19281731 0.39212308 -8.17291963 0.03651638 0 0 Z "
     transform="translate(315.921875,63.796875)"
     style="fill: #FEFA02;"
     id="path9466" />
  <path
     d="M0 0 C1.21762024 -0.00163147 1.21762024 -0.00163147 2.45983887 -0.0032959 C16.87247744 -0.00110963 30.90643515 0.53243966 45.0625 3.5 C46.69300293 3.83547852 46.69300293 3.83547852 48.35644531 4.17773438 C55.90719922 5.76712845 63.23282703 7.56770422 70.5 10.1875 C71.55703125 10.55488281 72.6140625 10.92226562 73.703125 11.30078125 C87.15864677 16.19514758 102.34699772 22.81502223 109.67578125 35.9296875 C111.76204841 41.64467526 111.76149549 47.31708076 109.30859375 52.8984375 C105.01479631 59.62366241 99.11293732 63.89119677 92.5 68.1875 C91.51 68.8475 90.52 69.5075 89.5 70.1875 C83.63792796 69.93971937 78.37417876 67.20262394 73.0703125 64.90234375 C72.03238052 64.45846313 70.99444855 64.01458252 69.92506409 63.55725098 C66.48901784 62.08602459 63.05705684 60.60550611 59.625 59.125 C57.21225963 58.08996013 54.79925051 57.0555465 52.38598633 56.02172852 C47.32576398 53.8530864 42.26743438 51.68008581 37.21044922 49.50390625 C29.68635832 46.26621499 22.15818515 43.03810542 14.62890625 39.8125 C12.20231007 38.77287047 9.77571501 37.73323832 7.34912109 36.69360352 C6.16308289 36.18548126 4.97704468 35.67735901 3.75506592 35.15383911 C0.20960108 33.63447116 -3.33545029 32.11414263 -6.88037109 30.59350586 C-24.40081854 23.07877093 -41.93867144 15.60619993 -59.5 8.1875 C-59.5 7.5275 -59.5 6.8675 -59.5 6.1875 C-39.69630585 1.15100494 -20.36327582 0.01473109 0 0 Z "
     transform="translate(175.5,198.8125)"
     style="fill: #FEFA02;"
     id="path9468" />
  <path
     d="M0 0 C6.6 0 13.2 0 20 0 C17 2 17 2 10 2 C10 17.51 10 33.02 10 49 C11.32 49 12.64 49 14 49 C14 49.66 14 50.32 14 51 C12.68 51 11.36 51 10 51 C10.05329468 52.97009033 10.05329468 52.97009033 10.10766602 54.97998047 C10.96876841 87.69178034 10.93545761 120.2908018 10 153 C12.97 153 15.94 153 19 153 C16 155 16 155 10 155 C10 171.5 10 188 10 205 C11.98 205 13.96 205 16 205 C16 205.99 16 206.98 16 208 C-0.04328907 209.61636567 -15.87783332 210.28079872 -32 210 C-28.46512404 207.64341603 -26.56765697 207.62422357 -22.36328125 207.3671875 C-21.19321533 207.29097168 -20.02314941 207.21475586 -18.81762695 207.13623047 C-16.58758911 207.00692139 -16.58758911 207.00692139 -14.3125 206.875 C-7.2278125 206.441875 -7.2278125 206.441875 0 206 C0 189.5 0 173 0 156 C-12.21 156 -24.42 156 -37 156 C-37 155.67 -37 155.34 -37 155 C-24.79 155 -12.58 155 0 155 C0 138.17 0 121.34 0 104 C-2.97 103.67 -5.94 103.34 -9 103 C-9 102.67 -9 102.34 -9 102 C-6.03 102 -3.06 102 0 102 C0 85.17 0 68.34 0 51 C-2.64 51 -5.28 51 -8 51 C-8 50.67 -8 50.34 -8 50 C-5.36 50 -2.72 50 0 50 C0 34.49 0 18.98 0 3 C-2.64 3 -5.28 3 -8 3 C-8 2.67 -8 2.34 -8 2 C-5.36 2 -2.72 2 0 2 C0 1.34 0 0.68 0 0 Z "
     transform="translate(350,150)"
     style="fill: #919190;"
     id="path9470" />
  <path
     d="M0 0 C2.95933503 1.42075536 5.06379716 2.85174338 7.4375 5.125 C16.87795825 13.51845733 27.37472907 18.01774103 39 23 C39 40.49 39 57.98 39 76 C27.76215392 72.25405131 19.07857646 67.53778105 9.81640625 60.18359375 C7.12862308 57.99815303 7.12862308 57.99815303 4.46484375 56.53515625 C1.8631122 54.87867461 0.540291 53.68778572 -1 51 C-1.77809085 45.70547204 -1.49756647 40.59506587 -1.17626953 35.26757812 C-0.9672401 31.39271674 -0.85111522 27.51947731 -0.74609375 23.640625 C-0.52955366 15.75914533 -0.27440591 7.87968247 0 0 Z "
     transform="translate(63,355)"
     style="fill: #E6E403;"
     id="path9472" />
  <path
     d="M0 0 C5.445 0.99 5.445 0.99 11 2 C14.22801729 2.53248273 17.45546193 3.05640622 20.6875 3.5625 C21.47705078 3.68818359 22.26660156 3.81386719 23.08007812 3.94335938 C28.04988463 4.72590929 33.0007493 5.37509366 38 6 C38 23.49 38 40.98 38 59 C25.79716432 59 11.20463465 57.60231733 0 52 C0 34.84 0 17.68 0 0 Z "
     transform="translate(110,382)"
     style="fill: #E7E502;"
     id="path9474" />
  <path
     d="M0 0 C0 17.49 0 34.98 0 53 C-12.54 53 -25.08 53 -38 53 C-38 35.84 -38 18.68 -38 1 C-33.215 0.835 -28.43 0.67 -23.5 0.5 C-21.25993164 0.42168945 -21.25993164 0.42168945 -18.97460938 0.34179688 C-17.77642578 0.30119141 -16.57824219 0.26058594 -15.34375 0.21875 C-13.52133789 0.1559082 -13.52133789 0.1559082 -11.66210938 0.09179688 C-7.77583991 -0.00561895 -3.88749022 0 0 0 Z "
     transform="translate(194,389)"
     style="fill: #EAE802;"
     id="path9476" />
  <path
     d="M0 0 C4.06320815 3.01555169 8.07521759 6.04181446 11.9375 9.3125 C19.93728478 15.58903867 29.59265621 20.23706248 39 24 C39 40.5 39 57 39 74 C26.16636238 69.72212079 16.22421727 63.70613134 6 55 C5.08347656 54.30390625 4.16695313 53.6078125 3.22265625 52.890625 C2.48917969 52.26671875 1.75570312 51.6428125 1 51 C1 50.34 1 49.68 1 49 C0.34 49 -0.32 49 -1 49 C-1.18533778 32.64908956 -0.61149705 16.33640403 0 0 Z "
     transform="translate(63,302)"
     style="fill: #E6E403;"
     id="path9478" />
  <path
     d="M0 0 C12.54 0 25.08 0 38 0 C38 16.83 38 33.66 38 51 C25.46 51 12.92 51 0 51 C0 34.17 0 17.34 0 0 Z "
     transform="translate(312,254)"
     style="fill: #E9E704;"
     id="path9480" />
  <path
     d="M0 0 C12.54 0 25.08 0 38 0 C38.33 16.5 38.66 33 39 50 C24.81 50 10.62 50 -4 50 C-2.02 49.505 -2.02 49.505 0 49 C0 32.83 0 16.66 0 0 Z "
     transform="translate(312,307)"
     style="fill: #EAE702;"
     id="path9482" />
  <path
     d="M0 0 C12.54 0 25.08 0 38 0 C38 16.5 38 33 38 50 C25.46 50 12.92 50 0 50 C0 33.5 0 17 0 0 Z "
     transform="translate(156,337)"
     style="fill: #EAE702;"
     id="path9484" />
  <path
     d="M0 0 C12.54 0 25.08 0 38 0 C38 16.5 38 33 38 50 C25.46 50 12.92 50 0 50 C0 33.5 0 17 0 0 Z "
     transform="translate(312,202)"
     style="fill: #EAE802;"
     id="path9486" />
  <path
     d="M0 0 C0 17.49 0 34.98 0 53 C-15.00556931 57.61709825 -15.00556931 57.61709825 -23.0625 58.75 C-23.87654297 58.87503906 -24.69058594 59.00007813 -25.52929688 59.12890625 C-29.10155429 59.66225395 -32.36891217 60 -36 60 C-36 42.51 -36 25.02 -36 7 C-28.41 5.68 -20.82 4.36 -13 3 C-2 0 -2 0 0 0 Z "
     transform="translate(240,381)"
     style="fill: #ECEA02;"
     id="path9488" />
  <path
     d="M0 0 C8.415 1.98 8.415 1.98 17 4 C23.93 4.99 30.86 5.98 38 7 C38 23.5 38 40 38 57 C27.86380901 57 27.86380901 57 24.0625 56.23046875 C23.22976562 56.06353516 22.39703125 55.89660156 21.5390625 55.72460938 C20.70117188 55.54736328 19.86328125 55.37011719 19 55.1875 C18.16210938 55.02185547 17.32421875 54.85621094 16.4609375 54.68554688 C10.71807373 53.50763751 5.6721859 51.89072863 0 50 C0 33.5 0 17 0 0 Z "
     transform="translate(110,329)"
     style="fill: #E7E502;"
     id="path9490" />
  <path
     d="M0 0 C0.1269815 6.86828834 0.21442746 13.73627298 0.2746582 20.60546875 C0.29977181 22.9411958 0.33386928 25.27684451 0.37719727 27.61230469 C0.43798492 30.97350414 0.46624212 34.33366285 0.48828125 37.6953125 C0.51408768 38.73615997 0.5398941 39.77700745 0.56648254 40.84939575 C0.56960658 48.96080247 0.56960658 48.96080247 -2.34375 52.53710938 C-3.2203125 53.34986328 -4.096875 54.16261719 -5 55 C-5.52762939 55.5161084 -6.05525879 56.0322168 -6.59887695 56.56396484 C-8.15802226 57.85106108 -9.72303127 59.1254005 -11.3125 60.375 C-11.90699951 60.84397705 -12.50149902 61.3129541 -13.11401367 61.79614258 C-29.1607879 74 -29.1607879 74 -36 74 C-36 56.51 -36 39.02 -36 21 C-30.72 18.36 -25.44 15.72 -20 13 C-14.91673216 9.52470464 -10.14203763 6.01932527 -5.5 2 C-3 0 -3 0 0 0 Z "
     transform="translate(286,356)"
     style="fill: #FEFA02;"
     id="path9492" />
  <path
     d="M0 0 C0 16.83 0 33.66 0 51 C-24 57 -24 57 -36 57 C-36 40.5 -36 24 -36 7 C-31.71 6.34 -27.42 5.68 -23 5 C-19.77642353 4.34590523 -16.57778764 3.6750947 -13.375 2.9375 C-12.60027344 2.76412109 -11.82554687 2.59074219 -11.02734375 2.41210938 C-0.36230843 0 -0.36230843 0 0 0 Z "
     transform="translate(396,298)"
     style="fill: #ECEA02;"
     id="path9494" />
  <path
     d="M0 0 C0 16.5 0 33 0 50 C-28 57 -28 57 -36 57 C-36 40.5 -36 24 -36 7 C-23.5 4.625 -23.5 4.625 -19.60742188 3.88916016 C-14.80363923 2.97070202 -10.02008726 2.05063946 -5.28125 0.8359375 C-2 0 -2 0 0 0 Z "
     transform="translate(240,329)"
     style="fill: #ECEA02;"
     id="path9496" />
  <path
     d="M0 0 C0 16.5 0 33 0 50 C-15.00556931 54.61709825 -15.00556931 54.61709825 -23.0625 55.75 C-23.87654297 55.87503906 -24.69058594 56.00007813 -25.52929688 56.12890625 C-29.10155429 56.66225395 -32.36891217 57 -36 57 C-36 40.5 -36 24 -36 7 C-22.875 4.625 -22.875 4.625 -18.76904297 3.88916016 C-17.68768066 3.69112793 -16.60631836 3.4930957 -15.4921875 3.2890625 C-14.39245605 3.09006348 -13.29272461 2.89106445 -12.15966797 2.68603516 C-8.95793315 2.05147325 -8.95793315 2.05147325 -5.78173828 0.91943359 C-3 0 -3 0 0 0 Z "
     transform="translate(396,246)"
     style="fill: #ECEA02;"
     id="path9498" />
  <path
     d="M0 0 C0.33 0 0.66 0 1 0 C1.306243 6.91818675 1.51519116 13.83460814 1.65917969 20.75805664 C1.71924033 23.10865568 1.80092228 25.45881174 1.90527344 27.80786133 C2.79486142 48.35996016 2.79486142 48.35996016 -1.47412109 53.88647461 C-4.33069046 56.81835799 -7.50098709 58.89711093 -11 61 C-12.29774123 61.9627877 -13.59279439 62.92923238 -14.8828125 63.90234375 C-15.95273437 64.57394531 -17.02265625 65.24554688 -18.125 65.9375 C-19.73761719 66.97197266 -19.73761719 66.97197266 -21.3828125 68.02734375 C-25.73426562 70.40043643 -30.39802206 72.15920882 -35 74 C-35 57.5 -35 41 -35 24 C-29.39 21.03 -23.78 18.06 -18 15 C-11.79438759 10.82071001 -6.3361542 6.7095624 -1.2421875 1.25 C-0.83226562 0.8375 -0.42234375 0.425 0 0 Z "
     transform="translate(441,218)"
     style="fill: #FEFA02;"
     id="path9500" />
  <path
     d="M0 0 C0.33 0 0.66 0 1 0 C1.1269815 6.86828834 1.21442746 13.73627298 1.2746582 20.60546875 C1.29977181 22.9411958 1.33386928 25.27684451 1.37719727 27.61230469 C1.43798492 30.97350414 1.46624212 34.33366285 1.48828125 37.6953125 C1.51408768 38.73615997 1.5398941 39.77700745 1.56648254 40.84939575 C1.56960658 48.96080247 1.56960658 48.96080247 -1.34375 52.53710938 C-2.2203125 53.34986328 -3.096875 54.16261719 -4 55 C-4.52762939 55.5161084 -5.05525879 56.0322168 -5.59887695 56.56396484 C-7.15802226 57.85106108 -8.72303127 59.1254005 -10.3125 60.375 C-10.90699951 60.84397705 -11.50149902 61.3129541 -12.11401367 61.79614258 C-28.1607879 74 -28.1607879 74 -35 74 C-35 57.5 -35 41 -35 24 C-29.39 21.03 -23.78 18.06 -18 15 C-11.40131947 10.37475664 -5.52482144 5.82346043 0 0 Z "
     transform="translate(285,301)"
     style="fill: #FEFA02;"
     id="path9502" />
  <path
     d="M0 0 C0 16.5 0 33 0 50 C-16 54 -16 54 -36 57 C-36 40.5 -36 24 -36 7 C-23.375 4.625 -23.375 4.625 -19.42724609 3.88916016 C-18.38648926 3.69112793 -17.34573242 3.4930957 -16.2734375 3.2890625 C-15.21560059 3.09006348 -14.15776367 2.89106445 -13.06787109 2.68603516 C-9.95502405 2.04953709 -9.95502405 2.04953709 -6.85791016 0.91943359 C-4 0 -4 0 0 0 Z "
     transform="translate(396,194)"
     style="fill: #ECEA02;"
     id="path9504" />
  <path
     d="M0 0 C0.25500345 6.79442513 0.42925887 13.58760441 0.54931641 20.38574219 C0.59939397 22.69447939 0.6674807 25.00290279 0.75439453 27.31054688 C1.49649007 47.53046762 1.49649007 47.53046762 -2.10131836 52.67211914 C-4.61077431 55.21084937 -6.98981529 57.09908021 -10 59 C-11.6065397 60.22606345 -13.21107742 61.45476033 -14.8125 62.6875 C-30.28125 73 -30.28125 73 -36 73 C-36 56.5 -36 40 -36 23 C-30.72 20.36 -25.44 17.72 -20 15 C-13.63517455 11.16478467 -8.39343704 6.83089945 -2.96875 1.7578125 C-1 0 -1 0 0 0 Z "
     transform="translate(442,166)"
     style="fill: #FEFA02;"
     id="path9506" />
  <path
     d="M0 0 C0.22926653 6.81289547 0.38624188 13.62478812 0.49438477 20.44067383 C0.53948841 22.75615609 0.60079117 25.07138424 0.67895508 27.38598633 C1.30959701 46.54843299 1.30959701 46.54843299 -1.8215332 52.40991211 C-4.08775589 54.71955543 -6.22861445 56.34775669 -9 58 C-10.10596654 58.87171509 -11.20706967 59.74967638 -12.30078125 60.63671875 C-30.45714286 73 -30.45714286 73 -36 73 C-36 56.5 -36 40 -36 23 C-30.72 20.36 -25.44 17.72 -20 15 C-13.75411804 10.77101742 -8.02099065 6.33347716 -2.4609375 1.25 C-1 0 -1 0 0 0 Z "
     transform="translate(442,271)"
     style="fill: #FEFA02;"
     id="path9508" />
  <path
     d="M0 0 C0.61875 0.66 1.2375 1.32 1.875 2 C8.1245389 8.16273975 14.84410711 13.16069062 22.5625 17.3125 C23.16304199 17.63774658 23.76358398 17.96299316 24.38232422 18.2980957 C29.2214214 20.81298953 33.68127034 22.22709011 39 24 C39 39.18 39 54.36 39 70 C26.19788002 65.73262667 15.20174373 58.76004374 5 50 C4.44320557 49.63366455 3.88641113 49.2673291 3.31274414 48.88989258 C0.15753473 46.50290806 -0.87818128 44.79197404 -1.48803711 40.82714844 C-1.62977726 36.84594076 -1.57158234 32.91652194 -1.4375 28.9375 C-1.41593374 27.58142026 -1.39703325 26.22529539 -1.38085938 24.86914062 C-1.2509446 16.55421834 -0.73760601 8.28190757 0 0 Z "
     transform="translate(63,254)"
     style="fill: #E6E404;"
     id="path9510" />
  <path
     d="M0 0 C12.54 0 25.08 0 38 0 C38 15.18 38 30.36 38 46 C25.46 46 12.92 46 0 46 C0 30.82 0 15.64 0 0 Z "
     transform="translate(156,289)"
     style="fill: #E9E703;"
     id="path9512" />
  <path
     d="M0 0 C12.54 0 25.08 0 38 0 C38 15.18 38 30.36 38 46 C25.46 46 12.92 46 0 46 C0 30.82 0 15.64 0 0 Z "
     transform="translate(312,154)"
     style="fill: #E9E703;"
     id="path9514" />
  <path
     d="M0 0 C0 0.66 0 1.32 0 2 C-1.32 2 -2.64 2 -4 2 C-4 17.18 -4 32.36 -4 48 C-2.35 48 -0.7 48 1 48 C0.505 48.99 0.505 48.99 0 50 C-1.32 50 -2.64 50 -4 50 C-4 66.5 -4 83 -4 100 C-1.36 100 1.28 100 4 100 C1 102 1 102 -4 102 C-4 119.49 -4 136.98 -4 155 C-3.34 155.33 -2.68 155.66 -2 156 C-2.33 156.66 -2.66 157.32 -3 158 C-6.96 158 -10.92 158 -15 158 C-14.67 139.85 -14.34 121.7 -14 103 C-26.21 103 -38.42 103 -51 103 C-51 102.67 -51 102.34 -51 102 C-38.79 101.67 -26.58 101.34 -14 101 C-14 84.5 -14 68 -14 51 C-23.9 51 -33.8 51 -44 51 C-44 50.67 -44 50.34 -44 50 C-34.1 49.67 -24.2 49.34 -14 49 C-14 33.82 -14 18.64 -14 3 C-23.9 3 -33.8 3 -44 3 C-44 2.67 -44 2.34 -44 2 C-39.98432025 1.70879545 -35.96821814 1.42434324 -31.95166016 1.14550781 C-29.93237828 1.00402039 -27.91344737 0.85755162 -25.89453125 0.7109375 C-17.23582141 0.1137851 -8.67710741 -0.12180771 0 0 Z "
     transform="translate(208,286)"
     style="fill: #919190;"
     id="path9516" />
  <path
     d="M0 0 C11.125 2.375 11.125 2.375 14.53564453 3.11083984 C22.36524774 4.76108549 30.03202909 5.86171844 38 7 C38 22.18 38 37.36 38 53 C18 51 18 51 0 46 C0 30.82 0 15.64 0 0 Z "
     transform="translate(266,146)"
     style="fill: #E7E502;"
     id="path9518" />
  <path
     d="M0 0 C11.6875 2.375 11.6875 2.375 15.28393555 3.11083984 C16.266604 3.30887207 17.24927246 3.5069043 18.26171875 3.7109375 C19.73064575 4.00943604 19.73064575 4.00943604 21.22924805 4.31396484 C26.79930887 5.32735888 32.40433688 6.13912875 38 7 C38 22.18 38 37.36 38 53 C18 51 18 51 0 46 C0 30.82 0 15.64 0 0 Z "
     transform="translate(110,281)"
     style="fill: #E7E502;"
     id="path9520" />
  <path
     d="M0 0 C4.76757813 4.75976563 4.76757813 4.75976563 6.859375 6.921875 C15.85656682 15.62163899 27.42471459 20.65926797 39 25 C38.67 39.85 38.34 54.7 38 70 C30.10947489 67.74556426 30.10947489 67.74556426 27.421875 66.15234375 C26.82358887 65.79881836 26.22530273 65.44529297 25.60888672 65.08105469 C24.9954541 64.70368164 24.38202148 64.32630859 23.75 63.9375 C23.1017627 63.54336914 22.45352539 63.14923828 21.78564453 62.74316406 C15.7576649 58.99592112 10.26973524 54.76537114 5 50 C4.13624756 49.34394775 3.27249512 48.68789551 2.38256836 48.01196289 C-1.06539659 43.65316142 -0.63371583 40.06976369 -0.48828125 34.66796875 C-0.48120651 33.67622147 -0.47413177 32.68447418 -0.46684265 31.66267395 C-0.43891433 28.50350658 -0.3761772 25.34612918 -0.3125 22.1875 C-0.28741518 20.04234335 -0.26460234 17.89715885 -0.24414062 15.75195312 C-0.18909327 10.50069416 -0.1054831 5.25047497 0 0 Z "
     transform="translate(218,118)"
     style="fill: #E6E403;"
     id="path9522" />
  <path
     d="M0 0 C0.33 0 0.66 0 1 0 C1.01417969 0.61746094 1.02835938 1.23492187 1.04296875 1.87109375 C1.5407998 10.71095857 4.42049187 16.79315676 10.75 23 C18.38938223 29.40680963 28.05197104 34.34293409 37.46484375 37.57421875 C38.63144531 38.04472656 39.79804688 38.51523438 41 39 C41.33 39.99 41.66 40.98 42 42 C26.85391267 38.76238428 13.44578864 30.23306315 3 19 C2.67 18.34 2.34 17.68 2 17 C1.82641742 23.1379565 1.69967811 29.27447216 1.61547852 35.41430664 C1.58036614 37.50082294 1.53266311 39.58716811 1.47192383 41.6730957 C1.3865965 44.67962914 1.34722015 47.68387922 1.31640625 50.69140625 C1.28027725 51.61772354 1.24414825 52.54404083 1.20692444 53.49842834 C1.20386705 58.58938256 1.73099362 61.31590955 5.37597656 65.00756836 C6.5594593 66.03402454 7.76595262 67.0349245 9 68 C9.88042969 68.721875 10.76085937 69.44375 11.66796875 70.1875 C20.2536073 76.36383533 29.09561558 82.17330602 39 86 C38.67 86.66 38.34 87.32 38 88 C23.28886365 83.51682062 11.74578374 74.74578374 1 64 C1 75.22 1 86.44 1 98 C5.29 98.66 9.58 99.32 14 100 C16.77129983 100.73658232 19.52712343 101.53827842 22.25 102.4375 C22.91966797 102.65559326 23.58933594 102.87368652 24.27929688 103.09838867 C26.18935812 103.72267176 28.0948365 104.36092617 30 105 C30.99515625 105.32742187 31.9903125 105.65484375 33.015625 105.9921875 C35.01359944 106.65189604 37.00748902 107.32396949 39 108 C37.375 109.1328125 37.375 109.1328125 35 110 C32.25 109.2421875 32.25 109.2421875 29 107.875 C20.70292688 104.59907116 12.17230395 103.03050465 3.41992188 101.45556641 C1.82755232 101.15579224 0.23973382 100.83054117 -1.34179688 100.47802734 C-14.51532704 97.56640833 -28.07417659 97.79451497 -41.5 97.8125 C-42.75390533 97.81340637 -42.75390533 97.81340637 -44.03314209 97.81433105 C-77.62883619 97.88010902 -120.00994807 100.56245117 -146 125 C-150.57589733 129.72314155 -153.28444848 133.69873765 -153.3125 140.375 C-153.15271048 147.89509407 -150.12677202 152.64015393 -145 158 C-142.80206783 159.65251937 -140.70069119 161.12860795 -138.375 162.5625 C-137.4617395 163.13883179 -137.4617395 163.13883179 -136.5300293 163.72680664 C-131.9270065 166.57251926 -127.20348513 168.93737279 -122.20703125 171.02734375 C-120 172 -120 172 -117 174 C-120.86684545 175.27163293 -122.84215927 174.45086325 -126.4831543 172.64990234 C-127.16933838 172.29105957 -127.85552246 171.9322168 -128.5625 171.5625 C-129.27124268 171.19850098 -129.97998535 170.83450195 -130.71020508 170.45947266 C-139.25909635 165.9600562 -147.26484039 160.91056498 -153 153 C-153.83402878 161.57814794 -154.33163846 170.14811277 -154.45996094 178.76538086 C-154.48683557 180.13942817 -154.52804706 181.51326393 -154.58300781 182.88647461 C-155.08416658 190.90411005 -155.08416658 190.90411005 -152.63037109 198.33398438 C-150.86188981 200.14997124 -149.08704403 201.56693506 -147 203 C-146.20094238 203.64884155 -146.20094238 203.64884155 -145.38574219 204.31079102 C-136.41967058 211.58038599 -126.27098928 216.85207075 -116 222 C-116.33 222.66 -116.66 223.32 -117 224 C-130.85486788 217.89281322 -141.50959285 211.05410626 -153 201 C-153.66 216.84 -154.32 232.68 -155 249 C-154.34 249 -153.68 249 -153 249 C-153 249.66 -153 250.32 -153 251 C-152.40832031 251.26683594 -151.81664062 251.53367187 -151.20703125 251.80859375 C-148.96195625 253.02053689 -147.50944147 254.29081898 -145.6875 256.0625 C-137.46222292 263.42520121 -127.18857991 268.88881863 -117 273 C-117.33 273.99 -117.66 274.98 -118 276 C-131.40821423 269.6831648 -142.68233705 262.70085396 -154 253 C-154 263.56 -154 274.12 -154 285 C-154.33 285 -154.66 285 -155 285 C-155.02505615 284.01080566 -155.0501123 283.02161133 -155.07592773 282.00244141 C-155.16997787 278.33840596 -155.27020429 274.67456115 -155.37231445 271.01074219 C-155.41567241 269.42387343 -155.45734687 267.83695776 -155.49731445 266.25 C-155.55499632 263.97121021 -155.61869638 261.69265678 -155.68359375 259.4140625 C-155.70030624 258.70255035 -155.71701874 257.99103821 -155.73423767 257.25796509 C-155.79721937 253.50339183 -155.79721937 253.50339183 -157 250 C-157.10267991 248.50227262 -157.14377088 247.00011017 -157.15390015 245.49890137 C-157.16250061 244.55139008 -157.17110107 243.60387878 -157.17996216 242.62765503 C-157.18422211 241.58457184 -157.18848206 240.54148865 -157.19287109 239.46679688 C-157.20104858 238.37066071 -157.20922607 237.27452454 -157.21765137 236.14517212 C-157.24254285 232.50303701 -157.25903453 228.86094108 -157.2734375 225.21875 C-157.27876118 223.97535355 -157.28408485 222.73195709 -157.28956985 221.45088196 C-157.31081165 216.22146189 -157.32993898 210.99204771 -157.34119225 205.76259613 C-157.35739427 198.28347044 -157.39046929 190.8048674 -157.44759309 183.3259387 C-157.4911231 177.42385646 -157.50695401 171.52188928 -157.51332474 165.61964417 C-157.52003039 163.11589344 -157.53523438 160.6121501 -157.55921555 158.10850525 C-157.59094115 154.59472411 -157.5908914 151.08224698 -157.58349609 147.56835938 C-157.6081041 146.02802536 -157.6081041 146.02802536 -157.63320923 144.45657349 C-157.56160032 136.10581305 -155.11180949 129.72662107 -149.74609375 123.30078125 C-120.99039975 98.53487898 -79.51559919 93.77285239 -42.9375 93.8125 C-41.78337112 93.81191086 -41.78337112 93.81191086 -40.60592651 93.81130981 C-14.19046653 93.82745723 -14.19046653 93.82745723 -2 97 C-2.03029297 96.03030273 -2.06058594 95.06060547 -2.09179688 94.06152344 C-3.00941072 64.03789088 -3.11901554 34.03590656 -3 4 C-2.34 4 -1.68 4 -1 4 C-0.67 2.68 -0.34 1.36 0 0 Z "
     transform="translate(217,102)"
     style="fill: #999887;"
     id="path9524" />
  <path
     d="M0 0 C0 14.85 0 29.7 0 45 C-15.12042683 49.65243902 -15.12042683 49.65243902 -19.6875 50.75 C-20.66074219 50.99234375 -21.63398438 51.2346875 -22.63671875 51.484375 C-27.04297892 52.15989921 -31.54225823 52 -36 52 C-36 36.82 -36 21.64 -36 6 C-30.72 5.34 -25.44 4.68 -20 4 C-16.37002595 3.21062469 -12.833931 2.31291034 -9.2578125 1.32421875 C-5.98919181 0.44420549 -3.42797718 0 0 0 Z "
     transform="translate(396,146)"
     style="fill: #ECEA02;"
     id="path9526" />
  <path
     d="M0 0 C0 15.18 0 30.36 0 46 C-3.898125 46.99 -7.79625 47.98 -11.8125 49 C-13.01753174 49.31324219 -14.22256348 49.62648438 -15.46411133 49.94921875 C-16.4517749 50.19285156 -17.43943848 50.43648438 -18.45703125 50.6875 C-19.9416687 51.06455078 -19.9416687 51.06455078 -21.45629883 51.44921875 C-26.25011763 52.19430006 -31.14862444 52 -36 52 C-36 37.15 -36 22.3 -36 7 C-23.5 4.625 -23.5 4.625 -19.60742188 3.88916016 C-14.80363923 2.97070202 -10.02008726 2.05063946 -5.28125 0.8359375 C-2 0 -2 0 0 0 Z "
     transform="translate(240,281)"
     style="fill: #ECEA02;"
     id="path9528" />
  <path
     d="M0 0 C0.33 0 0.66 0 1 0 C1.22940525 6.38560395 1.38629544 12.77013572 1.49438477 19.15893555 C1.53946854 21.32893576 1.60075681 23.49866525 1.67895508 25.66772461 C2.31108961 43.66083506 2.31108961 43.66083506 -0.88085938 49.35571289 C-3.14433706 51.64699341 -5.27060068 53.30790011 -8 55 C-9.54485996 56.18334275 -11.08694299 57.37032846 -12.625 58.5625 C-29.64700704 70 -29.64700704 70 -35 70 C-35 55.81 -35 41.62 -35 27 C-36.32 26.67 -37.64 26.34 -39 26 C-38.07960938 25.6596875 -37.15921875 25.319375 -36.2109375 24.96875 C-14.59613 16.8642183 -14.59613 16.8642183 0 0 Z "
     transform="translate(441,117)"
     style="fill: #FEFA02;"
     id="path9530" />
  <path
     d="M0 0 C0.33 0 0.66 0 1 0 C1.24870566 6.22529387 1.42934131 12.44765056 1.54931641 18.67675781 C1.5993606 20.79152841 1.66742293 22.90595725 1.75439453 25.01953125 C2.49648585 43.52816168 2.49648585 43.52816168 -1.10351562 48.54711914 C-3.60950551 51.08070088 -6.03171017 53.04181066 -9 55 C-10.58394972 56.22837227 -12.16738119 57.45741348 -13.75 58.6875 C-29.16964286 69 -29.16964286 69 -35 69 C-35.33 54.15 -35.66 39.3 -36 24 C-30.39 21.69 -24.78 19.38 -19 17 C-15.43757319 14.7154002 -12.25787442 12.60368277 -9 10 C-7.576875 8.9790625 -7.576875 8.9790625 -6.125 7.9375 C-3.54425086 5.58446402 -1.86795781 2.93536228 0 0 Z "
     transform="translate(285,253)"
     style="fill: #FEFA02;"
     id="path9532" />
  <path
     d="M0 0 C10.5625 2.375 10.5625 2.375 13.78735352 3.11083984 C21.8905891 4.90087787 29.6808222 5.89077629 38 7 C38 23.5 38 40 38 57 C32.72 56.67 27.44 56.34 22 56 C21.95875 53.875625 21.9175 51.75125 21.875 49.5625 C21.19197131 40.28079512 17.75918356 35.36304087 11.0625 29.1875 C7.53157882 26.15135759 4.22677291 24.41529881 0 22 C0 14.74 0 7.48 0 0 Z "
     transform="translate(266,194)"
     style="fill: #E8E603;"
     id="path9534" />
  <path
     d="M0 0 C0.9075 0.804375 1.815 1.60875 2.75 2.4375 C13.52937691 11.58493937 25.41937705 20.47312568 39 25 C39 31.6 39 38.2 39 45 C33.23686962 43.71930436 27.81098856 42.39573876 22.25 40.5625 C15.23619876 38.30436965 8.21436824 36.51946454 1 35 C-0.19388403 11.41761516 -0.19388403 11.41761516 0 0 Z "
     transform="translate(217,165)"
     style="fill: #E8E605;"
     id="path9536" />
  <path
     d="M0 0 C2.29199177 0.14063135 4.58359186 0.28765943 6.875 0.4375 C8.15117187 0.51871094 9.42734375 0.59992188 10.7421875 0.68359375 C14 1 14 1 16 2 C16 18.5 16 35 16 52 C11.18771842 52 7.6241083 51.90105843 3.0625 51 C1.62583984 50.7215625 1.62583984 50.7215625 0.16015625 50.4375 C-0.55269531 50.293125 -1.26554687 50.14875 -2 50 C-1.67 49.01 -1.34 48.02 -1 47 C-0.88574862 45.45102275 -0.82382085 43.89788234 -0.79467773 42.3449707 C-0.77473251 41.40422195 -0.75478729 40.46347321 -0.73423767 39.49421692 C-0.71752518 38.48163315 -0.70081268 37.46904938 -0.68359375 36.42578125 C-0.66281265 35.38681198 -0.64203156 34.34784271 -0.62062073 33.27738953 C-0.55519344 29.95582747 -0.49627179 26.63418584 -0.4375 23.3125 C-0.39430831 21.0618407 -0.35069381 18.81118948 -0.30664062 16.56054688 C-0.19951902 11.0404489 -0.09773984 5.52027163 0 0 Z "
     transform="translate(288,304)"
     style="fill: #E7E503;"
     id="path9538" />
  <path
     d="M0 0 C5.28 0.33 10.56 0.66 16 1 C16 17.5 16 34 16 51 C5 51 5 51 0 50 C0 33.5 0 17 0 0 Z "
     transform="translate(288,252)"
     style="fill: #E7E502;"
     id="path9540" />
  <path
     d="M0 0 C0 10.89 0 21.78 0 33 C-25.31890661 22.04328018 -25.31890661 22.04328018 -36 17 C-36 13.7 -36 10.4 -36 7 C-33.70095703 6.61908203 -33.70095703 6.61908203 -31.35546875 6.23046875 C-29.29943031 5.88310153 -27.24344346 5.53542889 -25.1875 5.1875 C-24.18267578 5.02185547 -23.17785156 4.85621094 -22.14257812 4.68554688 C-16.03486695 3.64468291 -10.12263959 2.31307702 -4.1730957 0.5793457 C-2 0 -2 0 0 0 Z "
     transform="translate(240,381)"
     style="fill: #FDFA02;"
     id="path9542" />
  <path
     d="M0 0 C0 9.9 0 19.8 0 30 C-4.45102689 29.10979462 -7.66895319 27.94877068 -11.76171875 26.09375 C-12.39358597 25.80898804 -13.02545319 25.52422607 -13.6764679 25.23083496 C-15.68237971 24.32540448 -17.6849235 23.41277991 -19.6875 22.5 C-21.04471057 21.88625127 -22.40213046 21.27296518 -23.75976562 20.66015625 C-33.35686675 16.32156663 -33.35686675 16.32156663 -36 15 C-36 12.36 -36 9.72 -36 7 C-34.90558594 6.85304688 -34.90558594 6.85304688 -33.7890625 6.703125 C-26.91040451 5.71803324 -20.15533267 4.45093046 -13.375 2.9375 C-12.59334473 2.7631543 -11.81168945 2.58880859 -11.00634766 2.40917969 C-0.39249533 0 -0.39249533 0 0 0 Z "
     transform="translate(396,298)"
     style="fill: #FDFA03;"
     id="path9544" />
  <path
     d="M0 0 C0 9.9 0 19.8 0 30 C-9.0518884 26.31787591 -18.06549988 22.58384865 -27 18.625 C-27.78294434 18.27953125 -28.56588867 17.9340625 -29.37255859 17.578125 C-34.87605319 15.12394681 -34.87605319 15.12394681 -36 14 C-36.04092937 11.66702567 -36.04241723 9.33294775 -36 7 C-35.25427734 6.85900879 -34.50855469 6.71801758 -33.74023438 6.57275391 C-30.32636395 5.92589857 -26.91318195 5.27547793 -23.5 4.625 C-21.74042969 4.29242188 -21.74042969 4.29242188 -19.9453125 3.953125 C-12.57997136 2.54656337 -12.57997136 2.54656337 -5.28125 0.8359375 C-2 0 -2 0 0 0 Z "
     transform="translate(240,329)"
     style="fill: #FDFA02;"
     id="path9546" />
  <path
     d="M0 0 C0 9.9 0 19.8 0 30 C-25.31890661 19.04328018 -25.31890661 19.04328018 -36 14 C-36 11.69 -36 9.38 -36 7 C-35.24380371 6.85900879 -34.48760742 6.71801758 -33.70849609 6.57275391 C-30.26316835 5.92784433 -26.81909004 5.27648568 -23.375 4.625 C-22.18519531 4.40328125 -20.99539063 4.1815625 -19.76953125 3.953125 C-18.61582031 3.73398438 -17.46210938 3.51484375 -16.2734375 3.2890625 C-15.21560059 3.09006348 -14.15776367 2.89106445 -13.06787109 2.68603516 C-9.95502405 2.04953709 -9.95502405 2.04953709 -6.85791016 0.91943359 C-4 0 -4 0 0 0 Z "
     transform="translate(396,194)"
     style="fill: #FEFA02;"
     id="path9548" />
  <path
     d="M0 0 C0 9.9 0 19.8 0 30 C-9.0518884 26.31787591 -18.06549988 22.58384865 -27 18.625 C-27.78294434 18.27953125 -28.56588867 17.9340625 -29.37255859 17.578125 C-34.87605319 15.12394681 -34.87605319 15.12394681 -36 14 C-36.04092937 11.66702567 -36.04241723 9.33294775 -36 7 C-35.21351074 6.85900879 -34.42702148 6.71801758 -33.61669922 6.57275391 C-30.03529343 5.92806918 -26.45515334 5.27660255 -22.875 4.625 C-21.01875 4.29242188 -21.01875 4.29242188 -19.125 3.953125 C-17.92617188 3.73398438 -16.72734375 3.51484375 -15.4921875 3.2890625 C-14.39245605 3.09006348 -13.29272461 2.89106445 -12.15966797 2.68603516 C-8.95793315 2.05147325 -8.95793315 2.05147325 -5.78173828 0.91943359 C-3 0 -3 0 0 0 Z "
     transform="translate(396,246)"
     style="fill: #FDFA02;"
     id="path9550" />
  <path
     d="M0 0 C6.6914326 1.07730548 12.12602231 7.41760237 16.0625 12.625 C19.31898744 18.17887242 18.39196943 24.79817255 18 31 C18.73605469 30.98839844 19.47210938 30.97679687 20.23046875 30.96484375 C21.69419922 30.95130859 21.69419922 30.95130859 23.1875 30.9375 C24.15042969 30.92589844 25.11335938 30.91429687 26.10546875 30.90234375 C28.85576513 30.99513378 31.32479591 31.37888315 34 32 C28.90184354 35.39877097 23.74660217 34.14932043 18 33 C18 49.5 18 66 18 83 C23.28 83.33 28.56 83.66 34 84 C34 84.33 34 84.66 34 85 C32.45963043 85.19787356 30.91759048 85.38275863 29.375 85.5625 C28.51648438 85.66691406 27.65796875 85.77132812 26.7734375 85.87890625 C23.71094753 86.0126206 21.00953602 85.54040641 18 85 C18.00666183 85.58215775 18.01332367 86.16431549 18.02018738 86.76411438 C18.0864769 92.81461066 18.13177393 98.86500405 18.16479492 104.91577148 C18.17989602 107.17492868 18.20037842 109.43405649 18.22631836 111.69311523 C18.26264308 114.93741093 18.27971308 118.18131956 18.29296875 121.42578125 C18.30845261 122.43836502 18.32393646 123.45094879 18.33988953 124.49421692 C18.34011612 125.43496567 18.34034271 126.37571442 18.34057617 127.3449707 C18.34723801 128.17325882 18.35389984 129.00154694 18.36076355 129.85493469 C17.92060026 132.47210321 17.0209846 133.34755537 15 135 C14.67 134.34 14.34 133.68 14 133 C14.33 132.34 14.66 131.68 15 131 C15.08991092 129.45772144 15.11756961 127.91159105 15.11352539 126.36669922 C15.11344986 125.40585419 15.11337433 124.44500916 15.11329651 123.45504761 C15.10813522 122.41542877 15.10297394 121.37580994 15.09765625 120.3046875 C15.0962413 119.24210724 15.09482635 118.17952698 15.09336853 117.08474731 C15.08775834 113.68146991 15.07520409 110.27825762 15.0625 106.875 C15.05748631 104.57161553 15.05292318 102.26823003 15.04882812 99.96484375 C15.0377856 94.30987351 15.02103752 88.65494141 15 83 C14.19832901 83.817034 14.19832901 83.817034 13.38046265 84.65057373 C12.67144806 85.36755432 11.96243347 86.08453491 11.23193359 86.82324219 C10.53248627 87.53293152 9.83303894 88.24262085 9.11239624 88.97381592 C6.17877681 91.78770702 3.02993811 94.04736163 -0.375 96.25 C-1.01767822 96.6732959 -1.66035645 97.0965918 -2.32250977 97.53271484 C-7.29512513 100.72855332 -12.3463169 103.21742698 -18 105 C-18.66 104.34 -19.32 103.68 -20 103 C-18.98421875 102.52691406 -17.9684375 102.05382812 -16.921875 101.56640625 C-7.82879915 97.23663412 0.3317808 92.62106551 8 86 C8.58587891 85.53533325 9.17175781 85.0706665 9.77539062 84.59191895 C13.41477969 81.43166178 15.43530881 79.17018464 15.79467773 74.25805664 C15.79358202 72.47503899 15.75476162 70.69175336 15.68359375 68.91015625 C15.67368912 67.96563095 15.66378448 67.02110565 15.65357971 66.04795837 C15.61460452 63.05118032 15.52681841 60.05815774 15.4375 57.0625 C15.40236415 55.02283962 15.37042913 52.98312142 15.34179688 50.94335938 C15.26489806 45.96080755 15.14423552 40.9810389 15 36 C14.59334106 36.48247192 14.18668213 36.96494385 13.7677002 37.46203613 C13.23140991 38.09395874 12.69511963 38.72588135 12.14257812 39.37695312 C11.61216919 40.00380005 11.08176025 40.63064697 10.53527832 41.27648926 C4.38906984 48.17625212 -9.65220385 57.01826798 -19 58 C-19.66 57.34 -20.32 56.68 -21 56 C-19.44152344 55.36384766 -19.44152344 55.36384766 -17.8515625 54.71484375 C-7.39956357 50.35639407 2.39076852 45.69626454 10 37 C10.4640625 36.52433594 10.928125 36.04867187 11.40625 35.55859375 C15.30443604 31.06485151 15.81707222 26.8562461 15.5390625 20.99609375 C14.0569874 12.7587633 8.34336563 8.00700274 1.7578125 3.41015625 C1.17773438 2.94480469 0.59765625 2.47945312 0 2 C0 1.34 0 0.68 0 0 Z M12 135 C13.32 135.66 14.64 136.32 16 137 C14.989375 137.53625 13.97875 138.0725 12.9375 138.625 C10.33522421 140.10391713 8.18550464 141.64958788 6 143.6875 C2.40305613 146.89758721 -1.57171716 149.33367625 -5.6875 151.8125 C-6.34169922 152.20977295 -6.99589844 152.6070459 -7.66992188 153.01635742 C-13.62092376 156.54194457 -13.62092376 156.54194457 -17 157 C-17.66 156.34 -18.32 155.68 -19 155 C-17.44152344 154.27296875 -17.44152344 154.27296875 -15.8515625 153.53125 C-7.3770367 149.4908207 -0.09152498 145.23949332 7 139 C8.66116658 137.65982048 10.32649296 136.32473762 12 135 Z "
     transform="translate(270,219)"
     style="fill: #94948D;"
     id="path9552" />
  <path
     d="M0 0 C0 8.25 0 16.5 0 25 C-5.52638514 23.15787162 -10.54314261 21.43713883 -15.78515625 19.08203125 C-16.97431641 18.55029297 -18.16347656 18.01855469 -19.38867188 17.47070312 C-20.61332355 16.91806248 -21.83793243 16.36532698 -23.0625 15.8125 C-24.32208993 15.24765492 -25.5818544 14.68319889 -26.84179688 14.11914062 C-29.89626383 12.74989682 -32.94891809 11.37676603 -36 10 C-36 8.68 -36 7.36 -36 6 C-35.030625 5.90203125 -34.06125 5.8040625 -33.0625 5.703125 C-24.92704412 4.81670014 -17.12882731 3.48684482 -9.23046875 1.32128906 C-5.97097877 0.43614009 -3.42017073 0 0 0 Z "
     transform="translate(396,146)"
     style="fill: #FDFA03;"
     id="path9554" />
  <path
     d="M0 0 C0 8.25 0 16.5 0 25 C-4.50295109 24.09940978 -8.15532829 22.73882637 -12.26953125 20.83984375 C-13.29103523 20.37584923 -13.29103523 20.37584923 -14.33317566 19.90248108 C-16.49522696 18.91906176 -18.65387096 17.92840527 -20.8125 16.9375 C-22.28298374 16.2670967 -23.75368466 15.59716957 -25.22460938 14.92773438 C-28.81894442 13.29065903 -32.41024264 11.64708751 -36 10 C-36 9.01 -36 8.02 -36 7 C-35.25427734 6.85900879 -34.50855469 6.71801758 -33.74023438 6.57275391 C-30.32636395 5.92589857 -26.91318195 5.27547793 -23.5 4.625 C-21.74042969 4.29242188 -21.74042969 4.29242188 -19.9453125 3.953125 C-12.57997136 2.54656337 -12.57997136 2.54656337 -5.28125 0.8359375 C-2 0 -2 0 0 0 Z "
     transform="translate(240,281)"
     style="fill: #FDFA02;"
     id="path9556" />
  <path
     d="M0 0 C1.63150903 0.00502851 3.26301958 0.00958901 4.89453125 0.01367188 C8.8463923 0.02456243 12.79817892 0.04175134 16.75 0.0625 C14.1488198 2.6636802 13.03778639 2.32571564 9.4140625 2.37109375 C7.7444043 2.40553589 7.7444043 2.40553589 6.04101562 2.44067383 C4.83123047 2.46025146 3.62144531 2.4798291 2.375 2.5 C-31.83809291 3.40743296 -77.69952834 5.8071733 -104.25 31.0625 C-105.23171483 32.18836536 -106.19285222 33.3327651 -107.125 34.5 C-108.176875 35.7684375 -108.176875 35.7684375 -109.25 37.0625 C-110.24 37.0625 -111.23 37.0625 -112.25 37.0625 C-109.25693854 27.89021488 -99.78465548 22.21169792 -91.6875 17.75 C-63.07060767 3.7017074 -31.52384497 -0.17059054 0 0 Z "
     transform="translate(175.25,195.9375)"
     style="fill: #959489;"
     id="path9558" />
  <path
     d="M0 0 C1 3 1 3 0 5 C-0.76776035 14.03594879 0.63424395 19.46621916 6.53930664 26.47290039 C8.92026626 28.96210354 11.7131347 30.76720554 14.625 32.5625 C15.23384033 32.94672119 15.84268066 33.33094238 16.4699707 33.72680664 C21.0729935 36.57251926 25.79651487 38.93737279 30.79296875 41.02734375 C33 42 33 42 36 44 C32.13315455 45.27163293 30.15784073 44.45086325 26.5168457 42.64990234 C25.48756958 42.11163818 25.48756958 42.11163818 24.4375 41.5625 C23.72875732 41.19850098 23.02001465 40.83450195 22.28979492 40.45947266 C13.74090365 35.9600562 5.73515961 30.91056498 0 23 C-0.33 26.96 -0.66 30.92 -1 35 C-1.33 35 -1.66 35 -2 35 C-2.33 30.05 -2.66 25.1 -3 20 C-3.33 20 -3.66 20 -4 20 C-4.0814222 17.77144426 -4.13938079 15.54202345 -4.1875 13.3125 C-4.22230469 12.07113281 -4.25710937 10.82976562 -4.29296875 9.55078125 C-3.95907002 5.50392869 -2.88757052 2.88757052 0 0 Z "
     transform="translate(64,232)"
     style="fill: #9D9D82;"
     id="path9560" />
  <path
     d="M0 0 C0.65355469 0.87398438 0.65355469 0.87398438 1.3203125 1.765625 C1.87460938 2.50296875 2.42890625 3.2403125 3 4 C3.45117188 4.61359375 3.90234375 5.2271875 4.3671875 5.859375 C11.9238103 15.33451861 22.85095155 20.29872575 33.88256836 24.65454102 C35.62120853 25.3603469 37.31583571 26.17258098 39 27 C39.495 28.485 39.495 28.485 40 30 C24.85391267 26.76238428 11.44578864 18.23306315 1 7 C0.67 6.34 0.34 5.68 0 5 C-0.33 18.2 -0.66 31.4 -1 45 C-1.33 45 -1.66 45 -2 45 C-2 30.48 -2 15.96 -2 1 C-1.34 0.67 -0.68 0.34 0 0 Z "
     transform="translate(219,114)"
     style="fill: #AAAA74;"
     id="path9562" />
  <path
     d="M0 0 C0.66 0.99 1.32 1.98 2 3 C-8.34535174 15.73771433 -22.27841493 23.50811855 -38 28 C-38 27.01 -38 26.02 -38 25 C-37.04480469 24.63648438 -36.08960938 24.27296875 -35.10546875 23.8984375 C-15.19160814 16.50473323 -15.19160814 16.50473323 -0.72265625 1.7265625 C-0.48417969 1.15679687 -0.24570312 0.58703125 0 0 Z "
     transform="translate(439,116)"
     style="fill: #A1A182;"
     id="path9564" />
  <path
     d="M0 0 C0.66 0.99 1.32 1.98 2 3 C-6.04561893 14.74873493 -17.97327033 22.04844159 -31.2890625 26.8203125 C-31.85367188 26.87960937 -32.41828125 26.93890625 -33 27 C-33.66 26.34 -34.32 25.68 -35 25 C-33.96101562 24.57589844 -32.92203125 24.15179688 -31.8515625 23.71484375 C-18.84546813 18.29134455 -7.69405923 12.25350174 0 0 Z "
     transform="translate(284,250)"
     style="fill: #A3A281;"
     id="path9566" />
  <path
     d="M0 0 C1.63150903 0.00502851 3.26301958 0.00958901 4.89453125 0.01367188 C8.8463923 0.02456243 12.79817892 0.04175134 16.75 0.0625 C14.09038448 2.72211552 12.70969915 2.36644329 8.9921875 2.4765625 C7.8155957 2.51531494 6.63900391 2.55406738 5.42675781 2.59399414 C4.17217773 2.62485107 2.91759766 2.65570801 1.625 2.6875 C-0.27233887 2.74442017 -0.27233887 2.74442017 -2.20800781 2.80249023 C-11.22354383 3.05689588 -20.23147687 3.18853526 -29.25 3.0625 C-29.58 2.4025 -29.91 1.7425 -30.25 1.0625 C-20.15375986 -0.03983444 -10.13866784 -0.05486516 0 0 Z "
     transform="translate(175.25,195.9375)"
     style="fill: #90908E;"
     id="path9568" />
  <path
     d="M0 0 C1.05743408 0.21934204 1.05743408 0.21934204 2.13623047 0.44311523 C5.38142967 1.11315186 8.62817927 1.77536746 11.875 2.4375 C12.98359375 2.66759766 14.0921875 2.89769531 15.234375 3.13476562 C21.81348415 4.46993778 28.3034533 5.50083733 35 6 C35.495 7.485 35.495 7.485 36 9 C29.05829132 9.39579918 22.53337838 7.92142183 15.75 6.5625 C13.97496094 6.21735352 13.97496094 6.21735352 12.1640625 5.86523438 C3.47330097 4.15776699 3.47330097 4.15776699 0 3 C0 2.01 0 1.02 0 0 Z "
     transform="translate(111,279)"
     style="fill: #9E9E82;"
     id="path9570" />
  <path
     d="M0 0 C0.99 0.33 1.98 0.66 3 1 C-6.17184081 11.29035798 -17.75261515 19.82317748 -31 24 C-31.66 23.34 -32.32 22.68 -33 22 C-31.98421875 21.52691406 -30.9684375 21.05382812 -29.921875 20.56640625 C-18.57066952 15.1599501 -8.84811092 9.10319159 0 0 Z "
     transform="translate(283,300)"
     style="fill: #A0A083;"
     id="path9572" />
  <path
     d="M0 0 C2.0307477 0.15411106 4.06606421 0.24982453 6.1015625 0.31640625 C7.31328125 0.35830078 8.525 0.40019531 9.7734375 0.44335938 C11.04445313 0.48267578 12.31546875 0.52199219 13.625 0.5625 C14.90375 0.60568359 16.1825 0.64886719 17.5 0.69335938 C20.66655348 0.79969886 23.83318753 0.90172833 27 1 C27 1.33 27 1.66 27 2 C25.99211426 2.02505615 24.98422852 2.0501123 23.94580078 2.07592773 C20.16233258 2.17097758 16.37900694 2.27094904 12.59570312 2.37231445 C10.96650557 2.41529822 9.33727346 2.45699424 7.70800781 2.49731445 C-4.21019206 2.78843947 -4.21019206 2.78843947 -16.08544922 3.79272461 C-19.73002836 4.1872984 -23.33998429 4.05903251 -27 4 C-26.67 3.34 -26.34 2.68 -26 2 C-23.71508789 1.48168945 -23.71508789 1.48168945 -20.72265625 1.11328125 C-19.11680664 0.9131543 -19.11680664 0.9131543 -17.47851562 0.70898438 C-16.35123047 0.57814453 -15.22394531 0.44730469 -14.0625 0.3125 C-12.93908203 0.17005859 -11.81566406 0.02761719 -10.65820312 -0.11914062 C-2.26675999 -1.13337999 -2.26675999 -1.13337999 0 0 Z "
     transform="translate(313,62)"
     style="fill: #A3A37F;"
     id="path9574" />
  <path
     d="M0 0 C1.485 0.495 1.485 0.495 3 1 C-6.68303587 11.57532928 -18.20261837 17.96259035 -31 24 C-31 23.01 -31 22.02 -31 21 C-29.90042969 20.45472656 -28.80085938 19.90945312 -27.66796875 19.34765625 C-17.2210834 14.05914238 -8.24289889 8.45561886 0 0 Z "
     transform="translate(439,165)"
     style="fill: #A0A083;"
     id="path9576" />
  <path
     d="M0 0 C0.99 0.33 1.98 0.66 3 1 C-3.27002102 7.36669535 -9.80552234 12.41698184 -17.4375 17.0625 C-18.21851074 17.53921143 -18.99952148 18.01592285 -19.80419922 18.50708008 C-26.63552575 22.56932981 -26.63552575 22.56932981 -30 23 C-30.66 22.34 -31.32 21.68 -32 21 C-30.44152344 20.27296875 -30.44152344 20.27296875 -28.8515625 19.53125 C-19.57175727 15.1074677 -11.84556124 10.25975873 -4.16796875 3.3515625 C-2.83012389 2.17321739 -1.42205592 1.07521302 0 0 Z "
     transform="translate(439,270)"
     style="fill: #A2A182;"
     id="path9578" />
  <path
     d="M0 0 C12.83775166 2.25689533 24.84423257 5.27625618 37 10 C35.375 11.1328125 35.375 11.1328125 33 12 C30.25 11.2421875 30.25 11.2421875 27 9.875 C17.90739141 6.3667525 8.5658086 4.72261543 -1 3 C-0.67 2.01 -0.34 1.02 0 0 Z "
     transform="translate(219,200)"
     style="fill: #A3A27F;"
     id="path9580" />
  <path
     d="M0 0 C3.69094375 0.60811888 5.7810103 2.2003598 8.6875 4.5 C15.94475289 9.94293967 23.92659808 13.91124311 32 18 C31.67 18.66 31.34 19.32 31 20 C20.81101409 15.50872368 11.76377019 10.93934219 3 4 C2.01 3.34 1.02 2.68 0 2 C0 1.34 0 0.68 0 0 Z "
     transform="translate(69,306)"
     style="fill: #9E9E81;"
     id="path9582" />
  <path
     d="M0 0 C-0.33 0.99 -0.66 1.98 -1 3 C-1.78375 2.93941406 -2.5675 2.87882813 -3.375 2.81640625 C-18.56185708 1.75267165 -33.78476142 1.43048937 -49 1 C-49 0.67 -49 0.34 -49 0 C-44.60431345 -0.17068864 -40.20843299 -0.33579049 -35.8125 -0.5 C-34.58595703 -0.54769531 -33.35941406 -0.59539062 -32.09570312 -0.64453125 C-9.44326657 -1.48129672 -9.44326657 -1.48129672 0 0 Z "
     transform="translate(211,198)"
     style="fill: #A7A67E;"
     id="path9584" />
  <path
     d="M0 0 C6.4113667 1.41936304 12.69903822 2.15205514 19.25 2.5 C19.25 3.49 19.25 4.48 19.25 5.5 C12.05964371 5.83361848 5.46457657 4.57522566 -1.5625 3.125 C-2.69365234 2.90328125 -3.82480469 2.6815625 -4.99023438 2.453125 C-13.36380253 0.75746498 -13.36380253 0.75746498 -16.75 -1.5 C-12.03570242 -3.85714879 -4.89669026 -1.10500532 0 0 Z "
     transform="translate(283.75,195.5)"
     style="fill: #A6A578;"
     id="path9586" />
  <path
     d="M0 0 C4.29 1.65 8.58 3.3 13 5 C9.01778288 8.98221712 5.25604998 10.02044871 0 12 C0 8.04 0 4.08 0 0 Z "
     transform="translate(250,418)"
     style="fill: #EDEA06;"
     id="path9588" />
  <path
     d="M0 0 C-2.49420596 2.49420596 -4.05031765 2.60835949 -7.48828125 3.2890625 C-9.13666992 3.61777344 -9.13666992 3.61777344 -10.81835938 3.953125 C-12.54795898 4.28570312 -12.54795898 4.28570312 -14.3125 4.625 C-15.45396484 4.85445312 -16.59542969 5.08390625 -17.77148438 5.3203125 C-22.58419704 6.26541563 -27.07878779 7.147642 -32 7 C-32 6.01 -32 5.02 -32 4 C-31.26362305 3.88406494 -30.52724609 3.76812988 -29.76855469 3.64868164 C-26.42874224 3.12180016 -23.08936963 2.59218047 -19.75 2.0625 C-18.59113281 1.88009766 -17.43226563 1.69769531 -16.23828125 1.50976562 C-15.12324219 1.33251953 -14.00820313 1.15527344 -12.859375 0.97265625 C-11.83295898 0.81031494 -10.80654297 0.64797363 -9.74902344 0.48071289 C-7.07514296 0.0628738 -7.07514296 0.0628738 -4.82128906 -0.62329102 C-3 -1 -3 -1 0 0 Z "
     transform="translate(393,246)"
     style="fill: #A4A37E;"
     id="path9590" />
  <path
     d="M0 0 C5.06634227 0.29228898 9.86508739 1.39755789 14.8125 2.5 C20.87219846 3.84006277 26.80915343 4.63360296 33 5 C31.94921875 6.53515625 31.94921875 6.53515625 30 8 C26.76953125 7.99609375 26.76953125 7.99609375 22.8125 7.4375 C22.11576172 7.34033691 21.41902344 7.24317383 20.70117188 7.14306641 C13.00201717 5.99026101 5.5003605 4.05462003 -2 2 C-1.34 1.34 -0.68 0.68 0 0 Z "
     transform="translate(113,328)"
     style="fill: #A7A677;"
     id="path9592" />
  <path
     d="M0 0 C5.19041396 0.30531847 10.16553936 1.44138922 15.25 2.5 C21.83061399 3.85308512 28.29600062 4.63795906 35 5 C35 5.33 35 5.66 35 6 C22.08286771 8.26105782 10.50791697 5.14395173 -2 2 C-1.34 1.34 -0.68 0.68 0 0 Z "
     transform="translate(269,145)"
     style="fill: #A5A479;"
     id="path9594" />
  <path
     d="M0 0 C4.29 1.65 8.58 3.3 13 5 C8.55004949 8.33746288 5.25323659 9.37767694 0 11 C0 7.37 0 3.74 0 0 Z "
     transform="translate(250,311)"
     style="fill: #EDEB05;"
     id="path9596" />
  <path
     d="M0 0 C4.29 1.65 8.58 3.3 13 5 C5 11 5 11 0 11 C0 7.37 0 3.74 0 0 Z "
     transform="translate(406,228)"
     style="fill: #EDEB05;"
     id="path9598" />
  <path
     d="M0 0 C8.75 2.875 8.75 2.875 11 4 C10 7 10 7 7.71484375 8.16796875 C3.85742188 9.58398438 3.85742188 9.58398438 0 11 C0 7.37 0 3.74 0 0 Z "
     transform="translate(250,364)"
     style="fill: #EDEA05;"
     id="path9600" />
  <path
     d="M0 0 C8.625 2.625 8.625 2.625 12 6 C8.04 7.65 4.08 9.3 0 11 C0 7.37 0 3.74 0 0 Z "
     transform="translate(406,281)"
     style="fill: #EDEA06;"
     id="path9602" />
  <path
     d="M0 0 C-10.67369256 5.69612173 -24.23187207 6.94374824 -36 5 C-36 4.67 -36 4.34 -36 4 C-35.34257812 3.97421875 -34.68515625 3.9484375 -34.0078125 3.921875 C-26.54098108 3.47669806 -19.54625126 2.1368593 -12.32080078 0.28417969 C-7.86150904 -0.80488826 -4.56142814 -1.14397722 0 0 Z "
     transform="translate(238,281)"
     style="fill: #A6A57C;"
     id="path9604" />
  <path
     d="M0 0 C-2.22508669 2.22508669 -3.11064274 2.43533254 -6.10546875 3.0703125 C-7.33426758 3.33134766 -7.33426758 3.33134766 -8.58789062 3.59765625 C-9.44576172 3.77167969 -10.30363281 3.94570312 -11.1875 4.125 C-12.44530273 4.39763672 -12.44530273 4.39763672 -13.72851562 4.67578125 C-26.72676396 7.37487107 -26.72676396 7.37487107 -32 4 C-31.22398437 3.89042969 -30.44796875 3.78085938 -29.6484375 3.66796875 C-22.36617151 2.599092 -15.24852739 1.21954046 -8.09375 -0.51171875 C-5.01481692 -0.99766147 -2.97826402 -0.82791295 0 0 Z "
     transform="translate(392,194)"
     style="fill: #ABAB76;"
     id="path9606" />
  <path
     d="M0 0 C5.94 2.475 5.94 2.475 12 5 C4 11 4 11 0 11 C0 7.37 0 3.74 0 0 Z "
     transform="translate(406,333)"
     style="fill: #EEEB03;"
     id="path9608" />
  <path
     d="M0 0 C0 0.33 0 0.66 0 1 C-3.51789843 1.84605975 -7.03972005 2.67452275 -10.5625 3.5 C-11.55314453 3.73847656 -12.54378906 3.97695313 -13.56445312 4.22265625 C-20.72688608 5.88833833 -26.74652524 6.75841812 -34 5 C-34 4.67 -34 4.34 -34 4 C-33.40316406 3.97421875 -32.80632812 3.9484375 -32.19140625 3.921875 C-25.22430243 3.46637341 -18.73265348 2.11156789 -12.01586914 0.28417969 C-7.65334346 -0.84287803 -4.38330675 -1.08722522 0 0 Z "
     transform="translate(238,329)"
     style="fill: #A6A57C;"
     id="path9610" />
  <path
     d="M0 0 C5.94 2.475 5.94 2.475 12 5 C4 11 4 11 0 11 C0 7.37 0 3.74 0 0 Z "
     transform="translate(406,176)"
     style="fill: #EEEB04;"
     id="path9612" />
  <path
     d="M0 0 C-4.60401621 2.48810254 -9.43992792 3.48255746 -14.5 4.6875 C-15.92505859 5.04424805 -15.92505859 5.04424805 -17.37890625 5.40820312 C-18.29542969 5.62798828 -19.21195312 5.84777344 -20.15625 6.07421875 C-20.98962891 6.27619873 -21.82300781 6.47817871 -22.68164062 6.6862793 C-25.16244567 7.02198217 -26.66578069 6.87470678 -29 6 C-29.66 5.34 -30.32 4.68 -31 4 C-29.06447266 3.70996094 -29.06447266 3.70996094 -27.08984375 3.4140625 C-25.37235965 3.15127805 -23.65491373 2.88824396 -21.9375 2.625 C-21.08994141 2.49867188 -20.24238281 2.37234375 -19.36914062 2.2421875 C-15.52068195 1.64783095 -11.79236224 1.00734088 -8.0625 -0.125 C-4.85888929 -1.04031734 -3.15003553 -0.95455622 0 0 Z "
     transform="translate(396,145)"
     style="fill: #A0A081;"
     id="path9614" />
  <path
     d="M0 0 C-3.115894 3.115894 -6.9625429 3.30822643 -11.1875 4.1875 C-12.02603516 4.37763672 -12.86457031 4.56777344 -13.72851562 4.76367188 C-18.86013725 5.84928426 -22.86077883 6.09182371 -28 5 C-23.68268234 2.67256719 -19.32949831 1.81360579 -14.5625 0.8125 C-13.71623047 0.62236328 -12.86996094 0.43222656 -11.99804688 0.23632812 C-7.71653286 -0.67227822 -4.2841429 -1.38113026 0 0 Z "
     transform="translate(238,381)"
     style="fill: #A6A67B;"
     id="path9616" />
  <path
     d="M0 0 C-4.19690865 2.7979391 -8.56738028 3.53792904 -13.4375 4.6875 C-14.86932617 5.04424805 -14.86932617 5.04424805 -16.33007812 5.40820312 C-17.25111328 5.62798828 -18.17214844 5.84777344 -19.12109375 6.07421875 C-19.9608374 6.27619873 -20.80058105 6.47817871 -21.66577148 6.6862793 C-24.15368101 7.02065475 -25.65996026 6.8779465 -28 6 C-28.66 5.34 -29.32 4.68 -30 4 C-28.06447266 3.70996094 -28.06447266 3.70996094 -26.08984375 3.4140625 C-24.37235965 3.15127805 -22.65491373 2.88824396 -20.9375 2.625 C-20.08994141 2.49867188 -19.24238281 2.37234375 -18.36914062 2.2421875 C-14.51183128 1.64646405 -10.77192332 1.00232621 -7.03125 -0.125 C-4.07366527 -0.9787358 -2.80787163 -1.12314865 0 0 Z "
     transform="translate(394,298)"
     style="fill: #A7A77A;"
     id="path9618" />
  <path
     d="M0 0 C0.99 0.33 1.98 0.66 3 1 C-0.11721832 4.39852826 -3.43654404 6.68014727 -7.375 9.0625 C-8.47585938 9.73410156 -9.57671875 10.40570313 -10.7109375 11.09765625 C-11.79632813 11.72542969 -12.88171875 12.35320312 -14 13 C-15.04414063 13.61746094 -16.08828125 14.23492187 -17.1640625 14.87109375 C-20 16 -20 16 -22.375 15.1875 C-22.91125 14.795625 -23.4475 14.40375 -24 14 C-22.9378125 13.49210938 -21.875625 12.98421875 -20.78125 12.4609375 C-10.58434626 7.57777405 -10.58434626 7.57777405 -1.48046875 0.93359375 C-0.99191406 0.62550781 -0.50335938 0.31742188 0 0 Z "
     transform="translate(430,225)"
     style="fill: #A1A082;"
     id="path9620" />
  <path
     d="M0 0 C6.27850784 1.01082553 10.72616973 6.38227215 14.73046875 10.9921875 C17.44682496 14.78139029 18.30316643 17.32036043 17.8125 22 C17.57050858 23.33886841 17.30974159 24.67516468 17 26 C16.67 26 16.34 26 16 26 C15.93683594 25.38253906 15.87367188 24.76507813 15.80859375 24.12890625 C14.65023517 16.11794215 11.36080967 10.46498443 4.984375 5.3984375 C3.33320863 4.25067551 1.66791248 3.123288 0 2 C0 1.34 0 0.68 0 0 Z "
     transform="translate(270,219)"
     style="fill: #A0A081;"
     id="path9622" />
  <path
     d="M0 0 C0.99 0.33 1.98 0.66 3 1 C-14.08762355 15.19653572 -14.08762355 15.19653572 -22 16 C-22.66 15.34 -23.32 14.68 -24 14 C-22.9378125 13.49210937 -21.875625 12.98421875 -20.78125 12.4609375 C-10.58434626 7.57777405 -10.58434626 7.57777405 -1.48046875 0.93359375 C-0.99191406 0.62550781 -0.50335938 0.31742187 0 0 Z "
     transform="translate(275,360)"
     style="fill: #A1A083;"
     id="path9624" />
  <path
     d="M0 0 C0 0.33 0 0.66 0 1 C-0.93682617 1.08302368 -0.93682617 1.08302368 -1.89257812 1.16772461 C-4.76185148 1.42284782 -7.63092471 1.68015928 -10.5 1.9375 C-11.97339844 2.06801758 -11.97339844 2.06801758 -13.4765625 2.20117188 C-19.00144082 2.69841092 -24.50050598 3.27328115 -30 4 C-29.67 3.01 -29.34 2.02 -29 1 C-18.98556995 -1.34157863 -10.1680385 -1.18874772 0 0 Z "
     transform="translate(156,199)"
     style="fill: #96968B;"
     id="path9626" />
  <path
     d="M0 0 C4.60460246 0.64002196 8.48786266 2.48799376 12.625 4.5 C17.71887208 6.97094295 17.71887208 6.97094295 23 9 C23.33 9.99 23.66 10.98 24 12 C15.66556469 10.02456951 8.24239152 6.53332199 1 2 C0.67 1.34 0.34 0.68 0 0 Z "
     transform="translate(235,132)"
     style="fill: #9C9C83;"
     id="path9628" />
  <path
     d="M0 0 C-0.33 0.99 -0.66 1.98 -1 3 C-7.27 3.99 -13.54 4.98 -20 6 C-19.67 5.01 -19.34 4.02 -19 3 C-16.2955396 2.17491039 -13.76068795 1.52777858 -11 1 C-9.948125 0.79375 -8.89625 0.5875 -7.8125 0.375 C-5.16657599 0.02221013 -2.66515827 -0.07838701 0 0 Z "
     transform="translate(225,438)"
     style="fill: #999985;"
     id="path9630" />
  <path
     d="M0 0 C2.98313944 0.58826674 5.96048537 1.19462904 8.9375 1.8125 C9.78763672 1.97814453 10.63777344 2.14378906 11.51367188 2.31445312 C12.72700195 2.5706543 12.72700195 2.5706543 13.96484375 2.83203125 C14.7137085 2.98389893 15.46257324 3.1357666 16.23413086 3.29223633 C16.81686768 3.52579834 17.39960449 3.75936035 18 4 C18.33 4.99 18.66 5.98 19 7 C12.42465139 6.37968409 6.33307408 4.85102717 0 3 C0 2.01 0 1.02 0 0 Z "
     transform="translate(110,379)"
     style="fill: #A7A677;"
     id="path9632" />
  <path
     d="M0 0 C7.35251669 0.53410863 14.67902003 1.13140916 22 2 C18.34796747 4.43468835 16.97999421 4.126274 12.6875 3.75 C11.57761719 3.66234375 10.46773437 3.5746875 9.32421875 3.484375 C6.01961865 3.00285865 3.12683669 2.15423321 0 1 C0 0.67 0 0.34 0 0 Z "
     transform="translate(126,384)"
     style="fill: #9A9A86;"
     id="path9634" />
  <path
     d="M0 0 C-0.33 0.99 -0.66 1.98 -1 3 C-4.67566856 4.61729417 -9.07239675 4.06546005 -13 4 C-9.47163989 -0.27117276 -5.24714378 -0.14991839 0 0 Z "
     transform="translate(378,353)"
     style="fill: #9A9985;"
     id="path9636" />
  <path
     d="M0 0 C0.66 0.165 1.32 0.33 2 0.5 C-2.45452125 3.46968084 -6.90576317 2.84903947 -12 2 C-12.66 1.835 -13.32 1.67 -14 1.5 C-9.54547875 -1.46968084 -5.09423683 -0.84903947 0 0 Z "
     transform="translate(302,250.5)"
     style="fill: #A6A578;"
     id="path9638" />
  <path
     d="M0 0 C5.61 0.33 11.22 0.66 17 1 C17 1.33 17 1.66 17 2 C11.06 2.33 5.12 2.66 -1 3 C-0.67 2.01 -0.34 1.02 0 0 Z "
     transform="translate(139,198)"
     style="fill: #ABAA79;"
     id="path9640" />
  <path
     d="M0 0 C-2.96178773 1.67110042 -5.37071192 2.32682752 -8.75 2.625 C-9.94882812 2.73714844 -9.94882812 2.73714844 -11.171875 2.8515625 C-11.77515625 2.90054688 -12.3784375 2.94953125 -13 3 C-13.66 2.01 -14.32 1.02 -15 0 C-9.65370398 -1.0024305 -5.37625234 -0.84888195 0 0 Z "
     transform="translate(380,149)"
     style="fill: #B2B16F;"
     id="path9642" />
  <path
     d="M0 0 C-1 2 -1 2 -2.625 2.625 C-7.64009607 3.41685727 -11.53612208 3.47666911 -16 1 C-10.65097076 0.40801257 -5.39115154 -0.14187241 0 0 Z "
     transform="translate(376,197)"
     style="fill: #A2A180;"
     id="path9644" />
  <path
     d="M0 0 C5.94 0.99 5.94 0.99 12 2 C11.34 2.66 10.68 3.32 10 4 C7.3984375 3.9765625 7.3984375 3.9765625 4.375 3.625 C3.37210938 3.51414063 2.36921875 3.40328125 1.3359375 3.2890625 C0.17964844 3.14597656 0.17964844 3.14597656 -1 3 C-0.67 2.01 -0.34 1.02 0 0 Z "
     transform="translate(219,200)"
     style="fill: #A8A87A;"
     id="path9646" />
  <path
     d="M0 0 C4.95 0.99 4.95 0.99 10 2 C9.67 2.99 9.34 3.98 9 5 C4.545 4.01 4.545 4.01 0 3 C0 2.01 0 1.02 0 0 Z "
     transform="translate(111,279)"
     style="fill: #A9A974;"
     id="path9648" />
  <path
     d="M0 0 C1.258125 -0.04125 2.51625 -0.0825 3.8125 -0.125 C4.52019531 -0.14820313 5.22789062 -0.17140625 5.95703125 -0.1953125 C8 0 8 0 11 2 C7.37 2.33 3.74 2.66 0 3 C0 2.01 0 1.02 0 0 Z "
     transform="translate(361,250)"
     style="fill: #AAA978;"
     id="path9650" />
  <path
     d="M0 0 C1 3 1 3 0 5 C-0.22467831 6.53668865 -0.40796805 8.07968054 -0.5625 9.625 C-0.64628906 10.44226563 -0.73007812 11.25953125 -0.81640625 12.1015625 C-0.87699219 12.72804687 -0.93757813 13.35453125 -1 14 C-1.33 14 -1.66 14 -2 14 C-2.24915939 12.23186888 -2.47366632 10.46025018 -2.6875 8.6875 C-2.81511719 7.70136719 -2.94273438 6.71523437 -3.07421875 5.69921875 C-3 3 -3 3 -1.51953125 1.14453125 C-1.01808594 0.76683594 -0.51664063 0.38914063 0 0 Z "
     transform="translate(64,232)"
     style="fill: #A1A17D;"
     id="path9652" />
  <path
     d="M0 0 C2.72869407 0.03287583 5.2966618 0.56397771 8 1 C7.67 1.99 7.34 2.98 7 4 C2.545 3.01 2.545 3.01 -2 2 C-1.34 1.34 -0.68 0.68 0 0 Z "
     transform="translate(269,193)"
     style="fill: #ABAA73;"
     id="path9654" />
  <path
     d="M0 0 C3.4375 0.8125 3.4375 0.8125 7 2 C7.33 2.99 7.66 3.98 8 5 C4.7 4.01 1.4 3.02 -2 2 C-1.34 1.34 -0.68 0.68 0 0 Z "
     transform="translate(251,139)"
     style="fill: #A3A37C;"
     id="path9656" />
  <path
     d="M0 0 C1.98 0 3.96 0 6 0 C6.33 0.99 6.66 1.98 7 3 C4.69 3 2.38 3 0 3 C0 2.01 0 1.02 0 0 Z "
     transform="translate(140,285)"
     style="fill: #ACAB71;"
     id="path9658" />
  <path
     d="M0 0 C-0.33 0.66 -0.66 1.32 -1 2 C-3.64860427 2.59355614 -6.29197322 2.74209269 -9 3 C-6.38220849 -0.01046024 -3.86655673 -1.93327837 0 0 Z "
     transform="translate(118,203)"
     style="fill: #8E8E8C;"
     id="path9660" />
  <path
     d="M0 0 C0.99 0.33 1.98 0.66 3 1 C1.25 3.0625 1.25 3.0625 -1 5 C-3.25 4.75 -3.25 4.75 -5 4 C-2.6875 1.9375 -2.6875 1.9375 0 0 Z "
     transform="translate(430,225)"
     style="fill: #A7A67E;"
     id="path9662" />
  <path
     d="M0 0 C0.66 0 1.32 0 2 0 C3.05404945 3.98196457 2.84098656 6.98195309 2 11 C1.67 11 1.34 11 1 11 C0.67 7.37 0.34 3.74 0 0 Z "
     transform="translate(285,234)"
     style="fill: #A7A67B;"
     id="path9664" />
</svg>
