<svg id="svg" version="1.1" xmlns="http://www.w3.org/2000/svg" style="display: block;" viewBox="0 0 504 504"><path d="M0 0 C166.32 0 332.64 0 504 0 C504 166.32 504 332.64 504 504 C337.68 504 171.36 504 0 504 C0 337.68 0 171.36 0 0 Z " transform="translate(0,0)" style="fill: #000000;" opacity="0"/><path d="M0 0 C4.38108349 0.42125803 7.66218604 1.76983185 11.25 4.3125 C15.79751435 9.90944074 16.38305368 14.00713182 16.3125 21.0625 C16.30347656 22.23296875 16.29445313 23.4034375 16.28515625 24.609375 C16.26775391 25.94742188 16.26775391 25.94742188 16.25 27.3125 C17.55324219 27.44205078 17.55324219 27.44205078 18.8828125 27.57421875 C30.99611891 29.05112076 30.99611891 29.05112076 35.25 34.3125 C38.27759001 40.79145737 38.65935424 46.98560211 38.54296875 54.03515625 C38.53872391 55.02124374 38.53447906 56.00733124 38.53010559 57.02330017 C38.51345171 60.14082349 38.4758248 63.2576755 38.4375 66.375 C38.42243597 68.50194372 38.40875059 70.62889768 38.39648438 72.75585938 C38.36359182 77.94166082 38.3119026 83.126967 38.25 88.3125 C37.56698822 88.32058685 36.88397644 88.32867371 36.18026733 88.33700562 C29.67994785 88.41559907 23.1798119 88.50307238 16.679739 88.60002708 C13.33957723 88.64954876 9.99948397 88.69489344 6.65917969 88.734375 C2.80126187 88.78054305 -1.05633769 88.83844765 -4.9140625 88.8984375 C-6.08860992 88.90998871 -7.26315735 88.92153992 -8.47329712 88.93344116 C-26.55085509 89.24849025 -42.69116266 92.28239171 -56.4375 104.75 C-57.5821875 106.0184375 -57.5821875 106.0184375 -58.75 107.3125 C-59.23082031 107.81265625 -59.71164062 108.3128125 -60.20703125 108.828125 C-64.50854842 113.48900942 -67.25638911 118.50291719 -69.75 124.3125 C-70.07226562 125.02535156 -70.39453125 125.73820312 -70.7265625 126.47265625 C-75.45708557 139.00633187 -73.99894594 155.26600605 -68.75 167.3125 C-62.06269699 182.09183534 -51.30176695 192.42578741 -36.09927368 198.23306274 C-26.07985812 201.46221971 -15.35482519 201.62388174 -4.9140625 201.7265625 C-3.6686972 201.74592865 -2.42333191 201.7652948 -1.14022827 201.7852478 C2.78144796 201.8443416 6.70315468 201.89114477 10.625 201.9375 C13.3073192 201.97473753 15.98959588 202.01467878 18.671875 202.0546875 C25.1978141 202.14998412 31.72382385 202.23523014 38.25 202.3125 C38.34300645 209.99723708 38.41391952 217.68191521 38.45724869 225.36708832 C38.47805315 228.93633519 38.50623769 232.50519474 38.55175781 236.07421875 C38.595474 239.52370466 38.61919071 242.97281992 38.62950897 246.42256165 C38.64041005 248.36789182 38.67159466 250.31307452 38.70318604 252.25817871 C38.7052968 260.64636715 37.87935387 266.25616332 32.125 272.6875 C24.54156634 276.97378859 15.42351682 276.60057938 6.94664001 276.56646729 C5.74388146 276.56958727 4.54112291 276.57270725 3.30191714 276.57592177 C-0.01025766 276.58248409 -3.32220325 276.58016946 -6.63436377 276.57394934 C-10.21654179 276.56940354 -13.79870051 276.57641908 -17.38087463 276.58190918 C-24.38768073 276.59078193 -31.39444387 276.58889071 -38.40125162 276.5830839 C-44.0974499 276.57855942 -49.79363618 276.5779579 -55.48983574 276.58013153 C-56.70783994 276.58059123 -56.70783994 276.58059123 -57.95045028 276.58106022 C-59.60022136 276.58169969 -61.24999244 276.58234812 -62.89976352 276.5830054 C-78.35333053 276.58870239 -93.80687377 276.58216052 -109.26043689 276.57140467 C-122.5103064 276.56246804 -135.76014088 276.56402334 -149.01000977 276.57324219 C-164.4114184 276.58395305 -179.81280624 276.5881549 -195.21421808 276.58201766 C-196.85747206 276.58138059 -198.50072604 276.58075184 -200.14398003 276.58013153 C-200.95241216 276.57982298 -201.76084429 276.57951443 -202.59377437 276.57919653 C-208.28134827 276.57747216 -213.96890894 276.58037908 -219.65648079 276.58509064 C-226.5901834 276.59070846 -233.52384075 276.589164 -240.45753819 276.57852915 C-243.99283817 276.57328483 -247.52806276 276.57119451 -251.06336212 276.57782745 C-254.9001583 276.58491704 -258.7368319 276.57643293 -262.57362366 276.56646729 C-263.68452569 276.57092873 -264.79542771 276.57539017 -265.93999344 276.57998681 C-282.29426319 276.49764487 -282.29426319 276.49764487 -287.6875 271.5 C-288.50541016 270.77876953 -288.50541016 270.77876953 -289.33984375 270.04296875 C-293.21767195 265.28430423 -293.03705948 260.24255747 -293.01069641 254.40628052 C-293.01452196 253.50856583 -293.01834751 252.61085115 -293.02228898 251.68593299 C-293.03260881 248.67744396 -293.02862873 245.66914615 -293.0246582 242.66064453 C-293.02900525 240.50380273 -293.03418838 238.34696247 -293.04014587 236.19012451 C-293.05354827 230.33061595 -293.05411312 224.47117185 -293.05158257 218.61165094 C-293.05051365 213.72092858 -293.05539426 208.8302193 -293.060188 203.93949974 C-293.0712876 192.40155109 -293.07171811 180.863635 -293.06567383 169.32568359 C-293.05963349 157.42131617 -293.07194561 145.51706692 -293.0932439 133.61271966 C-293.11085532 123.39347807 -293.11686195 113.17427412 -293.11360615 102.95501792 C-293.11179233 96.85094165 -293.11443938 90.74694966 -293.12832069 84.64288712 C-293.14088677 78.9022305 -293.13896636 73.16175818 -293.12590981 67.42110443 C-293.12354178 65.31481489 -293.12628678 63.20851243 -293.13453293 61.1022377 C-293.14498283 58.2255065 -293.1369136 55.34939568 -293.1242218 52.47268677 C-293.13159609 51.64047863 -293.13897037 50.80827049 -293.14656812 49.95084393 C-293.08565169 43.38121713 -291.8501714 38.6280736 -287.3125 33.625 C-276.14787686 25.45269814 -260.25316121 25.76967225 -247.078125 24.48754883 C-244.57356987 24.23360684 -242.0691374 23.9784526 -239.56481934 23.72218323 C-233.49141563 23.10380489 -227.41686695 22.49805166 -221.34162807 21.89800838 C-214.25414021 21.19731054 -207.16825042 20.48105076 -200.08240557 19.76395937 C-187.43231814 18.48419461 -174.78101799 17.21685755 -162.12890625 15.95727539 C-149.87559408 14.73737137 -137.62294376 13.51111702 -125.37109375 12.27661133 C-124.6163604 12.20056574 -123.86162705 12.12452015 -123.084023 12.04617015 C-120.04950593 11.7403926 -117.01499317 11.43457238 -113.98048615 11.12869512 C-90.69687365 8.78179347 -67.41262185 6.44116619 -44.12654114 4.11887169 C-41.69335215 3.87611927 -39.26019478 3.63304975 -36.82707214 3.38963318 C-33.49516259 3.0564144 -30.16312818 2.72447341 -26.83105469 2.39289856 C-25.87811146 2.29737522 -24.92516823 2.20185189 -23.94334793 2.10343391 C-15.96927539 1.31244994 -7.98523661 0.66543638 0 0 Z " transform="translate(369.75,113.6875)" style="fill: #424242;"/><path d="M0 0 C1.03980515 -0.00744736 1.03980515 -0.00744736 2.10061646 -0.01504517 C4.3875631 -0.02961714 6.6744404 -0.0364601 8.96142578 -0.04199219 C10.55559286 -0.04774728 12.14975994 -0.05350496 13.743927 -0.05926514 C17.08449627 -0.06976068 20.42504157 -0.07561295 23.765625 -0.07910156 C28.03832146 -0.08458641 32.31069928 -0.10862016 36.58329582 -0.13707352 C39.87591468 -0.15572985 43.16845718 -0.16090706 46.46112442 -0.16243744 C48.0359382 -0.16545722 49.61075085 -0.17346293 51.18551254 -0.18662262 C53.39214863 -0.20374806 55.59801125 -0.20178762 57.8046875 -0.1953125 C59.05837128 -0.19895813 60.31205505 -0.20260376 61.60372925 -0.20635986 C66.22761754 0.28933459 69.64735959 1.68127973 72.84423828 5.09863281 C74.94218819 8.74244056 75.16113271 12.12306614 75.19287109 16.27758789 C75.20247864 17.29577103 75.21208618 18.31395416 75.22198486 19.36299133 C75.22623474 20.45782333 75.23048462 21.55265533 75.23486328 22.68066406 C75.24056335 23.81259689 75.24626343 24.94452972 75.25213623 26.11076355 C75.2615796 28.50555488 75.26811758 30.90035917 75.27197266 33.29516602 C75.28167365 36.94928788 75.31270226 40.60284614 75.34423828 44.25683594 C75.35076911 46.58560865 75.35601927 48.91438537 75.35986328 51.24316406 C75.37221008 52.33192337 75.38455688 53.42068268 75.39727783 54.54243469 C75.37627135 61.7354996 74.94901469 67.16501109 69.71923828 72.53613281 C64.9184328 75.43894543 59.79387424 75.28547028 54.29882812 75.26220703 C53.65398468 75.26063095 53.00914124 75.25905487 52.34475708 75.25743103 C50.22730556 75.24998586 48.11006135 75.23397239 45.99267578 75.21582031 C45.26294178 75.21011143 44.53320778 75.20440254 43.78136063 75.19852066 C39.91599784 75.16706394 36.05078362 75.12819954 32.18554688 75.08398438 C28.22521438 75.04036749 24.26527842 75.02442925 20.304739 75.01475334 C17.23124431 75.00178552 14.15825639 74.9669805 11.08501053 74.92663956 C9.62688075 74.91130471 8.16863979 74.90404097 6.71043015 74.90554428 C-6.63126193 74.9067288 -17.06988709 72.05045569 -26.83935547 62.62597656 C-33.48908036 54.92693728 -36.50274941 45.28285466 -36.28076172 35.19628906 C-35.04546126 23.19843339 -30.10254658 14.02179256 -20.83154297 6.47753906 C-14.11779008 1.73427969 -8.17645478 0.04458844 0 0 Z " transform="translate(350.96826171875,219.8388671875)" style="fill: #424242;"/><path d="M0 0 C2.91346881 0.51784246 4.11852193 0.83808169 6.375 2.8125 C8.35419623 7.26569153 8.49052368 11.54984522 8.4375 16.375 C8.42847656 17.44363281 8.41945313 18.51226562 8.41015625 19.61328125 C8.39855469 20.42152344 8.38695312 21.22976562 8.375 22.0625 C9.01937012 22.04155273 9.66374023 22.02060547 10.32763672 21.99902344 C13.30159332 21.91489002 16.27529842 21.86353655 19.25 21.8125 C20.26320313 21.77898437 21.27640625 21.74546875 22.3203125 21.7109375 C31.71032599 21.59055271 39.84078096 23.7698409 46.83984375 30.2890625 C52.64009872 36.9896115 54.74075961 44.17134621 54.66796875 52.90625 C54.22609252 56.15845907 52.71720523 57.85807155 50.375 60.0625 C47.56584526 61.46707737 45.48689466 61.31145157 42.375 61.0625 C39.30793729 59.41591057 38.47412137 58.32148378 37.21484375 55.03125 C36.91707031 53.8865625 36.61929688 52.741875 36.3125 51.5625 C34.99156184 46.10724694 34.99156184 46.10724694 31.375 42.0625 C28.69815646 40.72407823 26.62514579 40.92060032 23.62768555 40.90136719 C21.82022102 40.88695587 21.82022102 40.88695587 19.97624207 40.87225342 C18.66794937 40.86800354 17.35965668 40.86375366 16.01171875 40.859375 C14.65892027 40.85362255 13.3061218 40.84786482 11.95332336 40.84210205 C9.11446757 40.83159149 6.27564009 40.82574952 3.43676758 40.82226562 C-0.19489637 40.81678739 -3.82618415 40.79277449 -7.45773029 40.76429367 C-10.25362731 40.74563546 -13.04943441 40.74045997 -15.84538841 40.73892975 C-17.83343726 40.73444236 -19.82143791 40.71580903 -21.80940247 40.69696045 C-23.63105171 40.7014621 -23.63105171 40.7014621 -25.48950195 40.70605469 C-26.55602493 40.70240906 -27.62254791 40.69876343 -28.72138977 40.69500732 C-32.08031045 41.12012594 -33.92012076 42.05305907 -36.625 44.0625 C-39.03633616 47.67950424 -38.90758544 50.30637907 -38.88378906 54.48388672 C-38.8872937 55.23707184 -38.89079834 55.99025696 -38.89440918 56.76626587 C-38.90321776 59.25833328 -38.89737931 61.75011715 -38.890625 64.2421875 C-38.89197219 65.97470148 -38.89391317 67.7072151 -38.89642334 69.43972778 C-38.89937365 73.07297358 -38.895081 76.70612109 -38.88574219 80.33935547 C-38.8743647 84.99213961 -38.88089687 89.64469258 -38.89288712 94.29746819 C-38.90012274 97.87657403 -38.89780967 101.45562531 -38.89263153 105.03473282 C-38.89129886 106.74991 -38.89292934 108.46509216 -38.89759064 110.18026352 C-38.90268195 112.5810833 -38.89490843 114.98153199 -38.88378906 117.38232422 C-38.88783752 118.08899231 -38.89188599 118.7956604 -38.89605713 119.52374268 C-38.86241769 123.45361015 -38.52086472 126.58539933 -36.625 130.0625 C-34.13465614 131.35910434 -34.13465614 131.35910434 -31.625 132.0625 C-31.295 132.3925 -30.965 132.7225 -30.625 133.0625 C-28.85249627 133.18764686 -27.07503526 133.24322923 -25.29833984 133.27124023 C-24.1598056 133.29053085 -23.02127136 133.30982147 -21.84823608 133.32969666 C-16.6168074 133.38725879 -11.38546419 133.43706384 -6.15380859 133.4675293 C-3.39486776 133.48529281 -0.63695877 133.52002179 2.12158203 133.57006836 C6.09403087 133.64205576 10.06599061 133.66453061 14.0390625 133.68359375 C15.88318222 133.72533974 15.88318222 133.72533974 17.76455688 133.76792908 C24.25018842 133.75238243 28.41262884 133.43650485 33.11727905 128.74378967 C35.47417281 125.59315348 36.55131748 122.97501738 36.75 119.0625 C37.07250918 116.27435611 37.39110406 115.0356599 38.875 112.5625 C42.66029407 110.29132356 46.0786752 110.32936568 50.375 111.0625 C52.9375 112.375 52.9375 112.375 54.375 115.0625 C55.52935664 123.30406951 54.29312898 130.79409642 49.59375 137.66796875 C44.2403671 144.23362132 38.75606253 148.38971884 30.375 150.0625 C23.04800197 150.58823374 15.7075152 150.38058161 8.375 150.0625 C8.38370117 150.80435547 8.39240234 151.54621094 8.40136719 152.31054688 C8.40813477 153.29087891 8.41490234 154.27121094 8.421875 155.28125 C8.43057617 156.24998047 8.43927734 157.21871094 8.44824219 158.21679688 C8.32622056 162.95774381 7.83365063 167.26723769 4.75 171.0625 C1.35072974 172.49377169 -2.01532228 172.95786928 -5.625 172.0625 C-7.859375 170.61328125 -7.859375 170.61328125 -9.625 168.0625 C-10.10845082 164.9632349 -10.00203023 161.93939805 -9.875 158.8125 C-9.85695312 157.97203125 -9.83890625 157.1315625 -9.8203125 156.265625 C-9.77330798 154.19742605 -9.70156724 152.12981559 -9.625 150.0625 C-10.72787354 150.10177612 -10.72787354 150.10177612 -11.85302734 150.1418457 C-15.23512778 150.24678912 -18.61688434 150.3111332 -22 150.375 C-23.73443359 150.4378418 -23.73443359 150.4378418 -25.50390625 150.50195312 C-35.31812893 150.64057209 -42.19628611 148.36533179 -49.5 141.75 C-55.87385585 134.86503307 -57.76724638 127.67883801 -57.80200195 118.49926758 C-57.81185875 117.36427826 -57.81185875 117.36427826 -57.82191467 116.20635986 C-57.84159559 113.70658254 -57.85329985 111.20686522 -57.86328125 108.70703125 C-57.86735678 107.85036047 -57.8714323 106.99368969 -57.87563133 106.11105919 C-57.89647186 101.57493712 -57.91078118 97.0388451 -57.92016602 92.50268555 C-57.9312144 87.83337342 -57.96560179 83.16453992 -58.00533772 78.49539661 C-58.0315697 74.89126237 -58.03986376 71.28724094 -58.04344749 67.68301964 C-58.04829799 65.96274274 -58.05986786 64.24247036 -58.07848549 62.52228737 C-58.25258474 45.36741327 -58.25258474 45.36741327 -53.625 38.0625 C-52.93857422 36.86560547 -52.93857422 36.86560547 -52.23828125 35.64453125 C-47.27230511 28.88901416 -40.84439547 24.06632553 -32.625 22.0625 C-28.66259396 21.82963335 -24.7174068 21.8739824 -20.75 21.9375 C-19.68007812 21.94652344 -18.61015625 21.95554688 -17.5078125 21.96484375 C-14.87997561 21.98830658 -12.25260594 22.02113541 -9.625 22.0625 C-9.68300781 20.89332031 -9.74101562 19.72414062 -9.80078125 18.51953125 C-9.84769449 16.9713942 -9.89319298 15.42321383 -9.9375 13.875 C-9.97939453 13.10607422 -10.02128906 12.33714844 -10.06445312 11.54492188 C-10.15571054 7.29232643 -9.98821913 5.55866624 -7.39453125 2.015625 C-4.4494229 -0.06132024 -3.4865411 -0.53316522 0 0 Z " transform="translate(197.625,177.9375)" style="fill: #FDFDFD;"/><path d="M0 0 C2.00565944 2.69194396 1.68416702 4.74367945 1.57741451 8.05300713 C1.53680904 9.68302666 1.53680904 9.68302666 1.49538326 11.34597588 C1.46057858 12.17742119 1.42577389 13.0088665 1.38991451 13.86550713 C-17.01089037 14.64849046 -35.41090712 15.15866438 -53.82387185 15.53975677 C-57.49055834 15.61622293 -61.1571834 15.69553379 -64.82381535 15.77456474 C-73.32475887 15.95735826 -81.82576999 16.13687402 -90.32679081 16.3160305 C-101.11959664 16.54366832 -111.91236479 16.7730498 -122.70507902 17.0049901 C-127.00570268 17.09731035 -131.30635408 17.18814163 -135.60703534 17.27773619 C-147.22127577 17.52059322 -158.83473524 17.77059769 -170.44599247 18.13064384 C-171.18225351 18.15345909 -171.91851455 18.17627433 -172.67708653 18.19978094 C-176.19808615 18.30977657 -179.7189469 18.42298348 -183.23968697 18.54099083 C-195.36436499 18.93297907 -207.48040487 18.97418104 -219.61008549 18.86550713 C-219.61008549 18.53550713 -219.61008549 18.20550713 -219.61008549 17.86550713 C-187.40995001 14.71874929 -155.19957944 11.72011922 -122.97173405 8.87159538 C-108.9831256 7.63479361 -94.99594772 6.38207026 -81.00879765 5.12890434 C-77.50580992 4.81508159 -74.00278847 4.50163756 -70.49975014 4.18838024 C-68.49394006 4.00896854 -66.48814586 3.82938017 -64.48235416 3.64976311 C-61.85584228 3.4147172 -59.2292863 3.18016357 -56.60268497 2.94611931 C-50.36648805 2.38890046 -44.13138043 1.82352388 -37.89816093 1.23402786 C-34.89956296 0.95060955 -31.90066971 0.67038065 -28.90177059 0.39016914 C-27.47814306 0.25614226 -26.05466976 0.12046465 -24.63137341 -0.01703453 C-2.99046206 -2.10712905 -2.99046206 -2.10712905 0 0 Z " transform="translate(374.6100854873657,127.13449287414551)" style="fill: #F6F6F6;"/><path d="M0 0 C3.90456775 2.05197497 6.37350018 4.15104278 7.8984375 8.27734375 C8.66193901 13.88907987 8.5235777 19.00564493 5.28515625 23.80078125 C2.02967323 27.26718289 -1.67132219 29.07585174 -6.41015625 29.46875 C-11.99200355 29.15812443 -15.26261759 27.48190246 -19.1015625 23.27734375 C-21.93564662 18.52339619 -22.57915138 14.79030623 -21.74609375 9.42578125 C-20.49525112 5.2563058 -17.97403566 2.41728034 -14.234375 0.140625 C-9.76176385 -1.66971761 -4.54487096 -1.56282737 0 0 Z " transform="translate(370.1015625,242.72265625)" style="fill: #FBFBFB;"/></svg>