<svg xmlns="http://www.w3.org/2000/svg" style="display:block" viewBox="0 0 504 506"><path d="M0 0c9.657-.232 19.314-.41 28.974-.518 4.486-.052 8.97-.123 13.454-.236 4.332-.11 8.662-.169 12.994-.195 1.65-.018 3.3-.054 4.948-.108 12.945-.408 12.945-.408 17.095 3.2 1.841 2.652 1.841 2.652 3.196 5.289C85.463 16.64 96.559 21.853 106 25c1.964.1 3.93.142 5.897.151l3.73.026 4.1.012 4.312.026c3.095.018 6.19.033 9.286.045 4.89.02 9.78.048 14.67.077 11.26.065 22.521.12 33.781.176 10.325.05 20.649.104 30.973.165 4.866.028 9.732.052 14.598.071 3.02.014 6.04.031 9.06.05 1.406.008 2.812.014 4.217.018 1.911.006 3.822.019 5.733.032l3.248.015C252 26 252 26 253 27c.098 2.567.13 5.107.12 7.675l.003 2.465c.002 2.747-.004 5.494-.01 8.241l.001 5.882c0 5.34-.006 10.682-.013 16.022-.006 5.575-.006 11.15-.008 16.725-.003 10.564-.011 21.129-.021 31.693a70694.7 70694.7 0 0 0-.022 36.072c-.01 24.742-.028 49.483-.05 74.225-3.164 1.854-5.471 2.25-9.12 2.252l-3.151.015-3.458-.013-3.677.01c-3.37.006-6.74.004-10.109-.003-3.633-.004-7.267.003-10.9.008-7.118.01-14.236.007-21.355.002-5.784-.005-11.568-.006-17.352-.003h-2.492l-5.013.003c-15.676.005-31.353-.001-47.029-.012-13.456-.009-26.913-.007-40.37.002a43454.755 43454.755 0 0 1-51.852.007l-2.483-.001c-5.778-.002-11.557 0-17.335.006-7.04.005-14.08.004-21.12-.007-3.594-.005-7.187-.007-10.78 0-3.892.006-7.783-.002-11.675-.012l-3.458.013-3.152-.015-2.722-.001c-2.617-.274-4.216-.785-6.397-2.251-1.203-3.61-1.142-6.903-1.134-10.66l-.007-2.388c-.006-2.649-.005-5.297-.004-7.946l-.01-5.686a9707.9 9707.9 0 0 1-.012-15.465c-.001-4.3-.005-8.599-.008-12.898-.009-10.14-.011-20.281-.01-30.422 0-10.47-.01-20.941-.026-31.412-.013-8.982-.018-17.963-.018-26.945 0-5.368-.002-10.736-.013-16.104-.01-5.047-.01-10.094-.003-15.141.002-1.854 0-3.709-.007-5.563-.008-2.528-.003-5.055.005-7.582l-.016-2.234c.025-3.68.228-6.426 2.263-9.554l1.769-.028C-32.198 25.629-21.079 23.848-8 12c3.12-3.745 5.819-7.638 8-12Z" style="fill:#fefefe" transform="translate(127 194)"/><path d="M0 0c6.067 4.132 11.103 9.289 16.254 14.473l3.295 3.279c2.961 2.947 5.913 5.904 8.863 8.863 3.098 3.106 6.203 6.204 9.307 9.303 5.207 5.203 10.409 10.41 15.607 15.623 6 6.017 12.01 12.022 18.028 18.023a10568.54 10568.54 0 0 1 15.519 15.511c3.08 3.086 6.164 6.17 9.252 9.248 2.902 2.893 5.796 5.793 8.685 8.7a900.654 900.654 0 0 0 3.183 3.179c7.714 7.67 13.334 13.527 14.088 24.775-.066 2.644-.066 2.644-1.254 6.457l-.812 3.187a149.557 149.557 0 0 0 4 6c.432 2.274.432 2.274.636 4.696l.222 2.445.142 1.86 2.794-.032c3.461-.035 6.922-.06 10.383-.079 1.49-.01 2.981-.023 4.472-.04 23.11-.264 23.11-.264 31.35 7.15 3.743 4.95 5.69 9.777 6 16l.162 2.717c.295 8.821-1.438 16.007-4.235 24.326-.438 1.347-.874 2.695-1.308 4.043-.93 2.875-1.87 5.746-2.821 8.614-1.51 4.558-2.996 9.124-4.476 13.692a7257.81 7257.81 0 0 1-5.429 16.667 3791.608 3791.608 0 0 0-10.337 32.124c-1.36 4.28-2.719 8.56-4.077 12.842a42693.357 42693.357 0 0 1-6.465 20.37 3251.697 3251.697 0 0 1-6.878 21.45 3425.717 3425.717 0 0 0-3.184 9.863 934.982 934.982 0 0 1-2.022 6.156c-2.115 6.596-3.437 12.645-3.701 19.58-.53 5.944-3.368 10.04-7.728 13.931-8.11 6.599-17.25 5.772-27.24 5.759l-3.897.007c-3.558.006-7.117.006-10.675.005-3.842 0-7.684.005-11.526.01-7.522.008-15.045.01-22.567.011-6.116 0-12.231.003-18.346.006a94460.566 94460.566 0 0 1-54.865.013h-2.836c-15.167 0-30.334.009-45.502.023-15.58.014-31.159.021-46.739.02-8.744 0-17.489.003-26.233.013-7.444.01-14.889.012-22.333.005-3.796-.003-7.593-.003-11.39.005-4.119.01-8.238.003-12.357-.004l-3.62.015c-9.034-.037-17.139-.343-24.374-6.263-6.303-6.589-7.3-12.319-7.261-21.057l-.012-2.734c-.01-3.016-.006-6.033-.002-9.05l-.015-6.496c-.014-5.878-.014-11.756-.012-17.634.001-4.908-.004-9.816-.008-14.724-.012-11.58-.012-23.16-.006-34.74.006-11.943-.006-23.886-.028-35.83-.017-10.256-.023-20.513-.02-30.77.002-6.124 0-12.25-.015-18.374-.012-5.76-.01-11.52.003-17.28.002-2.113 0-4.226-.009-6.338-.01-2.887-.002-5.774.01-8.661l-.022-2.523c.061-6.605 1.607-11.71 4.96-17.476 7.654-7.263 15.09-7.78 25.216-7.656 3.792.105 7.41.371 11.17.925 3.028.654 3.028.654 5.676-.52 3.883-3.372 6.049-7.713 8.554-12.152 3.367-5.731 7.342-10.75 13.82-12.91 2.155.094 4.307.241 6.455.417 13.061.674 24.394 1.068 35.014-7.582 4.505-4.188 8.75-8.55 12.898-13.09 2.522-2.724 5.136-5.355 7.74-7.999 4.9-5 9.715-10.072 14.503-15.179 5.435-5.789 10.956-11.492 16.488-17.19 6.759-6.96 13.507-13.93 20.18-20.973l1.427-1.504c2.193-2.311 4.382-4.626 6.564-6.948 4.162-4.396 8.4-8.565 13.013-12.49 1.105-.94 2.193-1.901 3.257-2.888C-19.527-3.977-9.27-5.946 0 0Zm-156.92 139.014a88.434 88.434 0 0 0-2.065 4.607c-3.075 4.378-6.404 6.901-10.875 9.688l-1.817 1.181c-7.266 4.61-13.694 5.48-22.183 5.756l-2.953.118c-2.39.093-4.781.179-7.172.257-2.437 3.748-2.28 7.467-2.254 11.781l-.01 2.39c-.008 2.646-.001 5.291.005 7.937a5146.51 5146.51 0 0 0-.01 21.139c.005 5.385 0 10.771-.003 16.157-.003 9.046.001 18.091.011 27.137.01 10.463.007 20.926-.004 31.39-.009 8.977-.01 17.955-.005 26.932.003 5.365.004 10.73-.003 16.094-.006 5.043-.002 10.086.01 15.129.003 1.852.002 3.705-.003 5.558-.005 2.525.002 5.05.012 7.575l-.014 2.232c.028 3.628.054 6.57 2.268 9.55 2.97.99 4.899 1.126 7.996 1.128l3.146.01 3.467-.005 3.674.007c3.372.005 6.744.006 10.116.005 3.634 0 7.268.005 10.902.01 7.121.008 14.243.01 21.365.011 5.787 0 11.574.003 17.36.006 16.398.009 32.795.013 49.192.013H-71.403c14.356 0 28.712.009 43.068.023 14.73.014 29.462.021 44.193.02 8.274 0 16.548.003 24.822.013 7.044.01 14.088.012 21.132.005 3.595-.003 7.19-.003 10.786.005 3.893.01 7.787.003 11.68-.004l3.461.015 3.154-.014h2.724c2.557-.265 4.195-.958 6.398-2.249.023-25.929.04-51.858.052-77.787.005-12.038.012-24.077.023-36.115.01-10.489.017-20.977.019-31.466.001-5.557.004-11.115.011-16.672.007-5.224.01-10.448.008-15.673 0-1.923.002-3.846.006-5.77.005-2.614.004-5.228.001-7.842l.009-2.337c.304-3.459.304-3.459-1.13-6.338a106.156 106.156 0 0 0-5.582-.124l-3.674-.008-4.069.006-4.257-.005c-3.065-.005-6.13-.007-9.195-.007-4.855 0-9.71-.014-14.565-.03l-2.483-.007-5.028-.016c-11.306-.035-22.612-.062-33.918-.06-7.62.002-15.24-.014-22.861-.05-4.03-.018-8.06-.028-12.09-.015-3.802.011-7.602 0-11.404-.03a324.904 324.904 0 0 0-4.16.006c-13.36.099-23.867-3.494-33.713-12.66-6.316-6.464-6.316-6.464-8.149-10.58-1.682-2.744-1.682-2.744-5.019-3.082l-3.962-.048-2.19-.046c-2.39-.043-4.778-.047-7.169-.048a1123.701 1123.701 0 0 0-15.452-.067c-4.463.006-8.923-.052-13.386-.127a669.778 669.778 0 0 0-10.307-.05c-1.645-.004-3.29-.023-4.934-.056-10.54-.577-10.54-.577-18.366 5.497Z" style="fill:#5e5e5f" transform="translate(279.985 59.379)"/><path d="M0 0c2.747 1.054 4.153 2.162 6.201 4.26l2.043 2.068 2.09 2.178 2.066 2.096c3.196 3.265 6.291 6.579 9.254 10.056 5.26 6.083 11.089 11.636 16.805 17.285 12.784 12.634 12.784 12.634 16.469 16.97 5.282 6.205 11.24 11.805 17.031 17.53 14.167 14.008 14.167 14.008 19.205 20.011 1.408 1.682 1.408 1.682 3.732 3.677 1.563 1.812 1.563 1.812 2.063 4.312-.694 3.469-1.64 4.39-4.5 6.5-3.231.756-6.379.832-9.688.875l-2.607.2c-3.926.065-6.69-.15-9.67-2.864l-1.96-2.378c-3.76-4.374-7.65-8.53-11.725-12.612l-1.832-1.838c-1.937-1.941-3.878-3.879-5.819-5.816A11156.734 11156.734 0 0 0 36.51 69.865c-3.649-3.644-7.294-7.292-10.937-10.942-2.815-2.818-5.632-5.634-8.45-8.45-1.345-1.344-2.69-2.69-4.034-4.036-1.873-1.876-3.75-3.749-5.627-5.62l-1.67-1.677c-5.12-5.41-5.12-5.41-11.896-7.572-3.298.138-3.298.138-5.375 1.438-1.26 2.3-1.85 4.245-1.718 6.882C-10.46 48.462.992 56.598 7.41 62.971c1.78 1.767 3.557 3.537 5.333 5.308 3.756 3.745 7.517 7.486 11.277 11.227 4.393 4.369 8.784 8.74 13.17 13.114 1.754 1.747 3.51 3.49 5.266 5.233l3.188 3.178 2.824 2.81c1.99 2.102 1.99 2.102 1.99 3.102-4.25.225-8.496.387-12.75.495-1.443.045-2.885.106-4.326.184-11.87.63-11.87.63-16.69-2.44-2.323-2.296-4.25-4.644-6.234-7.239-6.564-7.765-13.635-15.03-20.76-22.275a579.199 579.199 0 0 1-4.35-4.492c-2.099-2.19-4.223-4.354-6.355-6.514l-1.93-2.045c-3.199-3.186-5.311-5.08-9.951-5.164-3.498.24-3.498.24-5.654 1.615-1.604 3.008-1.64 4.484-1 7.875 4.544 6.258 10.503 11.596 16 17 7.452 7.327 14.352 14.942 21 23-4.41.274-8.816.473-13.232.605-1.499.055-2.996.13-4.493.225-12.446.776-12.446.776-16.942-3.171-2.01-2.8-3.644-5.659-5.333-8.659-8.02-9.03-16.803-11.882-28.62-12.621-3.793-.186-7.583-.3-11.38-.379 5.009-6.009 10.41-11.476 15.99-16.95 3.202-3.166 6.311-6.344 9.233-9.772 5.598-6.5 11.853-12.408 17.952-18.432 5.542-5.48 11.04-10.939 16.103-16.87 3.627-4.16 7.49-8.094 11.347-12.038l2.523-2.662 2.454-2.498 2.197-2.274C-2.54-.057-2.54-.057 0 0Z" style="fill:#fdfdfd" transform="translate(269.541 87.057)"/><path d="m0 0 2 2C1.69 9.168-.586 15.808-2.688 22.625c-2.647 8.74-5.206 17.489-7.562 26.313-1.7 6.34-3.51 12.581-5.68 18.78-1.847 5.664-3.396 11.417-4.965 17.163l-.738 2.654c-.215.788-.43 1.576-.653 2.387C-23 92-23 92-25 95c-.133-20.36.038-40.706.438-61.063l.059-3.234c.058-3.08.121-6.159.187-9.238l.05-2.755C-24.129 12.767-23.674 6.906-23 1-6.133-.648-6.133-.648 0 0Z" style="fill:#f9f9f9" transform="translate(429 243)"/></svg>