<svg id="svg" version="1.1" xmlns="http://www.w3.org/2000/svg" style="display: block;" viewBox="0 0 504 506"><path d="M0 0 C166.32 0 332.64 0 504 0 C504 166.98 504 333.96 504 506 C337.68 506 171.36 506 0 506 C0 339.02 0 172.04 0 0 Z " transform="translate(0,0)" style="fill: #000000;" opacity="0"/><path d="M0 0 C1.31045792 -0.01002548 2.62091583 -0.02005096 3.97108459 -0.03038025 C6.74147623 -0.04665851 9.50980532 -0.03361554 12.2800293 -0.00024414 C15.82032829 0.0397196 19.35498214 0.00315214 22.8948431 -0.0560236 C26.28444529 -0.10133873 29.67262985 -0.07862681 33.0625 -0.0625 C34.32827377 -0.08385513 35.59404755 -0.10521027 36.8981781 -0.12721252 C45.51792005 0.05572319 45.51792005 0.05572319 48.63381958 3.06253052 C50.20532227 5.46313477 50.20532227 5.46313477 51.38868713 7.84620667 C54.83334358 14.26115162 62.95095832 17.88567068 69.59765625 20.09765625 C73.46951951 20.64184426 77.28318339 20.64237328 81.18847656 20.61181641 C82.31317352 20.6189415 83.43787048 20.62606659 84.59664917 20.63340759 C88.28987473 20.65260459 91.98252277 20.6444261 95.67578125 20.63671875 C98.25169712 20.64662917 100.8276059 20.65857173 103.40350342 20.67245483 C109.47820978 20.70147097 115.55273081 20.71439992 121.62749934 20.71803129 C133.1586289 20.72509534 144.68958975 20.76045647 156.22060394 20.81147385 C160.0057825 20.82406902 163.79079348 20.82330047 167.57598877 20.82119751 C169.89213186 20.82777662 172.20827378 20.83478263 174.52441406 20.84228516 C175.57698395 20.83816116 176.62955383 20.83403717 177.71401978 20.82978821 C178.68392853 20.83517105 179.65383728 20.84055389 180.65313721 20.84609985 C181.49226276 20.84643534 182.33138832 20.84677082 183.19594193 20.84711647 C185.94019556 21.13338894 188.09086256 21.97149572 190.59765625 23.09765625 C190.71436007 43.7768004 190.80258085 64.45589039 190.85671711 85.13529682 C190.88251955 94.73671273 190.9177089 104.33792425 190.97485352 113.93920898 C191.02462621 122.30585764 191.05693242 130.67235831 191.06809872 139.03915089 C191.07462794 143.47105834 191.09001529 147.90254237 191.12630653 152.33431435 C191.16016942 156.50320231 191.17072909 160.67149126 191.16319466 164.84050369 C191.16457358 166.37281865 191.17456431 167.90515303 191.19368362 169.43734932 C191.21847289 171.52585459 191.21261694 173.61208262 191.19892883 175.70063782 C191.20584228 177.45527076 191.20584228 177.45527076 191.21289539 179.24535084 C190.59765625 182.09765625 190.59765625 182.09765625 188.65552044 183.97366047 C184.4008263 185.53758155 180.57118096 185.5120619 176.07055664 185.47860718 C175.10609399 185.48328715 174.14163134 185.48796712 173.14794254 185.49278891 C169.91359298 185.50476259 166.67966527 185.49527222 163.4453125 185.48583984 C161.12759148 185.48990448 158.80987239 185.49524575 156.49215698 185.50177002 C150.19474931 185.51546217 143.89748887 185.51013705 137.60007858 185.50063276 C131.01471302 185.49304605 124.42936019 185.50007903 117.84399414 185.50479126 C106.07558483 185.51120169 94.30723755 185.50126912 82.53883898 185.48601325 C71.86928391 185.47261005 61.19982675 185.47493814 50.53027344 185.48876953 C38.13900596 185.50482534 25.74780093 185.51079946 13.35652447 185.50193274 C6.79756506 185.49725173 0.23867311 185.49664319 -6.32028198 185.50654221 C-12.48610027 185.5151976 -18.65173334 185.50921589 -24.81753159 185.49185944 C-27.08268806 185.48788698 -29.34786008 185.48904155 -31.61301041 185.49564743 C-34.70063329 185.50382284 -37.78765946 185.49358942 -40.87524414 185.47860718 C-41.77553313 185.48529934 -42.67582212 185.49199151 -43.6033926 185.49888647 C-51.96288953 185.41999374 -51.96288953 185.41999374 -55.40234375 182.09765625 C-56.01758289 179.24535084 -56.01758289 179.24535084 -56.00361633 175.70063782 C-56.00788846 175.04878972 -56.01216058 174.39694162 -56.01656216 173.72534055 C-56.02481166 171.53665799 -55.99727969 169.34988345 -55.9699707 167.16137695 C-55.96856063 165.59445237 -55.96935141 164.02752447 -55.97218323 162.46060181 C-55.97362041 158.20236259 -55.94418231 153.94482467 -55.90931344 149.68674874 C-55.87809998 145.23848268 -55.87512317 140.79020133 -55.8691864 136.34184265 C-55.85363316 127.91632853 -55.81258481 119.49113801 -55.76243895 111.06576651 C-55.70659141 101.47463132 -55.67907056 91.88348083 -55.65396178 82.29222357 C-55.60167015 62.56052038 -55.51369922 42.82910868 -55.40234375 23.09765625 C-51.51207868 20.94322041 -48.1391813 20.86101872 -43.77734375 20.78515625 C-34.20721796 20.3903223 -27.17164999 17.28229918 -19.9981842 10.86021423 C-18.28791969 8.97127831 -17.56097505 7.28510582 -16.54077148 4.96704102 C-12.7771499 -1.13591852 -6.50205051 -0.06696329 0 0 Z " transform="translate(163.40234375,204.90234375)" style="fill: #000000;" opacity="0"/><path d="M0 0 C1.1446875 0.07541016 1.1446875 0.07541016 2.3125 0.15234375 C10.1803984 2.81690818 16.30984797 10.07994622 22.03051758 15.81835938 C22.89493469 16.67766556 23.75935181 17.53697174 24.64996338 18.4223175 C26.99850388 20.75941208 29.34250039 23.10087267 31.68404603 25.44496346 C33.64560489 27.40759856 35.61014684 29.36723458 37.57462996 31.32694197 C42.20891322 35.95017123 46.8378993 40.57865706 51.46362305 45.21044922 C56.22651458 49.97939289 60.99854071 54.73905483 65.77507478 59.49433088 C69.88853124 63.59015613 73.99614079 67.69178149 78.09916419 71.79805803 C80.54440466 74.24510729 82.99179326 76.68990316 85.44489479 79.1290741 C88.17724944 81.84648706 90.89736618 84.57595069 93.61645508 87.30664062 C94.82974739 88.50846733 94.82974739 88.50846733 96.06755066 89.73457336 C100.88505896 94.59765826 104.82101183 98.5722306 105.1875 105.71875 C105.0625 108.28125 104.9375 110.84375 104.8125 113.40625 C105.01850214 117.42329181 106.14761714 119.55069083 108 123.0625 C108.09375 125.74023438 108.09375 125.74023438 108 128.0625 C108.61407715 128.05726318 109.2281543 128.05202637 109.86083984 128.04663086 C112.69888241 128.02557871 115.53690846 128.01275137 118.375 128 C119.34050781 127.99162109 120.30601562 127.98324219 121.30078125 127.97460938 C140.039497 127.91172778 140.039497 127.91172778 147 133.0625 C152.76718512 140.49913345 153.02639643 148.07735507 152.38757324 157.1383667 C151.04610656 167.25936309 147.10382259 177.01671757 143.80383301 186.63457108 C142.65202525 190.01182506 141.53182268 193.39950552 140.41015625 196.78686523 C139.01741285 200.98842281 137.6230772 205.18937955 136.21661377 209.3863678 C131.70813207 222.84787007 127.41444958 236.37374197 123.16351318 249.91842651 C122.02492204 253.54560651 120.88246876 257.17154692 119.73876953 260.79711914 C118.08902635 266.02809025 116.44671124 271.26134669 114.80743408 276.49560547 C114.10071405 278.74232234 113.38564563 280.98606714 112.66552734 283.22851562 C110.83874517 288.98234243 109.46154349 294.46045736 108.625 300.4375 C107.56701264 306.7248181 106.31419718 311.24104971 101 315.0625 C94.53650077 318.11107182 88.26354672 318.49215414 81.22155762 318.44345093 C80.17074493 318.4481309 79.11993224 318.45281087 78.03727674 318.45763266 C74.53448641 318.46954887 71.03208975 318.46013838 67.52929688 318.45068359 C65.0105822 318.45475078 62.49186931 318.46009348 59.97315979 318.46661377 C53.85318899 318.47885816 47.73336273 318.47708684 41.61339009 318.46837585 C36.63750944 318.46158784 31.66165971 318.4606874 26.68577576 318.4639473 C25.97632583 318.464407 25.26687591 318.46486669 24.5359275 318.46534032 C23.09448388 318.46629954 21.65304027 318.46727219 20.21159667 318.4682581 C6.70994261 318.47680319 -6.79165024 318.46699171 -20.29329425 318.450857 C-31.86662134 318.43745461 -43.43985814 318.43978295 -55.01318359 318.45361328 C-68.46805987 318.46968468 -81.92288256 318.4759793 -95.37776709 318.46677649 C-96.81376997 318.46582089 -98.24977286 318.46487778 -99.68577576 318.4639473 C-100.3922308 318.46348447 -101.09868584 318.46302164 -101.82654861 318.46254479 C-106.7937671 318.45995958 -111.76095147 318.46431577 -116.72816467 318.47138596 C-123.4193446 318.48070106 -130.11032815 318.4740249 -136.80150032 318.45670319 C-139.25526204 318.45274089 -141.70903813 318.45386797 -144.16279411 318.46049118 C-147.5159079 318.46870659 -150.86847831 318.45838443 -154.22155762 318.44345093 C-155.18917668 318.45014309 -156.15679574 318.45683526 -157.15373659 318.46373022 C-163.89564357 318.4056171 -170.60755086 317.64276058 -176.12109375 313.44921875 C-176.77271484 312.60810547 -176.77271484 312.60810547 -177.4375 311.75 C-177.88996094 311.19699219 -178.34242188 310.64398438 -178.80859375 310.07421875 C-181.74935761 305.10866665 -182.25158686 300.40183763 -182.26069641 294.71316528 C-182.26452196 293.99497805 -182.26834751 293.27679081 -182.27228898 292.53684032 C-182.2825682 290.14183498 -182.27863656 287.74707166 -182.2746582 285.35205078 C-182.27900751 283.63017557 -182.28419139 281.90830229 -182.29014587 280.18643188 C-182.30352408 275.51695561 -182.30411581 270.84756034 -182.30158257 266.17806864 C-182.30051199 262.27654968 -182.30539852 258.37504706 -182.310188 254.4735316 C-182.32127927 245.26700992 -182.32172283 236.06052904 -182.31567383 226.85400391 C-182.30963455 217.36435004 -182.32194477 207.87484445 -182.3432439 198.38521588 C-182.36087224 190.23046301 -182.36685928 182.07575728 -182.36360615 173.92098606 C-182.361795 169.05376012 -182.36441265 164.18663995 -182.37832069 159.3194313 C-182.39091433 154.7409612 -182.3889404 150.16272186 -182.37590981 145.58425522 C-182.37354776 143.90732494 -182.37626535 142.23037835 -182.38453293 140.5534668 C-182.46706193 122.50789129 -182.46706193 122.50789129 -177.421875 116.0390625 C-169.91559854 109.97090442 -162.43904838 109.44659851 -153 110.0625 C-152.34 110.3925 -151.68 110.7225 -151 111.0625 C-147.16551303 111.57376493 -145.56461348 111.48940288 -142.4375 109.125 C-139.9057778 105.94411826 -138.15010866 102.73254039 -136.26171875 99.15234375 C-134.2073774 95.74964213 -131.5002019 93.81260095 -128 92.0625 C-126.21689182 92.13799509 -124.43595074 92.26739191 -122.65800476 92.4225769 C-111.19234765 93.03958778 -101.69654086 92.97555929 -92.57645893 85.3643055 C-87.9788535 81.02730486 -83.673724 76.46885228 -79.39453125 71.8203125 C-77.49314928 69.84231427 -75.57100888 67.88500129 -73.64884949 65.92721558 C-69.15033649 61.32305026 -64.72013687 56.65905152 -60.31415242 51.96643817 C-53.840965 45.07786409 -47.27134825 38.28215582 -40.69673443 31.49052238 C-39.72202267 30.48342707 -38.7473207 29.47632228 -37.77262878 28.46920776 C-37.29639924 27.97743762 -36.8201697 27.48566747 -36.32950896 26.9789952 C-33.07028742 23.60814593 -29.84575632 20.20684513 -26.6308136 16.79373169 C-24.93989022 15.01754067 -23.24890925 13.24140448 -21.55786133 11.46533203 C-20.80617676 10.65482391 -20.05449219 9.8443158 -19.2800293 9.00924683 C-13.84505598 3.3400614 -8.31240479 -0.80034979 0 0 Z M-119.70166016 116.4909668 C-120.47794846 118.009653 -121.24543978 119.53290195 -122 121.0625 C-124.30859375 123.3671875 -124.30859375 123.3671875 -126.4375 124.9375 C-127.13746094 125.47117187 -127.83742188 126.00484375 -128.55859375 126.5546875 C-134.43783818 130.18570886 -139.42553488 131.49166548 -146.1875 131.625 C-150.58639132 131.73466765 -154.08399707 131.89545443 -158 134.0625 C-158.11670382 154.74164415 -158.2049246 175.42073414 -158.25906086 196.10014057 C-158.2848633 205.70155648 -158.32005265 215.302768 -158.37719727 224.90405273 C-158.42696996 233.27070139 -158.45927617 241.63720206 -158.47044247 250.00399464 C-158.47697169 254.43590209 -158.49235904 258.86738612 -158.52865028 263.2991581 C-158.56251317 267.46804606 -158.57307284 271.63633501 -158.56553841 275.80534744 C-158.56691733 277.3376624 -158.57690806 278.86999678 -158.59602737 280.40219307 C-158.62081664 282.49069834 -158.61496069 284.57692637 -158.60127258 286.66548157 C-158.60588155 287.83523686 -158.61049051 289.00499216 -158.61523914 290.21019459 C-158.25489125 293.1645505 -158.25489125 293.1645505 -156.05786419 294.93850422 C-151.80317005 296.5024253 -147.97352471 296.47690565 -143.47290039 296.44345093 C-142.02620641 296.45047089 -142.02620641 296.45047089 -140.55028629 296.45763266 C-137.31593673 296.46960634 -134.08200902 296.46011597 -130.84765625 296.45068359 C-128.52993523 296.45474823 -126.21221614 296.4600895 -123.89450073 296.46661377 C-117.59709306 296.48030592 -111.29983262 296.4749808 -105.00242233 296.46547651 C-98.41705677 296.4578898 -91.83170394 296.46492278 -85.24633789 296.46963501 C-73.47792858 296.47604544 -61.7095813 296.46611287 -49.94118273 296.450857 C-39.27162766 296.4374538 -28.6021705 296.43978189 -17.93261719 296.45361328 C-5.54134971 296.46966909 6.84985532 296.47564321 19.24113178 296.46677649 C25.80009119 296.46209548 32.35898314 296.46148694 38.91793823 296.47138596 C45.08375652 296.48004135 51.24938959 296.47405964 57.41518784 296.45670319 C59.68034431 296.45273073 61.94551633 296.4538853 64.21066666 296.46049118 C67.29828954 296.46866659 70.38531571 296.45843317 73.47290039 296.44345093 C74.82333388 296.45348918 74.82333388 296.45348918 76.20104885 296.46373022 C82.65987667 296.427934 82.65987667 296.427934 88 293.0625 C88.74172317 290.11899995 88.74172317 290.11899995 88.60127258 286.66548157 C88.60554471 286.01363347 88.60981683 285.36178537 88.61421841 284.6901843 C88.62246791 282.50150174 88.59493594 280.3147272 88.56762695 278.1262207 C88.56621688 276.55929612 88.56700766 274.99236822 88.56983948 273.42544556 C88.57127666 269.16720634 88.54183856 264.90966842 88.50696969 260.65159249 C88.47575623 256.20332643 88.47277942 251.75504508 88.46684265 247.3066864 C88.45128941 238.88117228 88.41024106 230.45598176 88.3600952 222.03061026 C88.30424766 212.43947507 88.27672681 202.84832458 88.25161803 193.25706732 C88.1993264 173.52536413 88.11135547 153.79395243 88 134.0625 C84.54492256 132.5098969 81.85763202 131.8141587 78.07566833 131.82440186 C77.11009506 131.82190933 76.14452179 131.81941681 75.14968872 131.81684875 C74.10183197 131.82411484 73.05397522 131.83138092 71.97436523 131.83886719 C70.86149643 131.83845932 69.74862762 131.83805145 68.60203552 131.83763123 C66.1864892 131.83743378 63.77093966 131.84147017 61.35540581 131.84923553 C57.52483738 131.85946515 53.69459418 131.85407363 49.86402893 131.84381104 C38.97301654 131.81585014 28.08218176 131.80280307 17.19116211 131.83251953 C10.52619343 131.85052424 3.86189513 131.83686051 -2.8030529 131.80606842 C-5.33581234 131.79998227 -7.86862339 131.80478526 -10.40133858 131.82094574 C-35.74234171 131.97582215 -35.74234171 131.97582215 -45 125.0625 C-45.91278465 124.45991364 -45.91278465 124.45991364 -46.8440094 123.84515381 C-49.08804096 122.21488898 -50.7407913 120.64688306 -51.87281799 118.09474182 C-52.98902372 115.59398115 -54.00961394 113.95963446 -56 112.0625 C-60.44177271 110.81280215 -64.81185445 110.91756724 -69.40234375 110.96484375 C-71.36803062 110.94980553 -71.36803062 110.94980553 -73.37342834 110.9344635 C-76.14381998 110.91818524 -78.91214907 110.93122821 -81.68237305 110.96459961 C-85.22267204 111.00456335 -88.75732589 110.96799589 -92.29718685 110.90882015 C-95.68678904 110.86350502 -99.0749736 110.88621694 -102.46484375 110.90234375 C-103.73061752 110.88098862 -104.9963913 110.85963348 -106.30052185 110.83763123 C-112.53313842 110.96990528 -116.09936207 111.06691515 -119.70166016 116.4909668 Z " transform="translate(266,93.9375)" style="fill: #909090;"/><path d="M0 0 C2.51823168 1.23657961 4.11513032 2.73973312 6.0871582 4.73852539 C7.23861328 5.89771484 7.23861328 5.89771484 8.41333008 7.08032227 C9.20674805 7.89436523 10.00016602 8.7084082 10.81762695 9.54711914 C11.99035156 10.72757813 11.99035156 10.72757813 13.18676758 11.93188477 C16.65047493 15.44189063 20.03969802 18.97451484 23.2355957 22.73071289 C28.62851816 28.98675221 34.63573835 34.68133789 40.50512695 40.48461914 C54.05016927 53.87710266 54.05016927 53.87710266 59.38598633 60.16479492 C61.23987041 62.24845776 63.20649659 64.16453 65.22387695 66.09008789 C65.92770508 66.76362305 66.6315332 67.4371582 67.35668945 68.13110352 C68.81128921 69.51297329 70.27516029 70.88513781 71.74731445 72.24829102 C72.44083008 72.91795898 73.1343457 73.58762695 73.84887695 74.27758789 C74.47987305 74.87079834 75.11086914 75.46400879 75.76098633 76.07519531 C77.00512695 77.98461914 77.00512695 77.98461914 76.76489258 80.65380859 C76.00512695 82.98461914 76.00512695 82.98461914 75.00512695 83.98461914 C72.46061406 84.24836135 69.99399171 84.40224324 67.44262695 84.48461914 C66.75104492 84.53875977 66.05946289 84.59290039 65.34692383 84.64868164 C59.74929399 84.79475213 57.39212835 82.93401257 53.37495422 79.26031494 C49.07561354 75.13174757 44.88508245 70.9006812 40.71249008 66.64488602 C38.44336428 64.3331577 36.16443163 62.03119656 33.88614082 59.72850609 C29.66093753 55.45779627 25.43992499 51.18312523 21.23510742 46.89233398 C18.29301801 43.89084609 15.33885275 40.90172355 12.37634659 37.92039108 C11.25467712 36.78699964 10.13755093 35.64909263 9.02517319 34.50658035 C7.47243271 32.91279738 5.90475178 31.33526741 4.33276367 29.76049805 C3.44644257 28.86005768 2.56012146 27.95961731 1.64694214 27.03189087 C-1.35369566 24.70654996 -3.23259135 24.16515418 -6.99487305 23.98461914 C-9.47592499 24.88697749 -9.47592499 24.88697749 -10.99487305 26.98461914 C-11.38371753 30.43679943 -11.41243791 32.32828714 -9.52612305 35.29321289 C-8.85581055 35.99575195 -8.18549805 36.69829102 -7.49487305 37.42211914 C-6.84518555 38.12208008 -6.19549805 38.82204102 -5.52612305 39.54321289 C-3.5114123 41.48641384 -1.4720319 43.31088691 0.6496582 45.13183594 C5.01711663 48.94296512 9.13225473 52.96714317 13.22387695 57.07055664 C13.9672229 57.81294586 14.71056885 58.55533508 15.47644043 59.32022095 C17.03052482 60.87363008 18.5833682 62.42828168 20.13500977 63.98413086 C22.52286347 66.37739585 24.91607979 68.76520654 27.30981445 71.15258789 C28.82315651 72.6665898 30.33618884 74.18090136 31.84887695 75.69555664 C32.56748901 76.41214447 33.28610107 77.1287323 34.02648926 77.86703491 C34.68137329 78.52507111 35.33625732 79.1831073 36.01098633 79.86108398 C36.59086304 80.44175629 37.17073975 81.02242859 37.76818848 81.62069702 C39.00512695 82.98461914 39.00512695 82.98461914 39.00512695 83.98461914 C35.50601 84.18999817 32.00846029 84.31291855 28.50512695 84.42211914 C27.52286133 84.48077148 26.5405957 84.53942383 25.52856445 84.59985352 C24.56176758 84.62241211 23.5949707 84.6449707 22.59887695 84.66821289 C21.7190918 84.70487061 20.83930664 84.74152832 19.93286133 84.77929688 C12.56364118 82.77906242 6.85537963 74.92313186 1.6887207 69.55493164 C0.33465697 68.16877805 -1.02018352 66.78338289 -2.37573242 65.39868164 C-4.47861473 63.24625305 -6.57645137 61.0897683 -8.66162109 58.92016602 C-10.6977208 56.80530634 -12.75247211 54.71016095 -14.8112793 52.61743164 C-15.42814102 51.96646515 -16.04500275 51.31549866 -16.68055725 50.64480591 C-19.73461682 47.57183038 -21.48764962 46.12479941 -25.75634766 44.94506836 C-29.14661729 44.69253334 -29.14661729 44.69253334 -31.99487305 46.98461914 C-32.68405872 51.01204791 -32.99738735 53.47135418 -30.70581055 56.93041992 C-28.88790436 58.9179766 -26.98920432 60.73678238 -24.99487305 62.54711914 C-23.96245483 63.53035156 -23.96245483 63.53035156 -22.90917969 64.53344727 C-18.97202396 68.25804775 -14.94323995 71.87941697 -10.78979492 75.36181641 C-8.94918422 77.02592677 -7.3760195 78.77394285 -5.7800293 80.67211914 C-5.25417236 81.29473633 -4.72831543 81.91735352 -4.18652344 82.55883789 C-3.79327881 83.0293457 -3.40003418 83.49985352 -2.99487305 83.98461914 C-7.03556044 84.21782196 -11.07451506 84.35932044 -15.11987305 84.48461914 C-16.26198242 84.55165039 -17.4040918 84.61868164 -18.58081055 84.68774414 C-26.92729518 84.88184843 -26.92729518 84.88184843 -30.01757812 82.28466797 C-31.5847168 80.16040039 -31.5847168 80.16040039 -32.79931641 78.04052734 C-36.06451704 72.42560912 -41.88839647 68.84650231 -47.99487305 66.98461914 C-51.1391611 66.52257486 -54.25795614 66.38664742 -57.43237305 66.29711914 C-58.25930664 66.26295898 -59.08624023 66.22879883 -59.93823242 66.19360352 C-61.95666249 66.11193293 -63.97574189 66.0465819 -65.99487305 65.98461914 C-60.24372767 59.02469444 -53.85304035 52.78642909 -47.42651367 46.45532227 C-43.73865827 42.8009168 -40.08608944 39.17171533 -36.72143555 35.21508789 C-31.28800791 28.878081 -25.22647361 23.11217391 -19.30737305 17.23461914 C-18.07211245 16.00438586 -16.83708465 14.77391878 -15.60229492 13.54321289 C-13.34176467 11.29079051 -11.07993179 9.03969542 -8.81640625 6.7902832 C-7.11193664 5.09540003 -5.44724471 3.35714274 -3.86669922 1.54614258 C-1.99487305 -0.01538086 -1.99487305 -0.01538086 0 0 Z " transform="translate(264.994873046875,120.015380859375)" style="fill: #FFFFFF;"/><path d="M0 0 C0.1783388 5.01587872 -0.36011717 9.12830251 -1.74414062 13.94506836 C-1.92945847 14.59957977 -2.11477631 15.25409119 -2.30570984 15.92843628 C-2.91386922 18.0681633 -3.53491709 20.2039087 -4.15625 22.33984375 C-4.58303888 23.83176583 -5.0090113 25.3239217 -5.4342041 26.81629944 C-6.55056721 30.7263373 -7.67793334 34.63311754 -8.80767822 38.53930664 C-9.96052348 42.53274716 -11.10285461 46.52919168 -12.24609375 50.52539062 C-14.48715932 58.35322605 -16.7398665 66.17764888 -19 74 C-19.33 74 -19.66 74 -20 74 C-20 49.58 -20 25.16 -20 0 C-5 -1 -5 -1 0 0 Z " transform="translate(394,246)" style="fill: #FFFFFF;"/></svg>