<svg xmlns="http://www.w3.org/2000/svg" style="display:block" viewBox="0 0 504 506"><path d="M0 0c2.457.003 4.912-.02 7.369-.046 8.386-.035 16.575.398 24.877 1.631l2.314.328c8.725 1.446 14.727 4.712 19.924 11.891 2.429 3.963 4.12 8.094 5.54 12.512l.624 1.867c1.29 7.335-.404 15.809-1.625 23.133l2.414.691c4.577 1.67 8.704 3.891 12.961 6.246l2.67 1.477c18.292 10.277 34.78 23.148 49.955 37.586l2.36 2.164c30.575 28.95 44.123 74.9 45.64 115.836.526 50.927-18.726 95.89-54.062 132.312-39.372 38.078-90.253 51.767-143.708 50.925-44.735-1.032-85.175-19.747-117.23-50.237l-1.953-1.793c-14.96-14.156-24.963-33.043-33.266-51.604-.674-1.605-.674-1.605-1.78-2.603-1.847.34-1.847.34-4.009.996l-2.492.693c-1.727.492-3.454.987-5.18 1.485-8.29 2.297-15.475 2.761-23.32-1.174-7.407-5.31-11.437-10.394-13.133-19.45a661.43 661.43 0 0 1-.992-6.238l-.512-3.107c-1.998-12.457-2.603-24.734-2.613-37.33l-.002-2.401c.082-61 21.744-117.66 64.627-161.162 6.252-6.226 12.83-11.817 19.926-17.054a315.401 315.401 0 0 0 4.914-3.735C-100.346 13.966-48.994-.13 0 0Z" style="fill:#5e5e5f" transform="translate(279.977 53.684)"/><path d="m0 0 2.237-.032c2.108-.023 4.214-.017 6.322 0 1.812.008 1.812.008 3.661.014 4.025.624 6.185 1.987 9.342 4.518 2.758 4.137 1.922 7.346 1 12-1.078 3.99-2.369 7.896-3.687 11.813-.732 2.227-1.462 4.455-2.191 6.683l-1.095 3.332c-1.455 4.495-2.813 9.016-4.152 13.547A990.148 990.148 0 0 1 5.5 71.188 803.022 803.022 0 0 0-.543 91.087c-1.792 6.14-3.721 12.233-5.664 18.327A650.871 650.871 0 0 0-10.937 125c-1.983 6.831-4.1 13.614-6.263 20.39a608.414 608.414 0 0 0-5.501 18.329 179.04 179.04 0 0 1-1.117 3.735 76.094 76.094 0 0 0-1.108 4.054c-.858 2.979-1.53 5.299-4.129 7.135-2.11.89-4.2 1.549-6.406 2.166l-2.47.775c-2.618.815-5.248 1.585-7.882 2.353-1.668.511-3.336 1.025-5.003 1.542a1270.227 1270.227 0 0 1-10.653 3.23c-21.86 6.54-43.58 13.522-65.284 20.56a17575.132 17575.132 0 0 1-12.323 3.991c-3.39 1.098-6.78 2.195-10.171 3.289a2192.86 2192.86 0 0 0-18.709 6.114c-2.844.946-5.691 1.884-8.539 2.82-1.346.446-2.69.895-4.034 1.348a763.01 763.01 0 0 1-5.59 1.853l-3.196 1.066c-4.17 1.002-8.228 1.463-12.302-.07-3.073-2.365-4.647-4.199-5.336-8.091l-.164-3.39-.19-3.78c-.875-26.296.619-50.519 7.87-75.919l.635-2.251c13.584-46.996 45.892-84.68 88.157-108.476C-76.448 9.055-38.878.287 0 0Z" style="fill:#fefefe" transform="translate(288.438 85.5)"/><path d="M0 0c18.488 4.335 35.286 16.3 49 29l1.644 1.511c27.079 25.172 44.281 61.4 45.692 98.54.507 34.72-8.557 68.4-30.336 95.949-1.17 1.56-2.337 3.122-3.5 4.688-.832 1.104-1.665 2.209-2.5 3.312-4.206-1.641-7.007-4.747-10.11-7.9l-1.825-1.828c-1.99-1.996-3.973-4-5.956-6.002a7956.635 7956.635 0 0 1-15.122-15.203 14496.04 14496.04 0 0 0-17.496-17.593c-2.03-2.04-4.056-4.083-6.082-6.127-8.133-8.192-8.133-8.192-16.715-15.908-4.835-4.107-9.385-8.545-13.943-12.953a281.23 281.23 0 0 0-3.806-3.58c-10.557-9.768-10.557-9.768-11.434-14.6.487-2.697 1.332-4.826 2.489-7.306.6-1.8 1.19-3.604 1.77-5.41.674-1.887 1.355-3.77 2.042-5.653 2.305-6.337 4.434-12.678 6.297-19.16 2.415-8.384 5.076-16.687 7.762-24.988l.675-2.086c1.391-4.299 2.786-8.597 4.182-12.894a26835.32 26835.32 0 0 0 6.939-21.402A3296.93 3296.93 0 0 0 0 0Z" style="fill:#fefefe" transform="translate(330 139)"/><path d="M0 0c2.007 1.638 2.007 1.638 4.164 3.803l2.49 2.477 2.704 2.738a2621.076 2621.076 0 0 1 10.634 10.67c2.703 2.722 5.414 5.435 8.125 8.148 5.13 5.14 10.253 10.288 15.373 15.438 5.83 5.863 11.668 11.718 17.507 17.572C73.007 72.888 85.007 84.94 97 97c-13.614 13.912-32.921 21.647-51 28l-2.441.93C36.32 128.594 28.603 129.824 21 131l-1.937.301c-6.977.927-13.992.885-21.017.884-2.146.002-4.291.02-6.437.04-12.925.054-25.47-1.16-37.922-4.85l-2.678-.786c-37.22-11.34-65.658-36.298-84.197-70.093C-135.531 51.974-137 49.126-137 44l2.546-.86a134023.782 134023.782 0 0 0 24.565-8.29c5.26-1.775 10.519-3.55 15.78-5.322 16.518-5.569 33.036-11.141 49.518-16.82 2-.689 4-1.376 6.001-2.063l1.936-.665 1.902-.653a2754.2 2754.2 0 0 0 10.908-3.765c3.3-1.148 6.605-2.284 9.91-3.417l2.91-1.025 2.651-.902 2.284-.792C-3.579-1.086-2.409-.864 0 0Z" style="fill:#fefefe" transform="translate(270 291)"/></svg>