<svg id="svg" version="1.1" xmlns="http://www.w3.org/2000/svg" style="display: block;" viewBox="0 0 504 506"><path d="M0 0 C166.32 0 332.64 0 504 0 C504 166.98 504 333.96 504 506 C337.68 506 171.36 506 0 506 C0 339.02 0 172.04 0 0 Z " transform="translate(0,0)" style="fill: #000000;" opacity="0"/><path d="M0 0 C2.42459203 -0.00964724 4.84831307 -0.0407192 7.27270508 -0.07226562 C33.481346 -0.255209 33.481346 -0.255209 43.3918457 7.24023438 C48.04143014 12.52437749 51.58508001 20.14429899 51.31567383 27.24902344 C50.90828758 31.95076473 50.19357695 36.59134673 49.3918457 41.24023438 C50.5984082 41.58054687 50.5984082 41.58054687 51.8293457 41.92773438 C56.32074187 43.58245928 60.26960883 45.82623721 64.3918457 48.24023438 C65.23126709 48.73080322 66.07068848 49.22137207 66.93554688 49.72680664 C79.79758541 57.34498729 91.30154621 66.23554961 102.3918457 76.24023438 C103.21426758 76.97757812 104.03668945 77.71492188 104.8840332 78.47460938 C130.15370787 102.39536902 142.22698041 139.60074715 143.52075195 173.63085938 C144.15650401 213.47132149 129.70498862 249.29788644 102.3918457 278.24023438 C101.71895508 278.97757812 101.04606445 279.71492188 100.3527832 280.47460938 C90.13291187 291.26863078 77.48938887 299.3775306 64.3918457 306.24023438 C63.24586914 306.84609375 62.09989258 307.45195312 60.91918945 308.07617188 C50.55136526 313.34200645 39.65160189 316.47122674 28.3918457 319.24023438 C27.69381836 319.42102539 26.99579102 319.60181641 26.27661133 319.78808594 C-11.45310232 329.22989985 -54.81633653 320.94050752 -87.8034668 301.34179688 C-95.64833439 296.32353954 -102.67285958 290.42527293 -109.6081543 284.24023438 C-110.33776367 283.59570312 -111.06737305 282.95117188 -111.8190918 282.28710938 C-124.44240013 270.43665665 -136.11120996 253.02882658 -140.6081543 236.24023438 C-142.05834961 236.67335938 -142.05834961 236.67335938 -143.5378418 237.11523438 C-161.02534079 242.18244271 -161.02534079 242.18244271 -168.29956055 239.09960938 C-174.13797325 235.87021079 -178.33342378 232.58084129 -180.29516602 225.90087891 C-180.9282222 222.98134133 -181.41729154 220.07003485 -181.8581543 217.11523438 C-182.02581299 215.99793945 -182.19347168 214.88064453 -182.36621094 213.72949219 C-185.38984811 191.02223832 -185.20924645 166.69805296 -180.6081543 144.24023438 C-180.35074463 142.98267334 -180.35074463 142.98267334 -180.08813477 141.69970703 C-172.97565591 108.31109984 -157.50107828 78.63370844 -133.6081543 54.24023438 C-132.85018555 53.43199219 -132.0922168 52.62375 -131.3112793 51.79101562 C-103.78993155 23.01413194 -63.42063166 6.78418888 -24.6081543 1.24023438 C-23.33198242 1.05460937 -22.05581055 0.86898437 -20.7409668 0.67773438 C-13.85588272 -0.0498796 -6.91621289 0.01656743 0 0 Z " transform="translate(272.608154296875,91.759765625)" style="fill: #909090;"/><path d="M0 0 C0.81114258 0.01764404 1.62228516 0.03528809 2.45800781 0.0534668 C6.02539431 0.23047741 8.25173479 0.51637532 11.359375 2.36328125 C13.80211164 6.66551686 12.15193761 11.27305607 10.95672607 15.8507843 C9.89243294 19.55763155 8.78170702 23.24892079 7.65625 26.9375 C7.23238286 28.34367506 6.80908241 29.75002105 6.38630676 31.15652466 C5.25044864 34.9294004 4.10663416 38.69981913 2.9610939 42.46976471 C1.77082878 46.39115413 0.5873558 50.31459265 -0.59692383 54.23779297 C-2.53009523 60.63861163 -4.46787483 67.03801905 -6.40869141 73.43652344 C-8.86509057 81.53547455 -11.30869996 89.63822949 -13.74839401 97.74222565 C-15.10812129 102.25674134 -16.4712806 106.77022095 -17.83447266 111.28369141 C-18.56767469 113.71244341 -19.29993946 116.14147857 -20.03125 118.57080078 C-21.04200556 121.92589611 -22.05742476 125.27954305 -23.07421875 128.6328125 C-23.3691069 129.61492706 -23.66399506 130.59704163 -23.96781921 131.60891724 C-24.24100479 132.50641693 -24.51419037 133.40391663 -24.7956543 134.32861328 C-25.02987595 135.10343048 -25.2640976 135.87824768 -25.50541687 136.67654419 C-27.51722629 142.44774132 -27.51722629 142.44774132 -30.57460022 143.96963501 C-31.55295334 144.27952362 -32.53130646 144.58941223 -33.53930664 144.90869141 C-34.6585553 145.27136612 -35.77780396 145.63404083 -36.93096924 146.00770569 C-38.16160095 146.38930344 -39.39223267 146.77090118 -40.66015625 147.1640625 C-41.96003258 147.57892993 -43.25948282 147.9951344 -44.55853271 148.4125824 C-48.07309397 149.53778612 -51.59334834 150.64409669 -55.11493301 151.74708939 C-58.78607557 152.9004539 -62.45167868 154.07115973 -66.11791992 155.23999023 C-72.91893341 157.40523531 -79.72471327 159.55503633 -86.5329237 161.69753361 C-91.59690479 163.29122128 -96.65946094 164.88933472 -101.72070312 166.49169922 C-102.40007966 166.70677753 -103.0794562 166.92185585 -103.7794199 167.14345169 C-105.13049066 167.57121036 -106.4815551 167.99898902 -107.83261299 168.42678833 C-115.95986837 170.99998457 -124.0879817 173.57038342 -132.22094727 176.12548828 C-133.91492645 176.65795921 -133.91492645 176.65795921 -135.64312744 177.20118713 C-137.7151404 177.85213588 -139.78741882 178.50224067 -141.86004639 179.15122986 C-142.79286438 179.4442952 -143.72568237 179.73736053 -144.68676758 180.03930664 C-145.59109528 180.32274933 -146.49542297 180.60619202 -147.42715454 180.89822388 C-149.45237248 181.55416074 -151.46808341 182.23973176 -153.47689819 182.94430542 C-154.54115021 183.31645172 -155.60540222 183.68859802 -156.7019043 184.07202148 C-157.66533249 184.41740463 -158.62876068 184.76278778 -159.62138367 185.11863708 C-163.60012769 186.16888656 -165.60080806 185.63709597 -169.25 183.8125 C-177.5900868 171.3023698 -172.70293362 142.32213216 -170.08618164 128.14282227 C-164.5263944 100.7100012 -153.7338856 75.99627901 -135.25 54.8125 C-134.64414063 54.08546875 -134.03828125 53.3584375 -133.4140625 52.609375 C-129.39665036 47.8466511 -125.06945077 43.75420931 -120.25 39.8125 C-119.37214844 39.07386719 -118.49429688 38.33523437 -117.58984375 37.57421875 C-102.26876537 25.17897212 -84.80819975 16.27615481 -66.25 9.8125 C-65.53956543 9.56419434 -64.82913086 9.31588867 -64.09716797 9.06005859 C-43.52617838 2.05747827 -21.65975696 -0.72897362 0 0 Z " transform="translate(286.25,118.1875)" style="fill: #FFFFFF;"/><path d="M0 0 C3.59419829 0.5091834 6.65643736 1.07101193 9.8828125 2.75 C10.56907715 3.10634521 11.2553418 3.46269043 11.96240234 3.82983398 C12.67605957 4.21598877 13.3897168 4.60214355 14.125 5 C14.87346191 5.40226807 15.62192383 5.80453613 16.39306641 6.21899414 C23.10137981 9.90950082 29.1038668 14.09628526 35 19 C35.92167969 19.75796875 36.84335937 20.5159375 37.79296875 21.296875 C60.07583737 40.53117062 73.27184565 68.23361644 76.75 97.25 C76.8606621 98.83165824 76.9421543 100.41553076 77 102 C77.05994141 103.55847656 77.05994141 103.55847656 77.12109375 105.1484375 C77.67945042 134.38005129 68.12118 164.33103692 48 186 C45.1811956 184.71614596 43.13348617 183.38111343 40.95330811 181.18708801 C40.3787941 180.61387817 39.80428009 180.04066833 39.21235657 179.4500885 C38.59410507 178.82307541 37.97585358 178.19606232 37.33886719 177.55004883 C36.67813705 176.88800446 36.01740692 176.22596008 35.33665466 175.54385376 C33.15209794 173.35280382 30.97460355 171.15486614 28.796875 168.95703125 C27.27527059 167.42915333 25.75314781 165.90179149 24.23052979 164.37492371 C20.21805491 160.34913746 16.21117392 156.3178331 12.20587158 152.28491211 C5.81072908 145.84669772 -0.59101372 139.41506511 -6.99617767 132.98682213 C-9.22524844 130.74759184 -11.45083466 128.50494173 -13.67608643 126.26191711 C-15.0577008 124.87346676 -16.43942918 123.48512984 -17.82128906 122.09692383 C-18.73652092 121.17158592 -18.73652092 121.17158592 -19.67024231 120.22755432 C-23.43399499 116.45406348 -27.33200468 112.91589414 -31.40472031 109.47706127 C-33 108 -33 108 -34 106 C-33.54457092 103.9699707 -33.54457092 103.9699707 -32.71508789 101.42578125 C-32.405728 100.46442261 -32.0963681 99.50306396 -31.77763367 98.51257324 C-31.42949112 97.45654907 -31.08134857 96.4005249 -30.72265625 95.3125 C-30.18563835 93.65353699 -30.18563835 93.65353699 -29.63777161 91.96105957 C-28.45275835 88.30514499 -27.25756193 84.65264085 -26.0625 81 C-25.2448012 78.48268298 -24.42791398 75.96510221 -23.61181641 73.44726562 C-22.35113491 69.55829317 -21.08985899 65.66952011 -19.82513428 61.78186035 C-15.82122882 49.47270421 -11.87180163 37.14640236 -7.93405151 24.81591797 C-6.55614952 20.5016708 -5.17634141 16.18803429 -3.79655457 11.87438965 C-2.53059433 7.91640103 -1.26526935 3.95820952 0 0 Z " transform="translate(315,162)" style="fill: #FFFFFF;"/><path d="M0 0 C1.81777668 1.32558537 1.81777668 1.32558537 3.52449036 3.04347229 C4.17925354 3.69273682 4.83401672 4.34200134 5.50862122 5.01094055 C6.2106517 5.72735214 6.91268219 6.44376373 7.63598633 7.18188477 C8.38774139 7.93305573 9.13949646 8.68422668 9.91403198 9.4581604 C12.39629707 11.943212 14.86409448 14.44213116 17.33203125 16.94140625 C19.05037077 18.66720606 20.76959559 20.39212481 22.4896698 22.11619568 C27.01453835 26.65633688 31.52726657 31.20836207 36.03759766 35.76293945 C40.64216228 40.40842093 45.25807072 45.04260002 49.87304688 49.67773438 C58.92652146 58.77410874 67.96760558 67.88269589 77 77 C61.02239384 93.32662339 34.45005562 102.802287 12 105 C10.99864014 105.09837158 10.99864014 105.09837158 9.97705078 105.19873047 C-14.43227701 107.4343311 -36.9902241 103.69028972 -59 93 C-60.48113281 92.29037109 -60.48113281 92.29037109 -61.9921875 91.56640625 C-85.49544726 79.54227481 -101.09331596 59.45851037 -112 36 C-109.52585374 34.35056916 -107.9154554 33.51705669 -105.17919922 32.61816406 C-104.40931168 32.36267288 -103.63942413 32.1071817 -102.84620667 31.84394836 C-102.00750534 31.57060165 -101.16880402 31.29725494 -100.3046875 31.015625 C-99.42098984 30.72338547 -98.53729218 30.43114594 -97.6268158 30.13005066 C-95.71266078 29.49739485 -93.79785375 28.86670915 -91.88247681 28.23776245 C-86.77397253 26.55994778 -81.67036131 24.86737423 -76.56640625 23.17578125 C-75.52117294 22.82971329 -74.47593964 22.48364532 -73.39903259 22.12709045 C-60.39826514 17.81646094 -47.44379801 13.3712817 -34.48919678 8.92428589 C-32.18871252 8.13622855 -29.88667966 7.35283205 -27.58447266 6.56982422 C-24.38303933 5.4796754 -21.19262517 4.36185328 -18.00537109 3.23095703 C-16.38255901 2.66548334 -14.75967722 2.10020967 -13.13671875 1.53515625 C-12.39251175 1.2653746 -11.64830475 0.99559296 -10.88154602 0.71763611 C-6.78438188 -0.69336357 -4.14879244 -1.25548675 0 0 Z " transform="translate(267,285)" style="fill: #FFFFFF;"/></svg>