<?xml version="1.0" encoding="UTF-8" standalone="no"?>
<svg
   id="svg"
   version="1.1"
   style="display: block;"
   viewBox="0 0 504 506"
   sodipodi:docname="gift-card.svg"
   inkscape:version="1.2.2 (b0a8486, 2022-12-01)"
   xmlns:inkscape="http://www.inkscape.org/namespaces/inkscape"
   xmlns:sodipodi="http://sodipodi.sourceforge.net/DTD/sodipodi-0.dtd"
   xmlns="http://www.w3.org/2000/svg"
   xmlns:svg="http://www.w3.org/2000/svg">
  <defs
     id="defs14494" />
  <sodipodi:namedview
     id="namedview14492"
     pagecolor="#ffffff"
     bordercolor="#000000"
     borderopacity="0.25"
     inkscape:showpageshadow="2"
     inkscape:pageopacity="0.0"
     inkscape:pagecheckerboard="0"
     inkscape:deskcolor="#d1d1d1"
     showgrid="false"
     inkscape:zoom="0.46640316"
     inkscape:cx="45.025424"
     inkscape:cy="253"
     inkscape:window-width="1427"
     inkscape:window-height="456"
     inkscape:window-x="0"
     inkscape:window-y="25"
     inkscape:window-maximized="0"
     inkscape:current-layer="svg" />
  <path
     d="M0 0 C9.20351209 7.67219769 10.9430525 17.5753164 12.90112305 28.90014648 C13.06737183 29.83313065 13.23362061 30.76611481 13.40490723 31.72737122 C13.94629924 34.77428675 14.47918256 37.82261904 15.01171875 40.87109375 C15.38812793 43.00203727 15.76499167 45.13290054 16.14228821 47.26368713 C16.92836462 51.71022867 17.71049413 56.15743935 18.48950195 60.60522461 C19.48904984 66.31159876 20.49614247 72.01660835 21.50586224 77.72119045 C22.28264168 82.11217431 23.05666532 86.50364008 23.82972145 90.89528084 C24.20035195 93.00017477 24.57156431 95.10496633 24.9433651 97.20965385 C25.4605601 100.14118679 25.97433128 103.07329839 26.48706055 106.00561523 C26.64130997 106.87678986 26.79555939 107.74796448 26.95448303 108.64553833 C27.50316669 111.79998135 28 114.79145729 28 118 C28.60419769 117.98889694 29.20839539 117.97779388 29.8309021 117.96635437 C36.15811274 117.855152 42.48504275 117.78008181 48.81298828 117.7253418 C51.16987395 117.70030292 53.52668279 117.66626159 55.88330078 117.62280273 C59.28437328 117.5616841 62.6844132 117.53368273 66.0859375 117.51171875 C67.12801361 117.48591232 68.17008972 117.4601059 69.2437439 117.43351746 C77.40621692 117.43043573 84.05852345 119.35256123 90.15072632 124.99028015 C96.13663065 131.30431579 98.45803779 137.45824857 98.39440918 146.10151672 C98.40050028 146.88856764 98.40659139 147.67561857 98.41286707 148.48651952 C98.42943999 151.10875651 98.42472949 153.73050487 98.41992188 156.3527832 C98.42726558 158.23904929 98.43585269 160.12531089 98.44558716 162.01156616 C98.46778155 167.12533625 98.47073482 172.2389451 98.46883965 177.35275674 C98.46871983 181.62694448 98.47728847 185.9010982 98.48561716 190.17527646 C98.50484428 200.26262607 98.50773777 210.34989294 98.50097656 220.43725586 C98.49433811 230.83072255 98.51719395 241.22383413 98.55429029 251.61722881 C98.58501784 260.55165565 98.59634394 269.48596845 98.59245348 278.42044705 C98.59038893 283.75168792 98.59581985 289.08265249 98.62034607 294.41384315 C98.64266065 299.42991916 98.64069608 304.44541928 98.62041855 309.46149826 C98.6170167 311.29723625 98.62206186 313.13301337 98.63640213 314.9686985 C98.71681489 326.02985503 98.41048983 334.60578474 90.9375 343.4375 C90.298125 343.953125 89.65875 344.46875 89 345 C88.360625 345.53625 87.72125 346.0725 87.0625 346.625 C82.96255351 349.35829766 79.38474262 350.25001154 74.48763561 350.25726891 C73.38534435 350.2637178 72.2830531 350.27016669 71.14735907 350.276811 C69.33891775 350.2721652 69.33891775 350.2721652 67.49394226 350.26742554 C65.56652237 350.27422221 65.56652237 350.27422221 63.60016471 350.28115618 C60.03538477 350.29339125 56.47069865 350.29312513 52.9059025 350.29076743 C49.06052429 350.29035939 45.2151762 350.30139719 41.36981201 350.31088257 C33.83661091 350.32749637 26.30344111 350.33299229 18.77022322 350.33410732 C12.64674089 350.33505763 6.52326888 350.33916705 0.39978981 350.34550858 C-16.96147083 350.36312212 -34.32270675 350.37234728 -51.68397639 350.37084763 C-52.61995119 350.37076772 -53.555926 350.3706878 -54.52026367 350.37060547 C-55.92594016 350.37048283 -55.92594016 350.37048283 -57.36001416 350.37035771 C-72.54743829 350.3695448 -87.73476325 350.38868332 -102.9221587 350.4168822 C-118.51653382 350.44560825 -134.11086058 350.45942265 -149.70526284 350.45769465 C-158.46030788 350.45703065 -167.21524895 350.46252747 -175.97027016 350.48405075 C-183.42457267 350.50225889 -190.87872409 350.50661295 -198.3330392 350.4930319 C-202.13559618 350.48650032 -205.93786326 350.48639164 -209.74039268 350.5037384 C-213.86481179 350.52235991 -217.98855926 350.50991969 -222.11299133 350.49447632 C-223.31192672 350.50476344 -224.5108621 350.51505057 -225.74612886 350.52564943 C-234.05145125 350.45683764 -239.20715019 349.10324075 -245.75 343.75 C-252.04389062 336.05746702 -252.5993426 329.6337308 -252.609375 319.96875 C-252.62591125 318.73709106 -252.64244751 317.50543213 -252.65948486 316.2364502 C-252.70785187 312.32424881 -252.72931201 308.4124359 -252.75 304.5 C-252.77598378 301.83848334 -252.80809737 299.1770843 -252.83984375 296.515625 C-252.91360824 290.01048692 -252.965317 283.50545758 -253 277 C-254.29886894 277.24623108 -254.29886894 277.24623108 -255.62397766 277.49743652 C-258.0117471 277.95009424 -260.39959301 278.40234877 -262.7875061 278.85424805 C-264.67726141 279.21316433 -266.5667182 279.573701 -268.45492554 279.94067383 C-292.84378708 284.67805781 -292.84378708 284.67805781 -303 278 C-314.25689578 269.76433868 -315.18188042 255.00681804 -317.4074707 242.20288086 C-317.72413533 240.42425761 -318.04163817 238.64578342 -318.35990906 236.8674469 C-319.21615084 232.06756678 -320.05974086 227.26554658 -320.90023828 222.46288753 C-321.60476919 218.44377846 -322.31545258 214.42576712 -323.02607888 210.40773207 C-324.70269534 200.92697591 -326.36893343 191.44443646 -328.02856445 181.96069336 C-329.73786848 172.19412214 -331.46426512 162.43068265 -333.19914943 152.66862577 C-334.69173052 144.26662122 -336.17389001 135.86282394 -337.64771527 127.4575091 C-338.5265147 122.44619009 -339.40913701 117.43562445 -340.30172157 112.42674065 C-341.140303 107.71817809 -341.96578575 103.00749968 -342.78143501 98.29491234 C-343.08196914 96.57123508 -343.38701552 94.84833721 -343.6970253 93.12633896 C-347.61971102 71.2980516 -347.61971102 71.2980516 -342.359375 61.8828125 C-334.67164091 51.23485896 -323.9632303 49.38154352 -311.75805664 47.28637695 C-310.30004616 47.02958469 -308.84216903 46.7720343 -307.38441467 46.51379204 C-303.40067943 45.81028356 -299.41515881 45.11740454 -295.42926335 44.42625594 C-291.15529861 43.6831798 -286.88310656 42.93004265 -282.61070251 42.17805481 C-274.3093337 40.71848702 -266.00644828 39.26773652 -257.70299953 37.82005364 C-247.13479376 35.97715507 -236.56836096 34.12417046 -226.00195312 32.27099609 C-222.1130782 31.589051 -218.22419078 30.90717723 -214.33529663 30.2253418 C-213.36948524 30.05599869 -212.40367385 29.88665557 -211.40859544 29.71218085 C-204.5247307 28.50534847 -197.64054436 27.30036109 -190.7562561 26.09594727 C-167.06343827 21.94996292 -143.37714015 17.76904102 -119.69772148 13.54720879 C-114.87485921 12.68740913 -110.05173145 11.82910631 -105.22853088 10.97120667 C-104.45142732 10.83296905 -103.67432375 10.69473144 -102.87367159 10.5523048 C-99.79013563 10.00378143 -96.70659738 9.45527089 -93.62304175 8.90685809 C-84.75199745 7.3290258 -75.88181713 5.74651376 -67.01290399 4.15674514 C-60.85934254 3.05427024 -54.70422649 1.96071335 -48.54849434 0.87042809 C-46.05477224 0.42721282 -43.56158045 -0.01899876 -41.06898308 -0.46849632 C-37.68796495 -1.0778941 -34.3052318 -1.67669407 -30.921875 -2.27294922 C-29.95281754 -2.45030452 -28.98376009 -2.62765982 -27.98533726 -2.81038952 C-18.11629665 -4.52572792 -8.86168876 -5.36327329 0 0 Z "
     transform="translate(370,82)"
     style="fill: #FEFDFE;"
     id="path14433" />
  <path
     d="M0 0 C9.20351209 7.67219769 10.9430525 17.5753164 12.90112305 28.90014648 C13.06737183 29.83313065 13.23362061 30.76611481 13.40490723 31.72737122 C13.94629924 34.77428675 14.47918256 37.82261904 15.01171875 40.87109375 C15.38812793 43.00203727 15.76499167 45.13290054 16.14228821 47.26368713 C16.92836462 51.71022867 17.71049413 56.15743935 18.48950195 60.60522461 C19.48904984 66.31159876 20.49614247 72.01660835 21.50586224 77.72119045 C22.28264168 82.11217431 23.05666532 86.50364008 23.82972145 90.89528084 C24.20035195 93.00017477 24.57156431 95.10496633 24.9433651 97.20965385 C25.4605601 100.14118679 25.97433128 103.07329839 26.48706055 106.00561523 C26.64130997 106.87678986 26.79555939 107.74796448 26.95448303 108.64553833 C27.50316669 111.79998135 28 114.79145729 28 118 C28.60419769 117.98889694 29.20839539 117.97779388 29.8309021 117.96635437 C36.15811274 117.855152 42.48504275 117.78008181 48.81298828 117.7253418 C51.16987395 117.70030292 53.52668279 117.66626159 55.88330078 117.62280273 C59.28437328 117.5616841 62.6844132 117.53368273 66.0859375 117.51171875 C67.12801361 117.48591232 68.17008972 117.4601059 69.2437439 117.43351746 C77.40621692 117.43043573 84.05852345 119.35256123 90.15072632 124.99028015 C96.13663065 131.30431579 98.45803779 137.45824857 98.39440918 146.10151672 C98.40050028 146.88856764 98.40659139 147.67561857 98.41286707 148.48651952 C98.42943999 151.10875651 98.42472949 153.73050487 98.41992188 156.3527832 C98.42726558 158.23904929 98.43585269 160.12531089 98.44558716 162.01156616 C98.46778155 167.12533625 98.47073482 172.2389451 98.46883965 177.35275674 C98.46871983 181.62694448 98.47728847 185.9010982 98.48561716 190.17527646 C98.50484428 200.26262607 98.50773777 210.34989294 98.50097656 220.43725586 C98.49433811 230.83072255 98.51719395 241.22383413 98.55429029 251.61722881 C98.58501784 260.55165565 98.59634394 269.48596845 98.59245348 278.42044705 C98.59038893 283.75168792 98.59581985 289.08265249 98.62034607 294.41384315 C98.64266065 299.42991916 98.64069608 304.44541928 98.62041855 309.46149826 C98.6170167 311.29723625 98.62206186 313.13301337 98.63640213 314.9686985 C98.71681489 326.02985503 98.41048983 334.60578474 90.9375 343.4375 C90.298125 343.953125 89.65875 344.46875 89 345 C88.360625 345.53625 87.72125 346.0725 87.0625 346.625 C82.96255351 349.35829766 79.38474262 350.25001154 74.48763561 350.25726891 C73.38534435 350.2637178 72.2830531 350.27016669 71.14735907 350.276811 C69.33891775 350.2721652 69.33891775 350.2721652 67.49394226 350.26742554 C65.56652237 350.27422221 65.56652237 350.27422221 63.60016471 350.28115618 C60.03538477 350.29339125 56.47069865 350.29312513 52.9059025 350.29076743 C49.06052429 350.29035939 45.2151762 350.30139719 41.36981201 350.31088257 C33.83661091 350.32749637 26.30344111 350.33299229 18.77022322 350.33410732 C12.64674089 350.33505763 6.52326888 350.33916705 0.39978981 350.34550858 C-16.96147083 350.36312212 -34.32270675 350.37234728 -51.68397639 350.37084763 C-52.61995119 350.37076772 -53.555926 350.3706878 -54.52026367 350.37060547 C-55.92594016 350.37048283 -55.92594016 350.37048283 -57.36001416 350.37035771 C-72.54743829 350.3695448 -87.73476325 350.38868332 -102.9221587 350.4168822 C-118.51653382 350.44560825 -134.11086058 350.45942265 -149.70526284 350.45769465 C-158.46030788 350.45703065 -167.21524895 350.46252747 -175.97027016 350.48405075 C-183.42457267 350.50225889 -190.87872409 350.50661295 -198.3330392 350.4930319 C-202.13559618 350.48650032 -205.93786326 350.48639164 -209.74039268 350.5037384 C-213.86481179 350.52235991 -217.98855926 350.50991969 -222.11299133 350.49447632 C-223.31192672 350.50476344 -224.5108621 350.51505057 -225.74612886 350.52564943 C-234.05145125 350.45683764 -239.20715019 349.10324075 -245.75 343.75 C-252.04389062 336.05746702 -252.5993426 329.6337308 -252.609375 319.96875 C-252.62591125 318.73709106 -252.64244751 317.50543213 -252.65948486 316.2364502 C-252.70785187 312.32424881 -252.72931201 308.4124359 -252.75 304.5 C-252.77598378 301.83848334 -252.80809737 299.1770843 -252.83984375 296.515625 C-252.91360824 290.01048692 -252.965317 283.50545758 -253 277 C-254.29886894 277.24623108 -254.29886894 277.24623108 -255.62397766 277.49743652 C-258.0117471 277.95009424 -260.39959301 278.40234877 -262.7875061 278.85424805 C-264.67726141 279.21316433 -266.5667182 279.573701 -268.45492554 279.94067383 C-292.84378708 284.67805781 -292.84378708 284.67805781 -303 278 C-314.25689578 269.76433868 -315.18188042 255.00681804 -317.4074707 242.20288086 C-317.72413533 240.42425761 -318.04163817 238.64578342 -318.35990906 236.8674469 C-319.21615084 232.06756678 -320.05974086 227.26554658 -320.90023828 222.46288753 C-321.60476919 218.44377846 -322.31545258 214.42576712 -323.02607888 210.40773207 C-324.70269534 200.92697591 -326.36893343 191.44443646 -328.02856445 181.96069336 C-329.73786848 172.19412214 -331.46426512 162.43068265 -333.19914943 152.66862577 C-334.69173052 144.26662122 -336.17389001 135.86282394 -337.64771527 127.4575091 C-338.5265147 122.44619009 -339.40913701 117.43562445 -340.30172157 112.42674065 C-341.140303 107.71817809 -341.96578575 103.00749968 -342.78143501 98.29491234 C-343.08196914 96.57123508 -343.38701552 94.84833721 -343.6970253 93.12633896 C-347.61971102 71.2980516 -347.61971102 71.2980516 -342.359375 61.8828125 C-334.67164091 51.23485896 -323.9632303 49.38154352 -311.75805664 47.28637695 C-310.30004616 47.02958469 -308.84216903 46.7720343 -307.38441467 46.51379204 C-303.40067943 45.81028356 -299.41515881 45.11740454 -295.42926335 44.42625594 C-291.15529861 43.6831798 -286.88310656 42.93004265 -282.61070251 42.17805481 C-274.3093337 40.71848702 -266.00644828 39.26773652 -257.70299953 37.82005364 C-247.13479376 35.97715507 -236.56836096 34.12417046 -226.00195312 32.27099609 C-222.1130782 31.589051 -218.22419078 30.90717723 -214.33529663 30.2253418 C-213.36948524 30.05599869 -212.40367385 29.88665557 -211.40859544 29.71218085 C-204.5247307 28.50534847 -197.64054436 27.30036109 -190.7562561 26.09594727 C-167.06343827 21.94996292 -143.37714015 17.76904102 -119.69772148 13.54720879 C-114.87485921 12.68740913 -110.05173145 11.82910631 -105.22853088 10.97120667 C-104.45142732 10.83296905 -103.67432375 10.69473144 -102.87367159 10.5523048 C-99.79013563 10.00378143 -96.70659738 9.45527089 -93.62304175 8.90685809 C-84.75199745 7.3290258 -75.88181713 5.74651376 -67.01290399 4.15674514 C-60.85934254 3.05427024 -54.70422649 1.96071335 -48.54849434 0.87042809 C-46.05477224 0.42721282 -43.56158045 -0.01899876 -41.06898308 -0.46849632 C-37.68796495 -1.0778941 -34.3052318 -1.67669407 -30.921875 -2.27294922 C-29.95281754 -2.45030452 -28.98376009 -2.62765982 -27.98533726 -2.81038952 C-18.11629665 -4.52572792 -8.86168876 -5.36327329 0 0 Z M-245 128 C-249.66035138 134.17602796 -250.14909574 140.25238635 -250.14717102 147.74711609 C-250.15084771 148.5202075 -250.1545244 149.29329892 -250.1583125 150.08981735 C-250.16931303 152.67666562 -250.17318699 155.26347367 -250.17700195 157.8503418 C-250.18326932 159.70675279 -250.18991637 161.56316254 -250.19691467 163.41957092 C-250.21792416 169.51277803 -250.22831387 175.6059853 -250.23828125 181.69921875 C-250.24232991 183.79934006 -250.24644686 185.89946124 -250.25063133 187.99958229 C-250.26967583 197.86672018 -250.28390866 207.73385062 -250.2922433 217.60100335 C-250.30201457 228.98009299 -250.32833441 240.35898806 -250.36874419 251.73800915 C-250.39892925 260.54074284 -250.41371443 269.34342082 -250.41702431 278.14620525 C-250.41937196 283.40032486 -250.42829551 288.65423643 -250.45348549 293.9083004 C-250.47681313 298.85367339 -250.48098054 303.79870202 -250.47072411 308.74411583 C-250.47022979 310.5540583 -250.47651946 312.364018 -250.49028015 314.17390823 C-250.89537596 328.80574618 -250.89537596 328.80574618 -244.62341785 341.59156322 C-242.94091654 343.16959854 -242.94091654 343.16959854 -240 345 C-238.80404064 345.79431474 -238.80404064 345.79431474 -237.58392048 346.60467625 C-232.25717367 348.67853263 -227.20061543 348.41639299 -221.53227234 348.38768005 C-219.62913048 348.39575836 -219.62913048 348.39575836 -217.68754131 348.40399987 C-214.1725096 348.41845171 -210.65771242 348.41421064 -207.14266789 348.40683305 C-203.34908735 348.40210293 -199.55555766 348.41460995 -195.76199341 348.42485046 C-188.33218198 348.44204774 -180.90245508 348.44287644 -173.47262891 348.43763756 C-167.43260359 348.43359582 -161.39260325 348.43503947 -155.35257912 348.44038582 C-154.49285322 348.44113424 -153.63312732 348.44188266 -152.74734912 348.44265376 C-151.0007829 348.44418525 -149.25421668 348.4457236 -147.50765047 348.44726873 C-131.12749097 348.4609975 -114.74737922 348.45555377 -98.3672208 348.44408352 C-83.38745973 348.43415402 -68.40782223 348.44708623 -53.42808022 348.47101771 C-38.04271512 348.49541176 -22.65740756 348.50501563 -7.2720235 348.49836498 C1.36398389 348.49487302 9.99989629 348.49710315 18.63588905 348.51461601 C25.98877167 348.52934195 33.34149241 348.52996852 40.69437186 348.5125451 C44.44439835 348.50403527 48.19413573 348.50188477 51.94414711 348.51719666 C56.01343931 348.53360613 60.08203466 348.51889063 64.15132141 348.50120544 C65.92098635 348.51561295 65.92098635 348.51561295 67.7264021 348.53031152 C75.85380739 348.45763663 82.2329548 347.16316772 88.55859375 341.8515625 C89.17863281 341.11679687 89.79867188 340.38203125 90.4375 339.625 C91.07558594 338.89539063 91.71367187 338.16578125 92.37109375 337.4140625 C95.83166583 332.28544488 96.29454147 327.16714 96.27415466 321.12590027 C96.27939134 320.35124886 96.28462802 319.57659746 96.29002339 318.77847177 C96.30498069 316.19234961 96.30572759 313.60642605 96.30639648 311.02026367 C96.31402081 309.16208056 96.32244878 307.30390061 96.33161926 305.44572449 C96.35354343 300.40430784 96.36236031 295.36295184 96.36744571 290.32149291 C96.37109157 287.1698553 96.37733281 284.01823352 96.3844471 280.86660194 C96.40893382 269.86605762 96.42199193 258.86556041 96.42553711 247.86499023 C96.42917234 237.61979423 96.4590689 227.3748978 96.50094169 217.12979335 C96.53565829 208.32619712 96.55108578 199.52270013 96.55178314 190.71903592 C96.55257545 185.46436665 96.56129309 180.21000267 96.58978081 174.95540428 C96.61598497 170.01159052 96.61815344 165.06833471 96.60212517 160.12448311 C96.60031259 158.31411903 96.6069841 156.50372268 96.62294388 154.69342804 C96.71152613 143.98978899 96.31427846 136.04127994 88.97265625 127.6953125 C88.34230469 127.17710937 87.71195312 126.65890625 87.0625 126.125 C86.43472656 125.59132812 85.80695313 125.05765625 85.16015625 124.5078125 C78.31638782 119.73078788 72.86563375 119.57235047 64.72209167 119.61904907 C63.4737482 119.6143691 62.22540472 119.60968913 60.93923265 119.60486734 C57.48120009 119.59235509 54.02341623 119.59852867 50.56538284 119.60782599 C46.83315789 119.61461548 43.10097562 119.60413562 39.36875916 119.59588623 C32.05925874 119.58254444 24.74985072 119.58542895 17.44034668 119.59412415 C11.49805313 119.60090009 5.55578546 119.6018178 -0.38651085 119.5985527 C-1.23235994 119.598093 -2.07820904 119.59763331 -2.94968992 119.59715968 C-4.66807114 119.59620049 -6.38645236 119.59522785 -8.10483357 119.5942419 C-24.22032103 119.5856863 -40.33575732 119.595524 -56.45123639 119.611643 C-70.27195995 119.62503905 -84.09260789 119.62272431 -97.91333008 119.60888672 C-113.96661314 119.59282134 -130.0198513 119.58651796 -146.07314128 119.59572351 C-147.78610813 119.59667914 -149.49907499 119.59762225 -151.21204185 119.5985527 C-152.05482326 119.59901553 -152.89760467 119.59947836 -153.7659249 119.59995521 C-159.69791714 119.60254277 -165.62988085 119.59817899 -171.56186867 119.59111404 C-178.79578967 119.58268789 -186.02961304 119.58500229 -193.2635229 119.60095628 C-196.95274462 119.60882514 -200.64180376 119.61195445 -204.33102417 119.60200882 C-208.33453708 119.59137945 -212.3376417 119.60409623 -216.34114075 119.61904907 C-217.50146263 119.61235691 -218.66178452 119.60566474 -219.85726768 119.59876978 C-229.27118589 119.66695305 -237.99980624 121.23617642 -245 128 Z "
     transform="translate(370,82)"
     style="fill: #434343;"
     id="path14435" />
  <path
     d="M0 0 C5.28 0 10.56 0 16 0 C16.33 16.17 16.66 32.34 17 49 C19.64 44.05 22.28 39.1 25 34 C31.68779508 26.14449467 38.88166454 20.83229994 49.32421875 19.76171875 C59.20347964 19.45146097 67.77710348 23.12393645 75 29.8671875 C83.41364615 38.55922635 85.67019696 47.46971937 85.61376953 59.29003906 C85.1751397 69.65566941 80.21608784 77.78391216 73 85 C70.36 86.98 67.72 88.96 65 91 C122.09 91.33 179.18 91.66 238 92 C238 97.94 238 103.88 238 110 C135.04 110.495 135.04 110.495 30 111 C42.7968341 119.95778387 53.82353571 126.46626444 69 130 C70.423125 130.33644531 70.423125 130.33644531 71.875 130.6796875 C73.91125047 131.14420714 75.95475314 131.57684548 78 132 C78.02699725 134.27076842 78.04639453 136.54162821 78.0625 138.8125 C78.07410156 140.07707031 78.08570313 141.34164062 78.09765625 142.64453125 C78 146 78 146 77 149 C53.99534731 150.40844812 33.66773113 138.58426474 17 124 C16.67 149.74 16.34 175.48 16 202 C10.72 202 5.44 202 0 202 C0 176.92 0 151.84 0 126 C-4.62 129.3 -9.24 132.6 -14 136 C-26.74260974 142.86140524 -37.37590154 147.22223583 -51.875 147.0625 C-52.65875 147.05798828 -53.4425 147.05347656 -54.25 147.04882812 C-56.16670014 147.03714093 -58.08336048 147.01920908 -60 147 C-61.59412284 143.81175432 -61.10174735 140.37103338 -61.0625 136.875 C-61.05798828 136.12089844 -61.05347656 135.36679687 -61.04882812 134.58984375 C-61.03703499 132.72652873 -61.01909942 130.86325445 -61 129 C-60.4423999 128.97083496 -59.8847998 128.94166992 -59.31030273 128.91162109 C-41.26278838 127.86232545 -28.41674929 124.51265591 -14 113 C-13.01 112.34 -12.02 111.68 -11 111 C-44.165 110.505 -44.165 110.505 -78 110 C-78 104.06 -78 98.12 -78 92 C-63.15 91.505 -63.15 91.505 -48 91 C-51.63 88.36 -55.26 85.72 -59 83 C-66.29065487 75.39509276 -69.94762 67.02811808 -70.4375 56.5625 C-70.10035745 46.16971434 -65.3681055 36.20604948 -57.9296875 28.9921875 C-49.77535155 22.20164293 -42.06974986 20.27268393 -31.50390625 20.5234375 C-23.72232199 21.58180236 -17.00648584 26.03768589 -11.69921875 31.73046875 C-7.48031045 37.36537845 -4.14251605 43.7149679 -1 50 C-0.67 33.5 -0.34 17 0 0 Z "
     transform="translate(212,216)"
     style="fill: #941201;"
     id="path14437" />
  <path
     d="M0 0 C2.16369021 11.15221176 4.27077585 22.3134323 6.25 33.5 C6.51248535 34.95805054 6.51248535 34.95805054 6.78027344 36.44555664 C6.94043945 37.36071045 7.10060547 38.27586426 7.265625 39.21875 C7.40774414 40.02248047 7.54986328 40.82621094 7.69628906 41.65429688 C8.01653934 44.12774114 8.05194832 46.50869141 8 49 C1.56261404 50.14647455 -4.87491594 51.29213837 -11.3125 52.4375 C-12.299086 52.61307434 -13.285672 52.78864868 -14.30215454 52.96954346 C-26.53029996 55.14528614 -38.75990027 57.31250095 -50.9921875 59.46484375 C-52.13981064 59.66687912 -53.28743378 59.86891449 -54.46983337 60.07707214 C-60.06793332 61.06251438 -65.66624228 62.04674213 -71.26489258 63.02905273 C-73.32634303 63.3917166 -75.38778548 63.75442596 -77.44921875 64.1171875 C-78.37044525 64.27835556 -79.29167175 64.43952362 -80.24081421 64.60557556 C-81.11742706 64.76006668 -81.99403992 64.9145578 -82.8972168 65.07373047 C-83.64529099 65.20504364 -84.39336517 65.33635681 -85.16410828 65.47164917 C-86.81257182 65.778772 -88.45777641 66.10811834 -90.08970737 66.4935503 C-97.07888844 68.07358494 -103.77823396 68.28689693 -110.92602539 68.27124023 C-112.18099319 68.27646698 -113.435961 68.28169373 -114.72895813 68.28707886 C-117.43861963 68.29727637 -120.14802834 68.3040321 -122.85768318 68.30496025 C-127.14985756 68.30691659 -131.44187392 68.32505309 -135.73399353 68.34571838 C-146.38989917 68.39468659 -157.04584717 68.42577645 -167.70184326 68.44702148 C-175.9965129 68.46357925 -184.29104504 68.48646993 -192.58562273 68.53004223 C-196.84492458 68.55171242 -201.10396448 68.55988661 -205.36331761 68.55764949 C-208.64339105 68.55971889 -211.92335202 68.58109906 -215.20336914 68.59936523 C-216.37089722 68.59478806 -217.53842529 68.59021088 -218.74133301 68.585495 C-228.71808315 68.67365899 -236.02598995 70.2700916 -243.34375 77.25390625 C-248.06694645 82.23331383 -248.91152091 87.40509728 -250 94 C-255.82943025 95.81249504 -261.66712021 96.90498225 -267.68359375 97.91015625 C-268.69792984 98.08252304 -269.71226593 98.25488983 -270.75733948 98.43247986 C-272.89430856 98.79481677 -275.03159951 99.15525998 -277.16918945 99.51391602 C-280.42409423 100.06024985 -283.67792873 100.61262647 -286.93164062 101.16601562 C-289.01556476 101.51858542 -291.09954726 101.87081042 -293.18359375 102.22265625 C-294.14841171 102.38621109 -295.11322968 102.54976593 -296.10728455 102.71827698 C-301.39515098 103.60346115 -306.6747314 104.37692597 -312 105 C-313.14554372 98.8264149 -314.28414925 92.65157909 -315.41796875 86.47583008 C-315.80439655 84.37560145 -316.19240442 82.2756629 -316.58203125 80.17602539 C-317.14219396 77.15586241 -317.69664302 74.13469762 -318.25 71.11328125 C-318.42499023 70.17664139 -318.59998047 69.24000153 -318.78027344 68.27497864 C-318.94043945 67.39444321 -319.10060547 66.51390778 -319.265625 65.60668945 C-319.40774414 64.83613724 -319.54986328 64.06558502 -319.69628906 63.27168274 C-320.0235798 60.82362891 -320.05118677 58.46695402 -320 56 C-309.97252271 53.17486043 -299.79621475 51.5077138 -289.53085327 49.81329346 C-284.26470671 48.94315838 -279.00146283 48.05583653 -273.73828125 47.16796875 C-272.66326859 46.9867749 -271.58825592 46.80558105 -270.48066711 46.61889648 C-260.19929882 44.87851786 -249.94231765 43.01455304 -239.6875 41.125 C-221.23040206 37.72874642 -202.74312128 34.52473525 -184.24554443 31.35705566 C-168.25125741 28.61634063 -152.27227888 25.80996374 -136.3125 22.875 C-120.43785444 19.95642891 -104.54191489 17.19041875 -88.62631226 14.50448608 C-70.88172165 11.50908831 -53.1600509 8.3949597 -35.445755 5.22561646 C-33.73742557 4.92013022 -32.0290029 4.61516482 -30.32048035 4.3107605 C-26.26180634 3.58712385 -22.20509902 2.8548663 -18.15136719 2.10400391 C-17.38069916 1.96315872 -16.61003113 1.82231354 -15.81600952 1.67720032 C-14.38360177 1.41534854 -12.95190515 1.14955905 -11.52114868 0.87882996 C-7.63081494 0.17308363 -3.95161613 -0.12413254 0 0 Z "
     transform="translate(368,132)"
     style="fill: #FDFDFD;"
     id="path14439" />
  <path
     d="M0 0 C2.2877439 0.09145856 4.57801291 0.12464965 6.86758423 0.12457275 C7.90343314 0.12668798 7.90343314 0.12668798 8.9602083 0.12884593 C11.27378568 0.13249527 13.58730162 0.12916392 15.90087891 0.12597656 C17.56009977 0.12737159 19.21932028 0.12927107 20.87854004 0.13163757 C24.45255443 0.13613368 28.02655735 0.13799064 31.60057449 0.13809967 C37.25770217 0.13924079 42.9147647 0.15208561 48.5718689 0.16766357 C49.52711633 0.17023643 50.48236377 0.17280928 51.4665581 0.1754601 C53.42001475 0.18072674 55.37347135 0.18601222 57.3269279 0.19131613 C70.495794 0.22640282 83.66457936 0.2529804 96.83349609 0.25048828 C105.7178265 0.24889738 114.60193478 0.2649903 123.48619401 0.30119491 C128.1847947 0.31962001 132.88302468 0.32902808 137.58165359 0.31671906 C142.00596955 0.30524126 146.42962317 0.31708157 150.85385132 0.34635353 C152.4718748 0.3529673 154.08995942 0.35117349 155.70795822 0.34005547 C165.75953428 0.27675264 174.39988784 0.77403021 182.13212013 7.98967361 C188.14962975 14.27365288 190.45797006 20.46744861 190.39440918 29.10151672 C190.40050028 29.88856764 190.40659139 30.67561857 190.41286707 31.48651952 C190.42943999 34.10875651 190.42472949 36.73050487 190.41992188 39.3527832 C190.42726558 41.23904929 190.43585269 43.12531089 190.44558716 45.01156616 C190.46778155 50.12533625 190.47073482 55.2389451 190.46883965 60.35275674 C190.46871983 64.62694448 190.47728847 68.9010982 190.48561716 73.17527646 C190.50484428 83.26262607 190.50773777 93.34989294 190.50097656 103.43725586 C190.49433811 113.83072255 190.51719395 124.22383413 190.55429029 134.61722881 C190.58501784 143.55165565 190.59634394 152.48596845 190.59245348 161.42044705 C190.59038893 166.75168792 190.59581985 172.08265249 190.62034607 177.41384315 C190.64266065 182.42991916 190.64069608 187.44541928 190.62041855 192.46149826 C190.6170167 194.29723625 190.62206186 196.13301337 190.63640213 197.9686985 C190.71681489 209.02985503 190.41048983 217.60578474 182.9375 226.4375 C182.298125 226.953125 181.65875 227.46875 181 228 C180.360625 228.53625 179.72125 229.0725 179.0625 229.625 C174.96255351 232.35829766 171.38474262 233.25001154 166.48763561 233.25726891 C165.38534435 233.2637178 164.2830531 233.27016669 163.14735907 233.276811 C161.33891775 233.2721652 161.33891775 233.2721652 159.49394226 233.26742554 C157.56652237 233.27422221 157.56652237 233.27422221 155.60016471 233.28115618 C152.03538477 233.29339125 148.47069865 233.29312513 144.9059025 233.29076743 C141.06052429 233.29035939 137.2151762 233.30139719 133.36981201 233.31088257 C125.83661091 233.32749637 118.30344111 233.33299229 110.77022322 233.33410732 C104.64674089 233.33505763 98.52326888 233.33916705 92.39978981 233.34550858 C75.03852917 233.36312212 57.67729325 233.37234728 40.31602361 233.37084763 C39.38004881 233.37076772 38.444074 233.3706878 37.47973633 233.37060547 C36.07405984 233.37048283 36.07405984 233.37048283 34.63998584 233.37035771 C19.45256171 233.3695448 4.26523675 233.38868332 -10.9221587 233.4168822 C-26.51653382 233.44560825 -42.11086058 233.45942265 -57.70526284 233.45769465 C-66.46030788 233.45703065 -75.21524895 233.46252747 -83.97027016 233.48405075 C-91.42457267 233.50225889 -98.87872409 233.50661295 -106.3330392 233.4930319 C-110.13559618 233.48650032 -113.93786326 233.48639164 -117.74039268 233.5037384 C-121.86481179 233.52235991 -125.98855926 233.50991969 -130.11299133 233.49447632 C-131.31192672 233.50476344 -132.5108621 233.51505057 -133.74612886 233.52564943 C-142.05145125 233.45683764 -147.20715019 232.10324075 -153.75 226.75 C-158.88363254 220.47556023 -160.59788939 214.9551136 -160.45410156 206.921875 C-160.45468567 206.05263901 -160.45526978 205.18340302 -160.45587158 204.28782654 C-160.45310567 201.44146474 -160.42208518 198.59617671 -160.390625 195.75 C-160.38315728 193.76603772 -160.37746686 191.78206802 -160.37347412 189.7980957 C-160.3582596 184.59640861 -160.31901394 179.39517389 -160.2746582 174.19366455 C-160.23361509 168.87786985 -160.21544384 163.5620015 -160.1953125 158.24609375 C-160.15251555 147.83053128 -160.08431509 137.41530337 -160 127 C-161.32 127 -162.64 127 -164 127 C-164 123.37 -164 119.74 -164 116 C-162.02 115.505 -162.02 115.505 -160 115 C-160 113.35 -160 111.7 -160 110 C-161.98 110 -163.96 110 -166 110 C-166 109.34 -166 108.68 -166 108 C-163.03 107.505 -163.03 107.505 -160 107 C-160.01918991 106.02440125 -160.03837982 105.04880249 -160.05815125 104.04364014 C-160.23774817 94.80588954 -160.40030201 85.56797162 -160.54658794 76.32963181 C-160.62231422 71.58120768 -160.70383982 66.83303708 -160.79907227 62.08496094 C-160.89092258 57.49449431 -160.96694702 52.90400293 -161.03244972 48.31308746 C-161.06001383 46.57010526 -161.09307967 44.82720025 -161.13199425 43.08443451 C-161.65642118 19.17030631 -161.65642118 19.17030631 -154.8125 10.5625 C-149.17200295 4.83852836 -143.4926932 1.28329946 -135.36567593 0.86412811 C-134.41681546 0.85897438 -133.467955 0.85382065 -132.49034119 0.84851074 C-131.39540848 0.84016708 -130.30047577 0.83182343 -129.17236328 0.82322693 C-127.98102783 0.81904251 -126.78969238 0.81485809 -125.56225586 0.81054688 C-123.62472123 0.79781697 -121.68718659 0.7850868 -119.74965203 0.7723465 C-117.672487 0.75962387 -115.59532224 0.74929173 -113.51814079 0.73963928 C-109.18576653 0.71937175 -104.85345847 0.69172681 -100.52113342 0.66296387 C-90.54450236 0.59784947 -80.56782215 0.54235167 -70.59113312 0.48697662 C-61.44315632 0.43610906 -52.29520361 0.38321183 -43.14728647 0.32245111 C-38.84068442 0.29412588 -34.5340901 0.27052189 -30.22744167 0.25052643 C-28.19431132 0.2403565 -26.16120906 0.22797076 -24.12809753 0.21458435 C-21.64945601 0.19827665 -19.17078809 0.18546436 -16.69210815 0.17677307 C-15.59999527 0.16842941 -14.50788239 0.16008575 -13.38267517 0.15148926 C-12.43419173 0.14633553 -11.48570829 0.14118179 -10.50848293 0.13587189 C-8.04375682 0.09119449 -8.04375682 0.09119449 -5.9135828 -0.57196808 C-3.57906023 -1.09415619 -2.30646272 -0.60358317 0 0 Z M-153 11 C-157.66035138 17.17602796 -158.14909574 23.25238635 -158.14717102 30.74711609 C-158.15084771 31.5202075 -158.1545244 32.29329892 -158.1583125 33.08981735 C-158.16931303 35.67666562 -158.17318699 38.26347367 -158.17700195 40.8503418 C-158.18326932 42.70675279 -158.18991637 44.56316254 -158.19691467 46.41957092 C-158.21792416 52.51277803 -158.22831387 58.6059853 -158.23828125 64.69921875 C-158.24232991 66.79934006 -158.24644686 68.89946124 -158.25063133 70.99958229 C-158.26967583 80.86672018 -158.28390866 90.73385062 -158.2922433 100.60100335 C-158.30201457 111.98009299 -158.32833441 123.35898806 -158.36874419 134.73800915 C-158.39892925 143.54074284 -158.41371443 152.34342082 -158.41702431 161.14620525 C-158.41937196 166.40032486 -158.42829551 171.65423643 -158.45348549 176.9083004 C-158.47681313 181.85367339 -158.48098054 186.79870202 -158.47072411 191.74411583 C-158.47022979 193.5540583 -158.47651946 195.364018 -158.49028015 197.17390823 C-158.89537596 211.80574618 -158.89537596 211.80574618 -152.62341785 224.59156322 C-150.94091654 226.16959854 -150.94091654 226.16959854 -148 228 C-146.80404064 228.79431474 -146.80404064 228.79431474 -145.58392048 229.60467625 C-140.25717367 231.67853263 -135.20061543 231.41639299 -129.53227234 231.38768005 C-127.62913048 231.39575836 -127.62913048 231.39575836 -125.68754131 231.40399987 C-122.1725096 231.41845171 -118.65771242 231.41421064 -115.14266789 231.40683305 C-111.34908735 231.40210293 -107.55555766 231.41460995 -103.76199341 231.42485046 C-96.33218198 231.44204774 -88.90245508 231.44287644 -81.47262891 231.43763756 C-75.43260359 231.43359582 -69.39260325 231.43503947 -63.35257912 231.44038582 C-62.49285322 231.44113424 -61.63312732 231.44188266 -60.74734912 231.44265376 C-59.0007829 231.44418525 -57.25421668 231.4457236 -55.50765047 231.44726873 C-39.12749097 231.4609975 -22.74737922 231.45555377 -6.3672208 231.44408352 C8.61254027 231.43415402 23.59217777 231.44708623 38.57191978 231.47101771 C53.95728488 231.49541176 69.34259244 231.50501563 84.7279765 231.49836498 C93.36398389 231.49487302 101.99989629 231.49710315 110.63588905 231.51461601 C117.98877167 231.52934195 125.34149241 231.52996852 132.69437186 231.5125451 C136.44439835 231.50403527 140.19413573 231.50188477 143.94414711 231.51719666 C148.01343931 231.53360613 152.08203466 231.51889063 156.15132141 231.50120544 C157.92098635 231.51561295 157.92098635 231.51561295 159.7264021 231.53031152 C167.85380739 231.45763663 174.2329548 230.16316772 180.55859375 224.8515625 C181.17863281 224.11679687 181.79867188 223.38203125 182.4375 222.625 C183.07558594 221.89539063 183.71367187 221.16578125 184.37109375 220.4140625 C187.83166583 215.28544488 188.29454147 210.16714 188.27415466 204.12590027 C188.27939134 203.35124886 188.28462802 202.57659746 188.29002339 201.77847177 C188.30498069 199.19234961 188.30572759 196.60642605 188.30639648 194.02026367 C188.31402081 192.16208056 188.32244878 190.30390061 188.33161926 188.44572449 C188.35354343 183.40430784 188.36236031 178.36295184 188.36744571 173.32149291 C188.37109157 170.1698553 188.37733281 167.01823352 188.3844471 163.86660194 C188.40893382 152.86605762 188.42199193 141.86556041 188.42553711 130.86499023 C188.42917234 120.61979423 188.4590689 110.3748978 188.50094169 100.12979335 C188.53565829 91.32619712 188.55108578 82.52270013 188.55178314 73.71903592 C188.55257545 68.46436665 188.56129309 63.21000267 188.58978081 57.95540428 C188.61598497 53.01159052 188.61815344 48.06833471 188.60212517 43.12448311 C188.60031259 41.31411903 188.6069841 39.50372268 188.62294388 37.69342804 C188.71152613 26.98978899 188.31427846 19.04127994 180.97265625 10.6953125 C180.34230469 10.17710937 179.71195312 9.65890625 179.0625 9.125 C178.43472656 8.59132812 177.80695313 8.05765625 177.16015625 7.5078125 C170.31638782 2.73078788 164.86563375 2.57235047 156.72209167 2.61904907 C155.4737482 2.6143691 154.22540472 2.60968913 152.93923265 2.60486734 C149.48120009 2.59235509 146.02341623 2.59852867 142.56538284 2.60782599 C138.83315789 2.61461548 135.10097562 2.60413562 131.36875916 2.59588623 C124.05925874 2.58254444 116.74985072 2.58542895 109.44034668 2.59412415 C103.49805313 2.60090009 97.55578546 2.6018178 91.61348915 2.5985527 C90.76764006 2.598093 89.92179096 2.59763331 89.05031008 2.59715968 C87.33192886 2.59620049 85.61354764 2.59522785 83.89516643 2.5942419 C67.77967897 2.5856863 51.66424268 2.595524 35.54876361 2.611643 C21.72804005 2.62503905 7.90739211 2.62272431 -5.91333008 2.60888672 C-21.96661314 2.59282134 -38.0198513 2.58651796 -54.07314128 2.59572351 C-55.78610813 2.59667914 -57.49907499 2.59762225 -59.21204185 2.5985527 C-60.05482326 2.59901553 -60.89760467 2.59947836 -61.7659249 2.59995521 C-67.69791714 2.60254277 -73.62988085 2.59817899 -79.56186867 2.59111404 C-86.79578967 2.58268789 -94.02961304 2.58500229 -101.2635229 2.60095628 C-104.95274462 2.60882514 -108.64180376 2.61195445 -112.33102417 2.60200882 C-116.33453708 2.59137945 -120.3376417 2.60409623 -124.34114075 2.61904907 C-125.50146263 2.61235691 -126.66178452 2.60566474 -127.85726768 2.59876978 C-137.27118589 2.66695305 -145.99980624 4.23617642 -153 11 Z "
     transform="translate(278,199)"
     style="fill: #606061;"
     id="path14441" />
  <path
     d="M0 0 C0.89168884 -0.00708481 1.78337769 -0.01416962 2.7020874 -0.02146912 C3.67776672 -0.0189917 4.65344604 -0.01651428 5.65869141 -0.01396179 C6.68818909 -0.01907272 7.71768677 -0.02418365 8.77838135 -0.02944946 C12.18906429 -0.04337541 15.59954588 -0.04238658 19.01025391 -0.04008484 C21.37532629 -0.04396978 23.74039798 -0.04830402 26.10546875 -0.05307007 C31.06528993 -0.0605385 36.02503993 -0.06023622 40.98486328 -0.05497742 C47.35077001 -0.04917839 53.71638621 -0.06612147 60.08224487 -0.08932209 C64.96689568 -0.10402965 69.851476 -0.10493525 74.73614502 -0.10181236 C77.08376644 -0.10232696 79.43139167 -0.1075904 81.7789917 -0.11762428 C85.05679401 -0.12991517 88.33402375 -0.12324131 91.61181641 -0.11161804 C92.58749573 -0.11926178 93.56317505 -0.12690552 94.56842041 -0.13478088 C95.46010925 -0.12776657 96.3517981 -0.12075226 97.27050781 -0.11352539 C98.04552643 -0.11369313 98.82054504 -0.11386087 99.61904907 -0.1140337 C102.16782754 0.35968009 103.05352658 1.24592524 104.63525391 3.26069641 C105.06884766 5.19819641 105.06884766 5.19819641 105.07275391 7.26069641 C105.09208984 7.94132141 105.11142578 8.62194641 105.13134766 9.32319641 C104.41897349 12.10538213 103.032775 12.7639722 100.63525391 14.26069641 C98.51161861 14.63821983 98.51161861 14.63821983 96.18821716 14.64164734 C94.86124313 14.65433655 94.86124313 14.65433655 93.50746155 14.6672821 C92.54472824 14.66120941 91.58199493 14.65513672 90.59008789 14.64888 C89.06025269 14.65676544 89.06025269 14.65676544 87.49951172 14.66481018 C84.12663483 14.67801957 80.75422939 14.66926917 77.38134766 14.65913391 C75.04012461 14.66115421 72.69890217 14.66406528 70.35768127 14.66783142 C65.45087696 14.67225593 60.54423645 14.6658189 55.63745117 14.65180969 C49.33993479 14.63470849 43.04280169 14.64456438 36.74529934 14.66252708 C31.91125079 14.67335334 27.07729353 14.66992404 22.24324226 14.66214371 C19.92074603 14.66013899 17.59824157 14.66261045 15.27575493 14.66958237 C12.03395409 14.67717867 8.79277944 14.66561818 5.55102539 14.64888 C4.58626785 14.6549527 3.62151031 14.66102539 2.6275177 14.6672821 C1.74568817 14.65882263 0.86385864 14.65036316 -0.04469299 14.64164734 C-0.81103845 14.64051626 -1.5773839 14.63938519 -2.36695194 14.63821983 C-4.90602356 14.15841114 -5.79587332 13.27745831 -7.36474609 11.26069641 C-7.76318359 9.06929016 -7.76318359 9.06929016 -7.73974609 6.69819641 C-7.74748047 5.91315735 -7.75521484 5.12811829 -7.76318359 4.31929016 C-7.63169922 3.63995422 -7.50021484 2.96061829 -7.36474609 2.26069641 C-4.24123528 0.17835587 -3.54815943 0.00939837 0 0 Z "
     transform="translate(328.36474609375,265.7393035888672)"
     style="fill: #424242;"
     id="path14443" />
  <path
     d="M0 0 C4.56770417 3.01274105 8.19046399 6.69639197 9.9375 11.9375 C10.30612887 17.55909031 10.22262031 21.15914318 6.9375 25.9375 C0.09676698 33.72290567 -8.80610758 37.74679497 -18.0625 41.9375 C-19.77179688 42.71867187 -19.77179688 42.71867187 -21.515625 43.515625 C-26.71954489 45.79070555 -31.37825376 47.54993776 -37.0625 47.9375 C-36.44979603 42.0081067 -34.21063828 36.88633249 -31.9375 31.4375 C-31.53225098 30.46296875 -31.12700195 29.4884375 -30.70947266 28.484375 C-20.94483172 5.24291558 -20.94483172 5.24291558 -13.0625 -0.0625 C-8.44150885 -1.60283038 -4.61480704 -1.6010555 0 0 Z "
     transform="translate(271.0625,256.0625)"
     style="fill: #FDFAFA;"
     id="path14445" />
  <path
     d="M0 0 C14.53402604 7.58178006 21.09598116 31.74201931 26 46 C26 46.66 26 47.32 26 48 C20.60113996 48.36049622 16.34353248 47.10536143 11.3125 45.375 C10.51739014 45.10357178 9.72228027 44.83214355 8.90307617 44.55249023 C-2.3513769 40.59290769 -12.92164642 35.70912077 -18.4375 24.5625 C-20.42002281 19.47689801 -21.33157131 15.0994447 -19.08203125 9.86328125 C-14.81132899 2.38609704 -8.81240008 -2.11677753 0 0 Z "
     transform="translate(180,255)"
     style="fill: #FDFAFA;"
     id="path14447" />
  <path
     d="M0 0 C2.2877439 0.09145856 4.57801291 0.12464965 6.86758423 0.12457275 C7.90343314 0.12668798 7.90343314 0.12668798 8.9602083 0.12884593 C11.27378568 0.13249527 13.58730162 0.12916392 15.90087891 0.12597656 C17.56009977 0.12737159 19.21932028 0.12927107 20.87854004 0.13163757 C24.45255443 0.13613368 28.02655735 0.13799064 31.60057449 0.13809967 C37.25770217 0.13924079 42.9147647 0.15208561 48.5718689 0.16766357 C49.52711633 0.17023643 50.48236377 0.17280928 51.4665581 0.1754601 C53.42001475 0.18072674 55.37347135 0.18601222 57.3269279 0.19131613 C70.495794 0.22640282 83.66457936 0.2529804 96.83349609 0.25048828 C105.7178265 0.24889738 114.60193478 0.2649903 123.48619401 0.30119491 C128.1847947 0.31962001 132.88302468 0.32902808 137.58165359 0.31671906 C142.00596955 0.30524126 146.42962317 0.31708157 150.85385132 0.34635353 C152.4718748 0.3529673 154.08995942 0.35117349 155.70795822 0.34005547 C165.75953428 0.27675264 174.39988784 0.77403021 182.13212013 7.98967361 C188.17923532 14.30456946 190.46453154 20.49353653 190.36076355 29.16880798 C190.36332682 29.96291456 190.3658901 30.75702114 190.36853105 31.57519156 C190.37344987 34.2208296 190.35700777 36.86588965 190.34057617 39.51147461 C190.33972949 41.41396064 190.34020585 43.31644765 190.34190369 45.21893311 C190.34276345 50.37339911 190.32514067 55.52765514 190.30418181 60.6820724 C190.2854119 66.07258839 190.28366432 71.46310933 190.28010559 76.85365295 C190.27078607 87.05680637 190.24617347 97.25986321 190.21605712 107.46297413 C190.18251029 119.08079782 190.16602638 130.69862616 190.15097082 142.31648624 C190.11962389 166.21104434 190.06686512 190.10551676 190 214 C189.01 214.33 188.02 214.66 187 215 C187.00460896 214.0136258 187.00921793 213.02725161 187.01396656 212.01098728 C187.12501593 187.99874259 187.20715321 163.98653124 187.25906086 139.9740839 C187.28483091 128.36178009 187.31995876 116.74964603 187.37719727 105.13745117 C187.42706865 95.01501855 187.45929972 84.89270887 187.47044247 74.7701568 C187.47695484 69.4114109 187.49223618 64.05301669 187.52865028 58.69438362 C187.56266855 53.6472744 187.57304109 48.6006607 187.56553841 43.55344772 C187.56691034 41.70437232 187.57680796 39.85527981 187.59602737 38.00630379 C187.77548133 23.32969669 187.77548133 23.32969669 180.21510792 11.17475986 C172.9096209 4.32392098 166.25940655 3.56153802 156.54763794 3.60127258 C155.28069371 3.59462576 154.01374948 3.58797893 152.708413 3.58113068 C149.19882402 3.56311707 145.68944676 3.56366096 142.17982244 3.56726015 C138.39253672 3.56788417 134.60532192 3.55126234 130.81806946 3.53674316 C124.25873413 3.51395325 117.69945192 3.50207138 111.1400795 3.49761391 C101.6563618 3.49115338 92.17274015 3.46821771 82.68906115 3.44127061 C67.30216105 3.39799697 51.91526498 3.36803351 36.52832031 3.34643555 C21.58201104 3.32542759 6.63573484 3.29815409 -8.31054688 3.26245117 C-9.23195217 3.26025235 -10.15335746 3.25805352 -11.10268413 3.25578807 C-15.72513859 3.24471846 -20.34759274 3.23352564 -24.97004676 3.22227156 C-63.31333567 3.12907829 -101.65664189 3.0574841 -140 3 C-137.4247353 0.4247353 -136.43186589 0.74418009 -132.85110474 0.72825623 C-131.21489166 0.71367874 -131.21489166 0.71367874 -129.54562378 0.69880676 C-127.74244186 0.69792305 -127.74244186 0.69792305 -125.90283203 0.69702148 C-124.64100098 0.68858215 -123.37916992 0.68014282 -122.07910156 0.67144775 C-119.33117234 0.65314619 -116.58331148 0.64112223 -113.83533096 0.63390923 C-109.49055812 0.62243966 -105.14593647 0.5969896 -100.80123901 0.56959534 C-93.92831463 0.52791099 -87.055383 0.49551491 -80.182392 0.46712118 C-67.87797038 0.41620046 -55.57361242 0.35396802 -43.26929748 0.28178078 C-38.95014854 0.25686549 -34.63101929 0.23743005 -30.31182504 0.22239864 C-28.27130632 0.21464789 -26.2308119 0.20472003 -24.19030762 0.19384766 C-21.70203321 0.18069769 -19.21373659 0.17109244 -16.72543335 0.16566467 C-15.62898499 0.15876617 -14.53253662 0.15186768 -13.40286255 0.14476013 C-12.45048265 0.14090522 -11.49810276 0.1370503 -10.51686287 0.13307858 C-8.04490694 0.09187175 -8.04490694 0.09187175 -5.91232109 -0.57154751 C-3.5784166 -1.09445509 -2.30604676 -0.60347431 0 0 Z "
     transform="translate(278,199)"
     style="fill: #5E5E5F;"
     id="path14449" />
  <path
     d="M0 0 C1.50692665 -0.01441132 1.50692665 -0.01441132 3.04429626 -0.02911377 C4.12352859 -0.03336365 5.20276093 -0.03761353 6.31469727 -0.04199219 C7.98641747 -0.0505423 7.98641747 -0.0505423 9.69190979 -0.05926514 C12.04801486 -0.06870642 14.40413308 -0.07524565 16.76025391 -0.07910156 C20.36392168 -0.08882085 23.96702235 -0.11985872 27.57055664 -0.15136719 C29.8602668 -0.15789614 32.14998103 -0.16314703 34.43969727 -0.16699219 C36.05550941 -0.18551239 36.05550941 -0.18551239 37.70396423 -0.20440674 C43.46493715 -0.18725079 47.65179969 -0.13067102 51.94360352 4.16113281 C52.41139711 10.4763463 52.41139711 10.4763463 50.78004456 12.86442566 C48.22309164 14.66988473 46.42661757 14.53537454 43.31054688 14.53344727 C42.15602524 14.53967606 41.0015036 14.54590485 39.81199646 14.55232239 C37.94161461 14.53850777 37.94161461 14.53850777 36.03344727 14.52441406 C34.11587364 14.52516182 34.11587364 14.52516182 32.15956116 14.52592468 C29.45502705 14.52358224 26.75127354 14.51541663 24.046875 14.49731445 C20.57752711 14.47460436 17.1086144 14.47408771 13.63921261 14.4808321 C10.33309123 14.48497271 7.02704747 14.47300438 3.72094727 14.46191406 C2.4720018 14.46282547 1.22305634 14.46373688 -0.06373596 14.4646759 C-1.79079018 14.45037788 -1.79079018 14.45037788 -3.55273438 14.43579102 C-4.56960831 14.43118362 -5.58648224 14.42657623 -6.63417053 14.42182922 C-9.05639648 14.16113281 -9.05639648 14.16113281 -11.05639648 12.16113281 C-11.32202148 10.06738281 -11.32202148 10.06738281 -11.30639648 7.66113281 C-11.31155273 6.86707031 -11.31670898 6.07300781 -11.32202148 5.25488281 C-11.05639648 3.16113281 -11.05639648 3.16113281 -9.05639648 1.16113281 C-6.02766163 0.13156785 -3.18257226 0.0246366 0 0 Z "
     transform="translate(332.056396484375,235.8388671875)"
     style="fill: #434343;"
     id="path14451" />
  <path
     d="M0 0 C0.70833984 -0.020625 1.41667969 -0.04125 2.14648438 -0.0625 C6.9178856 -0.09774581 10.24150607 0.50818857 14.3125 3.25 C18.64864506 8.60157143 17.90536684 14.703762 17.3125 21.25 C16.05577343 25.29945227 15.27463347 26.6428706 11.71875 28.88671875 C7.5785626 30.54374329 4.33377391 30.59252232 -0.0625 30.4375 C-0.79855469 30.42396484 -1.53460938 30.41042969 -2.29296875 30.39648438 C-4.09146743 30.36144869 -5.88958422 30.30765288 -7.6875 30.25 C-8.68750799 26.92276389 -8.81647955 23.89213988 -8.8203125 20.42578125 C-8.82160156 19.31525391 -8.82289063 18.20472656 -8.82421875 17.06054688 C-8.82035156 15.90619141 -8.81648438 14.75183594 -8.8125 13.5625 C-8.81636719 12.39654297 -8.82023437 11.23058594 -8.82421875 10.02929688 C-8.82292969 8.92263672 -8.82164062 7.81597656 -8.8203125 6.67578125 C-8.81918457 5.65911377 -8.81805664 4.64244629 -8.81689453 3.5949707 C-8.53840115 -1.4520651 -4.01055156 0.02841843 0 0 Z "
     transform="translate(422.6875,380.75)"
     style="fill: #0F3BFF;"
     id="path14453" />
  <path
     d="M0 0 C0.66 0.66 1.32 1.32 2 2 C1.46428571 5.53571429 1.46428571 5.53571429 0 7 C-2.77665837 7.24420122 -5.55216999 7.38388187 -8.3359375 7.5234375 C-11.30656105 8.05483937 -12.26715308 8.56823816 -14 11 C-14.41337182 14.23807925 -14.29786224 16.31119357 -13 19.3125 C-9.90272429 21.92582638 -6.99769792 21.73785587 -3 22 C-3 21.01 -3 20.02 -3 19 C-4.670625 19.061875 -4.670625 19.061875 -6.375 19.125 C-10 19 -10 19 -12 17 C-11.67 15.68 -11.34 14.36 -11 13 C-6.71 13 -2.42 13 2 13 C3.22485812 15.44971624 3.16722808 17.14234461 3.1875 19.875 C3.20167969 20.73867188 3.21585937 21.60234375 3.23046875 22.4921875 C2.98859252 25.1241288 2.32983541 26.73980544 1 29 C-1.39706123 29.10854617 -3.78915838 29.18753157 -6.1875 29.25 C-6.86103516 29.28351563 -7.53457031 29.31703125 -8.22851562 29.3515625 C-11.82320032 29.42170269 -13.80928189 29.12023533 -16.875 27.1875 C-20.56366672 23.39034309 -22.13724885 19.17187845 -22.4375 13.9375 C-21.80038959 8.20350635 -19.60133996 5.52127296 -15.5 1.625 C-10.45539092 -0.71713993 -5.48630664 -0.70632091 0 0 Z "
     transform="translate(366,344)"
     style="fill: #113CFF;"
     id="path14455" />
  <path
     d="M0 0 C7.48438243 0.09047056 7.48438243 0.09047056 10.625 1.8125 C12.94402526 4.46281458 13.18343105 5.0376456 13.3125 8.375 C12.8125 12.3125 12.8125 12.3125 10.8125 15.3125 C10.1525 15.3125 9.4925 15.3125 8.8125 15.3125 C9.4725 16.1375 10.1325 16.9625 10.8125 17.8125 C13.42484126 21.65742481 13.12584134 24.76905064 12.8125 29.3125 C11.1625 29.6425 9.5125 29.9725 7.8125 30.3125 C7.30846232 29.02240357 6.80940074 27.73036211 6.3125 26.4375 C6.0340625 25.71820313 5.755625 24.99890625 5.46875 24.2578125 C4.8125 22.3125 4.8125 22.3125 4.8125 20.3125 C2.8325 19.6525 0.8525 18.9925 -1.1875 18.3125 C-1.1875 21.9425 -1.1875 25.5725 -1.1875 29.3125 C-2.8375 29.6425 -4.4875 29.9725 -6.1875 30.3125 C-8.01784055 28.48215945 -7.31792797 25.58038008 -7.3203125 23.125 C-7.32160156 21.86945313 -7.32289063 20.61390625 -7.32421875 19.3203125 C-7.32212402 18.66321289 -7.3200293 18.00611328 -7.31787109 17.32910156 C-7.31252234 15.32088665 -7.31781691 13.31289541 -7.32421875 11.3046875 C-7.32292969 10.04914063 -7.32164062 8.79359375 -7.3203125 7.5 C-7.31862061 5.75783203 -7.31862061 5.75783203 -7.31689453 3.98046875 C-7.07742259 -0.95717152 -4.37390262 0.09390299 0 0 Z "
     transform="translate(396.1875,380.6875)"
     style="fill: #0F3AFF;"
     id="path14457" />
  <path
     d="M0 0 C2.97 0 5.94 0 9 0 C10.37077999 4.24482343 11.71871809 8.49656011 13.0625 12.75 C13.64741211 14.55984375 13.64741211 14.55984375 14.24414062 16.40625 C14.60830078 17.56640625 14.97246094 18.7265625 15.34765625 19.921875 C15.85824585 21.52434082 15.85824585 21.52434082 16.37915039 23.15917969 C16.99049843 25.95652367 16.98457424 27.35587428 16 30 C13.6875 30.3125 13.6875 30.3125 11 30 C8.75756777 27.13896577 8 25.65923696 8 22 C3.89299223 22.04003055 3.89299223 22.04003055 0 23 C-1.68983507 25.28980909 -2.18962861 27.21434833 -3 30 C-4.65 30 -6.3 30 -8 30 C-7.47902207 22.84572565 -5.80995512 16.68842676 -3.4375 9.9375 C-3.10814453 8.97650391 -2.77878906 8.01550781 -2.43945312 7.02539062 C-1.63452834 4.68060973 -0.82128851 2.33908854 0 0 Z "
     transform="translate(367,381)"
     style="fill: #153FFF;"
     id="path14459" />
  <path
     d="M0 0 C0.99 0.66 1.98 1.32 3 2 C3 3.32 3 4.64 3 6 C2.40832031 6.01417969 1.81664062 6.02835937 1.20703125 6.04296875 C-3.09944984 6.30290317 -5.47515126 6.62510804 -9.0625 9.1875 C-11.36241799 12.52609063 -11.67598043 14.02861498 -11 18 C-9.42633717 20.74499762 -8.55544194 21.81456112 -5.51953125 22.828125 C-4.62621094 22.96734375 -3.73289062 23.1065625 -2.8125 23.25 C-1.91144531 23.39953125 -1.01039063 23.5490625 -0.08203125 23.703125 C0.60503906 23.80109375 1.29210937 23.8990625 2 24 C2.38218767 25.65614657 2.71395102 27.32457024 3 29 C1.29207001 30.70792999 -0.85543481 30.25270346 -3.1875 30.3125 C-8.28523623 30.26621705 -11.11196052 29.49923553 -15 26 C-18.74976591 21.733025 -19.35804062 17.80450272 -19.27734375 12.28125 C-18.6848301 7.40761657 -15.84661748 4.74817359 -12.3125 1.625 C-8.14207578 -0.42086848 -4.57840874 -0.74998696 0 0 Z "
     transform="translate(352,381)"
     style="fill: #133DFF;"
     id="path14461" />
  <path
     d="M0 0 C0.7528125 -0.01417969 1.505625 -0.02835937 2.28125 -0.04296875 C4.74864173 0.21332722 6.36356256 0.95904847 8.5 2.1875 C8.17 3.8375 7.84 5.4875 7.5 7.1875 C4.02674819 8.3452506 1.13932552 8.25616652 -2.5 8.1875 C-2.5 9.5075 -2.5 10.8275 -2.5 12.1875 C-1.87351562 12.16429687 -1.24703125 12.14109375 -0.6015625 12.1171875 C0.21570313 12.09914063 1.03296875 12.08109375 1.875 12.0625 C2.68710937 12.03929687 3.49921875 12.01609375 4.3359375 11.9921875 C6.5 12.1875 6.5 12.1875 8.5 14.1875 C8.3125 16.25 8.3125 16.25 7.5 18.1875 C3.80581799 19.418894 1.2943739 18.83182764 -2.5 18.1875 C-2.48839844 18.96996094 -2.47679687 19.75242187 -2.46484375 20.55859375 C-2.45582031 21.57050781 -2.44679688 22.58242188 -2.4375 23.625 C-2.42589844 24.63433594 -2.41429687 25.64367187 -2.40234375 26.68359375 C-2.5 29.1875 -2.5 29.1875 -3.5 30.1875 C-5.15 30.1875 -6.8 30.1875 -8.5 30.1875 C-8.5 20.6175 -8.5 11.0475 -8.5 1.1875 C-5.37097732 0.40524433 -3.14324042 0.0269113 0 0 Z "
     transform="translate(395.5,342.8125)"
     style="fill: #0A37FF;"
     id="path14463" />
  <path
     d="M0 0 C1.3096875 -0.00515625 2.619375 -0.0103125 3.96875 -0.015625 C7.15242072 0.22385466 8.86102529 0.55351625 11.5 2.25 C11.17 3.9 10.84 5.55 10.5 7.25 C7.86 7.58 5.22 7.91 2.5 8.25 C2.55329468 9.19637329 2.55329468 9.19637329 2.60766602 10.16186523 C2.76467409 13.00347554 2.9136919 15.845449 3.0625 18.6875 C3.11857422 19.68072266 3.17464844 20.67394531 3.23242188 21.69726562 C3.28076172 22.64150391 3.32910156 23.58574219 3.37890625 24.55859375 C3.4260376 25.43314209 3.47316895 26.30769043 3.52172852 27.20874023 C3.5 29.25 3.5 29.25 2.5 30.25 C0 30.375 0 30.375 -2.5 30.25 C-3.5 29.25 -3.5 29.25 -3.61352539 27.20874023 C-3.60828857 26.33419189 -3.60305176 25.45964355 -3.59765625 24.55859375 C-3.59443359 23.61435547 -3.59121094 22.67011719 -3.58789062 21.69726562 C-3.57951172 20.70404297 -3.57113281 19.71082031 -3.5625 18.6875 C-3.55798828 17.69041016 -3.55347656 16.69332031 -3.54882812 15.66601562 C-3.53700007 13.19395151 -3.52051849 10.72200482 -3.5 8.25 C-5.81 7.92 -8.12 7.59 -10.5 7.25 C-10.83 5.6 -11.16 3.95 -11.5 2.25 C-7.75380451 -0.15826853 -4.37270385 -0.01721537 0 0 Z "
     transform="translate(418.5,342.75)"
     style="fill: #0A36FF;"
     id="path14465" />
  <path
     d="M0 0 C1.22589844 0.01353516 1.22589844 0.01353516 2.4765625 0.02734375 C3.41628906 0.04474609 3.41628906 0.04474609 4.375 0.0625 C4.90864887 2.12172133 5.42642189 4.18506107 5.9375 6.25 C6.22753906 7.39855469 6.51757812 8.54710937 6.81640625 9.73046875 C7.35568761 12.94730093 7.25747476 14.95922783 6.375 18.0625 C1.425 18.5575 1.425 18.5575 -3.625 19.0625 C-5.47066532 15.07856389 -5.98522829 11.61873317 -6.25 7.25 C-6.32476562 6.08855469 -6.39953125 4.92710937 -6.4765625 3.73046875 C-6.52554688 2.85003906 -6.57453125 1.96960938 -6.625 1.0625 C-4.21954362 -0.14022819 -2.67503047 -0.03821472 0 0 Z "
     transform="translate(85.625,311.9375)"
     style="fill: #E8E8E8;"
     id="path14467" />
  <path
     d="M0 0 C9 1 9 1 11.03125 2.75390625 C12.78568873 6.82165734 12.73434533 10.67085945 12 15 C9.9375 18.125 9.9375 18.125 7 20 C4.69 20 2.38 20 0 20 C0 13.4 0 6.8 0 0 Z "
     transform="translate(421,386)"
     style="fill: #EFF2FE;"
     id="path14469" />
  <path
     d="M0 0 C2.5 0.125 2.5 0.125 3.5 1.125 C3.59983058 3.11257028 3.63080753 5.1036752 3.6328125 7.09375 C3.63410156 8.30417969 3.63539063 9.51460938 3.63671875 10.76171875 C3.63285156 12.03660156 3.62898438 13.31148438 3.625 14.625 C3.62886719 15.89988281 3.63273437 17.17476563 3.63671875 18.48828125 C3.63542969 19.69871094 3.63414062 20.90914063 3.6328125 22.15625 C3.63168457 23.27580078 3.63055664 24.39535156 3.62939453 25.54882812 C3.5 28.125 3.5 28.125 2.5 29.125 C0.83382885 29.16563832 -0.83388095 29.167721 -2.5 29.125 C-3.4714271 25.86584762 -3.62889878 22.91356563 -3.6328125 19.51953125 C-3.63410156 18.45412109 -3.63539063 17.38871094 -3.63671875 16.29101562 C-3.63285156 15.18435547 -3.62898438 14.07769531 -3.625 12.9375 C-3.62886719 11.81923828 -3.63273437 10.70097656 -3.63671875 9.54882812 C-3.63542969 8.48728516 -3.63414062 7.42574219 -3.6328125 6.33203125 C-3.63168457 5.3572583 -3.63055664 4.38248535 -3.62939453 3.37817383 C-3.44600593 0.18479009 -3.20977612 0.16048881 0 0 Z "
     transform="translate(377.5,343.875)"
     style="fill: #0D39FF;"
     id="path14471" />
  <path
     d="M0 0 C2.29612756 9.41002278 2.29612756 9.41002278 2 14 C-0.31 14 -2.62 14 -5 14 C-5.66 9.71 -6.32 5.42 -7 1 C-3 0 -3 0 0 0 Z "
     transform="translate(88,314)"
     style="fill: #484848;"
     id="path14473" />
  <path
     d="M0 0 C1.38529821 5.45461169 2.2396943 10.36718401 2 16 C2.99 16 3.98 16 5 16 C4.67 14.02 4.34 12.04 4 10 C4.99 10 5.98 10 7 10 C7 12.64 7 15.28 7 18 C3.37 18.33 -0.26 18.66 -4 19 C-4 18.34 -4 17.68 -4 17 C-2.68 17 -1.36 17 0 17 C-0.66 12.38 -1.32 7.76 -2 3 C-3.65 3 -5.3 3 -7 3 C-7 2.34 -7 1.68 -7 1 C-4 0 -4 0 0 0 Z "
     transform="translate(102,309)"
     style="fill: #F0F0F0;"
     id="path14475" />
  <path
     d="M0 0 C2.875 -0.125 2.875 -0.125 6 0 C8 2 8 2 8.1875 4.5625 C8 7 8 7 7 8 C4.66702567 8.04092937 2.33294775 8.04241723 0 8 C0 5.36 0 2.72 0 0 Z "
     transform="translate(395,385)"
     style="fill: #E8EBFE;"
     id="path14477" />
  <path
     d="M0 0 C0 0.33 0 0.66 0 1 C-0.87011719 1.25523437 -0.87011719 1.25523437 -1.7578125 1.515625 C-8.14846549 3.49820381 -13.69016056 5.47357686 -17.3125 11.4375 C-18.7268898 14.42343401 -19.60603108 16.74975642 -20 20 C-22 17 -22 17 -21.81640625 14.5625 C-19.736777 8.03505124 -13.69565834 3.13525341 -7.93359375 -0.234375 C-5.05102679 -1.37575505 -2.8885518 -0.93877933 0 0 Z "
     transform="translate(141,202)"
     style="fill: #757576;"
     id="path14479" />
  <path
     d="M0 0 C0.33 0 0.66 0 1 0 C1.36590746 1.72672034 1.71722195 3.45653655 2.0625 5.1875 C2.25972656 6.15042969 2.45695312 7.11335938 2.66015625 8.10546875 C3.00423947 11.03610862 2.74164697 13.16307068 2 16 C-0.31 16.33 -2.62 16.66 -5 17 C-5.66 16.01 -6.32 15.02 -7 14 C-4.69 14 -2.38 14 0 14 C-0.08378906 13.32453125 -0.16757813 12.6490625 -0.25390625 11.953125 C-0.40666016 10.61507813 -0.40666016 10.61507813 -0.5625 9.25 C-0.66691406 8.36828125 -0.77132812 7.4865625 -0.87890625 6.578125 C-0.99456676 4.11567549 -0.73638695 2.33461936 0 0 Z "
     transform="translate(90,314)"
     style="fill: #DBDBDB;"
     id="path14481" />
  <path
     d="M0 0 C1.32 0 2.64 0 4 0 C4 0.66 4 1.32 4 2 C3.34 2 2.68 2 2 2 C2.66 4.64 3.32 7.28 4 10 C2.68 9.67 1.36 9.34 0 9 C0 6.03 0 3.06 0 0 Z "
     transform="translate(114,315)"
     style="fill: #F1F1F1;"
     id="path14483" />
  <path
     d="M0 0 C1.9451 2.91765 2.45276317 4.62537285 3 8 C1.35 8 -0.3 8 -2 8 C-1.125 1.125 -1.125 1.125 0 0 Z "
     transform="translate(371,389)"
     style="fill: #DDE2FE;"
     id="path14485" />
  <path
     d="M0 0 C0.33 1.98 0.66 3.96 1 6 C0.01 6 -0.98 6 -2 6 C-2 5.01 -2 4.02 -2 3 C-3.65 3 -5.3 3 -7 3 C-7 2.34 -7 1.68 -7 1 C-4 0 -4 0 0 0 Z "
     transform="translate(102,309)"
     style="fill: #D7D7D7;"
     id="path14487" />
  <path
     d="M0 0 C0.99 0.33 1.98 0.66 3 1 C2.2884375 2.0828125 2.2884375 2.0828125 1.5625 3.1875 C0.05847097 5.89475226 -0.56599182 7.96194275 -1 11 C-3 8 -3 8 -2.75 5.5 C-2 3 -2 3 0 0 Z "
     transform="translate(122,211)"
     style="fill: #7D7D7E;"
     id="path14489" />
</svg>
