<svg id="svg" version="1.1" xmlns="http://www.w3.org/2000/svg" style="display: block;" viewBox="0 0 504 506"><path d="M0 0 C166.32 0 332.64 0 504 0 C504 166.98 504 333.96 504 506 C337.68 506 171.36 506 0 506 C0 339.02 0 172.04 0 0 Z " transform="translate(0,0)" style="fill: #000000;" opacity="0"/><path d="M0 0 C2.9587844 1.48157742 4.69387174 3.10788753 6.95703125 5.51171875 C10.29650328 8.96634498 13.7037758 12.18605058 17.34765625 15.3125 C20.33277579 17.92701796 23.23650375 20.62455846 26.14453125 23.32421875 C29.60722238 26.53599735 33.07102395 29.73525481 36.64453125 32.82421875 C40.75657418 36.38104913 44.73222745 40.08005559 48.7199707 43.7746582 C53.65117383 48.3403226 58.63759654 52.84174201 63.64453125 57.32421875 C69.52102323 62.59312513 75.36599112 67.89428023 81.17871094 73.23339844 C85.97027976 77.63105537 90.80263989 81.98213553 95.64453125 86.32421875 C101.52207567 91.59504891 107.36952952 96.89653547 113.18310547 102.23779297 C117.12245671 105.85401895 121.0937939 109.4330428 125.07421875 113.00390625 C127.98881572 115.63501658 130.87992349 118.2907435 133.76953125 120.94921875 C137.00666216 123.92644515 140.25590981 126.88374841 143.58203125 129.76171875 C147.25002836 132.94322361 150.82559857 136.22010011 154.39453125 139.51171875 C154.95003662 140.023396 155.50554199 140.53507324 156.07788086 141.06225586 C156.61034424 141.5547583 157.14280762 142.04726074 157.69140625 142.5546875 C158.16416992 142.99192139 158.63693359 143.42915527 159.12402344 143.87963867 C160.99871388 145.660715 162.82189551 147.49006285 164.64453125 149.32421875 C163.59998779 149.33880127 162.55544434 149.35338379 161.47924805 149.3684082 C157.6043878 149.42637426 153.73010974 149.50360649 149.85571289 149.58666992 C148.17872566 149.61992738 146.50162628 149.64795683 144.82446289 149.6706543 C142.413739 149.70418612 140.00404363 149.75649853 137.59375 149.8125 C136.84365158 149.81888992 136.09355316 149.82527985 135.32072449 149.8318634 C131.272368 149.92958244 131.272368 149.92958244 127.71020508 151.66870117 C125.40774782 155.24555402 125.51800146 158.47606652 125.51513672 162.60644531 C125.5120047 163.92115311 125.50887268 165.2358609 125.50564575 166.59040833 C125.50744943 168.04855376 125.50948125 169.50669892 125.51171875 170.96484375 C125.51087182 172.4940747 125.50971509 174.02330551 125.50827026 175.55253601 C125.5059694 179.69687513 125.51079869 183.8411813 125.51676941 187.98551559 C125.51952548 190.56880974 125.51936311 193.15208692 125.51818848 195.73538208 C125.5106043 214.32957451 125.58790611 232.91762597 125.96129227 251.50845718 C126.01120117 253.99762358 126.05889079 256.48682381 126.10604858 258.9760437 C126.24191119 266.05292658 126.38691398 273.12888917 126.58133888 280.20443249 C126.65700556 283.09700834 126.71634278 285.98976347 126.77173233 288.88279152 C126.81501757 290.85092077 126.87979505 292.81854087 126.94528198 294.78605652 C127.11158789 304.40809402 127.11158789 304.40809402 124.88378906 308.09985352 C121.467922 311.49300275 118.35391104 311.44842614 113.67993164 311.48535156 C112.20303612 311.49976288 112.20303612 311.49976288 110.69630432 311.51446533 C109.11026649 311.52084015 109.11026649 311.52084015 107.4921875 311.52734375 C106.39990341 311.53304382 105.30761932 311.5387439 104.18223572 311.5446167 C101.87320929 311.55405732 99.56416946 311.56059695 97.25512695 311.56445312 C93.72388277 311.57417237 90.19321734 311.60521078 86.66210938 311.63671875 C84.4179722 311.64324773 82.17383087 311.64849861 79.9296875 311.65234375 C78.87435318 311.66469055 77.81901886 311.67703735 76.73170471 311.6897583 C72.78099076 311.67775477 69.40450671 311.56547299 65.62670898 310.36621094 C59.47088311 304.02462607 60.22544053 294.72148799 60.2644062 286.45536995 C60.27363521 284.3134892 60.26316127 282.17246211 60.24778748 280.03062439 C60.20800991 273.9479175 60.20647926 267.86528624 60.20874023 261.7824707 C60.20879168 258.0436354 60.18946042 254.30526451 60.15940666 250.56655693 C60.14870278 248.4737423 60.16063561 246.38186071 60.17323303 244.28907776 C60.10104298 234.99829434 58.96754483 225.85867004 52.3828125 218.703125 C41.1619469 209.80207881 28.93530605 210.16318585 15.375 210.15625 C13.88820871 210.15302983 12.40141773 210.14966521 10.91462708 210.14616394 C7.80725369 210.14019989 4.699908 210.13832122 1.5925293 210.13891602 C-2.36112933 210.13901748 -6.31460774 210.12536949 -10.26822376 210.10814381 C-13.33714084 210.09694704 -16.40601539 210.09499915 -19.47495079 210.09552574 C-20.93118599 210.094357 -22.38742271 210.0899985 -23.84363747 210.08219337 C-42.45885294 209.91945001 -42.45885294 209.91945001 -58.07421875 218.9609375 C-64.48648753 225.95471105 -66.46005504 233.49542761 -66.51318359 242.87109375 C-66.52857681 244.82837402 -66.52857681 244.82837402 -66.54428101 246.82519531 C-66.54943789 247.86359558 -66.54943789 247.86359558 -66.55469894 248.92297363 C-66.56655068 251.10075761 -66.58601702 253.27834882 -66.6078186 255.45605469 C-66.66923931 261.64511697 -66.72350655 267.83415484 -66.75683594 274.0234375 C-66.77780361 277.81598462 -66.81311519 281.60817164 -66.85759354 285.4005127 C-66.87172818 286.84211995 -66.88047025 288.28379082 -66.88364792 289.72546387 C-66.88856735 291.74283543 -66.91335421 293.76012876 -66.93896484 295.77734375 C-66.9470517 296.92364258 -66.95513855 298.06994141 -66.96347046 299.25097656 C-67.40159227 302.68582431 -68.30937992 304.5561187 -70.35546875 307.32421875 C-74.69579217 310.44034838 -78.4802503 311.43243597 -83.75341797 311.5012207 C-84.61466278 311.51405594 -85.47590759 311.52689117 -86.36325073 311.54011536 C-87.74771896 311.55119576 -87.74771896 311.55119576 -89.16015625 311.5625 C-90.1168924 311.57057175 -91.07362854 311.57864349 -92.05935669 311.58695984 C-94.08170777 311.60077515 -96.10408191 311.61150869 -98.12646484 311.61938477 C-100.19228963 311.63092115 -102.25808424 311.65139897 -104.32373047 311.6809082 C-107.31107815 311.7235846 -110.29754158 311.73975264 -113.28515625 311.75 C-114.66355179 311.77626213 -114.66355179 311.77626213 -116.0697937 311.80305481 C-121.66112278 311.78419961 -125.02418714 311.20558616 -129.35546875 307.32421875 C-134.84081504 301.51645194 -133.90295877 294.70234792 -133.83789062 287.12060547 C-133.84007808 285.66809726 -133.84407724 284.21559083 -133.8497467 282.76309204 C-133.85829433 279.64297513 -133.85455303 276.52320266 -133.84132385 273.40310287 C-133.8209596 268.46988444 -133.83097541 263.53701205 -133.84558105 258.60379028 C-133.87231413 248.1355686 -133.86560573 237.6674599 -133.85546875 227.19921875 C-133.84452319 215.8905523 -133.8392565 204.582064 -133.87276316 193.27342808 C-133.88614763 188.36868257 -133.88016264 183.46445633 -133.85939789 178.55974174 C-133.85042321 175.51118941 -133.85787521 172.46283814 -133.8698101 169.41430283 C-133.87194379 168.0001457 -133.86720278 166.58595909 -133.85510445 165.17185211 C-133.83952695 163.24246711 -133.8507715 161.31292094 -133.86340332 159.3835144 C-133.86189522 158.30359159 -133.86038712 157.22366879 -133.85883331 156.11102104 C-134.47611833 152.64721003 -135.65110543 151.49855309 -138.35546875 149.32421875 C-140.98270271 148.01060177 -143.08157436 148.11167966 -146.01953125 148.0078125 C-147.14101562 147.96591797 -148.2625 147.92402344 -149.41796875 147.88085938 C-150.59359375 147.84154297 -151.76921875 147.80222656 -152.98046875 147.76171875 C-154.75550781 147.69694336 -154.75550781 147.69694336 -156.56640625 147.63085938 C-159.49597203 147.52454449 -162.42562463 147.42251233 -165.35546875 147.32421875 C-164.60910156 146.57914063 -163.86273438 145.8340625 -163.09375 145.06640625 C-161.52324252 143.49365839 -159.9560131 141.91758725 -158.3984375 140.33203125 C-154.62600139 136.50400135 -150.76142621 132.87450959 -146.6875 129.37109375 C-143.69276812 126.74255187 -140.77571273 124.03495157 -137.85546875 121.32421875 C-134.39275924 118.11245868 -130.92897705 114.91318355 -127.35546875 111.82421875 C-123.24342582 108.26738837 -119.26777255 104.56838191 -115.2800293 100.8737793 C-110.34882617 96.3081149 -105.36240346 91.80669549 -100.35546875 87.32421875 C-94.95209017 82.47950936 -89.57182452 77.612128 -84.23046875 72.69921875 C-80.99329659 69.72203594 -77.74409146 66.76469019 -74.41796875 63.88671875 C-70.23437018 60.26209786 -66.19112265 56.49036808 -62.13305664 52.72680664 C-59.24182747 50.05020837 -56.33657471 47.40110696 -53.35546875 44.82421875 C-49.24342582 41.26738837 -45.26777255 37.56838191 -41.2800293 33.8737793 C-36.34882617 29.3081149 -31.36240346 24.80669549 -26.35546875 20.32421875 C-19.71190386 14.36927836 -19.71190386 14.36927836 -13.12890625 8.34765625 C-12.58476074 7.84540527 -12.04061523 7.3431543 -11.47998047 6.82568359 C-10.4146433 5.84103923 -9.35109999 4.85444966 -8.28955078 3.86572266 C-3.13317077 -0.89890306 -3.13317077 -0.89890306 0 0 Z " transform="translate(257.35546875,100.67578125)" style="fill: #000000;" opacity="0"/><path d="M0 0 C3.34330549 2.32577773 6.0064424 4.97703617 8.82421875 7.90625 C10.67185069 9.79259423 12.56075047 11.53060251 14.5625 13.25 C18.15453082 16.34294239 21.64788888 19.5294138 25.125 22.75 C25.68203613 23.2658667 26.23907227 23.7817334 26.81298828 24.31323242 C27.94619081 25.3628861 29.07932875 26.4126095 30.21240234 27.46240234 C32.78013153 29.83708053 35.3580927 32.20052051 37.9375 34.5625 C38.42686035 35.01061035 38.9162207 35.4587207 39.42041016 35.92041016 C40.40768749 36.82441138 41.39499214 37.72838278 42.38232422 38.63232422 C43.90314876 40.02579152 45.42247324 41.42087751 46.94140625 42.81640625 C51.54573948 47.04523476 56.15776595 51.26403086 60.8125 55.4375 C65.77738091 59.89397711 70.67634952 64.41948062 75.57421875 68.94921875 C82.2828422 75.15316761 89.0096369 81.33686793 95.8125 87.4375 C100.77738091 91.89397711 105.67634952 96.41948062 110.57421875 100.94921875 C117.2828422 107.15316761 124.0096369 113.33686793 130.8125 119.4375 C135.77738091 123.89397711 140.67634952 128.41948062 145.57421875 132.94921875 C152.2828422 139.15316761 159.0096369 145.33686793 165.8125 151.4375 C169.7958782 155.01480566 173.74936963 158.6230525 177.6875 162.25 C178.22689209 162.74556396 178.76628418 163.24112793 179.32202148 163.75170898 C192.28404972 175.71557451 192.28404972 175.71557451 192.94140625 182.90625 C192.8067573 187.1516523 191.18456548 190.59887938 188.31054688 193.67382812 C184.6929261 195.64364729 181.11088145 195.42105297 177.09375 195.40625 C176.24325073 195.41708618 175.39275146 195.42792236 174.51647949 195.43908691 C170.88425147 195.48490841 167.25209417 195.4964251 163.61962891 195.51123047 C160.96491083 195.5269276 158.310789 195.55992861 155.65625 195.59375 C154.83636597 195.59072876 154.01648193 195.58770752 153.17175293 195.58459473 C149.88189218 195.62793007 147.34349571 195.75967973 144.38867188 197.27539062 C141.43907926 200.63602325 141.75611752 204.50137404 141.78166199 208.80459595 C141.78606796 209.99045288 141.79047394 211.17630981 141.79501343 212.39810181 C141.80489288 213.69581512 141.81477234 214.99352844 141.82495117 216.33056641 C141.83178353 217.71392589 141.83811347 219.09728793 141.84397888 220.48065186 C141.85730272 223.45881684 141.87344128 226.43694888 141.89153099 229.41508865 C141.91940516 234.13122943 141.93638708 238.84736985 141.95100403 243.56356812 C141.95614798 245.1800404 141.9613046 246.79651264 141.96647358 248.41298485 C141.96905914 249.22252074 141.9716447 250.03205663 141.97430861 250.86612391 C142.01031025 261.84295853 142.05560466 272.8196913 142.12182617 283.79638672 C142.16642785 291.2039522 142.19661383 298.61142856 142.21068364 306.01911676 C142.21873132 309.93527988 142.23413124 313.85110239 142.26735497 317.76713943 C142.29859342 321.45588368 142.31087149 325.14422026 142.30913734 328.83309174 C142.31308394 330.81837644 142.33693943 332.803591 142.36157227 334.78872681 C142.3330139 343.26272226 141.61995824 351.25504176 135.375 357.5 C134.55 357.995 133.725 358.49 132.875 359 C132.33555756 359.35461807 131.79611511 359.70923615 131.24032593 360.07460022 C127.73017074 361.447898 124.24619163 361.3032685 120.52978516 361.30639648 C119.69027817 361.31472 118.85077118 361.32304352 117.98582458 361.33161926 C115.21185665 361.35570563 112.4381239 361.3644895 109.6640625 361.37109375 C107.733591 361.3800608 105.80312021 361.38918266 103.87265015 361.39845276 C99.82589021 361.41494138 95.779213 361.4226427 91.73242188 361.42553711 C86.55151944 361.43092213 81.37139624 361.46860773 76.19071388 361.51428127 C72.20322847 361.54404898 68.21593083 361.5512606 64.22834396 361.55226326 C62.31858118 361.55646578 60.40881785 361.56890137 58.49916458 361.58978081 C55.82519744 361.61669076 53.15303811 361.61187154 50.47900391 361.59936523 C49.30051628 361.62161667 49.30051628 361.62161667 48.09822083 361.64431763 C42.37575826 361.56824933 39.87607601 360.10058181 35.875 356 C34.42851058 353.10702117 34.71816645 350.57052751 34.68554688 347.33813477 C34.67310692 346.3108149 34.67310692 346.3108149 34.66041565 345.26274109 C34.6429975 343.77206817 34.62783552 342.2813676 34.61463928 340.79065132 C34.59358145 338.42245078 34.56655236 336.05438487 34.53796387 333.68626404 C34.47822119 328.645062 34.42622511 323.60379473 34.375 318.5625 C34.31552319 312.74923363 34.25280203 306.93603073 34.18312073 301.12287712 C34.15684209 298.80610579 34.1358377 296.48932726 34.1151123 294.17250061 C34.82498355 277.21186139 34.82498355 277.21186139 27.6875 262.75 C17.95472461 256.69405087 4.29648647 257.81340385 -6.72729492 257.81469727 C-8.79171744 257.8125219 -10.85559403 257.79432941 -12.91992188 257.77539062 C-31.12445644 257.22170917 -31.12445644 257.22170917 -47.125 264 C-54.50921658 273.25884742 -52.27138138 288.21697841 -52.32423019 299.43170547 C-52.33623271 301.7523916 -52.35572269 304.07290873 -52.37734985 306.39352417 C-52.43834201 312.98006657 -52.49327117 319.56657287 -52.52636719 326.15332031 C-52.54727056 330.20794101 -52.58250131 334.26222053 -52.62712479 338.31664658 C-52.6412785 339.85480635 -52.65000582 341.39302609 -52.65317917 342.93124771 C-52.65807081 345.0705814 -52.68116914 347.20899671 -52.70849609 349.34814453 C-52.72062637 351.17129684 -52.72062637 351.17129684 -52.73300171 353.03128052 C-53.17174068 356.35398103 -53.55612297 357.00171564 -56.125 359 C-59.18081519 359.30167859 -62.03352932 359.41990784 -65.09106445 359.40405273 C-66.46714874 359.41434761 -66.46714874 359.41434761 -67.87103271 359.42485046 C-70.9102721 359.4431835 -73.94899831 359.4392708 -76.98828125 359.43359375 C-79.09954497 359.43815331 -81.2108072 359.4434582 -83.32206726 359.44947815 C-87.75147522 359.45842269 -92.18070303 359.45597185 -96.61010742 359.44604492 C-102.28306103 359.43456943 -107.95539088 359.4547384 -113.62826252 359.48396206 C-117.99063564 359.50232334 -122.35285939 359.50203144 -126.71526146 359.49632454 C-128.80641745 359.49617123 -130.8975835 359.50222336 -132.98870277 359.51461601 C-135.91644788 359.52951784 -138.84304248 359.51885355 -141.77075195 359.50170898 C-142.63278732 359.51137695 -143.49482269 359.52104492 -144.38298035 359.53100586 C-149.78242239 359.46490143 -152.82922779 358.56579948 -157.125 355 C-161.67007725 350.08640297 -162.2578222 346.63982346 -162.21160889 340.08583069 C-162.20575775 338.87591965 -162.19990662 337.66600861 -162.19387817 336.41943359 C-162.18236548 335.08178665 -162.17079746 333.74414018 -162.15917969 332.40649414 C-162.15071039 330.99531849 -162.14275824 329.58413965 -162.13528442 328.17295837 C-162.11857495 325.13584934 -162.09914735 322.09877381 -162.07790375 319.06169319 C-162.04528203 314.25872001 -162.02458166 309.45574258 -162.00665283 304.6526947 C-162.00356637 303.84183491 -162.0004799 303.03097512 -161.99729991 302.19554383 C-161.99099212 300.53762888 -161.98470237 298.87971386 -161.97843027 297.22179878 C-161.9354261 286.0413812 -161.88356828 274.861121 -161.80273438 263.6809082 C-161.748282 256.13678785 -161.7115672 248.59280884 -161.69522786 241.04850668 C-161.68584984 237.05697445 -161.66726914 233.06595122 -161.62691498 229.07460213 C-161.58907292 225.32097587 -161.57450774 221.56798145 -161.57775497 217.81417274 C-161.5747842 216.43748591 -161.56323526 215.06078653 -161.54243088 213.68425369 C-161.04345107 205.57884608 -161.04345107 205.57884608 -164.53448486 198.70481873 C-169.007468 195.76114729 -172.43910765 195.86587896 -177.67578125 195.859375 C-179.42384114 195.84104569 -181.17188838 195.82147526 -182.91992188 195.80078125 C-185.67852075 195.77181829 -188.43630758 195.75000021 -191.19506836 195.74951172 C-193.85604056 195.74617388 -196.51513539 195.71160463 -199.17578125 195.671875 C-200.40727654 195.68247955 -200.40727654 195.68247955 -201.66365051 195.69329834 C-205.99281032 195.60148039 -207.63234119 195.39733786 -211.12182617 192.58300781 C-213.90342536 188.99625346 -214.30214506 187.17414978 -214.375 182.6875 C-214.40078125 181.74261719 -214.4265625 180.79773438 -214.453125 179.82421875 C-213.77578048 173.99421767 -210.1765464 170.86779696 -205.9375 167.125 C-204.95523438 166.25230469 -203.97296875 165.37960938 -202.9609375 164.48046875 C-202.02507812 163.66191406 -201.08921875 162.84335938 -200.125 162 C-199.06152344 161.06607422 -199.06152344 161.06607422 -197.9765625 160.11328125 C-196.70033432 158.99593045 -195.42168177 157.88134271 -194.140625 156.76953125 C-191.83892236 154.74885044 -189.57735621 152.68687382 -187.3125 150.625 C-183.93559018 147.57141133 -180.49282868 144.65570795 -176.9375 141.8125 C-170.87179782 136.90996514 -165.24335023 131.57741963 -159.5703125 126.23046875 C-156.44381938 123.2864525 -153.25617158 120.4289331 -150 117.62890625 C-147.73748819 115.66334911 -145.52809317 113.64326691 -143.3125 111.625 C-139.93559018 108.57141133 -136.49282868 105.65570795 -132.9375 102.8125 C-126.86683338 97.90595269 -121.23431085 92.56799383 -115.5546875 87.21875 C-111.35691078 83.26683983 -107.04209495 79.47654227 -102.64746094 75.74560547 C-94.94707553 69.20595663 -87.40091084 62.54908783 -80.00390625 55.66796875 C-75.4336082 51.4325365 -70.73335337 47.36473809 -65.984375 43.33203125 C-58.84389643 37.2583712 -51.86733219 31.05272228 -45.00390625 24.66796875 C-41.44140376 21.36649087 -37.80961633 18.16375434 -34.125 15 C-32.97262078 14.00524942 -31.82028081 13.01045338 -30.66796875 12.015625 C-29.40386317 10.92683095 -28.13953855 9.83829116 -26.875 8.75 C-26.27179932 8.22986328 -25.66859863 7.70972656 -25.04711914 7.17382812 C-17.16942873 0.41367309 -10.64410986 -3.40611515 0 0 Z M-11.5 29.8125 C-12.2115625 30.45058594 -12.923125 31.08867188 -13.65625 31.74609375 C-17.47929399 35.23643613 -21.29912849 38.7300738 -25.109375 42.234375 C-30.21495311 46.92475997 -35.38541693 51.5432126 -40.546875 56.171875 C-45.09550196 60.25694762 -49.62240064 64.36425788 -54.125 68.5 C-60.22495079 74.10294652 -66.38061047 79.6421281 -72.546875 85.171875 C-77.13948104 89.29644476 -81.70679449 93.44621893 -86.25 97.625 C-89.48717216 100.60218281 -92.73637729 103.55952856 -96.0625 106.4375 C-100.24609857 110.06212089 -104.2893461 113.83385067 -108.34741211 117.59741211 C-111.23864128 120.27401038 -114.14389404 122.92311179 -117.125 125.5 C-121.23704293 129.05683038 -125.2126962 132.75583684 -129.20043945 136.45043945 C-134.13164258 141.01610385 -139.11806529 145.51752326 -144.125 150 C-149.58328862 154.89394214 -155.02532712 159.80511309 -160.4375 164.75 C-161.40300781 165.63171875 -162.36851562 166.5134375 -163.36328125 167.421875 C-166.01304708 169.89548949 -168.57863058 172.42116321 -171.125 175 C-170.39385986 175.01458252 -169.66271973 175.02916504 -168.90942383 175.04418945 C-165.58492629 175.1188291 -162.26141533 175.21543801 -158.9375 175.3125 C-157.78701172 175.33505859 -156.63652344 175.35761719 -155.45117188 175.38085938 C-154.33935547 175.41630859 -153.22753906 175.45175781 -152.08203125 175.48828125 C-151.06085205 175.51446533 -150.03967285 175.54064941 -148.98754883 175.56762695 C-145.71699482 176.06162705 -143.7865884 177.06411054 -141.125 179 C-139.77500169 181.69999662 -139.99721303 183.79453844 -139.99369812 186.81878662 C-139.98968994 188.05815979 -139.98568176 189.29753296 -139.98155212 190.57446289 C-139.98202725 191.95556643 -139.98256337 193.33666995 -139.9831543 194.71777344 C-139.9801235 196.16644395 -139.97660226 197.61511351 -139.97262573 199.06378174 C-139.9647294 202.18821062 -139.95958902 205.31262804 -139.95633507 208.43706512 C-139.95043019 213.37883507 -139.9338942 218.32053279 -139.91499329 223.26226807 C-139.90865563 224.95353313 -139.90233001 226.64479823 -139.89601612 228.33606339 C-139.89285031 229.18315636 -139.8896845 230.03024934 -139.88642275 230.9030118 C-139.84433623 242.41026321 -139.81137619 253.91748146 -139.79907227 265.42480469 C-139.7906914 273.18326973 -139.76819843 280.94155648 -139.7297166 288.69993234 C-139.70995394 292.80594473 -139.69755193 296.9116906 -139.70255089 301.0177536 C-139.70719821 304.88221362 -139.69338789 308.74616878 -139.66553879 312.61052704 C-139.65862792 314.02704206 -139.6584994 315.4436093 -139.66573906 316.86012268 C-139.9407427 326.80254309 -139.9407427 326.80254309 -135.125 335 C-130.03982382 339.53321973 -125.68186216 339.57649004 -119.1953125 339.49609375 C-118.2461496 339.49754898 -117.29698669 339.49900421 -116.31906128 339.50050354 C-114.31700565 339.4988483 -112.31493679 339.48732919 -110.31298828 339.46655273 C-107.26669545 339.43765836 -104.22215164 339.44594046 -101.17578125 339.45898438 C-99.22394996 339.45274424 -97.27212412 339.44435115 -95.3203125 339.43359375 C-94.41797882 339.43652939 -93.51564514 339.43946503 -92.58596802 339.44248962 C-86.4137836 339.35155551 -80.36581805 338.76600468 -75.46560669 334.58372498 C-72.68976527 331.30448624 -72.99071466 327.85578053 -72.96728516 323.75952148 C-72.95189194 321.82622231 -72.95189194 321.82622231 -72.93618774 319.85386658 C-72.93103086 318.82014073 -72.93103086 318.82014073 -72.92576981 317.76553154 C-72.91394262 315.599135 -72.89447616 313.43293442 -72.87265015 311.26661682 C-72.81119163 305.10709277 -72.75719162 298.947586 -72.72363281 292.7878418 C-72.70253923 289.0170319 -72.66711336 285.24657551 -72.62287521 281.47596931 C-72.60882226 280.04686748 -72.60001727 278.61770305 -72.59682083 277.18853569 C-72.56840167 265.68991345 -71.94904246 255.08516653 -63.59375 246.41015625 C-55.74721834 239.11644841 -46.74208674 237.88919304 -36.26269531 237.85473633 C-35.29280167 237.84969841 -35.29280167 237.84969841 -34.30331421 237.84455872 C-32.18656438 237.83513712 -30.06989443 237.83310992 -27.953125 237.83203125 C-26.46490447 237.82881203 -24.97668425 237.82544747 -23.48846436 237.82194519 C-20.37511462 237.81597548 -17.26179255 237.81410301 -14.1484375 237.81469727 C-10.18690312 237.81479864 -6.22554895 237.80116223 -2.26405716 237.78392506 C0.80915112 237.77272692 3.88231694 237.77078046 6.95554352 237.77130699 C8.4145698 237.77013801 9.87359758 237.7657781 11.33260345 237.75797462 C23.81759874 237.69745899 35.82941244 237.71370974 45.875 246 C51.44185778 252.44280228 54.11397206 259.05247125 54.14624023 267.59692383 C54.16152016 269.53472466 54.16152016 269.53472466 54.17710876 271.51167297 C54.17804976 272.19495478 54.17899075 272.87823658 54.17996025 273.58222389 C54.1836506 275.74027471 54.20045011 277.89787678 54.22071838 280.05583191 C54.27586815 286.18793346 54.30673151 292.32010024 54.33129883 298.45239258 C54.34726936 302.21366489 54.3775859 305.97461777 54.41606331 309.7357235 C54.42762967 311.16007761 54.43364292 312.58448908 54.43374443 314.00889015 C54.05972482 326.99127759 54.05972482 326.99127759 59.859375 338.03979492 C64.58982457 339.54601725 69.19099269 339.40646798 74.125 339.36328125 C75.21586914 339.36377975 76.30673828 339.36427826 77.43066406 339.36479187 C79.73374252 339.36245461 82.03682368 339.35274666 84.33984375 339.33618164 C87.86221188 339.31258567 91.38382288 339.31562418 94.90625 339.32226562 C97.14583784 339.31668868 99.3854225 339.3095787 101.625 339.30078125 C102.67719727 339.30169266 103.72939453 339.30260406 104.81347656 339.30354309 C105.79799805 339.29401108 106.78251953 339.28447906 107.796875 339.2746582 C108.65893555 339.27005081 109.52099609 339.26544342 110.40917969 339.26069641 C113.30953395 338.95405933 115.30834995 338.40274445 117.875 337 C120.75613845 333.37876628 121.23319502 330.69649671 121.1237793 326.13671875 C121.10354706 324.9613858 121.08331482 323.78605286 121.06246948 322.57510376 C121.02509674 321.29219452 120.987724 320.00928528 120.94921875 318.6875 C120.92085343 317.31247965 120.89404969 315.93742634 120.86868286 314.56234741 C120.81162685 311.59770285 120.74580531 308.63343375 120.67324829 305.66912842 C120.49982149 298.51994835 120.37868521 291.3697908 120.25446892 284.21961594 C120.22528955 282.54850765 120.19559682 280.87740825 120.16540718 279.2063179 C119.83059407 260.64469767 119.71374682 242.08446886 119.69473267 223.52001953 C119.69108461 220.09289841 119.68194626 216.66586327 119.66781616 213.23876953 C119.65131767 209.19133662 119.64466714 205.14401155 119.64599228 201.09654617 C119.64502941 199.60673058 119.64079723 198.11691298 119.63306046 196.62711716 C119.62328891 194.5878606 119.62734634 192.54855181 119.63208008 190.50927734 C119.63065506 189.36663422 119.62923004 188.22399109 119.62776184 187.04672241 C119.87969306 183.94216732 120.45309435 181.76185911 121.875 179 C124.98491396 177.44504302 128.30844049 177.75923044 131.7265625 177.68359375 C132.88761002 177.6524221 132.88761002 177.6524221 134.07211304 177.62062073 C136.54798392 177.55516552 139.02396202 177.49625913 141.5 177.4375 C143.17709448 177.39431093 144.85417807 177.35069652 146.53125 177.30664062 C150.64572308 177.19948829 154.76030414 177.09820955 158.875 177 C158.08585205 176.21157715 157.2967041 175.4231543 156.48364258 174.61083984 C155.0290418 173.15501385 153.57729175 171.69627069 152.13671875 170.2265625 C148.63989616 166.66900106 145.01975213 163.33779221 141.2421875 160.08203125 C138.23778216 157.43954273 135.30746072 154.72180266 132.375 152 C128.91227209 148.78825847 125.44850931 145.58896567 121.875 142.5 C117.76139854 138.94182153 113.78404725 135.2415788 109.79516602 131.54516602 C105.7005749 127.75348353 101.56658422 124.00904537 97.41015625 120.28515625 C94.50586734 117.66726871 91.62729225 115.02246797 88.75 112.375 C85.51288971 109.39775181 82.2636208 106.44046979 78.9375 103.5625 C74.80744815 99.98197688 70.8089593 96.26420238 66.79980469 92.54980469 C61.86854346 87.98403358 56.88202032 83.48255338 51.875 79 C45.99850802 73.73109362 40.15354013 68.42993852 34.34082031 63.09082031 C29.54925149 58.69316338 24.71689136 54.34208322 19.875 50 C10.91641383 41.96617112 10.91641383 41.96617112 6.71875 38.09375 C6.18362793 37.60052246 5.64850586 37.10729492 5.09716797 36.59912109 C4.05818582 35.64018281 3.02066923 34.67965337 1.98486328 33.71728516 C-4.3546209 26.94418998 -4.3546209 26.94418998 -11.5 29.8125 Z " transform="translate(263.125,73)" style="fill: #909090;"/></svg>