<?xml version="1.0" encoding="UTF-8" standalone="no"?>
<svg
   id="svg"
   version="1.1"
   style="display: block;"
   viewBox="0 0 376 376"
   sodipodi:docname="NotaVuotaChiusa.svg"
   inkscape:version="1.3 (0e150ed, 2023-07-21)"
   xmlns:inkscape="http://www.inkscape.org/namespaces/inkscape"
   xmlns:sodipodi="http://sodipodi.sourceforge.net/DTD/sodipodi-0.dtd"
   xmlns="http://www.w3.org/2000/svg"
   xmlns:svg="http://www.w3.org/2000/svg">
  <defs
     id="defs5" />
  <sodipodi:namedview
     id="namedview5"
     pagecolor="#ffffff"
     bordercolor="#000000"
     borderopacity="0.25"
     inkscape:showpageshadow="2"
     inkscape:pageopacity="0.0"
     inkscape:pagecheckerboard="0"
     inkscape:deskcolor="#d1d1d1"
     inkscape:zoom="0.62765957"
     inkscape:cx="187.20339"
     inkscape:cy="188"
     inkscape:window-width="1440"
     inkscape:window-height="777"
     inkscape:window-x="0"
     inkscape:window-y="25"
     inkscape:window-maximized="0"
     inkscape:current-layer="svg" />
  <path
     d="M0 0 C0.68733681 -0.00297112 1.37467363 -0.00594224 2.08283883 -0.0090034 C4.37948252 -0.01765525 6.67607387 -0.01919567 8.97273254 -0.02069092 C10.62224946 -0.02532163 12.2717653 -0.03034663 13.92127991 -0.03573608 C18.3987848 -0.04883879 22.87627471 -0.05530103 27.35379577 -0.05974674 C30.15382764 -0.06268125 32.95385545 -0.06678681 35.75388527 -0.07125092 C44.52218519 -0.08492101 53.29047578 -0.09458973 62.05878562 -0.09845281 C72.16607498 -0.10293076 82.27322893 -0.1204685 92.38047713 -0.1494534 C100.20232836 -0.17110239 108.02414157 -0.18115882 115.84602243 -0.18249393 C120.51324793 -0.18353976 125.18034605 -0.18940021 129.8475399 -0.20731354 C134.24131778 -0.22384965 138.63487327 -0.22592296 143.02867126 -0.21717453 C144.63542592 -0.21640708 146.24219282 -0.22070809 147.84891701 -0.23063278 C159.69213579 -0.29945914 169.70640319 0.27242212 179.07356262 8.11700439 C186.19025157 15.40246857 188.31134299 24.75147069 188.48347473 34.63922119 C188.50464859 35.45977493 188.52582245 36.28032867 188.54763794 37.12574768 C188.75209468 45.66633164 188.83825958 54.2099701 188.91511536 62.75250244 C188.95519181 66.79534689 189.03176138 70.83496119 189.14070129 74.87652588 C189.27261943 79.78040353 189.33950062 84.68126853 189.36140633 89.58683205 C189.38025323 91.44451771 189.42123773 93.30212773 189.48574638 95.15878868 C189.98632783 110.36611369 189.98632783 110.36611369 185.17051697 115.96066284 C181.18261903 119.92885301 176.72304481 123.0251621 172.05012512 126.14044189 C172.04203827 125.010065 172.03395142 123.87968811 172.02561951 122.71505737 C171.94795282 112.03415337 171.86016247 101.35337353 171.76259804 90.67263222 C171.71276738 85.1822726 171.66643657 79.69193099 171.62825012 74.20147705 C171.59122971 68.89754108 171.5448252 63.59376085 171.49206161 58.28995895 C171.47360638 56.27192303 171.45846611 54.25385384 171.44678116 52.23576736 C171.42976599 49.39735397 171.40069582 46.55929042 171.36897278 43.7210083 C171.36681259 42.89669312 171.3646524 42.07237793 171.36242676 41.2230835 C171.26218919 34.14894251 171.14074876 26.70145586 166.55012512 21.07794189 C158.80058883 15.07205127 146.65666075 16.99132733 137.33576965 16.99517822 C135.87595027 16.99218014 134.41613167 16.98877613 132.95631409 16.98500061 C129.0182053 16.97622386 125.0801183 16.97382522 121.14200068 16.97318482 C118.67510283 16.97247088 116.20821042 16.9703301 113.74131393 16.96768761 C105.11687116 16.95845608 96.49244377 16.95435009 87.86799622 16.95513916 C79.85753715 16.9557398 71.84714545 16.94518498 63.83670342 16.9293955 C56.93360809 16.91627865 50.03053467 16.91095698 43.12742698 16.91159457 C39.01580102 16.91184828 34.90423504 16.90906754 30.79262161 16.89841652 C26.92327702 16.88866507 23.05404895 16.88870411 19.18470001 16.89593315 C17.77390496 16.8969702 16.36310236 16.89466916 14.9523201 16.88857269 C0.63565257 16.13833986 0.63565257 16.13833986 -12.15701103 20.96761799 C-19.48611332 29.84997048 -17.09883943 43.8150284 -17.09513855 54.70050049 C-17.09813505 56.46573456 -17.10153871 58.23096799 -17.10531616 59.99620056 C-17.11410914 64.76692666 -17.11649225 69.53763479 -17.11713195 74.30836821 C-17.11784498 77.29454578 -17.11998406 80.28071885 -17.12262917 83.26689529 C-17.13186614 93.70033303 -17.13596601 104.13375802 -17.13517761 114.56719971 C-17.13457686 124.26813267 -17.14513241 133.96901002 -17.16092128 143.66992891 C-17.17402527 152.02099472 -17.17936033 160.37204242 -17.1787222 168.72311842 C-17.17846811 173.70105615 -17.18127025 178.67894438 -17.19190025 183.6568718 C-17.20162982 188.34041956 -17.20162732 193.02387096 -17.19438362 197.70742226 C-17.19334389 199.41815266 -17.19566401 201.12888923 -17.20174408 202.83960915 C-17.65024825 218.51459752 -17.65024825 218.51459752 -13.32487488 233.26544189 C-7.85417171 237.58441808 -0.55894023 237.44131019 6.12825012 237.45928955 C6.99748611 237.46933517 7.86672211 237.4793808 8.76229858 237.48973083 C11.60823462 237.52038704 14.45407735 237.53754877 17.30012512 237.55450439 C19.28410129 237.57323019 21.26806961 237.59280465 23.25202942 237.6131897 C28.45345927 237.66436773 33.6549149 237.70406993 38.85646057 237.74133301 C44.17238162 237.78146275 49.48819675 237.83251406 54.80403137 237.88262939 C65.21932139 237.97921891 75.63467142 238.06367773 86.05012512 238.14044189 C86.05012512 243.42044189 86.05012512 248.70044189 86.05012512 254.14044189 C73.7060517 254.23332336 61.36206209 254.30429904 49.01770973 254.34769058 C43.28506203 254.36852153 37.55265428 254.39675721 31.82014465 254.44219971 C26.28286267 254.48581746 20.7458108 254.50961276 15.20837021 254.51995087 C13.10095475 254.52731367 10.99355118 254.54169128 8.88623428 254.56336212 C5.92317724 254.59260768 2.9610583 254.59638906 -0.00212097 254.59454346 C-0.86383911 254.60892456 -1.72555725 254.62330566 -2.61338806 254.63812256 C-11.01096556 254.58191429 -19.10613242 251.89672934 -25.34831238 246.11309814 C-31.9811942 237.94332908 -34.10205694 229.26779783 -34.09031677 219.01368713 C-34.09328789 218.1997602 -34.09625902 217.38583326 -34.09932017 216.54724187 C-34.10798584 213.82219457 -34.10951362 211.09719132 -34.11100769 208.37213135 C-34.1156374 206.41719977 -34.12066227 204.4622691 -34.12605286 202.50733948 C-34.13916477 197.19721645 -34.14561955 191.88710607 -34.15006351 186.57696939 C-34.1529964 183.25765771 -34.15710164 179.93834948 -34.16156769 176.61903954 C-34.1752399 166.22864209 -34.18490771 155.83825253 -34.18876958 145.44784671 C-34.19324873 133.46318972 -34.2107912 121.47864687 -34.23977017 109.49402457 C-34.26140478 100.22420275 -34.27147482 90.954413 -34.2728107 81.6845662 C-34.27385751 76.15103305 -34.2797391 70.61760724 -34.29763031 65.08410072 C-34.31414153 59.87612372 -34.31625164 54.66833439 -34.3074913 49.4603405 C-34.30672254 47.55365114 -34.31104229 45.64695156 -34.32094955 43.74028778 C-34.44322808 18.73196129 -34.44322808 18.73196129 -25.16081238 9.32794189 C-17.55978168 2.28451577 -10.32926314 0.02500765 0 0 Z "
     transform="translate(107.94987487792969,57.85955810546875)"
     style="fill: #414141;"
     id="path2" />
  <path
     d="M0 0 C7.62359595 5.19053341 14.75809847 11.64119693 18.9375 20 C19.42018816 25.28583098 19.74366029 30.24747763 17.5 35.125 C16.654375 36.07375 15.80875 37.0225 14.9375 38 C14.32777344 38.72316406 13.71804688 39.44632813 13.08984375 40.19140625 C9.29145307 44.59643646 5.30011059 48.64212597 0.953125 52.50390625 C-8.84476755 61.35629489 -18.01274657 70.88242341 -27.3125 80.25 C-31.04375815 84.00832163 -34.77874554 87.76289022 -38.515625 91.515625 C-39.35538879 92.36368713 -40.19515259 93.21174927 -41.06036377 94.08551025 C-45.34713268 98.38994545 -49.69724829 102.54528902 -54.31243896 106.49700928 C-56.07205956 108.00820996 -57.78598175 109.56247734 -59.5 111.125 C-67.37187692 117.73632979 -75.82523338 120.27825932 -85.71142578 122.36791992 C-87.82558469 122.81526868 -89.93421544 123.28374678 -92.04296875 123.75585938 C-103.17980179 126.20027143 -103.17980179 126.20027143 -108.0625 126 C-106.76717163 117.86982445 -105.33133853 109.79109929 -103.5625 101.75 C-103.36914062 100.74582031 -103.17578125 99.74164063 -102.9765625 98.70703125 C-98.98421276 80.92088886 -86.31504192 68.36980933 -73.765625 56.01171875 C-72.20135528 54.451036 -70.63820466 52.88923086 -69.07611084 51.32637024 C-65.82768486 48.08259587 -62.5695615 44.84902529 -59.30322266 41.62329102 C-55.12275029 37.49414611 -50.96266378 33.34516237 -46.808918 29.18915081 C-43.59444537 25.9754939 -40.37221618 22.7697124 -37.14730072 19.56653786 C-35.60977235 18.03852739 -34.07402904 16.50871851 -32.54013824 14.9770565 C-30.40169563 12.84512918 -28.2536619 10.72337056 -26.10253906 8.60424805 C-25.47591873 7.97626816 -24.8492984 7.34828827 -24.20368958 6.70127869 C-17.04999188 -0.29759659 -9.82654659 -3.20866828 0 0 Z "
     transform="translate(309.0625,186)"
     style="fill: #414141;"
     id="path3" />
  <path
     d="M0 0 C5.61 0 11.22 0 17 0 C17 13.2 17 26.4 17 40 C29.54 40 42.08 40 55 40 C55 45.28 55 50.56 55 56 C42.46 56 29.92 56 17 56 C17 68.54 17 81.08 17 94 C11.72 94 6.44 94 1 94 C1 81.46 1 68.92 1 56 C-12.2 56 -25.4 56 -39 56 C-39 50.72 -39 45.44 -39 40 C-25.8 40 -12.6 40 1 40 C0.67 39.34 0.34 38.68 0 38 C-0.08691001 35.15570643 -0.11553802 32.33620824 -0.09765625 29.4921875 C-0.0962413 28.65156769 -0.09482635 27.81094788 -0.09336853 26.94485474 C-0.08776237 24.25486725 -0.07520886 21.56496241 -0.0625 18.875 C-0.05748579 17.05338662 -0.05292275 15.23177193 -0.04882812 13.41015625 C-0.038641 8.94004656 -0.01906685 4.47011601 0 0 Z "
     transform="translate(179,138)"
     style="fill: #414141;"
     id="path4" />
  <path
     d="M0 0 C3.53133073 1.76566537 5.21342643 2.97493331 7.890625 5.6953125 C8.95410156 6.76845703 8.95410156 6.76845703 10.0390625 7.86328125 C10.76867187 8.60964844 11.49828125 9.35601562 12.25 10.125 C12.99507813 10.87910156 13.74015625 11.63320312 14.5078125 12.41015625 C16.3431342 14.26900772 18.1736191 16.13237005 20 18 C14.50280742 24.69529866 8.39046848 30.73696491 2.2578125 36.83984375 C1.12273594 37.97305199 -0.01211763 39.10648362 -1.14675903 40.24012756 C-4.11350744 43.20308335 -7.08324802 46.16302193 -10.0536499 49.12231445 C-13.0922886 52.15066856 -16.12804909 55.18190499 -19.1640625 58.21289062 C-25.1065826 64.14473089 -31.052271 70.07338261 -37 76 C-38.10387576 75.06113659 -39.20669521 74.12103115 -40.30908203 73.18041992 C-40.92333038 72.65703537 -41.53757874 72.13365082 -42.17044067 71.59440613 C-44.84502921 69.26358237 -47.35712301 66.81294017 -49.875 64.3125 C-50.60203125 63.60383789 -50.60203125 63.60383789 -51.34375 62.88085938 C-53.64405894 60.5901886 -54.95742762 59.12771713 -56 56 C-37.52 37.52 -19.04 19.04 0 0 Z "
     transform="translate(279,215)"
     style="fill:#ffffff;fill-opacity:1"
     id="path5" />
</svg>
