<?xml version="1.0" encoding="UTF-8" standalone="no"?>
<svg
   id="svg"
   version="1.1"
   style="display: block;"
   viewBox="0 0 376 376"
   sodipodi:docname="NotaConTestoAperta.svg"
   inkscape:version="1.3 (0e150ed, 2023-07-21)"
   xmlns:inkscape="http://www.inkscape.org/namespaces/inkscape"
   xmlns:sodipodi="http://sodipodi.sourceforge.net/DTD/sodipodi-0.dtd"
   xmlns="http://www.w3.org/2000/svg"
   xmlns:svg="http://www.w3.org/2000/svg">
  <defs
     id="defs8" />
  <sodipodi:namedview
     id="namedview8"
     pagecolor="#ffffff"
     bordercolor="#000000"
     borderopacity="0.25"
     inkscape:showpageshadow="2"
     inkscape:pageopacity="0.0"
     inkscape:pagecheckerboard="0"
     inkscape:deskcolor="#d1d1d1"
     inkscape:zoom="0.62765957"
     inkscape:cx="187.20339"
     inkscape:cy="188.79661"
     inkscape:window-width="1440"
     inkscape:window-height="654"
     inkscape:window-x="0"
     inkscape:window-y="25"
     inkscape:window-maximized="0"
     inkscape:current-layer="svg" />
  <path
     d="M0 0 C1.03206357 -0.00339833 1.03206357 -0.00339833 2.08497691 -0.00686532 C4.38395933 -0.01318099 6.68288244 -0.01237752 8.98187256 -0.0115509 C10.63301164 -0.01454396 12.28415002 -0.01794683 13.93528748 -0.02172852 C18.41686147 -0.03055893 22.89841636 -0.03290626 27.37999821 -0.0335443 C30.18203238 -0.03425548 32.9840617 -0.0363911 35.78609467 -0.03904152 C45.56766569 -0.04829255 55.34922309 -0.05237681 65.13079834 -0.05158997 C74.2380893 -0.05098959 83.34532095 -0.06153411 92.4525969 -0.07733363 C100.27952803 -0.09042643 108.10643981 -0.09577311 115.9333818 -0.09513456 C120.60445602 -0.09488003 125.27547755 -0.09770588 129.94654083 -0.10831261 C134.34274351 -0.11802259 138.73884344 -0.11805293 143.13504982 -0.11079597 C144.74383253 -0.10975366 146.35262174 -0.11209197 147.96139336 -0.11815643 C160.33251286 -0.16175059 171.03457093 -0.06013264 180.730896 8.50871277 C187.18483174 15.83480199 189.31738164 22.25889839 189.47674561 31.7943573 C189.49791946 32.64402573 189.51909332 33.49369415 189.54090881 34.36911011 C189.74562889 43.22847378 189.83158701 52.09082427 189.90838623 60.95207214 C189.94844515 65.1472078 190.02498128 69.33922597 190.13397217 73.53312683 C190.26584875 78.61738421 190.33276776 83.69873589 190.3546772 88.78461838 C190.37353475 90.71206783 190.41454503 92.63944336 190.47901726 94.56590652 C190.97973444 110.36048786 190.97973444 110.36048786 186.16378784 115.9964447 C182.18300327 119.96726043 177.71219899 123.02117744 173.043396 126.13371277 C173.03752975 124.92150558 173.03166351 123.7092984 173.02561951 122.46035767 C172.96836883 111.02796336 172.89559467 99.59575884 172.80768108 88.16355801 C172.76298273 82.2863547 172.7237252 76.40922063 172.69696045 70.53190613 C172.67092247 64.85835693 172.63051601 59.18507424 172.58020973 53.51169014 C172.56354447 51.34883505 172.55202808 49.18593388 172.54578209 47.02302361 C172.53613754 43.98989397 172.50807313 40.95744565 172.47576904 37.92448425 C172.47720413 37.03327881 172.47863922 36.14207336 172.4801178 35.22386169 C172.39857819 29.79872717 171.7914421 25.86736561 169.043396 21.13371277 C165.0480514 18.0671286 161.99768587 17.75576032 157.02864075 17.74603271 C156.33439812 17.74064718 155.64015549 17.73526164 154.9248752 17.7297129 C152.60490677 17.71543643 150.28550917 17.72253598 147.96551514 17.72966003 C146.29965253 17.72395628 144.63379382 17.716992 142.96794128 17.7088623 C138.44726118 17.69091622 133.92677503 17.692102 129.40606999 17.69780469 C125.63115682 17.70089446 121.85628101 17.69480644 118.08137316 17.68876594 C109.17553472 17.67471755 100.2697922 17.67628461 91.36395264 17.68766785 C82.17812748 17.69914955 72.99259426 17.68507326 63.80680758 17.65827137 C55.91791002 17.63611582 48.02910412 17.62947666 40.14017767 17.63534778 C35.42946631 17.6387189 30.7189421 17.63629206 26.00825691 17.61909676 C21.57829491 17.603632 17.14876545 17.60757782 12.71882057 17.6264019 C11.0942671 17.6300891 9.46968161 17.62697546 7.84515762 17.61651611 C5.62465184 17.60331256 3.40557937 17.61484596 1.18513489 17.63250732 C-0.05647872 17.63271661 -1.29809233 17.63292589 -2.57733059 17.63314152 C-7.23666903 18.3233286 -10.40200949 20.1397115 -13.31531048 23.87645817 C-14.29146707 27.31237926 -14.23466219 30.70831683 -14.21730042 34.24978638 C-14.22112596 35.07455382 -14.22495151 35.89932127 -14.22889298 36.74908167 C-14.23922329 39.51659814 -14.23523078 42.28390716 -14.23126221 45.05143738 C-14.23560865 47.03403923 -14.24079158 49.0166394 -14.24674988 50.99923706 C-14.26015811 56.3876127 -14.26071653 61.77591828 -14.25818658 67.16430736 C-14.25711814 71.66000134 -14.26199696 76.15568108 -14.266792 80.65137202 C-14.27789342 91.25576659 -14.27832097 101.86012574 -14.27227783 112.46452332 C-14.26623597 123.41063488 -14.27855304 134.35661797 -14.2998479 145.30270761 C-14.31745034 154.69557832 -14.32346742 164.08840809 -14.32021016 173.48129469 C-14.31839505 179.09348102 -14.32105622 184.70557569 -14.3349247 190.31774712 C-14.34747638 195.59465145 -14.34558413 200.87135514 -14.33251381 206.1482563 C-14.3301427 208.08606661 -14.33290175 210.02389092 -14.34113693 211.96168518 C-14.35156092 214.60490974 -14.34353886 217.24745566 -14.33082581 219.89065552 C-14.33820009 220.65933439 -14.34557438 221.42801326 -14.35317212 222.21998543 C-14.30764905 226.71215608 -13.68822135 229.54060525 -10.956604 233.13371277 C-2.75996973 240.88527754 14.37756106 238.47680087 25.03167725 238.54777527 C26.8291458 238.5665272 28.62660592 238.58610346 30.42405701 238.60646057 C35.11083969 238.65736327 39.79765078 238.69721048 44.48455811 238.73460388 C49.2848387 238.77490893 54.08500543 238.8258791 58.88519287 238.87590027 C68.27118009 238.97216253 77.65723226 239.05672317 87.043396 239.13371277 C87.043396 243.75371277 87.043396 248.37371277 87.043396 253.13371277 C75.05601869 253.31100659 63.06854257 253.4769388 51.08081055 253.62848854 C45.51404489 253.69921843 39.94738782 253.77381658 34.38079834 253.85734558 C29.00573798 253.93785678 23.63063141 254.00808848 18.25534058 254.07128525 C16.20766273 254.09714869 14.16002766 254.12667534 12.11245728 254.15997696 C9.23790303 254.20609424 6.36347055 254.23901941 3.4887085 254.26896667 C2.64785202 254.28550797 1.80699554 254.30204926 0.94065857 254.3190918 C-8.13856092 254.38390756 -16.41530744 252.55093019 -23.10113525 246.04777527 C-30.67371308 237.83391608 -32.11278448 230.8677547 -32.09031677 219.7973175 C-32.09258233 218.97295791 -32.09484789 218.14859831 -32.0971821 217.29925811 C-32.10349748 214.54500598 -32.10269432 211.79080336 -32.10186768 209.0365448 C-32.10486068 207.05851681 -32.10826354 205.08048941 -32.11204529 203.10246277 C-32.12087459 197.73468039 -32.12322294 192.36691395 -32.12386107 186.999125 C-32.12457213 183.64447902 -32.12670749 180.28983709 -32.12935829 176.93519211 C-32.13860782 165.22906487 -32.14269362 153.52294901 -32.14190674 141.81681824 C-32.14130588 130.90938064 -32.15186022 120.0019925 -32.1676504 109.09456742 C-32.18072985 99.72539447 -32.18609047 90.35623767 -32.18545133 80.98705566 C-32.18519648 75.39326544 -32.18804044 69.79951918 -32.19862938 64.20573807 C-32.20831725 58.94443292 -32.20838477 53.68321371 -32.20111275 48.42190552 C-32.2000678 46.49341583 -32.20242444 44.56492077 -32.20847321 42.63644028 C-32.21620878 39.99888469 -32.21153799 37.3616247 -32.20384216 34.72407532 C-32.20898573 33.96549921 -32.21412929 33.20692311 -32.21942872 32.42535985 C-32.16006924 23.18513304 -29.81139064 15.15864379 -23.284729 8.40324402 C-16.13616362 1.99800291 -9.49015226 0.01293045 0 0 Z "
     transform="translate(92.95660400390625,62.86628723144531)"
     style="fill: #931000;"
     id="path2" />
  <path
     d="M0 0 C0.86753906 -0.00128906 1.73507812 -0.00257813 2.62890625 -0.00390625 C9.3305691 1.34761129 14.03400848 5.65554404 18.6875 10.375 C19.203125 10.87064453 19.71875 11.36628906 20.25 11.87695312 C24.87212759 16.50503707 27.13959415 20.88134736 27.875 27.5 C27.53292729 35.32670094 22.58142435 41.01051131 17.203125 46.22265625 C16.60626892 46.81622421 16.00941284 47.40979218 15.39447021 48.02134705 C13.50136991 49.89883877 11.59457017 51.76171214 9.6875 53.625 C8.4236104 54.87737906 7.16058206 56.13062793 5.8984375 57.38476562 C4.66743236 58.60233713 3.43568507 59.81915885 2.203125 61.03515625 C1.64449768 61.58639664 1.08587036 62.13763702 0.51031494 62.70558167 C-2.39843084 65.5460826 -5.36369104 68.27614249 -8.44775391 70.92578125 C-12.92981515 74.81334426 -17.03786925 79.01849401 -21.1640625 83.27734375 C-22.80521286 84.95063195 -24.44716557 86.62313352 -26.08984375 88.29492188 C-28.63778157 90.89203729 -31.18086999 93.49314608 -33.71044922 96.1081543 C-48.24711486 111.11388178 -59.94072585 120.44102013 -80.625 124.5625 C-82.01281425 124.86122381 -83.40018838 125.1619998 -84.78710938 125.46484375 C-95.50685864 127.75271813 -95.50685864 127.75271813 -100.5625 127.5625 C-99.6013576 122.6849341 -98.60698728 117.81565187 -97.58398438 112.95068359 C-97.24190085 111.30208443 -96.90826812 109.65170432 -96.58398438 107.99951172 C-93.58547396 92.77559309 -88.91249455 80.80126373 -77.15234375 70.0390625 C-75.15931119 68.13320633 -73.43642852 66.27731035 -71.6640625 64.18383789 C-66.49468382 58.24517472 -60.90284448 52.71814058 -55.34765625 47.14453125 C-54.47862576 46.2712597 -54.47862576 46.2712597 -53.59203911 45.3803463 C-50.53157684 42.30499167 -47.46832723 39.23244733 -44.40258789 36.16235352 C-41.25444695 33.00871328 -38.11570735 29.84588613 -34.97904301 26.68083668 C-32.54673682 24.2298378 -30.10768125 21.78563962 -27.66677666 19.34320641 C-26.50697234 18.18039482 -25.3496459 17.01510584 -24.19496346 15.84720802 C-8.30626347 -0.21044185 -8.30626347 -0.21044185 0 0 Z "
     transform="translate(287.5625,189.4375)"
     style="fill: #931000;"
     id="path3" />
  <path
     d="M0 0 C7.42597701 6.29593181 7.42597701 6.29593181 10.30859375 9.2109375 C10.82744141 9.73300781 11.34628906 10.25507813 11.88085938 10.79296875 C12.39455078 11.31503906 12.90824219 11.83710938 13.4375 12.375 C13.97826172 12.92027344 14.51902344 13.46554688 15.07617188 14.02734375 C16.38646723 15.34923464 17.69358284 16.67427618 19 18 C17.41600411 21.89395116 14.75803057 24.51152235 11.81591797 27.41113281 C11.28893311 27.93840973 10.76194824 28.46568665 10.21899414 29.00894165 C8.48142524 30.74512072 6.73688686 32.474114 4.9921875 34.203125 C3.78391678 35.40766437 2.57608778 36.61264697 1.36868286 37.8180542 C-1.80637077 40.98548106 -4.98738522 44.14685513 -8.16967773 47.30700684 C-11.41752076 50.53437089 -14.65969133 53.76742228 -17.90234375 57 C-24.26268982 63.33891303 -30.62934753 69.67144624 -37 76 C-40.22314687 74.46712414 -42.37735598 72.85849312 -44.890625 70.3046875 C-45.59960938 69.58925781 -46.30859375 68.87382812 -47.0390625 68.13671875 C-47.76867187 67.39035156 -48.49828125 66.64398438 -49.25 65.875 C-49.99507812 65.12089844 -50.74015625 64.36679687 -51.5078125 63.58984375 C-53.3431342 61.73099228 -55.1736191 59.86762995 -57 58 C-51.50280742 51.30470134 -45.39046848 45.26303509 -39.2578125 39.16015625 C-38.12273594 38.02694801 -36.98788237 36.89351638 -35.85324097 35.75987244 C-32.88649256 32.79691665 -29.91675198 29.83697807 -26.9463501 26.87768555 C-23.9077114 23.84933144 -20.87195091 20.81809501 -17.8359375 17.78710938 C-11.8934174 11.85526911 -5.947729 5.92661739 0 0 Z "
     transform="translate(266,219)"
     style="fill:#ffffff;fill-opacity:1"
     id="path4" />
  <path
     d="M0 0 C42.24 0 84.48 0 128 0 C128 5.28 128 10.56 128 16 C85.76 16 43.52 16 0 16 C0 10.72 0 5.44 0 0 Z "
     transform="translate(108,174)"
     style="fill: #931000;"
     id="path5" />
  <path
     d="M0 0 C42.24 0 84.48 0 128 0 C128 5.28 128 10.56 128 16 C85.76 16 43.52 16 0 16 C0 10.72 0 5.44 0 0 Z "
     transform="translate(108,142)"
     style="fill: #931000;"
     id="path6" />
  <path
     d="M0 0 C42.24 0 84.48 0 128 0 C128 5.28 128 10.56 128 16 C85.76 16 43.52 16 0 16 C0 10.72 0 5.44 0 0 Z "
     transform="translate(108,110)"
     style="fill: #931000;"
     id="path7" />
  <path
     d="M0 0 C21.12 0 42.24 0 64 0 C64 5.28 64 10.56 64 16 C42.88 16 21.76 16 0 16 C0 10.72 0 5.44 0 0 Z "
     transform="translate(108,206)"
     style="fill: #931000;"
     id="path8" />
</svg>
