<?xml version="1.0" encoding="UTF-8" standalone="no"?>
<svg
   id="svg"
   version="1.1"
   style="display: block;"
   viewBox="0 0 376 376"
   sodipodi:docname="NotaVuotaAperta.svg"
   inkscape:version="1.3 (0e150ed, 2023-07-21)"
   xmlns:inkscape="http://www.inkscape.org/namespaces/inkscape"
   xmlns:sodipodi="http://sodipodi.sourceforge.net/DTD/sodipodi-0.dtd"
   xmlns="http://www.w3.org/2000/svg"
   xmlns:svg="http://www.w3.org/2000/svg">
  <defs
     id="defs4" />
  <sodipodi:namedview
     id="namedview4"
     pagecolor="#ffffff"
     bordercolor="#000000"
     borderopacity="0.25"
     inkscape:showpageshadow="2"
     inkscape:pageopacity="0.0"
     inkscape:pagecheckerboard="0"
     inkscape:deskcolor="#d1d1d1"
     inkscape:zoom="0.62765957"
     inkscape:cx="187.20339"
     inkscape:cy="188.79661"
     inkscape:window-width="1440"
     inkscape:window-height="690"
     inkscape:window-x="0"
     inkscape:window-y="25"
     inkscape:window-maximized="0"
     inkscape:current-layer="svg" />
  <path
     d="M0 0 C1.64054697 0.00388567 3.28109612 0.00692902 4.92164612 0.00920105 C9.34722207 0.01822294 13.77263543 0.04039788 18.19814229 0.06614542 C21.90336237 0.08679709 25.60859786 0.10171248 29.31384367 0.11690509 C38.05793148 0.15316793 46.80190633 0.20096799 55.54589844 0.25537109 C64.54646778 0.3111102 73.54693252 0.34453235 82.54763991 0.36747849 C90.29751916 0.38818596 98.04723025 0.42417863 105.79698938 0.47200286 C110.41603392 0.50026972 115.03490929 0.52254056 119.65403938 0.5294838 C123.99717697 0.53656118 128.33979492 0.5627678 132.68274498 0.60331154 C134.27011236 0.61496243 135.85754553 0.61997596 137.44495392 0.61761665 C147.31521965 0.60781027 155.79164678 1.18027989 164.07397461 7.02294922 C171.90127914 15.17496725 174.57858894 23.22324524 174.77612305 34.37280273 C174.79393829 35.19452469 174.81175354 36.01624664 174.83010864 36.86286926 C174.98453054 44.43987214 175.07202505 52.0181211 175.14010239 59.59634495 C175.18625219 64.6805334 175.25362014 69.76241338 175.37280273 74.84545898 C175.48786205 79.7716356 175.54804883 84.69574275 175.57062531 89.6231823 C175.58832497 91.49277445 175.62498556 93.36229394 175.681633 95.23111153 C176.14726645 111.35494553 176.14726645 111.35494553 170.71905899 117.32291317 C166.99823966 120.8801567 162.94714675 123.65440413 158.48803711 126.19873047 C158.47257591 124.54074936 158.47257591 124.54074936 158.45680237 122.84927368 C158.35880594 112.40387436 158.25604862 101.95853114 158.14869785 91.51322365 C158.09366654 86.14392663 158.04027959 80.774624 157.99072266 75.40527344 C157.94278543 70.21809845 157.89043463 65.03098464 157.83509636 59.84388351 C157.81480501 57.87049266 157.79607132 55.89708511 157.77896309 53.92366409 C157.75462357 51.14761618 157.72461337 48.37168068 157.69335938 45.59570312 C157.68760391 44.79008942 157.68184845 43.98447571 157.67591858 43.15444946 C158.05856205 31.36421971 158.05856205 31.36421971 153.48803711 21.19873047 C145.87179876 17.29458739 137.9846776 17.77499103 129.63623047 17.81054688 C128.03066146 17.80647718 126.42509525 17.80113307 124.8195343 17.7946167 C120.47663095 17.7809857 116.13394233 17.78622396 111.79103541 17.79575396 C107.23792761 17.80337115 102.68483768 17.79629935 98.13172913 17.79159546 C90.48801384 17.78614445 82.84438564 17.79331289 75.20068359 17.80761719 C66.37215035 17.82394829 57.54382491 17.81864923 48.71529669 17.80213797 C41.12441258 17.7885114 33.53359093 17.78660899 25.94269854 17.79445398 C21.4136833 17.7991233 16.88476567 17.79977563 12.35575676 17.78984451 C8.09816601 17.78115985 3.84084253 17.78722403 -0.41671944 17.80452728 C-1.97634946 17.80848388 -3.53600208 17.80737226 -5.09562302 17.80073929 C-7.23002931 17.79250068 -9.36358733 17.80287189 -11.49794006 17.81777954 C-13.28676401 17.81947616 -13.28676401 17.81947616 -15.11172581 17.82120705 C-19.91182715 18.35415538 -23.88349755 19.59605264 -27.37625504 23.03350067 C-32.27259777 32.36839004 -30.79799732 45.58137261 -30.77075195 55.89990234 C-30.77346808 57.64425298 -30.77703247 59.38860247 -30.78137207 61.13294983 C-30.79042449 65.83334525 -30.78698156 70.53365204 -30.7806139 75.23404884 C-30.77551664 80.17536262 -30.78025564 85.11666929 -30.78338623 90.0579834 C-30.78701508 98.35279692 -30.78225524 106.64757472 -30.77270508 114.94238281 C-30.76182263 124.50419526 -30.76534897 134.06592238 -30.77635789 143.62773275 C-30.78546166 151.86762769 -30.78670097 160.10749708 -30.78148055 168.34739542 C-30.7783778 173.25545047 -30.77790456 178.16346554 -30.78455353 183.07151794 C-30.7903715 187.68781424 -30.78624944 192.30400154 -30.77476501 196.92028618 C-30.77214207 198.6047949 -30.77284253 200.28931294 -30.77729034 201.97381783 C-31.60868461 219.81974396 -31.60868461 219.81974396 -24.51196289 235.19873047 C-15.84555637 240.82084726 -0.52647666 238.41918954 9.49975586 238.51513672 C11.32249885 238.53574739 13.1452375 238.55674481 14.9679718 238.57810974 C19.73042251 238.63290626 24.49291326 238.68249986 29.25543213 238.73095703 C34.12922668 238.78148484 39.00296417 238.83700646 43.87670898 238.89208984 C53.4137711 238.99915134 62.95088256 239.10024606 72.48803711 239.19873047 C72.48803711 244.47873047 72.48803711 249.75873047 72.48803711 255.19873047 C60.53508787 255.26840255 48.58218736 255.32162902 36.629076 255.35416698 C31.07808355 255.36978771 25.52723056 255.39096024 19.97631836 255.42504883 C14.61411045 255.45777052 9.25203627 255.47561048 3.88973618 255.4833622 C1.84932222 255.48888276 -0.19108485 255.49966283 -2.2314415 255.51592064 C-5.10098539 255.53786526 -7.96998461 255.54069031 -10.83959961 255.53930664 C-11.67326553 255.55009247 -12.50693146 255.5608783 -13.36585999 255.57199097 C-22.77807927 255.52324335 -31.49787259 253.1479834 -38.32446289 246.40966797 C-45.71220716 238.43706061 -47.66176272 230.85418678 -47.65913391 220.09216309 C-47.6628106 219.28035285 -47.66648729 218.4685426 -47.67027539 217.63213205 C-47.68128103 214.9140907 -47.6851508 212.19608762 -47.68896484 209.47802734 C-47.69523197 207.52796305 -47.70187899 205.57789994 -47.70887756 203.62783813 C-47.72989497 197.224394 -47.74027945 190.8209497 -47.75024414 184.41748047 C-47.7542929 182.20970141 -47.75840986 180.00192248 -47.76259422 177.79414368 C-47.7816427 167.41815849 -47.7958731 157.04218039 -47.80420619 146.66618109 C-47.81397035 134.7069904 -47.84026996 122.7479852 -47.88070709 110.78885984 C-47.91092033 101.53427843 -47.9256801 92.27975002 -47.92898721 83.02512026 C-47.93133219 77.50318955 -47.94022059 71.98145707 -47.96544838 66.45957947 C-47.98882456 61.25894089 -47.99292404 56.05862973 -47.982687 50.85795212 C-47.9821938 48.95735456 -47.98844976 47.05674035 -48.00224304 45.15619278 C-48.08870872 32.52762392 -48.09222683 20.45328118 -39.76196289 10.13623047 C-28.92959713 -0.75598261 -14.45300626 -0.09983825 0 0 Z "
     transform="translate(121.511962890625,58.80126953125)"
     style="fill: #931000;"
     id="path2" />
  <path
     d="M0 0 C4.11054573 2.24065042 7.31331601 5.36472573 10.625 8.625 C11.39880005 9.38345215 11.39880005 9.38345215 12.18823242 10.15722656 C16.75187122 14.82797193 19.73354496 19.39408287 19.8125 26.125 C19.8434375 26.99898437 19.874375 27.87296875 19.90625 28.7734375 C18.38672463 36.39105811 12.46832487 42.02431584 7.10546875 47.28515625 C6.42124344 47.96750839 5.73701813 48.64986053 5.03205872 49.35289001 C3.59251246 50.78575448 2.14939319 52.21503743 0.70288086 53.64086914 C-1.49037285 55.80300942 -3.67282001 57.9755921 -5.85351562 60.15039062 C-7.26240188 61.55010245 -8.6718877 62.9492111 -10.08203125 64.34765625 C-10.72501663 64.98639175 -11.36800201 65.62512726 -12.0304718 66.28321838 C-15.16844972 69.37287569 -18.35265837 72.35926803 -21.68920898 75.23413086 C-25.76411438 78.76015721 -29.51843249 82.53755167 -33.265625 86.40625 C-34.6881877 87.85607183 -36.11138474 89.30527149 -37.53515625 90.75390625 C-39.73725169 92.99909362 -41.93527352 95.24769988 -44.12255859 97.50732422 C-57.98633869 111.8077588 -69.30937583 119.15340742 -88.8125 123.1875 C-90.42748935 123.53915614 -92.04207726 123.89266115 -93.65625 124.24804688 C-105.14079916 126.75 -105.14079916 126.75 -107.6875 126.75 C-104.44073405 94.6881862 -93.20597401 76.33290813 -70.45068359 54.54736328 C-68.34238669 52.41298742 -66.37892362 50.27246917 -64.42431641 48.00439453 C-60.3137818 43.25707444 -55.927446 38.8098556 -51.5 34.359375 C-50.63866455 33.49233948 -49.7773291 32.62530396 -48.88989258 31.73199463 C-47.07935495 29.91206556 -45.26740197 28.09354355 -43.45410156 26.27636719 C-40.68872515 23.50122947 -37.93420079 20.71560244 -35.1796875 17.9296875 C-33.4121183 16.15559221 -31.64391076 14.38213265 -29.875 12.609375 C-28.64970581 11.36556061 -28.64970581 11.36556061 -27.3996582 10.09661865 C-19.50807108 2.2354844 -11.6136079 -3.93681624 0 0 Z "
     transform="translate(308.6875,187.25)"
     style="fill: #931000;"
     id="path3" />
  <path
     d="M0 0 C3.22314687 1.53287586 5.37735598 3.14150688 7.890625 5.6953125 C8.95410156 6.76845703 8.95410156 6.76845703 10.0390625 7.86328125 C10.76867187 8.60964844 11.49828125 9.35601562 12.25 10.125 C12.99507813 10.87910156 13.74015625 11.63320312 14.5078125 12.41015625 C16.3431342 14.26900772 18.1736191 16.13237005 20 18 C14.50280742 24.69529866 8.39046848 30.73696491 2.2578125 36.83984375 C1.12273594 37.97305199 -0.01211763 39.10648362 -1.14675903 40.24012756 C-4.11350744 43.20308335 -7.08324802 46.16302193 -10.0536499 49.12231445 C-13.0922886 52.15066856 -16.12804909 55.18190499 -19.1640625 58.21289062 C-25.1065826 64.14473089 -31.052271 70.07338261 -37 76 C-44.42597701 69.70406819 -44.42597701 69.70406819 -47.30859375 66.7890625 C-47.82744141 66.26699219 -48.34628906 65.74492187 -48.88085938 65.20703125 C-49.39455078 64.68496094 -49.90824219 64.16289062 -50.4375 63.625 C-51.24864258 62.80708984 -51.24864258 62.80708984 -52.07617188 61.97265625 C-53.38646723 60.65076536 -54.69358284 59.32572382 -56 58 C-54.41600411 54.10604884 -51.75803057 51.48847765 -48.81591797 48.58886719 C-48.28893311 48.06159027 -47.76194824 47.53431335 -47.21899414 46.99105835 C-45.48142524 45.25487928 -43.73688686 43.525886 -41.9921875 41.796875 C-40.78391678 40.59233563 -39.57608778 39.38735303 -38.36868286 38.1819458 C-35.19362923 35.01451894 -32.01261478 31.85314487 -28.83032227 28.69299316 C-25.58247924 25.46562911 -22.34030867 22.23257772 -19.09765625 19 C-12.73731018 12.66108697 -6.37065247 6.32855376 0 0 Z "
     transform="translate(279,216)"
     style="fill:#ffffff;fill-opacity:1"
     id="path4" />
</svg>
