<?xml version="1.0" encoding="UTF-8" standalone="no"?>
<svg
   id="svg"
   version="1.1"
   style="display: block;"
   viewBox="0 0 376 376"
   sodipodi:docname="NotaConTestoChiusa.svg"
   inkscape:version="1.3 (0e150ed, 2023-07-21)"
   xmlns:inkscape="http://www.inkscape.org/namespaces/inkscape"
   xmlns:sodipodi="http://sodipodi.sourceforge.net/DTD/sodipodi-0.dtd"
   xmlns="http://www.w3.org/2000/svg"
   xmlns:svg="http://www.w3.org/2000/svg">
  <defs
     id="defs8" />
  <sodipodi:namedview
     id="namedview8"
     pagecolor="#ffffff"
     bordercolor="#000000"
     borderopacity="0.25"
     inkscape:showpageshadow="2"
     inkscape:pageopacity="0.0"
     inkscape:pagecheckerboard="0"
     inkscape:deskcolor="#d1d1d1"
     inkscape:zoom="0.62765957"
     inkscape:cx="187.20339"
     inkscape:cy="188.79661"
     inkscape:window-width="1440"
     inkscape:window-height="594"
     inkscape:window-x="0"
     inkscape:window-y="25"
     inkscape:window-maximized="0"
     inkscape:current-layer="svg" />
  <path
     d="M0 0 C1.69128874 -0.00378886 3.38257437 -0.00929355 5.07385254 -0.01637268 C9.64203422 -0.03026962 14.20983684 -0.01919871 18.77799726 -0.00266147 C23.57172224 0.01124724 28.36542652 0.00472243 33.15916443 0.00120544 C41.206269 -0.00149183 49.253224 0.01193821 57.30029297 0.03515625 C66.58894228 0.06177196 75.87734177 0.06350838 85.16601616 0.05176789 C94.1222804 0.04097013 103.07845472 0.04719227 112.03471184 0.06132317 C115.83712846 0.06706473 119.63947889 0.06701475 123.44189644 0.06225777 C127.92278011 0.05746782 132.40339192 0.06767283 136.88422394 0.08921242 C138.52363862 0.09475272 140.16307957 0.09527106 141.80249596 0.09025955 C153.74060098 0.05835598 164.09261693 0.72404312 173.12670898 9.50170898 C178.64772655 16.52208919 180.42160958 23.45340274 180.48071289 32.24169922 C180.49385529 33.09939911 180.50699768 33.957099 180.52053833 34.84078979 C180.55978919 37.66396488 180.58327451 40.48692882 180.60327148 43.31030273 C180.61142254 44.27796129 180.61957359 45.24561985 180.62797165 46.24260139 C180.669592 51.35996761 180.69824391 56.47722804 180.71704102 61.59472656 C180.73920716 66.87230355 180.8080728 72.14820254 180.88738441 77.4251852 C180.93970854 81.49248857 180.95642304 85.55939049 180.96360397 89.62700081 C180.97333114 91.57230081 180.99654746 93.51758313 181.03367996 95.46255302 C181.306344 110.6847294 181.306344 110.6847294 178.36808777 115.210495 C176.36162064 116.98096742 174.47308041 118.23762744 172.12670898 119.50170898 C170.7960769 120.79582287 169.47723974 122.10268766 168.18920898 123.43920898 C167.18680612 124.47814589 166.17148141 125.50538977 165.12670898 126.50170898 C164.79670898 126.50170898 164.46670898 126.50170898 164.12670898 126.50170898 C164.12084274 125.2895018 164.1149765 124.07729462 164.1089325 122.82835388 C164.05168182 111.39595958 163.97890766 99.96375505 163.89099407 88.53155422 C163.84629572 82.65435092 163.80703819 76.77721685 163.78027344 70.89990234 C163.75423546 65.22635315 163.713829 59.55307046 163.66352272 53.87968636 C163.64685746 51.71683127 163.63534107 49.55393009 163.62909508 47.39101982 C163.61945053 44.35789018 163.59138612 41.32544186 163.55908203 38.29248047 C163.56051712 37.40127502 163.56195221 36.51006958 163.56343079 35.59185791 C163.4817342 30.15627872 162.70592738 26.31705029 160.12670898 21.50170898 C153.07199136 15.45480816 140.91431754 17.35912437 132.22460938 17.37231445 C130.72080951 17.37095766 129.21700997 17.36917617 127.71321106 17.36700439 C123.64708613 17.36246271 119.5809867 17.36420627 115.51486135 17.36738348 C111.24830513 17.36992445 106.98175101 17.36756467 102.7151947 17.36599731 C95.55068573 17.36418049 88.38618709 17.36656896 81.22167969 17.37133789 C72.95446954 17.37677749 64.68728407 17.37501808 56.42007452 17.36951149 C49.30645349 17.36496401 42.19283987 17.36433787 35.07921785 17.36695015 C30.83745096 17.3685042 26.59569565 17.36873072 22.35392952 17.36541367 C18.36399247 17.36251125 14.37408702 17.36455399 10.38415337 17.37030792 C8.92533801 17.37162294 7.46651996 17.37126295 6.00770569 17.36904526 C-7.35504385 16.53460419 -7.35504385 16.53460419 -19.37329102 20.87670898 C-23.39278816 25.09718098 -23.01991131 28.9798344 -23.01373291 34.49752808 C-23.01670403 35.3214411 -23.01967515 36.14535412 -23.02273631 36.9942342 C-23.03143246 39.7648024 -23.03293233 42.53532743 -23.03442383 45.3059082 C-23.03905131 47.28836154 -23.04407587 49.27081398 -23.04946899 51.25326538 C-23.06260066 56.64581312 -23.0690393 62.0383484 -23.07347965 67.43090963 C-23.07640878 70.7980793 -23.08051325 74.16524554 -23.08498383 77.53241348 C-23.09865998 88.06216475 -23.1083264 98.59190821 -23.11218572 109.12166774 C-23.1166687 121.28694569 -23.13422731 133.45211141 -23.16318631 145.61735523 C-23.18478138 155.01444603 -23.19488881 164.41150521 -23.19622684 173.80862057 C-23.19727631 179.42418359 -23.20321442 185.03964112 -23.22104645 190.65517807 C-23.2374898 195.93616135 -23.23970082 201.21695943 -23.23090744 206.49795914 C-23.23013509 208.43738551 -23.23450568 210.37682168 -23.24436569 212.31622314 C-23.25702777 214.96167854 -23.25123981 217.60647226 -23.24078369 220.25192261 C-23.2488401 221.0212836 -23.2568965 221.79064459 -23.26519704 222.58331954 C-23.22362752 227.07312948 -22.63046455 229.92440936 -19.87329102 233.50170898 C-13.87507332 238.30028314 -5.51100817 237.65181961 1.83764648 237.70703125 C2.66786819 237.71693085 3.4980899 237.72683044 4.35346985 237.73703003 C7.06952158 237.76835767 9.78559074 237.79328751 12.50170898 237.81811523 C14.39600045 237.83870965 16.29028757 237.85970674 18.18457031 237.88108826 C23.1492764 237.93605219 28.11402218 237.98557379 33.07879639 238.03393555 C38.15339657 238.08433909 43.22793972 238.13992635 48.30249023 238.19506836 C58.24384939 238.30233546 68.1852575 238.40336956 78.12670898 238.50170898 C78.12670898 243.78170898 78.12670898 249.06170898 78.12670898 254.50170898 C66.02610471 254.57134313 53.92554842 254.6245884 41.82478428 254.6571455 C36.20538294 254.67277445 30.5861191 254.69396217 24.96679688 254.72802734 C19.53975518 254.7607195 14.11284541 254.77858283 8.68571281 254.78634071 C6.61935285 254.79186653 4.55299977 254.80265703 2.48669624 254.81889915 C-0.41657769 254.84080434 -3.31931244 254.84367044 -6.22265625 254.84228516 C-7.06926819 254.85307098 -7.91588013 254.86385681 -8.78814697 254.87496948 C-17.72970531 254.82906532 -26.0184412 252.38035708 -32.46704102 245.90014648 C-39.58971794 237.97442265 -41.02825248 230.63511359 -41.00700378 220.16531372 C-41.00926934 219.34095412 -41.0115349 218.51659452 -41.01386911 217.66725433 C-41.02018449 214.91300219 -41.01938133 212.15879958 -41.01855469 209.40454102 C-41.02154769 207.42651303 -41.02495055 205.44848562 -41.0287323 203.47045898 C-41.0375616 198.1026766 -41.03990995 192.73491016 -41.04054809 187.36712122 C-41.04125914 184.01247524 -41.0433945 180.6578333 -41.0460453 177.30318832 C-41.05529483 165.59706108 -41.05938064 153.89094523 -41.05859375 142.18481445 C-41.0579929 131.27737686 -41.06854723 120.36998871 -41.08433741 109.46256363 C-41.09741686 100.09339068 -41.10277748 90.72423389 -41.10213834 81.35505188 C-41.10188349 75.76126166 -41.10472745 70.1675154 -41.11531639 64.57373428 C-41.12500426 59.31242914 -41.12507178 54.05120992 -41.11779976 48.78990173 C-41.11675481 46.86141204 -41.11911145 44.93291698 -41.12516022 43.00443649 C-41.13289579 40.3668809 -41.128225 37.72962091 -41.12052917 35.09207153 C-41.12567274 34.33349543 -41.1308163 33.57491932 -41.13611573 32.79335606 C-41.07640353 23.4982226 -38.63285435 15.77122553 -32.34204102 8.80639648 C-23.00116104 0.03830632 -12.08429058 -0.07745258 0 0 Z "
     transform="translate(101.873291015625,61.498291015625)"
     style="fill: #414141;"
     id="path2" />
  <path
     d="M0 0 C0.8765625 -0.0103125 1.753125 -0.020625 2.65625 -0.03125 C9.38281978 1.22536194 14.09965024 5.59623033 18.75 10.3125 C19.265625 10.80814453 19.78125 11.30378906 20.3125 11.81445312 C24.38921733 15.89642396 26.8607183 19.93381092 27.8984375 25.72265625 C27.74186035 38.01396235 16.99832407 46.06683575 8.9375 54.1875 C8.42010254 54.70965088 7.90270508 55.23180176 7.36962891 55.76977539 C4.62285375 58.50495171 1.81330492 61.11187991 -1.13525391 63.62866211 C-5.85764986 67.7464304 -10.24750235 72.15723981 -14.64453125 76.6171875 C-16.39113655 78.37644059 -18.13788584 80.13555073 -19.88476562 81.89453125 C-22.59844463 84.63295356 -25.31048399 87.37295909 -28.01977539 90.11572266 C-30.66098214 92.78742611 -33.30861803 95.45263009 -35.95703125 98.1171875 C-37.14665215 99.32699783 -37.14665215 99.32699783 -38.36030579 100.56124878 C-50.94100014 113.19684922 -61.24759113 120.19326952 -78.55566406 123.84741211 C-80.76197817 124.31503876 -82.96287576 124.80378636 -85.1640625 125.29492188 C-86.57264439 125.60021731 -87.9814903 125.90429765 -89.390625 126.20703125 C-91.29376465 126.61659058 -91.29376465 126.61659058 -93.23535156 127.03442383 C-96.15571403 127.45090089 -97.78197354 127.51478107 -100.5 126.5 C-99.5382676 121.76478218 -98.5438983 117.0379178 -97.52148438 112.31542969 C-97.17957082 110.71535111 -96.84593454 109.11347646 -96.52148438 107.50976562 C-93.51671513 92.7084949 -88.5992758 81.49435325 -78.07592773 70.45141602 C-77.46333823 69.80225062 -76.85074873 69.15308523 -76.21959591 68.48424816 C-69.81067614 61.71971278 -63.26980329 55.08749562 -56.69140625 48.48828125 C-56.0730937 47.86714132 -55.45478115 47.2460014 -54.81773186 46.60603905 C-51.56381617 43.33734812 -48.30720973 40.07136892 -45.0480957 36.80786133 C-41.70390807 33.45812931 -38.36915355 30.09916147 -35.03633213 26.7381258 C-32.44449701 24.1276508 -29.8459622 21.52392381 -27.24555779 18.92198753 C-26.01235996 17.68578062 -24.78164226 16.44709407 -23.55356026 15.20580482 C-21.84165822 13.47676599 -20.12044934 11.75752909 -18.39672852 10.0402832 C-17.6539566 9.28368912 -17.6539566 9.28368912 -16.8961792 8.5118103 C-12.10618305 3.77769096 -6.97189874 -0.08202234 0 0 Z "
     transform="translate(287.5,188.5)"
     style="fill: #414141;"
     id="path3" />
  <path
     d="M0 0 C7.42597701 6.29593181 7.42597701 6.29593181 10.30859375 9.2109375 C10.82744141 9.73300781 11.34628906 10.25507813 11.88085938 10.79296875 C12.39455078 11.31503906 12.90824219 11.83710938 13.4375 12.375 C13.97826172 12.92027344 14.51902344 13.46554688 15.07617188 14.02734375 C16.38646723 15.34923464 17.69358284 16.67427618 19 18 C17.41600411 21.89395116 14.75803057 24.51152235 11.81591797 27.41113281 C11.28893311 27.93840973 10.76194824 28.46568665 10.21899414 29.00894165 C8.48142524 30.74512072 6.73688686 32.474114 4.9921875 34.203125 C3.78391678 35.40766437 2.57608778 36.61264697 1.36868286 37.8180542 C-1.80637077 40.98548106 -4.98738522 44.14685513 -8.16967773 47.30700684 C-11.41752076 50.53437089 -14.65969133 53.76742228 -17.90234375 57 C-24.26268982 63.33891303 -30.62934753 69.67144624 -37 76 C-40.22314687 74.46712414 -42.37735598 72.85849312 -44.890625 70.3046875 C-45.59960938 69.58925781 -46.30859375 68.87382812 -47.0390625 68.13671875 C-47.76867187 67.39035156 -48.49828125 66.64398438 -49.25 65.875 C-49.99507812 65.12089844 -50.74015625 64.36679687 -51.5078125 63.58984375 C-53.3431342 61.73099228 -55.1736191 59.86762995 -57 58 C-51.50280742 51.30470134 -45.39046848 45.26303509 -39.2578125 39.16015625 C-38.12273594 38.02694801 -36.98788237 36.89351638 -35.85324097 35.75987244 C-32.88649256 32.79691665 -29.91675198 29.83697807 -26.9463501 26.87768555 C-23.9077114 23.84933144 -20.87195091 20.81809501 -17.8359375 17.78710938 C-11.8934174 11.85526911 -5.947729 5.92661739 0 0 Z "
     transform="translate(266,218)"
     style="fill:#ffffff;fill-opacity:1"
     id="path4" />
  <path
     d="M0 0 C42.24 0 84.48 0 128 0 C128 5.28 128 10.56 128 16 C85.76 16 43.52 16 0 16 C0 10.72 0 5.44 0 0 Z "
     transform="translate(108,174)"
     style="fill: #414141;"
     id="path5" />
  <path
     d="M0 0 C42.24 0 84.48 0 128 0 C128 5.28 128 10.56 128 16 C85.76 16 43.52 16 0 16 C0 10.72 0 5.44 0 0 Z "
     transform="translate(108,142)"
     style="fill: #414141;"
     id="path6" />
  <path
     d="M0 0 C42.24 0 84.48 0 128 0 C128 5.28 128 10.56 128 16 C85.76 16 43.52 16 0 16 C0 10.72 0 5.44 0 0 Z "
     transform="translate(108,110)"
     style="fill: #414141;"
     id="path7" />
  <path
     d="M0 0 C21.12 0 42.24 0 64 0 C64 5.28 64 10.56 64 16 C42.88 16 21.76 16 0 16 C0 10.72 0 5.44 0 0 Z "
     transform="translate(108,204)"
     style="fill: #414141;"
     id="path8" />
</svg>
