<?xml version="1.0" encoding="UTF-8" standalone="no"?>
<svg
   id="svg"
   version="1.1"
   style="display: block;"
   viewBox="0 0 504 504"
   sodipodi:docname="salvadanaio.svg"
   inkscape:version="1.2.2 (b0a8486, 2022-12-01)"
   xmlns:inkscape="http://www.inkscape.org/namespaces/inkscape"
   xmlns:sodipodi="http://sodipodi.sourceforge.net/DTD/sodipodi-0.dtd"
   xmlns="http://www.w3.org/2000/svg"
   xmlns:svg="http://www.w3.org/2000/svg">
  <defs
     id="defs11137" />
  <sodipodi:namedview
     id="namedview11135"
     pagecolor="#ffffff"
     bordercolor="#000000"
     borderopacity="0.25"
     inkscape:showpageshadow="2"
     inkscape:pageopacity="0.0"
     inkscape:pagecheckerboard="0"
     inkscape:deskcolor="#d1d1d1"
     showgrid="false"
     inkscape:zoom="0.46825397"
     inkscape:cx="44.847458"
     inkscape:cy="252"
     inkscape:window-width="1427"
     inkscape:window-height="456"
     inkscape:window-x="0"
     inkscape:window-y="25"
     inkscape:window-maximized="0"
     inkscape:current-layer="svg" />
  <path
     d="M0 0 C19.0508811 19.48385567 20.21875073 41.98087104 20.75 67.8125 C21.37753174 68.0077124 22.00506348 68.2029248 22.65161133 68.40405273 C49.22577558 76.75219851 71.72289342 87.15174293 91.75 106.8125 C92.471875 107.51890625 93.19375 108.2253125 93.9375 108.953125 C95.55688459 110.55901471 97.15749231 112.18006872 98.75 113.8125 C99.74884058 114.81365808 100.74851522 115.81398699 101.75 116.8125 C102.18699219 115.79929688 102.18699219 115.79929688 102.6328125 114.765625 C105.54214674 108.43462092 107.83866646 104.69587155 114.59375 102.10546875 C119.71149289 100.53155973 124.56257017 100.47721714 129.75 101.8125 C133.63790978 103.90045155 136.46516682 106.0044447 138.75 109.8125 C138.75 110.4725 138.75 111.1325 138.75 111.8125 C139.19730469 111.36777344 139.64460938 110.92304688 140.10546875 110.46484375 C145.00321101 105.88038991 145.00321101 105.88038991 148.5 105.5625 C151.84003087 107.4180727 152.47033105 109.22942693 153.75 112.8125 C155.3563833 119.39867151 154.6950832 124.71444538 151.75 130.8125 C146.58942716 138.78793076 137.94514533 142.6187405 129.26953125 145.85546875 C126.05137073 147.07787081 122.90853621 148.44341532 119.75 149.8125 C120.01554687 150.72386719 120.28109375 151.63523438 120.5546875 152.57421875 C128.82088346 182.27866513 126.81632392 212.75128756 111.9375 240.07421875 C105.1996315 251.85023076 96.4323118 263.57407375 85.96484375 272.30078125 C84.08061233 274.64546793 84.0635761 276.84958572 83.75 279.8125 C84.12113484 283.02118657 84.12113484 283.02118657 84.92163086 286.36523438 C85.20199692 287.64676392 85.48236298 288.92829346 85.77122498 290.24865723 C86.08572071 291.63453144 86.4002614 293.02039545 86.71484375 294.40625 C87.03129708 295.84036565 87.34659161 297.27473744 87.66078186 298.70935059 C88.48832943 302.47709419 89.3279214 306.24203705 90.17120361 310.00628662 C91.51971626 316.02987691 92.85492339 322.05636406 94.18051338 328.08503723 C94.6445418 330.18346802 95.11679749 332.27992576 95.58982849 334.37634277 C95.87334671 335.65787231 96.15686493 336.93940186 96.44897461 338.25976562 C96.70069931 339.38306274 96.95242401 340.50635986 97.21177673 341.66369629 C98.03198991 346.4622445 98.53947162 350.62829257 95.75 354.8125 C93.40706594 355.98396703 91.90135047 355.98660756 89.2878418 356.06542969 C88.36315598 356.09505798 87.43847015 356.12468628 86.48576355 356.1552124 C84.98267387 356.19439789 84.98267387 356.19439789 83.44921875 356.234375 C81.90642998 356.27621918 81.90642998 356.27621918 80.33247375 356.31890869 C78.15279008 356.3753675 75.97303105 356.42897744 73.79321289 356.47998047 C70.46117443 356.56191783 67.13023969 356.66549398 63.79882812 356.76953125 C61.68232437 356.82165779 59.56578805 356.8724816 57.44921875 356.921875 C56.45323166 356.95609558 55.45724457 356.99031616 54.43107605 357.02557373 C45.65930427 357.18539147 45.65930427 357.18539147 41.75 353.8125 C36.10243549 347.24508404 32.31741677 338.81445351 28.1875 331.25 C25.72942125 326.75891459 23.24832515 322.28133512 20.75 317.8125 C20.29898926 316.97090332 19.84797852 316.12930664 19.38330078 315.26220703 C17.54157923 312.00298481 16.33684545 310.15946702 13.07421875 308.23046875 C8.3919663 307.64174841 4.19229565 308.33757533 -0.4375 309.125 C-18.06538043 312.06078591 -35.74678638 311.9813086 -53.5625 311.5625 C-54.57059723 311.54082764 -55.57869446 311.51915527 -56.61734009 311.49682617 C-73.94202048 311.1112694 -91.16012141 310.06972547 -108.41796875 308.53125 C-109.0990419 308.4714093 -109.78011505 308.4115686 -110.48182678 308.34991455 C-113.58779559 308.0723525 -116.68332752 307.7607093 -119.77978516 307.390625 C-121.36799072 307.21273437 -121.36799072 307.21273437 -122.98828125 307.03125 C-124.34433472 306.86012695 -124.34433472 306.86012695 -125.7277832 306.68554688 C-129.14774922 306.85768726 -130.59591384 307.63157536 -133.25 309.8125 C-134.88615362 312.24276262 -136.0939004 314.8228369 -137.31640625 317.48046875 C-137.67717758 318.23411209 -138.03794891 318.98775543 -138.40965271 319.76423645 C-139.55761945 322.16993438 -140.68535669 324.58448634 -141.8125 327 C-142.57352469 328.60545601 -143.33588158 330.21028124 -144.09960938 331.81445312 C-145.51304566 334.78543978 -146.9173312 337.76044103 -148.31469727 340.73901367 C-148.95896082 342.09723996 -149.60406629 343.4550672 -150.25 344.8125 C-150.58949677 345.53587555 -150.92899353 346.2592511 -151.27877808 347.00454712 C-151.61853668 347.71114471 -151.95829529 348.41774231 -152.30834961 349.14575195 C-152.60930038 349.7782637 -152.91025116 350.41077545 -153.22032166 351.06245422 C-154.98156108 354.05586438 -156.42497602 355.59187419 -159.80810547 356.49658203 C-164.32622045 356.91128204 -168.78601405 356.92319103 -173.3203125 356.8671875 C-174.2789621 356.85543488 -175.23761169 356.84368225 -176.22531128 356.83157349 C-178.24417201 356.80294023 -180.26298565 356.77079654 -182.28173828 356.73535156 C-184.3473547 356.70339728 -186.41316651 356.68227406 -188.47900391 356.671875 C-191.46861843 356.65666793 -194.45618976 356.60934067 -197.4453125 356.5546875 C-198.82978073 356.55588089 -198.82978073 356.55588089 -200.24221802 356.55709839 C-204.3112534 356.44904311 -206.56519313 356.30432607 -209.92529297 353.89111328 C-212.9810861 346.78946355 -209.81679394 338.12280929 -208.1484375 330.859375 C-207.73669235 329.005272 -207.32524259 327.15110339 -206.9140625 325.296875 C-206.26850453 322.41699653 -205.61942672 319.53799734 -204.96484375 316.66015625 C-204.32889882 313.85362084 -203.70662759 311.0443174 -203.0859375 308.234375 C-202.88704926 307.37801453 -202.68816101 306.52165405 -202.48324585 305.63934326 C-201.48670467 301.09025382 -200.83990053 297.38008938 -202.25 292.8125 C-204.39055072 289.78757836 -207.1060323 288.91142072 -210.52734375 287.68359375 C-211.58848389 287.29365234 -212.64962402 286.90371094 -213.74291992 286.50195312 C-215.44798706 285.88223633 -215.44798706 285.88223633 -217.1875 285.25 C-245.84147395 274.5045125 -269.5810734 259.4814266 -291.25 237.8125 C-291.270625 236.74 -291.29125 235.6675 -291.3125 234.5625 C-292.55489003 229.5929399 -294.61207387 228.93443732 -298.83203125 226.3984375 C-307.20678284 220.90546634 -311.79274866 211.76917945 -313.93359375 202.18359375 C-314.98527876 194.30244809 -315.54413508 186.75150047 -311.25 179.8125 C-307.96503035 177.62252023 -306.91329244 177.55509668 -303.09375 177.50390625 C-302.07023437 177.47876953 -301.04671875 177.45363281 -299.9921875 177.42773438 C-297.86203171 177.39308726 -295.73181928 177.36173586 -293.6015625 177.33398438 C-285.38883568 177.12405807 -276.56802314 176.64634006 -269.73828125 171.5625 C-266.88381033 168.4077943 -265.78024241 165.83646455 -264.4375 161.8125 C-259.16919331 147.4835462 -249.5626216 137.56889392 -238.71118164 127.21020508 C-237.54289016 126.09266645 -236.39319674 124.95569674 -235.25 123.8125 C-235.52714844 122.93207031 -235.80429688 122.05164063 -236.08984375 121.14453125 C-236.63318359 119.40236328 -236.63318359 119.40236328 -237.1875 117.625 C-237.54714844 116.47644531 -237.90679687 115.32789063 -238.27734375 114.14453125 C-239.84133662 108.78675649 -240.45540746 103.97199427 -240.5625 98.375 C-240.61857422 96.45880859 -240.61857422 96.45880859 -240.67578125 94.50390625 C-240.17936655 90.20012741 -238.97025606 88.14052498 -236.25 84.8125 C-231.33151456 81.53350971 -225.99713209 82.29361607 -220.25 82.8125 C-207.20208863 85.89453847 -197.23702916 96.94787297 -188.6328125 106.6328125 C-187.14032773 108.15266935 -187.14032773 108.15266935 -184 107.9375 C-179.66163467 106.6359904 -178.33812867 105.13053336 -175.36328125 101.8984375 C-158.27851042 85.03472655 -132.8008011 76.17190959 -110.25 69.8125 C-110.23541748 69.25079102 -110.22083496 68.68908203 -110.20581055 68.11035156 C-109.90630226 57.67518656 -109.40671545 47.33537112 -107.875 37 C-107.76115967 36.20819336 -107.64731934 35.41638672 -107.5300293 34.60058594 C-105.13405698 19.4926938 -98.03638921 7.25326259 -85.7890625 -2.05859375 C-59.97118396 -19.66169276 -25.16177885 -16.93581269 0 0 Z "
     transform="translate(332.25,80.1875)"
     style="fill: #4E8F01;"
     id="path11058" />
  <path
     d="M0 0 C17.94021859 18.34795083 20.22624966 38.71794941 19.953125 63.23828125 C19.88133026 68.54983947 19.88133026 68.54983947 18.75 70.8125 C19.554375 70.915625 20.35875 71.01875 21.1875 71.125 C25.55910718 71.96864349 29.56237284 73.31691887 33.75 74.8125 C35.50183594 75.41384766 35.50183594 75.41384766 37.2890625 76.02734375 C59.61099725 83.87413128 78.36791659 96.21549174 94.4609375 113.66796875 C95.37746094 114.63669922 95.37746094 114.63669922 96.3125 115.625 C96.87066406 116.22957031 97.42882812 116.83414063 98.00390625 117.45703125 C99.908205 119.2213042 99.908205 119.2213042 103.75 118.8125 C104.05292969 118.13703125 104.35585938 117.4615625 104.66796875 116.765625 C108.90434887 107.74539411 108.90434887 107.74539411 113.75 104.8125 C119.5508561 102.8788813 125.6481746 102.81890981 131.1875 105.4375 C133.75 107.8125 133.75 107.8125 135.875 111.0625 C136.49375 111.97 137.1125 112.8775 137.75 113.8125 C139.07 113.8125 140.39 113.8125 141.75 113.8125 C144.01877535 111.39369071 144.01877535 111.39369071 145.75 108.8125 C147.625 108.9375 147.625 108.9375 149.75 109.8125 C152.10786001 114.52822001 152.58349545 119.64482821 151.75 124.8125 C148.82071244 132.29240172 142.92831802 136.83300075 135.84765625 140.1875 C131.30186452 142.11358578 126.68939575 143.84298937 122.0625 145.5625 C118.94672875 146.4784642 118.94672875 146.4784642 117.75 147.8125 C118.21473761 153.8540889 119.57725784 159.59462166 121.03125 165.46875 C126.72856934 191.97367043 120.98423951 221.25566766 106.4375 244 C100.16882933 253.52363342 92.92321529 261.90314884 84.71875 269.81640625 C81.9123278 272.66180653 81.58576672 274.30550071 81.53491211 278.19726562 C81.60122883 284.2231149 82.81577185 289.81053555 84.19140625 295.65625 C84.43793442 296.74715942 84.68446259 297.83806885 84.9384613 298.96203613 C85.71970942 302.4145844 86.51489784 305.86369621 87.3125 309.3125 C88.11228153 312.79014507 88.90889692 316.26840295 89.69725037 319.74865723 C90.1865586 321.90707552 90.68267435 324.06396385 91.18617249 326.21911621 C91.51662819 327.67203064 91.51662819 327.67203064 91.85375977 329.15429688 C92.0513942 330.00793823 92.24902863 330.86157959 92.45265198 331.74108887 C92.75 333.8125 92.75 333.8125 91.75 335.8125 C91.05132812 335.03003906 90.35265625 334.24757813 89.6328125 333.44140625 C88.7137002 332.41912828 87.79442066 331.39700065 86.875 330.375 C86.41480469 329.85873047 85.95460938 329.34246094 85.48046875 328.81054688 C82.93206915 325.91762063 82.93206915 325.91762063 79.75 323.8125 C78.7435725 322.14970673 77.74414593 320.48266516 76.75 318.8125 C74.68532144 316.40370835 73.86005341 315.84918447 70.75 314.8125 C69.7652722 313.10563847 68.7851621 311.39551123 67.8515625 309.66015625 C65.8467998 306.29755782 63.31846695 303.47791022 59.6875 301.9375 C56.96708636 300.35790498 56.18627241 298.14569475 54.75390625 295.41015625 C53.44526728 293.32753626 51.92884589 292.86678027 49.75 291.8125 C48.69991347 289.83833732 47.70012124 287.83667134 46.75 285.8125 C45.13887889 283.85113517 44.10287158 282.95585408 41.75 282 C38.84252634 280.27368752 38.19237288 277.8174435 36.75 274.8125 C34.38254428 272.07512933 33.20870295 270.96540098 29.75 269.8125 C29.75 269.1525 29.75 268.4925 29.75 267.8125 C28.821875 267.4721875 28.821875 267.4721875 27.875 267.125 C25.09515555 265.40803725 24.93730254 263.815677 23.75 260.8125 C22.13025441 259.10019752 20.4541054 257.44086738 18.75 255.8125 C17.69663155 254.63536763 16.65605951 253.44672135 15.625 252.25 C12.48525969 248.6420528 9.32411416 245.05534739 6.125 241.5 C5.6697998 240.98429443 5.21459961 240.46858887 4.74560547 239.93725586 C1.98851453 236.89186455 -0.70298996 234.84374624 -4.25 232.8125 C-5.28789581 231.16916496 -6.28567924 229.50006133 -7.25 227.8125 C-9.80712788 225.06358753 -12.1233014 222.89696574 -15.25 220.8125 C-15.4975 220.10351562 -15.745 219.39453125 -16 218.6640625 C-17.8726001 214.39219352 -21.02467119 211.5035007 -24.25 208.1875 C-25.52265814 206.8637311 -26.79356481 205.53827556 -28.0625 204.2109375 C-28.62582031 203.63005371 -29.18914062 203.04916992 -29.76953125 202.45068359 C-31.25 200.8125 -31.25 200.8125 -33.25 197.8125 C-33.91 197.668125 -34.57 197.52375 -35.25 197.375 C-37.25 196.8125 -37.25 196.8125 -38.375 194.8125 C-38.66375 194.1525 -38.9525 193.4925 -39.25 192.8125 C-39.91 192.4825 -40.57 192.1525 -41.25 191.8125 C-41.53875 191.049375 -41.8275 190.28625 -42.125 189.5 C-43.81952372 185.4519711 -46.17830731 183.43557715 -49.9375 181.25 C-52.25 179.8125 -52.25 179.8125 -53.25 176.8125 C-53.848125 176.52375 -54.44625 176.235 -55.0625 175.9375 C-58.89975088 173.96405669 -60.80363705 170.79024742 -62.5625 166.9375 C-65.20626061 162.04164702 -68.88316116 157.60144628 -74.25 155.8125 C-74.683125 154.884375 -75.11625 153.95625 -75.5625 153 C-77.03101531 149.61484304 -77.03101531 149.61484304 -80.25 147.8125 C-83.72039983 145.49890011 -84.51998133 143.51968286 -86.25 139.8125 C-87.24 139.4825 -88.23 139.1525 -89.25 138.8125 C-89.25 138.1525 -89.25 137.4925 -89.25 136.8125 C-90.24 136.4825 -91.23 136.1525 -92.25 135.8125 C-92.58 134.8225 -92.91 133.8325 -93.25 132.8125 C-76.90776366 127.7104072 -61.42747077 125.29775144 -44.3293457 125.42138672 C-41.68583793 125.43751014 -39.04385342 125.42141247 -36.40039062 125.40234375 C-26.87884607 125.39236948 -18.0124104 126.07223775 -8.71508789 128.16943359 C-4.69029547 129.02538025 -4.69029547 129.02538025 1.75 128.8125 C2.74 121.8825 3.73 114.9525 4.75 107.8125 C3.1 107.4825 1.45 107.1525 -0.25 106.8125 C-0.25 107.4725 -0.25 108.1325 -0.25 108.8125 C1.235 109.3075 1.235 109.3075 2.75 109.8125 C2.09 115.7525 1.43 121.6925 0.75 127.8125 C-8.86725067 126.74391659 -8.86725067 126.74391659 -13.01171875 125.7734375 C-21.9188308 124.11118931 -31.03489835 124.42275579 -40.0625 124.4375 C-41.02098846 124.43638214 -41.97947693 124.43526428 -42.9670105 124.43411255 C-56.39263353 124.44184159 -68.97586709 125.11965323 -82.05517578 128.35498047 C-86.07569431 129.19307299 -90.16042369 129.49324336 -94.25 129.8125 C-95.62187957 123.68438736 -96.48296054 118.10243445 -96.25 111.8125 C-93.16190305 110.04787317 -92.01687864 109.8125 -88.25 109.8125 C-88.25 109.1525 -88.25 108.4925 -88.25 107.8125 C-89.12205078 107.44898438 -89.12205078 107.44898438 -90.01171875 107.078125 C-99.56706027 101.67510466 -104.85563039 88.44490383 -108.421875 78.56640625 C-113.17687686 60.52659655 -110.87515737 33.16587274 -102.4921875 16.26953125 C-100.57838022 13.2487178 -98.56280801 10.53694539 -96.25 7.8125 C-95.61964844 7.06742188 -94.98929688 6.32234375 -94.33984375 5.5546875 C-70.14643309 -20.57618315 -27.68119353 -18.63157257 0 0 Z "
     transform="translate(332.25,80.1875)"
     style="fill: #61B101;"
     id="path11060" />
  <path
     d="M0 0 C16.56968343 16.94626715 20.26445516 36.05651345 20.09912109 58.95996094 C19.73012557 76.91774293 15.40839918 91.77915575 2.5703125 104.921875 C0.68713501 106.68973066 0.68713501 106.68973066 -0.25 108.8125 C1.235 109.3075 1.235 109.3075 2.75 109.8125 C2.09 115.7525 1.43 121.6925 0.75 127.8125 C-8.86725067 126.74391659 -8.86725067 126.74391659 -13.01171875 125.7734375 C-21.9188308 124.11118931 -31.03489835 124.42275579 -40.0625 124.4375 C-41.02098846 124.43638214 -41.97947693 124.43526428 -42.9670105 124.43411255 C-56.39263353 124.44184159 -68.97586709 125.11965323 -82.05517578 128.35498047 C-86.07569431 129.19307299 -90.16042369 129.49324336 -94.25 129.8125 C-95.62187957 123.68438736 -96.48296054 118.10243445 -96.25 111.8125 C-93.16190305 110.04787317 -92.01687864 109.8125 -88.25 109.8125 C-88.25 109.1525 -88.25 108.4925 -88.25 107.8125 C-89.12205078 107.44898438 -89.12205078 107.44898438 -90.01171875 107.078125 C-99.56706027 101.67510466 -104.85563039 88.44490383 -108.421875 78.56640625 C-113.17687686 60.52659655 -110.87515737 33.16587274 -102.4921875 16.26953125 C-100.57838022 13.2487178 -98.56280801 10.53694539 -96.25 7.8125 C-95.61964844 7.06742188 -94.98929688 6.32234375 -94.33984375 5.5546875 C-70.14643309 -20.57618315 -27.68119353 -18.63157257 0 0 Z "
     transform="translate(332.25,80.1875)"
     style="fill: #EAE702;"
     id="path11062" />
  <path
     d="M0 0 C0.598125 0.309375 1.19625 0.61875 1.8125 0.9375 C4.08956772 2.10209704 4.08956772 2.10209704 7 3 C7 3.66 7 4.32 7 5 C7.5878125 5.2475 8.175625 5.495 8.78125 5.75 C12.03073238 7.5806943 13.89836274 10.25615757 16.21875 13.125 C18.04045351 15.04258264 19.58046808 15.98124972 22 17 C22 17.66 22 18.32 22 19 C22.556875 19.20625 23.11375 19.4125 23.6875 19.625 C26 21 26 21 28.4375 23.9375 C30.71755054 27.01733283 30.71755054 27.01733283 33.375 28.375 C36.39823786 30.2465282 38.26955584 32.35483203 40.5625 35.0625 C43.21797255 38.19660192 45.21505122 40.37787909 49 42 C50.75 43.5 50.75 43.5 52 45 C52 45.66 52 46.32 52 47 C52.5775 47.2475 53.155 47.495 53.75 47.75 C56.35571255 49.19761808 57.91494097 50.85702267 60 53 C61.24134629 54.11388663 62.49239245 55.21700592 63.75 56.3125 C64.43578125 56.910625 65.1215625 57.50875 65.828125 58.125 C67.3102458 59.40452875 68.80021364 60.67501014 70.296875 61.9375 C71.02390625 62.55625 71.7509375 63.175 72.5 63.8125 C73.1703125 64.37582031 73.840625 64.93914062 74.53125 65.51953125 C76 67 76 67 76 69 C76.66 69 77.32 69 78 69 C79.65625 70.71484375 79.65625 70.71484375 81.5 72.9375 C83.88926999 75.92045179 83.88926999 75.92045179 87 78 C87 78.66 87 79.32 87 80 C80.03716643 84.78730077 74.26133876 85.80271106 65.9140625 85.91796875 C64.77649506 85.9473201 63.63892761 85.97667145 62.46688843 86.00691223 C60.07192013 86.06138018 57.67664354 86.10354227 55.28125 86.1340332 C51.64104549 86.18726536 48.00584085 86.29920295 44.3671875 86.41601562 C42.02871304 86.46189733 39.69016782 86.50432855 37.3515625 86.54296875 C35.74010849 86.59870308 35.74010849 86.59870308 34.09609985 86.65556335 C22.46635313 86.70445742 14.48671197 81.08032261 6.28125 73.27734375 C5.5284375 72.52582031 4.775625 71.77429688 4 71 C3.3503125 70.36191406 2.700625 69.72382813 2.03125 69.06640625 C-8.48737191 57.97110551 -12.64502185 43.62715051 -12.28125 28.63671875 C-11.53516364 18.98940761 -8.06921349 10.22427084 -3 2 C-2.01 1.34 -1.02 0.68 0 0 Z "
     transform="translate(237,112)"
     style="fill: #FEFA02;"
     id="path11064" />
  <path
     d="M0 0 C16.56968343 16.94626715 20.26445516 36.05651345 20.09912109 58.95996094 C19.73012557 76.91774293 15.40839918 91.77915575 2.5703125 104.921875 C0.68713501 106.68973066 0.68713501 106.68973066 -0.25 108.8125 C1.235 109.3075 1.235 109.3075 2.75 109.8125 C2.09 115.7525 1.43 121.6925 0.75 127.8125 C-8.86725067 126.74391659 -8.86725067 126.74391659 -13.01171875 125.7734375 C-21.9188308 124.11118931 -31.03489835 124.42275579 -40.0625 124.4375 C-41.02098846 124.43638214 -41.97947693 124.43526428 -42.9670105 124.43411255 C-56.39263353 124.44184159 -68.97586709 125.11965323 -82.05517578 128.35498047 C-86.07569431 129.19307299 -90.16042369 129.49324336 -94.25 129.8125 C-95.62187957 123.68438736 -96.48296054 118.10243445 -96.25 111.8125 C-93.16190305 110.04787317 -92.01687864 109.8125 -88.25 109.8125 C-88.25 109.1525 -88.25 108.4925 -88.25 107.8125 C-89.12205078 107.44898438 -89.12205078 107.44898438 -90.01171875 107.078125 C-99.56706027 101.67510466 -104.85563039 88.44490383 -108.421875 78.56640625 C-113.17687686 60.52659655 -110.87515737 33.16587274 -102.4921875 16.26953125 C-100.57838022 13.2487178 -98.56280801 10.53694539 -96.25 7.8125 C-95.61964844 7.06742188 -94.98929688 6.32234375 -94.33984375 5.5546875 C-70.14643309 -20.57618315 -27.68119353 -18.63157257 0 0 Z M-96.25 30.8125 C-101.13893696 37.67264245 -104.32306913 44.63045509 -106.25 52.8125 C-106.43175781 53.42222656 -106.61351562 54.03195313 -106.80078125 54.66015625 C-108.96364413 65.02309057 -107.09098034 75.13424032 -103.25 84.8125 C-102.899375 85.69679688 -102.54875 86.58109375 -102.1875 87.4921875 C-99.10351833 94.36689665 -94.54382795 99.51867205 -89.25 104.8125 C-88.51394531 105.54855469 -87.77789062 106.28460938 -87.01953125 107.04296875 C-78.17533885 115.38625114 -70.18246633 118.61876042 -58.03125 118.29296875 C-56.89272583 118.27792801 -55.75420166 118.26288727 -54.58117676 118.24739075 C-52.18750071 118.20845259 -49.7940047 118.15646263 -47.40087891 118.09204102 C-43.76017948 118.00025663 -40.12215469 117.96721662 -36.48046875 117.93945312 C-34.14315795 117.89416207 -31.80591045 117.84544798 -29.46875 117.79296875 C-27.85425964 117.78308174 -27.85425964 117.78308174 -26.20715332 117.772995 C-13.94790903 117.34721671 -5.53737287 110.37159001 2.75 101.8125 C14.14907452 89.03417802 17.69355744 75.54322147 17.25390625 58.8203125 C16.26743539 44.34640388 8.73873583 32.85455649 -1.25 22.8125 C-1.76820313 22.25949219 -2.28640625 21.70648438 -2.8203125 21.13671875 C-14.55275004 9.74212627 -32.13242167 5.24898978 -47.96655273 5.32421875 C-67.3155652 5.96861048 -84.12625562 15.98794426 -96.25 30.8125 Z "
     transform="translate(332.25,80.1875)"
     style="fill: #9B9C86;"
     id="path11066" />
  <path
     d="M0 0 C31.47856421 8.6746774 56.35500544 22.45188158 79 46 C79.99686031 47.00312987 80.99483215 48.0051947 82 49 C82.43699219 47.98679687 82.43699219 47.98679687 82.8828125 46.953125 C85.79214674 40.62212092 88.08866646 36.88337155 94.84375 34.29296875 C99.96149289 32.71905973 104.81257017 32.66471714 110 34 C113.88790978 36.08795155 116.71516682 38.1919447 119 42 C119 42.66 119 43.32 119 44 C119.44730469 43.55527344 119.89460938 43.11054688 120.35546875 42.65234375 C125.25321101 38.06788991 125.25321101 38.06788991 128.75 37.75 C132.09003087 39.6055727 132.72033105 41.41692693 134 45 C135.6063833 51.58617151 134.9450832 56.90194538 132 63 C126.83942716 70.97543076 118.19514533 74.8062405 109.51953125 78.04296875 C106.30137073 79.26537081 103.15853621 80.63091532 100 82 C100.26554687 82.91136719 100.53109375 83.82273437 100.8046875 84.76171875 C109.07088346 114.46616513 107.06632392 144.93878756 92.1875 172.26171875 C85.4496315 184.03773076 76.6823118 195.76157375 66.21484375 204.48828125 C64.33061233 206.83296793 64.3135761 209.03708572 64 212 C64.37113484 215.20868657 64.37113484 215.20868657 65.17163086 218.55273438 C65.45199692 219.83426392 65.73236298 221.11579346 66.02122498 222.43615723 C66.33572071 223.82203144 66.6502614 225.20789545 66.96484375 226.59375 C67.28129708 228.02786565 67.59659161 229.46223744 67.91078186 230.89685059 C68.73832943 234.66459419 69.5779214 238.42953705 70.42120361 242.19378662 C71.76971626 248.21737691 73.10492339 254.24386406 74.43051338 260.27253723 C74.8945418 262.37096802 75.36679749 264.46742576 75.83982849 266.56384277 C76.12334671 267.84537231 76.40686493 269.12690186 76.69897461 270.44726562 C76.95069931 271.57056274 77.20242401 272.69385986 77.46177673 273.85119629 C78.28198991 278.6497445 78.78947162 282.81579257 76 287 C73.65706594 288.17146703 72.15135047 288.17410756 69.5378418 288.25292969 C68.61315598 288.28255798 67.68847015 288.31218628 66.73576355 288.3427124 C65.23267387 288.38189789 65.23267387 288.38189789 63.69921875 288.421875 C62.15642998 288.46371918 62.15642998 288.46371918 60.58247375 288.50640869 C58.40279008 288.5628675 56.22303105 288.61647744 54.04321289 288.66748047 C50.71117443 288.74941783 47.38023969 288.85299398 44.04882812 288.95703125 C41.93232437 289.00915779 39.81578805 289.0599816 37.69921875 289.109375 C36.70323166 289.14359558 35.70724457 289.17781616 34.68107605 289.21307373 C25.90930427 289.37289147 25.90930427 289.37289147 22 286 C16.35243549 279.43258404 12.56741677 271.00195351 8.4375 263.4375 C5.97942125 258.94641459 3.49832515 254.46883512 1 250 C0.54898926 249.15840332 0.09797852 248.31680664 -0.36669922 247.44970703 C-2.20842077 244.19048481 -3.41315455 242.34696702 -6.67578125 240.41796875 C-11.3580337 239.82924841 -15.55770435 240.52507533 -20.1875 241.3125 C-37.81538043 244.24828591 -55.49678638 244.1688086 -73.3125 243.75 C-74.32059723 243.72832764 -75.32869446 243.70665527 -76.36734009 243.68432617 C-93.69202048 243.2987694 -110.91012141 242.25722547 -128.16796875 240.71875 C-128.8490419 240.6589093 -129.53011505 240.5990686 -130.23182678 240.53741455 C-133.33779559 240.2598525 -136.43332752 239.9482093 -139.52978516 239.578125 C-141.11799072 239.40023437 -141.11799072 239.40023437 -142.73828125 239.21875 C-144.09433472 239.04762695 -144.09433472 239.04762695 -145.4777832 238.87304688 C-148.89774922 239.04518726 -150.34591384 239.81907536 -153 242 C-154.63615362 244.43026262 -155.8439004 247.0103369 -157.06640625 249.66796875 C-157.42717758 250.42161209 -157.78794891 251.17525543 -158.15965271 251.95173645 C-159.30761945 254.35743438 -160.43535669 256.77198634 -161.5625 259.1875 C-162.32352469 260.79295601 -163.08588158 262.39778124 -163.84960938 264.00195312 C-165.26304566 266.97293978 -166.6673312 269.94794103 -168.06469727 272.92651367 C-168.70896082 274.28473996 -169.35406629 275.6425672 -170 277 C-170.33949677 277.72337555 -170.67899353 278.4467511 -171.02877808 279.19204712 C-171.36853668 279.89864471 -171.70829529 280.60524231 -172.05834961 281.33325195 C-172.35930038 281.9657637 -172.66025116 282.59827545 -172.97032166 283.24995422 C-174.73156108 286.24336438 -176.17497602 287.77937419 -179.55810547 288.68408203 C-184.07622045 289.09878204 -188.53601405 289.11069103 -193.0703125 289.0546875 C-194.0289621 289.04293488 -194.98761169 289.03118225 -195.97531128 289.01907349 C-197.99417201 288.99044023 -200.01298565 288.95829654 -202.03173828 288.92285156 C-204.0973547 288.89089728 -206.16316651 288.86977406 -208.22900391 288.859375 C-211.21861843 288.84416793 -214.20618976 288.79684067 -217.1953125 288.7421875 C-218.57978073 288.74338089 -218.57978073 288.74338089 -219.99221802 288.74459839 C-224.0612534 288.63654311 -226.31519313 288.49182607 -229.67529297 286.07861328 C-232.7310861 278.97696355 -229.56679394 270.31030929 -227.8984375 263.046875 C-227.48669235 261.192772 -227.07524259 259.33860339 -226.6640625 257.484375 C-226.01850453 254.60449653 -225.36942672 251.72549734 -224.71484375 248.84765625 C-224.07889882 246.04112084 -223.45662759 243.2318174 -222.8359375 240.421875 C-222.53760513 239.13733429 -222.53760513 239.13733429 -222.23324585 237.82684326 C-221.23670467 233.27775382 -220.58990053 229.56758938 -222 225 C-224.14055072 221.97507836 -226.8560323 221.09892072 -230.27734375 219.87109375 C-231.33848389 219.48115234 -232.39962402 219.09121094 -233.49291992 218.68945312 C-235.19798706 218.06973633 -235.19798706 218.06973633 -236.9375 217.4375 C-265.59147395 206.6920125 -289.3310734 191.6689266 -311 170 C-311.020625 168.9275 -311.04125 167.855 -311.0625 166.75 C-312.30489003 161.7804399 -314.36207387 161.12193732 -318.58203125 158.5859375 C-326.95678284 153.09296634 -331.54274866 143.95667945 -333.68359375 134.37109375 C-334.73527876 126.48994809 -335.29413508 118.93900047 -331 112 C-327.71503035 109.81002023 -326.66329244 109.74259668 -322.84375 109.69140625 C-321.82023437 109.66626953 -320.79671875 109.64113281 -319.7421875 109.61523438 C-317.61203171 109.58058726 -315.48181928 109.54923586 -313.3515625 109.52148438 C-305.13883568 109.31155807 -296.31802314 108.83384006 -289.48828125 103.75 C-286.63381033 100.5952943 -285.53024241 98.02396455 -284.1875 94 C-278.91919331 79.6710462 -269.3126216 69.75639392 -258.46118164 59.39770508 C-257.29289016 58.28016645 -256.14319674 57.14319674 -255 56 C-255.27714844 55.11957031 -255.55429688 54.23914063 -255.83984375 53.33203125 C-256.38318359 51.58986328 -256.38318359 51.58986328 -256.9375 49.8125 C-257.29714844 48.66394531 -257.65679687 47.51539063 -258.02734375 46.33203125 C-259.59133662 40.97425649 -260.20540746 36.15949427 -260.3125 30.5625 C-260.36857422 28.64630859 -260.36857422 28.64630859 -260.42578125 26.69140625 C-259.92936655 22.38762741 -258.72025606 20.32802498 -256 17 C-251.08151456 13.72100971 -245.74713209 14.48111607 -240 15 C-226.95208863 18.08203847 -216.98702916 29.13537297 -208.3828125 38.8203125 C-206.89032773 40.34016935 -206.89032773 40.34016935 -203.75 40.125 C-199.41163467 38.8234904 -198.08812867 37.31803336 -195.11328125 34.0859375 C-177.856949 17.05288496 -151.95368632 7.86379886 -129 2 C-129.0390625 3.859375 -129.0390625 3.859375 -130 6 C-132.50038149 6.95548077 -134.78866489 7.63150991 -137.375 8.25 C-159.22014208 14.09292875 -179.74839582 24.45326882 -196.3125 40 C-198.81204839 42.19547961 -200.31020817 43.12186749 -203.5 44.375 C-209.34980799 43.74823486 -212.78773679 39.73720702 -216.3828125 35.2890625 C-216.81335938 34.73992187 -217.24390625 34.19078125 -217.6875 33.625 C-223.99276393 25.98958451 -234.48471353 19.10631121 -244.30859375 17.66015625 C-248.72513293 17.36281946 -250.4270336 17.5464016 -254 20.375 C-257.67568613 25.19933805 -257.45354072 29.07214317 -257 35 C-256.21712787 39.06553595 -255.13153805 43.01922877 -254 47 C-253.43671962 49.08312247 -252.87417729 51.16644471 -252.3125 53.25 C-251.87631269 54.83369546 -251.43932799 56.41717291 -251 58 C-251.82242188 58.65484375 -252.64484375 59.3096875 -253.4921875 59.984375 C-266.35612584 70.41721094 -277.90520808 82.53932047 -282.5 98.9375 C-284.04837838 103.88144499 -286.48878798 106.47925461 -291 109 C-300.5146775 113.19883929 -310.10506783 113.51026111 -320.35546875 113.58520508 C-321.79599609 113.60683716 -321.79599609 113.60683716 -323.265625 113.62890625 C-324.56161621 113.6299939 -324.56161621 113.6299939 -325.88378906 113.63110352 C-326.58213867 113.75283936 -327.28048828 113.8745752 -328 114 C-331.68781793 119.5317269 -330.68973479 127.52311671 -330 134 C-327.71518998 144.05316408 -322.789616 152.0191228 -314.26171875 157.8828125 C-311.87448841 159.33473477 -309.47585097 160.7062664 -307 162 C-307.2475 162.886875 -307.495 163.77375 -307.75 164.6875 C-308.34918488 168.03324046 -308.34918488 168.03324046 -306.3359375 170.4375 C-303.99184842 173.0089422 -301.59402811 175.14441198 -298.875 177.3125 C-293.02455951 181.9790143 -293.02455951 181.9790143 -290.69140625 183.97265625 C-273.98432649 198.07377903 -253.71067961 207.38567642 -233.49609375 215.23828125 C-220.43144157 220.33163218 -220.43144157 220.33163218 -218 225 C-216.82429795 234.23312368 -219.30027615 243.26434234 -221.375 252.1875 C-221.69636691 253.61109051 -222.0166855 255.03491809 -222.3359375 256.45898438 C-224.75022189 267.16224943 -224.75022189 267.16224943 -226.2265625 272.42578125 C-226.8745136 275.4201007 -227.08245249 277.70545308 -227.04833984 280.72338867 C-227.03787125 281.92797981 -227.03787125 281.92797981 -227.02719116 283.15690613 C-227.01821808 283.76512711 -227.009245 284.37334808 -227 285 C-220.219067 285.07596188 -213.4382434 285.1285625 -206.65698242 285.16479492 C-204.34932352 285.17989676 -202.04169339 285.20037969 -199.73413086 285.22631836 C-196.42033801 285.26263975 -193.10692408 285.27971236 -189.79296875 285.29296875 C-188.24128242 285.31619453 -188.24128242 285.31619453 -186.6582489 285.33988953 C-185.6974794 285.34011612 -184.7367099 285.34034271 -183.74682617 285.34057617 C-182.90077316 285.34723801 -182.05472015 285.35389984 -181.18302917 285.36076355 C-178.48319765 284.91459416 -177.66858828 284.12668896 -176 282 C-174.98358156 280.06910479 -174.04022991 278.0991455 -173.14453125 276.109375 C-172.60820068 274.93109131 -172.07187012 273.75280762 -171.51928711 272.53881836 C-171.24035614 271.91909149 -170.96142517 271.29936462 -170.67404175 270.66085815 C-169.2354469 267.47012399 -167.77055791 264.29155704 -166.3046875 261.11328125 C-166.01820847 260.49171646 -165.73172943 259.87015167 -165.43656921 259.22975159 C-163.20722614 254.40978786 -160.90808801 249.63838678 -158.4375 244.9375 C-157.56931641 243.28041016 -157.56931641 243.28041016 -156.68359375 241.58984375 C-154.95471881 238.93034472 -153.78684671 237.49513309 -151 236 C-144.19668877 235.0626549 -137.18965294 236.05048715 -130.42578125 236.94921875 C-119.93773991 238.25362041 -109.42927598 238.70027164 -98.875 239.125 C-97.87264313 239.16702545 -96.87028625 239.2090509 -95.83755493 239.25234985 C-56.960118 241.38112842 -56.960118 241.38112842 -18.42578125 237.421875 C-11.88790039 236.28485224 -6.6405124 236.15259167 -1 240 C1.38562408 243.27389248 3.23506991 246.79797579 5.125 250.375 C6.25853651 252.44823283 7.39266551 254.52114181 8.52734375 256.59375 C9.09952637 257.65207031 9.67170898 258.71039063 10.26123047 259.80078125 C13.01058246 264.85940361 15.84319533 269.86933777 18.6875 274.875 C19.1923291 275.77782715 19.6971582 276.6806543 20.21728516 277.61083984 C20.68569824 278.43793457 21.15411133 279.2650293 21.63671875 280.1171875 C22.04623779 280.84534668 22.45575684 281.57350586 22.87768555 282.32373047 C23.90661803 284.15931672 23.90661803 284.15931672 26 285 C27.47024698 285.09460747 28.94468173 285.12794155 30.41796875 285.12939453 C31.33231689 285.13254669 32.24666504 285.13569885 33.1887207 285.13894653 C34.17831787 285.1369223 35.16791504 285.13489807 36.1875 285.1328125 C37.20094482 285.13376923 38.21438965 285.13472595 39.25854492 285.13571167 C41.40380922 285.13639296 43.54907558 285.13454226 45.69433594 285.13037109 C48.98637503 285.12502214 52.27827768 285.13031784 55.5703125 285.13671875 C57.65104197 285.13605796 59.73177135 285.13477678 61.8125 285.1328125 C62.80209717 285.13483673 63.79169434 285.13686096 64.8112793 285.13894653 C65.72562744 285.13579437 66.63997559 285.13264221 67.58203125 285.12939453 C68.79209839 285.12820114 68.79209839 285.12820114 70.02661133 285.12698364 C72.07712499 285.12346032 72.07712499 285.12346032 74 284 C74.3853498 276.39116897 73.28377718 269.73710214 71.4375 262.375 C70.89036069 260.09152059 70.34486712 257.80764639 69.80078125 255.5234375 C69.51025879 254.31526367 69.21973633 253.10708984 68.92041016 251.86230469 C67.43276631 245.61972493 65.99683357 239.36636712 64.59793091 233.10333252 C64.28619493 231.71690502 63.97027079 230.33141162 63.64987183 228.94696045 C59.1617386 209.54801213 59.1617386 209.54801213 62.28515625 203.51953125 C62.87167969 202.95621094 63.45820313 202.39289063 64.0625 201.8125 C64.70832031 201.16023437 65.35414063 200.50796875 66.01953125 199.8359375 C66.67308594 199.23007812 67.32664062 198.62421875 68 198 C79.58515221 187.2166841 87.52045 174.32564016 94 160 C94.63035156 158.64455078 94.63035156 158.64455078 95.2734375 157.26171875 C104.76620459 135.45690412 104.71470357 107.32339755 97 85 C96.49956484 80.69625762 96.49956484 80.69625762 98.078125 78.5 C100.7911605 76.38250888 103.80992177 75.63786333 107.0625 74.6875 C116.5492784 71.71322967 124.93149537 68.07566023 130.078125 59.125 C132.12056404 54.41700494 131.35075763 49.24957406 130 44.4375 C129.67 43.633125 129.34 42.82875 129 42 C126.11424181 42.39803561 125.17810487 42.79009069 123.25 45.0625 C122.8375 45.701875 122.425 46.34125 122 47 C119.75 46.875 119.75 46.875 117 46 C115.6273318 44.02678947 114.29572383 42.02456848 113 40 C109.05292818 36.41175289 104.82453566 36.47983289 99.71484375 36.671875 C95.62398946 37.16630919 92.90102815 38.0051575 90 41 C87.70888725 44.53849636 85.79413944 48.18827519 84 52 C79.64645044 51.50441205 77.69933969 50.19912401 74.6875 47.0625 C73.64142578 45.99708984 73.64142578 45.99708984 72.57421875 44.91015625 C71 43 71 43 71 41 C70.43539063 40.76152344 69.87078125 40.52304688 69.2890625 40.27734375 C66.50987779 38.72650177 64.63536528 36.80492587 62.375 34.5625 C51.0417073 24.1056486 37.08305486 17.03796463 23 11 C22.12214844 10.61328125 21.24429687 10.2265625 20.33984375 9.828125 C13.42544043 6.90496262 6.23369949 4.95956124 -1 3 C-0.67 2.01 -0.34 1.02 0 0 Z "
     transform="translate(352,148)"
     style="fill: #42463E;"
     id="path11068" />
  <path
     d="M0 0 C0.22042969 0.98226562 0.22042969 0.98226562 0.4453125 1.984375 C3.56818733 14.69124501 9.35915168 24.24544234 18 34 C17.505 34.99 17.505 34.99 17 36 C14.69 36.66 12.38 37.32 10 38 C10.495 45.92 10.495 45.92 11 54 C9.35 53.34 7.7 52.68 6 52 C5.690625 51.21625 5.38125 50.4325 5.0625 49.625 C4.18750367 46.73875396 4.18750367 46.73875396 1.1875 45.1875 C-2.40738374 42.72042292 -3.66186724 40.50783404 -5.78125 36.8125 C-7.41064277 34.38930049 -9.50993943 33.46849726 -12 32 C-13.52100611 29.75367426 -14.71584933 27.39708124 -16 25 C-18.07962843 22.50444589 -18.82307065 22.05897645 -22 21 C-23.00040581 19.22508647 -23.99814834 17.44820121 -24.953125 15.6484375 C-26.29026844 13.54293552 -27.69973994 12.87251244 -30 12 C-30.33 11.34 -30.66 10.68 -31 10 C-9.36666667 0 -9.36666667 0 0 0 Z "
     transform="translate(224,153)"
     style="fill: #61B102;"
     id="path11070" />
  <path
     d="M0 0 C-0.66 5.94 -1.32 11.88 -2 18 C-11.61725067 16.93141659 -11.61725067 16.93141659 -15.76171875 15.9609375 C-24.6688308 14.29868931 -33.78489835 14.61025579 -42.8125 14.625 C-43.77098846 14.62388214 -44.72947693 14.62276428 -45.7170105 14.62161255 C-59.14263353 14.62934159 -71.72586709 15.30715323 -84.80517578 18.54248047 C-88.82569431 19.38057299 -92.91042369 19.68074336 -97 20 C-98.37187957 13.87188736 -99.23296054 8.28993445 -99 2 C-95.55812718 -0.11807558 -93.00571105 -0.34195094 -89 0 C-86.1484375 1.4609375 -86.1484375 1.4609375 -83.375 3.375 C-76.61738772 8.05262781 -76.61738772 8.05262781 -68.67163086 9.24633789 C-67.07362892 9.24997093 -67.07362892 9.24997093 -65.44334412 9.25367737 C-64.295439 9.2434404 -63.14753387 9.23320343 -61.96484375 9.22265625 C-60.77580948 9.21423203 -59.58677521 9.2058078 -58.36170959 9.1971283 C-55.84239473 9.17345644 -53.3231313 9.14363565 -50.80395508 9.1081543 C-46.97618349 9.06295677 -43.15025964 9.06515066 -39.32226562 9.06835938 C-36.8697551 9.03940562 -34.41727632 9.00759436 -31.96484375 8.97265625 C-30.83110825 8.98063736 -29.69737274 8.98861847 -28.52928162 8.99684143 C-19.95541773 8.79225279 -14.78111721 6.11545989 -8 1 C-5 -1 -5 -1 0 0 Z "
     transform="translate(335,190)"
     style="fill: #F8F8F8;"
     id="path11072" />
  <path
     d="M0 0 C12.18994583 0 25.29541462 5.02163703 34.47265625 13.34765625 C43.47310676 23.08471652 49.96186798 33.66244389 51.15234375 47.0390625 C51 49 51 49 49 51 C48.79246094 49.90042969 48.58492188 48.80085938 48.37109375 47.66796875 C46.45148364 38.20289676 44.05117549 30.74445453 38 23 C37.45730469 22.30132812 36.91460937 21.60265625 36.35546875 20.8828125 C33.80963243 17.77624767 31.27031347 15.35294503 28 13 C27.75121003 15.43694274 27.52536596 17.87238389 27.3125 20.3125 C27.20325195 21.34793945 27.20325195 21.34793945 27.09179688 22.40429688 C26.69877771 26.46454904 26.69877771 26.46454904 28.48046875 29.98046875 C28.98191406 30.31691406 29.48335938 30.65335938 30 31 C25.29250478 30.40135899 21.55777802 28.32746337 17.4375 26.125 C3.55239345 19.04834793 -8.62985678 18.61142896 -24 19 C-24.33 13.06 -24.66 7.12 -25 1 C-24.01 1.33 -23.02 1.66 -22 2 C-22 6.62 -22 11.24 -22 16 C-20.57945312 15.98839844 -19.15890625 15.97679688 -17.6953125 15.96484375 C-15.83854298 15.95546613 -13.98177204 15.9463659 -12.125 15.9375 C-11.18785156 15.92912109 -10.25070312 15.92074219 -9.28515625 15.91210938 C-7.94130859 15.90727539 -7.94130859 15.90727539 -6.5703125 15.90234375 C-5.32918701 15.89448853 -5.32918701 15.89448853 -4.06298828 15.88647461 C-2 16 -2 16 0 17 C0 11.39 0 5.78 0 0 Z "
     transform="translate(299,68)"
     style="fill: #959583;"
     id="path11074" />
  <path
     d="M0 0 C8.66659267 1.12553152 14.49353237 3.51561674 22 8 C22 13.28 22 18.56 22 24 C20.91460937 23.50628906 19.82921875 23.01257813 18.7109375 22.50390625 C17.26578901 21.85640465 15.82046727 21.20928964 14.375 20.5625 C13.30572266 20.07426758 13.30572266 20.07426758 12.21484375 19.57617188 C11.51230469 19.26357422 10.80976563 18.95097656 10.0859375 18.62890625 C9.4470459 18.34088135 8.8081543 18.05285645 8.14990234 17.75610352 C5.41829077 16.72609538 5.41829077 16.72609538 0 16 C0 10.72 0 5.44 0 0 Z "
     transform="translate(301,70)"
     style="fill: #E4E205;"
     id="path11076" />
  <path
     d="M0 0 C7.05406827 4.44631431 11.4569871 10.07971206 16 17 C16.5259375 17.763125 17.051875 18.52625 17.59375 19.3125 C19.47320736 22.90435184 20.30797102 26.49844219 21.1875 30.4375 C21.36474609 31.17548828 21.54199219 31.91347656 21.72460938 32.67382812 C22.68914604 36.86341786 23.19896052 40.67089344 23 45 C20.59605751 41.97360811 18.81449217 38.84420904 17 35.4375 C12.80826248 28.12882946 7.0297285 21.61544967 0.15234375 16.671875 C-1.8152313 13.81722375 -1.03454486 10.60174822 -0.6875 7.3125 C-0.62626953 6.61060547 -0.56503906 5.90871094 -0.50195312 5.18554688 C-0.34897376 3.4557033 -0.17637398 1.72761503 0 0 Z "
     transform="translate(326,80)"
     style="fill: #E2E109;"
     id="path11078" />
  <path
     d="M0 0 C0 4.62 0 9.24 0 14 C-1.08539063 14.39832031 -2.17078125 14.79664062 -3.2890625 15.20703125 C-4.73444107 15.74200903 -6.17974988 16.27717531 -7.625 16.8125 C-8.69427734 17.20405273 -8.69427734 17.20405273 -9.78515625 17.60351562 C-10.83896484 17.99506836 -10.83896484 17.99506836 -11.9140625 18.39453125 C-12.8723999 18.74801636 -12.8723999 18.74801636 -13.85009766 19.10864258 C-16.63097789 20.26160576 -19.30739992 21.65369996 -22 23 C-22 17.72 -22 12.44 -22 7 C-8.44680851 0 -8.44680851 0 0 0 Z "
     transform="translate(274,71)"
     style="fill: #E8E606;"
     id="path11080" />
  <path
     d="M0 0 C1.309823 10.78288629 1.309823 10.78288629 0 16 C-2.42853205 18.99260598 -4.9136475 20.77474459 -8.1015625 22.921875 C-14.54110065 27.53890235 -18.27231061 35.14105153 -22 42 C-22.33 42 -22.66 42 -23 42 C-21.72579499 24.06053474 -16.78176545 13.24485925 -3 1 C-1 0 -1 0 0 0 Z "
     transform="translate(250,80)"
     style="fill: #FCF807;"
     id="path11082" />
  <path
     d="M0 0 C3.47921735 -0.02683201 6.95823039 -0.0467567 10.4375 -0.0625 C11.92733398 -0.07506836 11.92733398 -0.07506836 13.44726562 -0.08789062 C14.39150391 -0.09111328 15.33574219 -0.09433594 16.30859375 -0.09765625 C17.62041626 -0.10551147 17.62041626 -0.10551147 18.95874023 -0.11352539 C21 0 21 0 22 1 C22.07320163 3.5327765 22.09227569 6.03103918 22.0625 8.5625 C22.041875 11.016875 22.02125 13.47125 22 16 C14.74 15.67 7.48 15.34 0 15 C0 10.05 0 5.1 0 0 Z "
     transform="translate(277,69)"
     style="fill: #E5E307;"
     id="path11084" />
  <path
     d="M0 0 C1.79244141 0.01353516 1.79244141 0.01353516 3.62109375 0.02734375 C6.53927834 0.05068923 9.45702776 0.08343344 12.375 0.125 C11.715 0.455 11.055 0.785 10.375 1.125 C10.045 1.785 9.715 2.445 9.375 3.125 C1.785 3.125 -5.805 3.125 -13.625 3.125 C-13.625 9.065 -13.625 15.005 -13.625 21.125 C-15.97625 21.681875 -15.97625 21.681875 -18.375 22.25 C-29.77563133 25.41115066 -38.34582982 30.73064137 -46.625 39.125 C-47.27339844 39.76308594 -47.92179688 40.40117188 -48.58984375 41.05859375 C-53.63544207 46.36916879 -56.60988068 52.49836413 -59.625 59.125 C-60.615 59.125 -61.605 59.125 -62.625 59.125 C-62.875 56.875 -62.875 56.875 -62.625 54.125 C-61.3419291 52.74323134 -59.99386951 51.42182374 -58.625 50.125 C-57.64001669 48.70562799 -56.68436952 47.2656905 -55.75 45.8125 C-48.98671482 35.48959105 -48.98671482 35.48959105 -44.90527344 33.13134766 C-41.04446941 30.88309361 -41.04446941 30.88309361 -38.98168945 27.0859375 C-38.74761816 24.70080978 -38.70385133 22.39588518 -38.75 20 C-38.7346728 18.39319886 -38.71655857 16.78642127 -38.6953125 15.1796875 C-38.70715576 14.11983643 -38.70715576 14.11983643 -38.71923828 13.03857422 C-38.625 11.125 -38.625 11.125 -37.625 8.125 C-34.81640625 6.58984375 -34.81640625 6.58984375 -31.1875 5.0625 C-30.01316406 4.55589844 -28.83882813 4.04929687 -27.62890625 3.52734375 C-18.52018464 0.12191352 -9.64193656 -0.13973821 0 0 Z M-36.625 11.125 C-36.625 16.405 -36.625 21.685 -36.625 27.125 C-35.53960937 26.64289063 -34.45421875 26.16078125 -33.3359375 25.6640625 C-31.89068748 25.02590015 -30.44537147 24.38788723 -29 23.75 C-28.28714844 23.43289062 -27.57429688 23.11578125 -26.83984375 22.7890625 C-25.78603516 22.325 -25.78603516 22.325 -24.7109375 21.8515625 C-24.0720459 21.56877441 -23.4331543 21.28598633 -22.77490234 20.99462891 C-20.10494086 19.91463767 -17.35731913 19.03577304 -14.625 18.125 C-14.625 13.505 -14.625 8.885 -14.625 4.125 C-22.92742711 4.125 -29.66086412 6.73456651 -36.625 11.125 Z "
     transform="translate(288.625,66.875)"
     style="fill: #7E7D6D;"
     id="path11086" />
  <path
     d="M0 0 C1.65 0.33 3.3 0.66 5 1 C5.27952904 8.12799053 4.40663207 15.00790921 3 22 C2 23 2 23 -1.11376953 23.15454102 C-4.99301231 23.00027787 -8.39679231 22.37693662 -12.1796875 21.52734375 C-21.81139199 19.56114938 -31.3268729 19.49635821 -41.125 19.5625 C-42.02364777 19.56421204 -42.92229553 19.56592407 -43.84817505 19.56768799 C-57.61753854 19.61271243 -70.59984758 20.69197558 -84 24 C-85.81028457 24.43420712 -87.62422946 24.85341845 -89.44140625 25.2578125 C-90.26455322 25.44746582 -91.0877002 25.63711914 -91.93579102 25.83251953 C-92.61697998 25.88778809 -93.29816895 25.94305664 -94 26 C-96.82440407 23.17559593 -97.00167614 19.98149113 -97.6875 16.1875 C-97.82994141 15.47529297 -97.97238281 14.76308594 -98.11914062 14.02929688 C-98.90484665 9.80368387 -98.86551027 7.32755133 -98 3 C-94.7 2.34 -91.4 1.68 -88 1 C-88 1.66 -88 2.32 -88 3 C-90.31 3.66 -92.62 4.32 -95 5 C-95.11251733 11.07593562 -94.69260358 16.96445452 -94 23 C-92.77925781 22.73445313 -91.55851563 22.46890625 -90.30078125 22.1953125 C-88.63806309 21.83834476 -86.97530022 21.48158529 -85.3125 21.125 C-84.51521484 20.95097656 -83.71792969 20.77695313 -82.89648438 20.59765625 C-80.26924166 20.03690089 -77.63709275 19.51241316 -75 19 C-74.07437256 18.81324707 -73.14874512 18.62649414 -72.19506836 18.43408203 C-62.73102094 16.73280047 -53.33211992 16.62772439 -43.74633789 16.62939453 C-40.9663246 16.6250451 -38.18793488 16.58867438 -35.40820312 16.55078125 C-22.82822664 16.47480966 -11.22685076 18.0760258 1 21 C0.99548828 19.74123047 0.99097656 18.48246094 0.98632812 17.18554688 C0.97463734 13.92381693 1.13943629 10.7450734 1.5 7.5 C1.5928125 6.6440625 1.685625 5.788125 1.78125 4.90625 C1.8534375 4.2771875 1.925625 3.648125 2 3 C1.01 2.505 1.01 2.505 0 2 C0 1.34 0 0.68 0 0 Z "
     transform="translate(332,187)"
     style="fill: #4E5746;"
     id="path11088" />
  <path
     d="M0 0 C0.33 0.66 0.66 1.32 1 2 C0.34 2.66 -0.32 3.32 -1 4 C-1.45632812 4.46148437 -1.91265625 4.92296875 -2.3828125 5.3984375 C-3.52402751 6.52862627 -4.68793368 7.63612278 -5.8671875 8.7265625 C-16.604195 18.87867465 -21.82180746 30.28598179 -23 45 C-22.8246875 46.16015625 -22.649375 47.3203125 -22.46875 48.515625 C-22.03336107 51.75201608 -22.14599334 53.1453295 -22.9296875 56.18359375 C-24.35102401 61.81041416 -24.21968627 67.29027906 -24.125 73.0625 C-24.11597656 74.11888672 -24.10695312 75.17527344 -24.09765625 76.26367188 C-24.0743167 78.84269253 -24.04157775 81.4212199 -24 84 C-29.22920151 76.15619773 -28.11757465 66.55713555 -27.375 57.5625 C-27.27654785 56.33273438 -27.1780957 55.10296875 -27.07666016 53.8359375 C-25.30263226 33.53405777 -22.23768256 17.8989217 -6 4 C-4.04325339 2.53452169 -2.09948661 1.25969196 0 0 Z "
     transform="translate(250,76)"
     style="fill: #93938A;"
     id="path11090" />
  <path
     d="M0 0 C1.8125 1.0625 1.8125 1.0625 3 3 C3.5 6.4375 3.5 6.4375 3 10 C0.75 12.4375 0.75 12.4375 -2 14 C-3.32 14 -4.64 14 -6 14 C-8.53637054 10.19544419 -8.59473663 7.46052469 -8 3 C-5.99552859 -0.37595184 -3.7543224 -0.56314836 0 0 Z "
     transform="translate(457,194)"
     style="fill: #52574C;"
     id="path11092" />
  <path
     d="M0 0 C0.66 0 1.32 0 2 0 C2 5.94 2 11.88 2 18 C2.66 18.33 3.32 18.66 4 19 C-5.24 19 -14.48 19 -24 19 C-24.33 13.06 -24.66 7.12 -25 1 C-24.01 1.33 -23.02 1.66 -22 2 C-22 6.62 -22 11.24 -22 16 C-20.57945312 15.98839844 -19.15890625 15.97679688 -17.6953125 15.96484375 C-15.83854298 15.95546613 -13.98177204 15.9463659 -12.125 15.9375 C-11.18785156 15.92912109 -10.25070312 15.92074219 -9.28515625 15.91210938 C-7.94130859 15.90727539 -7.94130859 15.90727539 -6.5703125 15.90234375 C-5.32918701 15.89448853 -5.32918701 15.89448853 -4.06298828 15.88647461 C-2 16 -2 16 0 17 C0 11.39 0 5.78 0 0 Z "
     transform="translate(299,68)"
     style="fill: #71705D;"
     id="path11094" />
  <path
     d="M0 0 C0.66 0 1.32 0 2 0 C2.01458252 0.55985596 2.02916504 1.11971191 2.04418945 1.6965332 C2.11871352 4.23588137 2.21535581 6.77392078 2.3125 9.3125 C2.33505859 10.19357422 2.35761719 11.07464844 2.38085938 11.98242188 C2.4340332 13.25375977 2.4340332 13.25375977 2.48828125 14.55078125 C2.51446533 15.33106689 2.54064941 16.11135254 2.56762695 16.9152832 C3.0931671 19.44921166 4.0408526 20.36927777 6 22 C0.45446945 21.30007867 -4.00146847 18.56620012 -8.85351562 15.97070312 C-13.51581217 13.54809353 -17.85703445 12.10000719 -23 11 C-20 9 -20 9 -17.2421875 9.18359375 C-11.46757942 10.63768181 -6.35686056 13.4308934 -1 16 C-0.67 10.72 -0.34 5.44 0 0 Z "
     transform="translate(323,77)"
     style="fill: #88875F;"
     id="path11096" />
  <path
     d="M0 0 C0 5.28 0 10.56 0 16 C-0.66 16.33 -1.32 16.66 -2 17 C-2.7425 16.236875 -3.485 15.47375 -4.25 14.6875 C-6.43390862 12.55322567 -8.5464828 10.78771232 -11 9 C-9.71142987 7.68445979 -8.41904109 6.37265903 -7.125 5.0625 C-6.04605469 3.96615234 -6.04605469 3.96615234 -4.9453125 2.84765625 C-1.94714588 0 -1.94714588 0 0 0 Z "
     transform="translate(250,80)"
     style="fill: #EDEB05;"
     id="path11098" />
  <path
     d="M0 0 C0.99 0.33 1.98 0.66 3 1 C2.03900391 1.8353125 2.03900391 1.8353125 1.05859375 2.6875 C-8.44451159 11.07175986 -14.71744332 18.38998532 -20 30 C-20.99 30 -21.98 30 -23 30 C-23.25 27.75 -23.25 27.75 -23 25 C-21.7169291 23.61823134 -20.36886951 22.29682374 -19 21 C-18.01501669 19.58062799 -17.05936952 18.1406905 -16.125 16.6875 C-11.63088302 9.8280583 -7.0845933 4.2774903 0 0 Z "
     transform="translate(249,96)"
     style="fill: #A3A380;"
     id="path11100" />
  <path
     d="M0 0 C1.92185711 2.88278567 2.96706172 5.40104359 4.1875 8.625 C7.9319798 17.72814885 13.91827281 24.30572293 21 31 C20.01 31.66 19.02 32.32 18 33 C18 32.34 18 31.68 18 31 C17.41863281 30.75765625 16.83726562 30.5153125 16.23828125 30.265625 C7.98401749 25.59829261 2.128113 13.68448998 -1 5 C-0.68359375 2.08203125 -0.68359375 2.08203125 0 0 Z "
     transform="translate(226,157)"
     style="fill: #959B80;"
     id="path11102" />
  <path
     d="M0 0 C1.32 0 2.64 0 4 0 C4 5.94 4 11.88 4 18 C2.39125 18.391875 0.7825 18.78375 -0.875 19.1875 C-5.96506082 20.5571412 -10.38028491 22.50386654 -15.00390625 25.01171875 C-17 26 -17 26 -19 26 C-18 23 -18 23 -15.59375 21.46484375 C-9.4003598 18.40724833 -3.82165685 16.13694281 3 15 C3 10.38 3 5.76 3 1 C2.01 0.67 1.02 0.34 0 0 Z "
     transform="translate(271,70)"
     style="fill: #A3A26E;"
     id="path11104" />
  <path
     d="M0 0 C1.15371094 0.00322266 2.30742187 0.00644531 3.49609375 0.00976562 C4.68589844 0.01814453 5.87570312 0.02652344 7.1015625 0.03515625 C8.92107422 0.04192383 8.92107422 0.04192383 10.77734375 0.04882812 C13.76046757 0.06057271 16.74348929 0.07699785 19.7265625 0.09765625 C19.0665625 0.42765625 18.4065625 0.75765625 17.7265625 1.09765625 C17.3965625 1.75765625 17.0665625 2.41765625 16.7265625 3.09765625 C16.04142578 3.09241943 15.35628906 3.08718262 14.65039062 3.08178711 C11.50912413 3.0608418 8.36787239 3.04794065 5.2265625 3.03515625 C3.61007812 3.02258789 3.61007812 3.02258789 1.9609375 3.00976562 C-3.88672132 2.9919374 -9.49207421 3.20659662 -15.2734375 4.09765625 C-11.54165513 -0.67073234 -5.59760397 -0.02771091 0 0 Z "
     transform="translate(281.2734375,66.90234375)"
     style="fill: #8F8F8E;"
     id="path11106" />
  <path
     d="M0 0 C3.53571429 0.53571429 3.53571429 0.53571429 5 2 C5.30392154 4.88725465 5.41849029 6.42208484 3.6875 8.8125 C2 10 2 10 -1 10 C-2.38125018 7.23749964 -2.19079306 5.05268901 -2 2 C-1.34 1.34 -0.68 0.68 0 0 Z "
     transform="translate(453,196)"
     style="fill: #F3F3F3;"
     id="path11108" />
  <path
     d="M0 0 C-1.82093982 5.46281945 -7.98345128 8.54668231 -12.93164062 11.16503906 C-18.36563446 13.35864847 -24.29822888 12.64683958 -30 12 C-30 11.67 -30 11.34 -30 11 C-29.27296875 11.00902344 -28.5459375 11.01804688 -27.796875 11.02734375 C-18.10014739 10.7414146 -11.3588828 7.17011654 -3.78125 1.2734375 C-2 0 -2 0 0 0 Z "
     transform="translate(331,187)"
     style="fill: #9B9B91;"
     id="path11110" />
  <path
     d="M0 0 C4.3740826 1.13402141 8.30693369 2.93136832 12.375 4.875 C12.375 5.205 12.375 5.535 12.375 5.875 C6.18259538 5.18695504 0.35544406 3.59451285 -5.625 1.875 C-2.625 -0.125 -2.625 -0.125 0 0 Z "
     transform="translate(305.625,86.125)"
     style="fill: #A2A17D;"
     id="path11112" />
  <path
     d="M0 0 C0.66 0.33 1.32 0.66 2 1 C0.54234835 2.62561151 -0.91614386 4.25046934 -2.375 5.875 C-3.18710937 6.77992188 -3.99921875 7.68484375 -4.8359375 8.6171875 C-6.19076205 10.10896183 -7.57505435 11.57505435 -9 13 C-9.33 12.01 -9.66 11.02 -10 10 C-8.7121669 8.51749445 -7.41960936 7.03909182 -6.125 5.5625 C-5.40570313 4.73878906 -4.68640625 3.91507813 -3.9453125 3.06640625 C-2 1 -2 1 0 0 Z "
     transform="translate(340,176)"
     style="fill: #8F9680;"
     id="path11114" />
  <path
     d="M0 0 C4.2742558 1.5830577 6.26531794 4.50568404 9 8 C8.01 8.33 7.02 8.66 6 9 C6 8.34 6 7.68 6 7 C5.38125 6.773125 4.7625 6.54625 4.125 6.3125 C1.38589791 4.62070165 0.94975528 3.00755839 0 0 Z "
     transform="translate(238,181)"
     style="fill: #9BA17B;"
     id="path11116" />
  <path
     d="M0 0 C4.51617599 -0.07654536 8.59085217 -0.10228696 13 1 C9.54785147 3.30143236 8.76520676 3.13833854 4.8125 2.625 C3.46091797 2.45871094 3.46091797 2.45871094 2.08203125 2.2890625 C1.39496094 2.19367188 0.70789063 2.09828125 0 2 C0 1.34 0 0.68 0 0 Z "
     transform="translate(305,204)"
     style="fill: #595C56;"
     id="path11118" />
  <path
     d="M0 0 C2.475 0.495 2.475 0.495 5 1 C5.1953125 7.0546875 5.1953125 7.0546875 5 9 C4.34 9.66 3.68 10.32 3 11 C2.8046875 8.94921875 2.609375 6.8984375 2.4140625 4.84765625 C2.27742188 4.23792969 2.14078125 3.62820312 2 3 C1.34 2.67 0.68 2.34 0 2 C0 1.34 0 0.68 0 0 Z "
     transform="translate(332,187)"
     style="fill: #4D5349;"
     id="path11120" />
  <path
     d="M0 0 C0 0.66 0 1.32 0 2 C-8.03571429 4.27678571 -8.03571429 4.27678571 -12 3 C-7.87960164 0.25306776 -4.92304458 0 0 0 Z "
     transform="translate(261,206)"
     style="fill: #4D5347;"
     id="path11122" />
  <path
     d="M0 0 C0 0.66 0 1.32 0 2 C-0.78375 2.226875 -1.5675 2.45375 -2.375 2.6875 C-5.21875 3.78125 -5.21875 3.78125 -6.3125 6.625 C-6.539375 7.40875 -6.76625 8.1925 -7 9 C-7.33 9 -7.66 9 -8 9 C-8.36190476 3.57142857 -8.36190476 3.57142857 -6.8125 1.125 C-4.43963721 -0.34781139 -2.74086056 -0.22223194 0 0 Z "
     transform="translate(457,194)"
     style="fill: #49543F;"
     id="path11124" />
  <path
     d="M0 0 C-3.2837938 2.48772258 -4.61198583 3.03180444 -8.8125 2.6875 C-9.864375 2.460625 -10.91625 2.23375 -12 2 C-12 1.67 -12 1.34 -12 1 C-10.37681021 0.63762737 -8.7513642 0.28534843 -7.125 -0.0625 C-6.22007812 -0.25972656 -5.31515625 -0.45695313 -4.3828125 -0.66015625 C-2 -1 -2 -1 0 0 Z "
     transform="translate(250,209)"
     style="fill: #5A6153;"
     id="path11126" />
  <path
     d="M0 0 C2.49388574 4.98777148 1.88836125 6.66983248 1 12 C0.34 11.67 -0.32 11.34 -1 11 C-0.67 7.37 -0.34 3.74 0 0 Z "
     transform="translate(334,194)"
     style="fill: #636760;"
     id="path11128" />
  <path
     d="M0 0 C4.46839215 -0.21278058 7.82262526 0.40861915 12 2 C12 2.33 12 2.66 12 3 C7.45194365 3.17835515 4.1205746 2.99785435 0 1 C0 0.67 0 0.34 0 0 Z "
     transform="translate(291,84)"
     style="fill: #989881;"
     id="path11130" />
  <path
     d="M0 0 C-0.33 1.98 -0.66 3.96 -1 6 C-1.99 6 -2.98 6 -4 6 C-4 4.35 -4 2.7 -4 1 C-2 0 -2 0 0 0 Z "
     transform="translate(230,120)"
     style="fill: #ACAB7A;"
     id="path11132" />
</svg>
