<?xml version="1.0" encoding="UTF-8" standalone="no"?>
<svg
   id="svg"
   version="1.1"
   viewBox="0 0 504 504"
   style="display: block;"
   sodipodi:docname="top-nav-bar-post-spot.svg"
   inkscape:version="1.2.2 (b0a8486, 2022-12-01)"
   xmlns:inkscape="http://www.inkscape.org/namespaces/inkscape"
   xmlns:sodipodi="http://sodipodi.sourceforge.net/DTD/sodipodi-0.dtd"
   xmlns="http://www.w3.org/2000/svg"
   xmlns:svg="http://www.w3.org/2000/svg">
  <defs
     id="defs617" />
  <sodipodi:namedview
     id="namedview615"
     pagecolor="#ffffff"
     bordercolor="#000000"
     borderopacity="0.25"
     inkscape:showpageshadow="2"
     inkscape:pageopacity="0.0"
     inkscape:pagecheckerboard="0"
     inkscape:deskcolor="#d1d1d1"
     showgrid="false"
     inkscape:zoom="1.7400794"
     inkscape:cx="195.96807"
     inkscape:cy="252"
     inkscape:window-width="1427"
     inkscape:window-height="1027"
     inkscape:window-x="0"
     inkscape:window-y="25"
     inkscape:window-maximized="0"
     inkscape:current-layer="svg" />
  <path
     d="M0 0 C1.0686731 -0.00241196 2.13734619 -0.00482391 3.23840332 -0.00730896 C5.49442257 -0.00633089 7.75046594 0.00705289 10.00634766 0.03198242 C13.45688518 0.06628829 16.90486113 0.05263832 20.35546875 0.03320312 C22.54949005 0.04010174 24.74350476 0.04977427 26.9375 0.0625 C28.48298523 0.0550602 28.48298523 0.0550602 30.05969238 0.04747009 C34.53669375 0.12097889 37.21437809 0.16802553 41.09570312 2.53930664 C44.03530751 5.81877404 44.30182933 8.17767981 44.26171875 12.58984375 C43.80620033 15.76025192 42.21559343 17.44814645 39.96875 19.62890625 C37.96875 20.62890625 37.96875 20.62890625 29.96875 20.62890625 C29.96875 28.87890625 29.96875 37.12890625 29.96875 45.62890625 C33.92875 46.28890625 37.88875 46.94890625 41.96875 47.62890625 C45.44657589 48.594969 48.81277566 49.59087466 52.21875 50.75390625 C53.11916016 51.0595752 54.01957031 51.36524414 54.94726562 51.68017578 C72.29344231 57.75010827 87.08659723 66.90219032 100.74487305 79.17504883 C103.8617211 82.05932822 103.8617211 82.05932822 107.96875 82.62890625 C110.55493137 80.40821913 110.55493137 80.40821913 113.15625 77.62890625 C114.50783203 76.23671875 114.50783203 76.23671875 115.88671875 74.81640625 C116.57378906 74.09453125 117.26085937 73.37265625 117.96875 72.62890625 C117.30875 71.96890625 116.64875 71.30890625 115.96875 70.62890625 C116.15625 67.12890625 116.15625 67.12890625 116.96875 63.62890625 C120.30071618 61.40759546 121.10668722 60.87185417 124.96875 61.62890625 C127.57137199 63.57931615 129.74333398 65.89059052 131.96875 68.25390625 C132.57203125 68.87136719 133.1753125 69.48882812 133.796875 70.125 C144.96875 81.66117527 144.96875 81.66117527 144.96875 85.62890625 C143.90625 88.31640625 143.90625 88.31640625 141.96875 90.62890625 C138.72256454 91.66492289 136.91483334 92.05894413 133.77734375 90.6328125 C133.18050781 90.30152344 132.58367187 89.97023438 131.96875 89.62890625 C131.50984375 90.09941406 131.0509375 90.56992188 130.578125 91.0546875 C124.48368849 97.23874808 124.48368849 97.23874808 120.96875 99.62890625 C121.88092767 103.88012971 123.96453983 107.23611846 126.15625 110.94140625 C144.42326955 142.76020755 148.71406336 179.91929647 139.32568359 215.31054688 C136.79649671 224.19017003 133.23317926 232.45449951 128.96875 240.62890625 C128.65534668 241.2336377 128.34194336 241.83836914 128.01904297 242.46142578 C123.55296424 250.95991724 118.32490773 258.406996 111.96875 265.62890625 C111.28296875 266.44746094 110.5971875 267.26601563 109.890625 268.109375 C87.24590031 294.4862858 54.32880908 309.62337061 19.96875 312.62890625 C-19.11940656 315.15048703 -53.93749769 301.58329099 -83.28125 276.19140625 C-92.56668499 267.60986714 -103.94310866 254.89333028 -108.03125 242.62890625 C-102.67572968 241.65023249 -97.29111895 240.84367159 -92.03125 242.62890625 C-87.42453117 246.27871709 -84.52662243 251.68868633 -81.40625 256.5859375 C-71.38029879 271.48245023 -54.06993202 281.48279175 -38.03125 288.62890625 C-36.44957031 289.35207031 -36.44957031 289.35207031 -34.8359375 290.08984375 C-6.93353079 301.86451666 26.34927225 300.92678912 54.33105469 290.04345703 C83.57381264 278.0496454 107.19957791 255.63645267 119.96875 226.62890625 C132.55172071 195.38552331 133.10031715 161.93165944 120.26879883 130.65917969 C113.91866035 115.99656081 105.06119449 104.01599379 93.96875 92.62890625 C93.411875 91.99855469 92.855 91.36820312 92.28125 90.71875 C74.8287593 71.49374072 45.20158658 60.17084997 19.80761719 58.40966797 C-14.42195563 57.16675276 -43.45144716 65.88179484 -70.03125 87.62890625 C-70.36125 87.95890625 -70.69125 88.28890625 -71.03125 88.62890625 C-72.44695123 88.71542236 -73.866845 88.73595529 -75.28515625 88.7265625 C-76.13916016 88.72333984 -76.99316406 88.72011719 -77.87304688 88.71679688 C-78.77087891 88.70841797 -79.66871094 88.70003906 -80.59375 88.69140625 C-81.49544922 88.68689453 -82.39714844 88.68238281 -83.32617188 88.67773438 C-85.56126314 88.6659085 -87.79622437 88.64942845 -90.03125 88.62890625 C-89.09434908 87.53073861 -88.15670073 86.43320863 -87.21875 85.3359375 C-86.69667969 84.72468018 -86.17460937 84.11342285 -85.63671875 83.48364258 C-66.50947285 61.38667069 -36.57471715 48.60198959 -8.03125 44.62890625 C-6.05125 44.62890625 -4.07125 44.62890625 -2.03125 44.62890625 C-2.03125 36.70890625 -2.03125 28.78890625 -2.03125 20.62890625 C-4.67125 20.62890625 -7.31125 20.62890625 -10.03125 20.62890625 C-14.40883112 18.28377351 -14.40883112 18.28377351 -16.03125 15.62890625 C-16.8253212 12.14413337 -16.99637904 9.07964693 -16.03125 5.62890625 C-11.6520533 -0.55155582 -6.96697188 -0.08965104 0 0 Z "
     transform="translate(272.03125,95.37109375)"
     style="fill: #909090;"
     id="path600" />
  <path
     d="M0 0 C4.49179476 1.02288396 6.12997656 2.25680639 8.89599609 5.88720703 C10.40489078 8.9049964 10.39625885 10.5104334 9.89599609 13.88720703 C8.52885331 15.9426032 6.97315423 17.62972239 5.26324463 19.41059875 C3.11018059 21.66312786 0.99568727 23.94675716 -1.10863876 26.24474812 C-10.62817406 36.63304055 -20.49382216 46.67380824 -30.40610886 56.68594074 C-33.45443675 59.76506595 -36.49410418 62.85182064 -39.515625 65.95727539 C-42.47498938 68.99852525 -45.45348347 72.01973751 -48.44660187 75.02776146 C-49.57461691 76.16798791 -50.69574938 77.31506832 -51.80956268 78.46917152 C-53.36180939 80.07486756 -54.93744275 81.65352587 -56.52099609 83.22827148 C-57.85236603 84.58176445 -57.85236603 84.58176445 -59.21063232 85.96260071 C-63.24798937 88.64816067 -65.31113617 88.46979863 -70.10400391 87.88720703 C-72.30264282 86.68389893 -72.30264282 86.68389893 -74.01269531 84.97021484 C-75.00550507 84.00613708 -75.00550507 84.00613708 -76.01837158 83.02258301 C-76.70663025 82.31790894 -77.39488892 81.61323486 -78.10400391 80.88720703 C-78.83754089 80.17512085 -79.57107788 79.46303467 -80.32684326 78.72937012 C-82.76235106 76.36130046 -85.16586278 73.96403008 -87.56494141 71.55908203 C-88.43672028 70.68825989 -89.30849915 69.81743774 -90.20669556 68.92022705 C-92.0348589 67.0927402 -93.8617761 65.26400597 -95.6875 63.43408203 C-98.48796066 60.62823304 -101.29376 57.82780167 -104.10009766 55.02783203 C-105.88036658 53.24690286 -107.66032558 51.46566382 -109.43994141 49.68408203 C-110.69923965 48.42782013 -110.69923965 48.42782013 -111.98397827 47.1461792 C-112.75883575 46.36816956 -113.53369324 45.59015991 -114.33203125 44.78857422 C-115.01405609 44.10575378 -115.69608093 43.42293335 -116.39877319 42.71942139 C-118.98664749 39.93883551 -120.06152021 38.34603093 -120.41650391 34.51220703 C-120.08392159 30.6542522 -119.50242053 28.88522781 -117.10400391 25.88720703 C-114.7022177 24.08586738 -112.83732882 23.84105173 -109.85400391 23.32470703 C-105.8850941 23.9200435 -105.16649418 24.37764662 -102.34228516 26.95581055 C-101.29306885 27.91114182 -101.29306885 27.91114182 -100.22265625 28.88577271 C-96.93942996 31.98734896 -93.72220098 35.14557393 -90.54150391 38.35205078 C-89.86474609 39.03022354 -89.18798828 39.7083963 -88.49072266 40.40711975 C-86.35942716 42.54395008 -84.23166173 44.68425526 -82.10400391 46.82470703 C-80.64720611 48.28652826 -79.19017689 49.7481189 -77.73291016 51.20947266 C-74.18726418 54.76606104 -70.64477652 58.3257672 -67.10400391 61.88720703 C-60.75545673 56.73533995 -55.13732535 50.92408127 -49.45320511 45.06705093 C-46.44027774 41.9689706 -43.40740394 38.89048772 -40.37744141 35.80908203 C-36.53797736 31.90354843 -32.70506335 27.99230939 -28.89697266 24.05615234 C-25.80273799 20.85892486 -22.68686497 17.68428195 -19.55533981 14.52358627 C-18.37112909 13.32029768 -17.19498953 12.10900813 -16.02739334 10.88959122 C-5.76605566 0.18692949 -5.76605566 0.18692949 0 0 Z "
     transform="translate(346.10400390625,212.11279296875)"
     style="fill: #909090;"
     id="path602" />
  <path
     d="M0 0 C0.83975876 -0.00426498 1.67951752 -0.00852997 2.54472351 -0.01292419 C3.46272736 -0.01247101 4.3807312 -0.01201782 5.32655334 -0.0115509 C6.29592331 -0.01490952 7.26529327 -0.01826813 8.26403809 -0.02172852 C11.47507501 -0.03124364 14.68605983 -0.03318186 17.89710999 -0.03425598 C20.12526471 -0.03746796 22.35341921 -0.04083199 24.58157349 -0.04434204 C29.25470977 -0.05033457 33.92782755 -0.05218179 38.60096741 -0.05158997 C44.59453853 -0.05148829 50.58799133 -0.06514576 56.58153439 -0.08236217 C61.18398587 -0.0934697 65.78640863 -0.09550956 70.38887215 -0.09498024 C72.59890209 -0.09616204 74.80893273 -0.10059495 77.01894951 -0.10831261 C80.10724604 -0.11808807 83.19528408 -0.11524415 86.28358459 -0.10920715 C87.65755402 -0.11763641 87.65755402 -0.11763641 89.0592804 -0.12623596 C89.90185898 -0.12204147 90.74443756 -0.11784698 91.61254883 -0.11352539 C92.70732497 -0.11434254 92.70732497 -0.11434254 93.8242178 -0.1151762 C96.25277643 0.18031495 97.80267095 0.83041354 99.86976624 2.13371277 C102.34318889 5.84384675 102.25480109 7.74431539 101.86976624 12.13371277 C100.10961493 15.31874847 99.37085707 15.96668249 95.86976624 17.13371277 C94.48513746 17.23188146 93.09636234 17.27709736 91.70829773 17.28761292 C90.86156998 17.29621338 90.01484222 17.30481384 89.14245605 17.31367493 C88.21667252 17.31793488 87.29088898 17.32219482 86.33705139 17.32658386 C85.35953415 17.33476135 84.38201691 17.34293884 83.37487793 17.35136414 C80.13620111 17.37620176 76.897568 17.392728 73.65882874 17.40715027 C72.0008835 17.41513578 72.0008835 17.41513578 70.30944443 17.42328262 C64.46172021 17.45000418 58.61401729 17.46938428 52.76625061 17.48381042 C46.72101107 17.50047658 40.67631474 17.54527413 34.6312809 17.59618187 C29.98675392 17.62979893 25.34235694 17.64138166 20.69771957 17.64703751 C18.46894035 17.65376281 16.24017005 17.66901784 14.01150894 17.69292831 C10.89430836 17.72446961 7.77858773 17.72463314 4.66127014 17.71720886 C3.73953506 17.7336142 2.81779999 17.75001953 1.86813354 17.766922 C-2.60333812 17.72328371 -4.53596077 17.58004888 -8.21095276 14.81990051 C-10.71359437 11.31725281 -10.7440234 9.35351654 -10.13023376 5.13371277 C-7.6710031 0.68367633 -4.86733804 0.0111819 0 0 Z "
     transform="translate(109.13023376464844,224.8662872314453)"
     style="fill: #909090;"
     id="path604" />
  <path
     d="M0 0 C1.4813443 -0.01292336 1.4813443 -0.01292336 2.99261475 -0.02610779 C6.25315649 -0.04878866 9.5128403 -0.04202513 12.7734375 -0.03295898 C15.04118099 -0.03819335 17.30892229 -0.04446915 19.57666016 -0.05174255 C24.32790375 -0.06215052 29.07884791 -0.05757897 33.83007812 -0.04296875 C39.92020003 -0.02577479 46.00937905 -0.04928259 52.09939575 -0.08445835 C56.78172056 -0.10641215 61.46381902 -0.10499578 66.1461792 -0.09669304 C68.39167312 -0.09587253 70.6371835 -0.10275481 72.88262939 -0.11746407 C76.02130218 -0.13487332 79.15827097 -0.12039674 82.296875 -0.09765625 C83.22481873 -0.10934845 84.15276245 -0.12104065 85.10882568 -0.13308716 C89.61291944 -0.06665143 91.54754579 0.0746798 95.22900391 2.88539124 C97.1484375 5.53344727 97.1484375 5.53344727 97.7109375 8.53344727 C96.99054417 12.37554501 96.09959458 13.95118482 93.1484375 16.53344727 C87.39529169 17.54088007 81.7349406 17.68663875 75.90600586 17.69458008 C75.0187532 17.69954498 74.13150055 17.70450989 73.21736145 17.70962524 C70.30765994 17.72412798 67.39801282 17.73102656 64.48828125 17.73657227 C63.48935915 17.73939964 62.49043705 17.74222702 61.46124458 17.74514008 C56.18176131 17.76007946 50.90230503 17.76934383 45.62280273 17.77368164 C40.18002332 17.77917868 34.7374925 17.80324769 29.29479122 17.83165359 C25.09712501 17.85029515 20.89951876 17.85548624 16.70181465 17.85701752 C14.69521275 17.86003783 12.68861174 17.86804531 10.6820507 17.8812027 C7.87499943 17.89830545 5.06855721 17.89637335 2.26147461 17.88989258 C1.43894196 17.89910736 0.6164093 17.90832214 -0.23104858 17.91781616 C-5.49279812 17.87986632 -9.18939405 17.03004685 -13.8515625 14.53344727 C-15.41856692 11.39943842 -15.70320811 7.90189631 -14.8515625 4.53344727 C-10.41325048 -0.31943741 -6.15400785 -0.04327882 0 0 Z "
     transform="translate(113.8515625,283.466552734375)"
     style="fill: #909090;"
     id="path606" />
  <path
     d="M0 0 C1.07680527 -0.00700928 2.15361053 -0.01401855 3.26304626 -0.02124023 C6.82601635 -0.0388598 10.38819357 -0.02718275 13.95117188 -0.01367188 C16.42452141 -0.01636563 18.89786992 -0.02024708 21.37121582 -0.02526855 C26.55633623 -0.031169 31.74118113 -0.02258265 36.92626953 -0.00390625 C43.57809143 0.01888337 50.22899875 0.00576344 56.88083649 -0.01819611 C61.98859536 -0.03263902 67.09620078 -0.02805491 72.20396423 -0.01768494 C74.65681535 -0.01501351 77.10968032 -0.01830196 79.56251526 -0.02760315 C82.98866772 -0.03774345 86.41376968 -0.02230144 89.83984375 0 C90.85711044 -0.00809692 91.87437714 -0.01619385 92.92247009 -0.02453613 C99.75590147 0.05801415 99.75590147 0.05801415 103.04602051 2.33508301 C105.10790152 5.61046023 105.01784504 7.73073139 104.41992188 11.51757812 C102.38941478 14.42714046 100.77969623 16.23469354 97.21497917 16.97628975 C94.40468455 17.16340154 91.63454994 17.18147029 88.81811523 17.14868164 C87.75091751 17.15583694 86.68371979 17.16299225 85.58418274 17.17036438 C82.05894077 17.18726412 78.53496801 17.16784114 75.00976562 17.14648438 C72.56026606 17.14731289 70.11076655 17.14977159 67.66127014 17.15379333 C62.5291367 17.15665215 57.39743949 17.14193995 52.26538086 17.11450195 C45.68202119 17.08040183 39.09944075 17.08644299 32.51604366 17.10516453 C27.45888252 17.11572437 22.40190322 17.10680609 17.34475899 17.09177971 C14.91703392 17.08659123 12.48928991 17.08708772 10.06156731 17.09332466 C6.67140617 17.09876505 3.28236731 17.0784384 -0.10766602 17.05102539 C-1.11401093 17.05755127 -2.12035583 17.06407715 -3.15719604 17.07080078 C-9.94865558 16.97725797 -9.94865558 16.97725797 -13.20140076 14.60923767 C-14.68895137 12.35240114 -15.12196175 11.19812986 -15.08007812 8.51757812 C-15.09554687 7.52757812 -15.09554687 7.52757812 -15.11132812 6.51757812 C-13.11863154 -0.98433844 -6.33922578 -0.050457 0 0 Z "
     transform="translate(89.580078125,254.482421875)"
     style="fill: #909090;"
     id="path608" />
  <path
     d="M0 0 C0.84082123 -0.0049649 1.68164246 -0.00992981 2.54794312 -0.01504517 C5.337553 -0.02968429 8.12710601 -0.03647203 10.91674805 -0.04199219 C12.85247296 -0.04774262 14.78819786 -0.05350037 16.72392273 -0.05926514 C20.78681708 -0.0697804 24.84969161 -0.07561948 28.91259766 -0.07910156 C34.11809972 -0.08458446 39.32333998 -0.10860593 44.52875996 -0.13707352 C48.52905542 -0.15570082 52.52928786 -0.16090557 56.52962303 -0.16243744 C58.44856382 -0.16546477 60.36750347 -0.17349602 62.28640175 -0.18662262 C64.97238671 -0.20368345 67.65773279 -0.2018027 70.34375 -0.1953125 C71.13614578 -0.20452728 71.92854156 -0.21374207 72.74494934 -0.22323608 C77.29001644 -0.18884522 80.26311394 0.31642036 83.8659668 3.16113281 C85.43532273 6.29984469 85.21797783 8.69969103 84.8659668 12.16113281 C82.09735334 15.91338718 80.60501694 17.04509285 75.95079041 17.77586365 C74.39521714 17.79634548 72.83913118 17.78939075 71.28369141 17.76049805 C70.43107224 17.76444077 69.57845306 17.76838348 68.69999695 17.77244568 C65.88883224 17.7791448 63.07930078 17.7500188 60.26831055 17.71972656 C58.3120607 17.71547526 56.3558058 17.71314775 54.39955139 17.71266174 C50.30308107 17.70649948 46.20715822 17.68381341 42.11083984 17.64819336 C36.85937296 17.60289138 31.60840141 17.58816561 26.35675716 17.58445644 C22.31872165 17.58002837 18.28079013 17.56472588 14.24279976 17.54557991 C12.30630918 17.53669985 10.36980752 17.52996881 8.43330193 17.52541924 C5.72829402 17.51637836 3.02373417 17.49398957 0.31884766 17.4675293 C-0.48178101 17.46686462 -1.28240967 17.46619995 -2.1072998 17.46551514 C-9.11411313 17.37090011 -9.11411313 17.37090011 -12.1340332 15.16113281 C-14.61442227 11.44054921 -14.59740523 9.56316711 -14.1340332 5.16113281 C-9.99419205 -0.08266599 -6.30727443 0.00883021 0 0 Z "
     transform="translate(145.134033203125,312.8388671875)"
     style="fill: #909090;"
     id="path610" />
  <path
     d="M0 0 C0.86076645 -0.0071553 1.7215329 -0.01431061 2.60838318 -0.02168274 C5.44714809 -0.03855974 8.28433153 -0.01917338 11.12304688 0.00219727 C13.09932587 0.00136847 15.0756048 -0.00109129 17.05187988 -0.00511169 C21.19121074 -0.00796901 25.3300003 0.00672521 29.46923828 0.03417969 C34.77237393 0.06826219 40.07454172 0.06224354 45.37772369 0.04351711 C49.45786592 0.03294338 53.53778333 0.04188838 57.61790466 0.05690193 C59.57310824 0.06208145 61.52833531 0.06160474 63.48353577 0.05535698 C66.2174011 0.0499003 68.94988578 0.07029406 71.68359375 0.09765625 C72.48997787 0.09113037 73.296362 0.08460449 74.12718201 0.07788086 C77.91024709 0.14219213 80.11974216 0.48993768 83.34362793 2.53944397 C85.34179688 4.63110352 85.34179688 4.63110352 85.97070312 6.63110352 C85.85738084 10.04410409 85.66249514 12.10996884 83.84179688 15.06860352 C78.55484618 18.3729477 71.3446091 17.78029405 65.26098633 17.77636719 C64.4973175 17.7797258 63.73364868 17.78308441 62.94683838 17.7865448 C60.44956796 17.79596141 57.95236514 17.7979926 55.45507812 17.79907227 C53.70729038 17.80228925 51.95950289 17.80565365 50.2117157 17.80915833 C46.56130346 17.81512481 42.91091482 17.81700058 39.26049805 17.81640625 C34.58657626 17.81630429 29.91280523 17.83000211 25.23891926 17.84717846 C21.63495692 17.85829735 18.03103119 17.86032556 14.42705345 17.85979652 C12.70349796 17.86097504 10.97994148 17.86538965 9.25640297 17.87312889 C6.84896845 17.8829348 4.44186375 17.88004939 2.03442383 17.87402344 C0.97217842 17.8824527 0.97217842 17.8824527 -0.11152649 17.89105225 C-5.02603405 17.85982058 -8.85705638 17.37014176 -12.47070312 13.88110352 C-14.08533329 10.82180426 -14.2160844 9.04812633 -13.65820312 5.63110352 C-9.73924457 0.40882021 -6.19143655 -0.08977299 0 0 Z "
     transform="translate(144.658203125,195.368896484375)"
     style="fill: #909090;"
     id="path612" />
</svg>
